<svg width="32" height="32" viewBox="0 0 32 32" fill="none" xmlns="http://www.w3.org/2000/svg">
<path d="M14.8163 7.00402C13.8882 7.00402 13.1325 7.75902 13.1325 8.68777C13.1325 9.61652 13.8875 10.3715 14.8163 10.3715C15.745 10.3715 16.5 9.61652 16.5 8.68777C16.5 7.75902 15.745 7.00402 14.8163 7.00402ZM14.8163 9.6209C14.3013 9.6209 13.8825 9.20215 13.8825 8.68715C13.8825 8.17215 14.3013 7.7534 14.8163 7.7534C15.3313 7.7534 15.75 8.17215 15.75 8.68715C15.75 9.20215 15.3313 9.6209 14.8163 9.6209ZM24.6675 15.5315V14.3484H24.9732C25.18 14.3484 25.3482 14.1803 25.3482 13.9734V12.8978H27.1563C27.3632 12.8978 27.5313 12.7296 27.5313 12.5228V11.0721C27.5313 10.8653 27.3632 10.6971 27.1563 10.6971H26.8038V9.62152C26.8038 9.45715 26.6969 9.31152 26.5394 9.2634L15.1913 5.75902V3.9359H16.4957C16.4984 4.03352 16.5391 4.12622 16.6091 4.19427C16.6792 4.26233 16.773 4.30036 16.8707 4.30027H19.8307C19.9732 4.30027 20.1032 4.21965 20.1663 4.09277C20.2294 3.96527 20.2157 3.8134 20.13 3.69965L19.6107 3.01152L20.13 2.3234C20.2157 2.20965 20.23 2.05777 20.1663 1.93027C20.1025 1.80277 19.9732 1.72277 19.8307 1.72277H18.2325C18.2298 1.62515 18.1891 1.53245 18.1191 1.4644C18.049 1.39634 17.9552 1.35831 17.8575 1.3584H15.1907V0.999023C15.1907 0.792148 15.0225 0.624023 14.8157 0.624023C14.6088 0.624023 14.4407 0.792148 14.4407 0.999023V5.75965L3.09254 9.26402C2.93567 9.31277 2.82817 9.45777 2.82817 9.62215V10.6978H2.47567C2.26879 10.6978 2.10067 10.8659 2.10067 11.0728V12.5234C2.10067 12.7303 2.26879 12.8984 2.47567 12.8984H4.28379V13.974C4.28379 14.1809 4.45192 14.349 4.65879 14.349H4.96442V21.3334H4.65879C4.45192 21.3334 4.28379 21.5015 4.28379 21.7084V22.784H3.20317C2.99629 22.784 2.82817 22.9521 2.82817 23.159V24.2346H1.74817C1.54129 24.2346 1.37317 24.4028 1.37317 24.6096V26.0603C1.37317 26.2671 1.54129 26.4353 1.74817 26.4353H15.1344C16.3563 29.3353 19.2275 31.3759 22.5669 31.3759C27.0119 31.3759 30.6275 27.7596 30.6275 23.3153C30.6275 19.5971 28.0969 16.4596 24.6682 15.5328L24.6675 15.5315ZM23.9175 15.3671C23.4782 15.2928 23.0269 15.2534 22.5663 15.2534C22.3932 15.2534 22.2213 15.2596 22.0507 15.2703V14.3484H23.9175V15.3671ZM13.2019 22.7834V22.0828H14.5994C14.5638 22.3134 14.5388 22.5465 14.5232 22.7834H13.2013H13.2019ZM8.63692 21.3328H8.33129V14.3484H8.63692C8.84379 14.3484 9.01192 14.1803 9.01192 13.9734V12.8978H12.4519V13.9734C12.4519 14.1803 12.62 14.3484 12.8269 14.3484H13.1325V21.3328H12.8269C12.62 21.3328 12.4519 21.5009 12.4519 21.7078V22.7834H9.01192V21.7078C9.01192 21.5009 8.84379 21.3328 8.63692 21.3328ZM16.43 13.5984H13.2019V12.8978H16.43V13.5984ZM14.7525 21.3328H13.8825V14.3484H15.7494V19.0171C15.2972 19.7317 14.9605 20.5132 14.7519 21.3328H14.7525ZM16.5 14.3484H16.8057C17.0125 14.3484 17.1807 14.1803 17.1807 13.9734V12.8978H20.6207V13.9734C20.6207 14.1803 20.7888 14.3484 20.9957 14.3484H21.3013V15.3528C19.3988 15.654 17.7157 16.6234 16.5 18.0128V14.3484ZM24.5988 13.5984H21.3707V12.8978H24.5988V13.5984ZM17.4832 2.10902C17.4859 2.20664 17.5266 2.29935 17.5966 2.3674C17.6667 2.43545 17.7605 2.47349 17.8582 2.4734H19.0782L18.8419 2.78652C18.7929 2.85166 18.7664 2.93096 18.7664 3.01246C18.7664 3.09396 18.7929 3.17326 18.8419 3.2384L19.0782 3.55152H17.2457C17.2429 3.4539 17.2022 3.3612 17.1322 3.29315C17.0622 3.22509 16.9683 3.18706 16.8707 3.18715H15.1913V2.10965H17.4832V2.10902ZM3.57817 9.89902L14.8157 6.4284L26.0532 9.89902V10.6978H3.57817V9.89902ZM2.85067 11.4478H26.7813V12.1484H2.85067V11.4478ZM8.26192 12.8984V13.599H5.03379V12.8984H8.26192ZM5.71442 14.349H7.58129V21.3334H5.71442V14.349ZM5.03379 22.0834H8.26192V22.784H5.03379V22.0834ZM3.57817 23.534H14.5088C14.515 23.7703 14.5319 24.0034 14.5588 24.2346H3.57817V23.534ZM2.12254 25.6846V24.984H14.68C14.73 25.2215 14.7907 25.4553 14.8613 25.6846H2.12317H2.12254ZM22.5663 30.6253C18.535 30.6253 15.2557 27.3459 15.2557 23.3146C15.2557 19.2834 18.535 16.004 22.5663 16.004C26.5975 16.004 29.8769 19.2834 29.8769 23.3146C29.8769 27.3459 26.5975 30.6253 22.5663 30.6253ZM28.6625 21.5703L22.7419 18.4265C22.6877 18.3979 22.6273 18.3829 22.566 18.3829C22.5047 18.3829 22.4443 18.3979 22.39 18.4265L16.4694 21.5703C16.3469 21.6353 16.27 21.7628 16.27 21.9015C16.27 22.0403 16.3469 22.1678 16.4694 22.2328L18.0669 23.0809V26.2909C18.0669 26.3667 18.0898 26.4408 18.1328 26.5033C18.1758 26.5658 18.2367 26.6138 18.3075 26.6409L22.4313 28.2215C22.4744 28.2384 22.52 28.2465 22.5657 28.2465C22.6113 28.2465 22.6569 28.2384 22.7 28.2215L26.8238 26.6409C26.8946 26.6137 26.9555 26.5657 26.9984 26.5033C27.0414 26.4408 27.0644 26.3667 27.0644 26.2909V23.0809L28.6619 22.2328C28.7844 22.1678 28.8613 22.0403 28.8613 21.9015C28.8613 21.7628 28.7844 21.6353 28.6619 21.5703H28.6625ZM26.315 26.0328L22.5663 27.4696L18.8175 26.0328V23.479L22.39 25.3765C22.445 25.4059 22.5057 25.4203 22.5657 25.4203C22.6257 25.4203 22.6863 25.4059 22.7413 25.3765L25.1569 24.0934V25.2959C25.1569 25.5028 25.325 25.6709 25.5319 25.6709C25.7388 25.6709 25.9069 25.5028 25.9069 25.2959V23.6953L26.3138 23.479V26.0328H26.315ZM26.5132 22.5246C26.5132 22.5246 26.5113 22.5259 26.5107 22.5259L25.3532 23.1409L22.7807 21.6028C22.6032 21.4965 22.3725 21.5546 22.2663 21.7321C22.16 21.9096 22.2182 22.1403 22.3957 22.2465L24.5794 23.5521L22.5669 24.6209L18.6232 22.5265C18.6232 22.5265 18.6213 22.5253 18.62 22.5246L17.4463 21.9015L22.5669 19.1821L27.6875 21.9015L26.5132 22.5253V22.5246Z" fill="#0267D9"/>
</svg>
