<svg width="30" height="30" viewBox="0 0 30 30" fill="none" xmlns="http://www.w3.org/2000/svg">
<path d="M13.89 6.56621C13.0199 6.56621 12.3115 7.27402 12.3115 8.14473C12.3115 9.01543 13.0193 9.72324 13.89 9.72324C14.7607 9.72324 15.4686 9.01543 15.4686 8.14473C15.4686 7.27402 14.7607 6.56621 13.89 6.56621ZM13.89 9.01953C13.4072 9.01953 13.0146 8.62695 13.0146 8.14414C13.0146 7.66133 13.4072 7.26875 13.89 7.26875C14.3729 7.26875 14.7654 7.66133 14.7654 8.14414C14.7654 8.62695 14.3729 9.01953 13.89 9.01953ZM23.1256 14.5607V13.4516H23.4121C23.6061 13.4516 23.7637 13.2939 23.7637 13.1V12.0916H25.4588C25.6527 12.0916 25.8104 11.934 25.8104 11.74V10.3801C25.8104 10.1861 25.6527 10.0285 25.4588 10.0285H25.1283V9.02012C25.1283 8.86601 25.0281 8.72949 24.8805 8.68437L14.2416 5.39902V3.68984H15.4645C15.467 3.78136 15.5052 3.86827 15.5708 3.93207C15.6365 3.99587 15.7245 4.03153 15.816 4.03145H18.591C18.7246 4.03145 18.8465 3.95586 18.9057 3.83691C18.9648 3.71738 18.952 3.575 18.8717 3.46836L18.3848 2.82324L18.8717 2.17812C18.952 2.07148 18.9654 1.9291 18.9057 1.80957C18.8459 1.69004 18.7246 1.61504 18.591 1.61504H17.0928C17.0902 1.52352 17.0521 1.43661 16.9864 1.37281C16.9207 1.30901 16.8328 1.27336 16.7412 1.27344H14.241V0.936523C14.241 0.742578 14.0834 0.584961 13.8895 0.584961C13.6955 0.584961 13.5379 0.742578 13.5379 0.936523V5.39961L2.89902 8.68496C2.75195 8.73066 2.65117 8.8666 2.65117 9.0207V10.0291H2.3207C2.12676 10.0291 1.96914 10.1867 1.96914 10.3807V11.7406C1.96914 11.9346 2.12676 12.0922 2.3207 12.0922H4.01582V13.1006C4.01582 13.2945 4.17344 13.4521 4.36738 13.4521H4.65391V20H4.36738C4.17344 20 4.01582 20.1576 4.01582 20.3516V21.36H3.00273C2.80879 21.36 2.65117 21.5176 2.65117 21.7115V22.7199H1.63867C1.44473 22.7199 1.28711 22.8775 1.28711 23.0715V24.4314C1.28711 24.6254 1.44473 24.783 1.63867 24.783H14.1883C15.3338 27.5018 18.0256 29.4148 21.1562 29.4148C25.3234 29.4148 28.7131 26.0246 28.7131 21.858C28.7131 18.3723 26.3406 15.4309 23.1262 14.5619L23.1256 14.5607ZM22.4225 14.4066C22.0105 14.3369 21.5875 14.3 21.1557 14.3C20.9934 14.3 20.8322 14.3059 20.6723 14.3158V13.4516H22.4225V14.4066ZM12.3766 21.3594V20.7025H13.6867C13.6533 20.9187 13.6299 21.1373 13.6152 21.3594H12.376H12.3766ZM8.09688 19.9994H7.81035V13.4516H8.09688C8.29082 13.4516 8.44844 13.2939 8.44844 13.1V12.0916H11.6734V13.1C11.6734 13.2939 11.8311 13.4516 12.025 13.4516H12.3115V19.9994H12.025C11.8311 19.9994 11.6734 20.157 11.6734 20.351V21.3594H8.44844V20.351C8.44844 20.157 8.29082 19.9994 8.09688 19.9994ZM15.4029 12.7484H12.3766V12.0916H15.4029V12.7484ZM13.8303 19.9994H13.0146V13.4516H14.7648V17.8285C14.3409 18.4984 14.0253 19.2311 13.8297 19.9994H13.8303ZM15.4686 13.4516H15.7551C15.949 13.4516 16.1066 13.2939 16.1066 13.1V12.0916H19.3316V13.1C19.3316 13.2939 19.4893 13.4516 19.6832 13.4516H19.9697V14.3932C18.1861 14.6756 16.6082 15.5844 15.4686 16.8869V13.4516ZM23.0611 12.7484H20.0348V12.0916H23.0611V12.7484ZM16.3902 1.97715C16.3928 2.06867 16.431 2.15557 16.4966 2.21938C16.5623 2.28318 16.6502 2.31883 16.7418 2.31875H17.8855L17.6641 2.6123C17.6181 2.67337 17.5933 2.74771 17.5933 2.82412C17.5933 2.90053 17.6181 2.97487 17.6641 3.03594L17.8855 3.32949H16.1676C16.165 3.23797 16.1269 3.15107 16.0612 3.08726C15.9955 3.02346 15.9076 2.98781 15.816 2.98789H14.2416V1.97773H16.3902V1.97715ZM3.3543 9.28027L13.8895 6.02656L24.4246 9.28027V10.0291H3.3543V9.28027ZM2.67227 10.7322H25.1072V11.3891H2.67227V10.7322ZM7.74531 12.0922V12.749H4.71895V12.0922H7.74531ZM5.35703 13.4521H7.10723V20H5.35703V13.4521ZM4.71895 20.7031H7.74531V21.36H4.71895V20.7031ZM3.3543 22.0631H13.6018C13.6076 22.2846 13.6234 22.5031 13.6486 22.7199H3.3543V22.0631ZM1.98965 24.0793V23.4225H13.7623C13.8092 23.6451 13.866 23.8643 13.9322 24.0793H1.99023H1.98965ZM21.1557 28.7111C17.3764 28.7111 14.302 25.6367 14.302 21.8574C14.302 18.0781 17.3764 15.0037 21.1557 15.0037C24.935 15.0037 28.0094 18.0781 28.0094 21.8574C28.0094 25.6367 24.935 28.7111 21.1557 28.7111ZM26.8709 20.2221L21.3203 17.2748C21.2695 17.248 21.2129 17.2339 21.1554 17.2339C21.0979 17.2339 21.0413 17.248 20.9904 17.2748L15.4398 20.2221C15.325 20.283 15.2529 20.4025 15.2529 20.5326C15.2529 20.6627 15.325 20.7822 15.4398 20.8432L16.9375 21.6383V24.6477C16.9374 24.7188 16.959 24.7882 16.9993 24.8468C17.0395 24.9054 17.0967 24.9504 17.1631 24.9758L21.0291 26.4576C21.0695 26.4734 21.1123 26.4811 21.1551 26.4811C21.1979 26.4811 21.2406 26.4734 21.2811 26.4576L25.1471 24.9758C25.2134 24.9503 25.2705 24.9053 25.3108 24.8467C25.3511 24.7882 25.3726 24.7187 25.3727 24.6477V21.6383L26.8703 20.8432C26.9852 20.7822 27.0572 20.6627 27.0572 20.5326C27.0572 20.4025 26.9852 20.283 26.8703 20.2221H26.8709ZM24.6701 24.4057L21.1557 25.7527L17.6412 24.4057V22.0115L20.9904 23.7904C21.042 23.818 21.0988 23.8314 21.1551 23.8314C21.2113 23.8314 21.2682 23.818 21.3197 23.7904L23.5844 22.5875V23.7148C23.5844 23.9088 23.742 24.0664 23.9359 24.0664C24.1299 24.0664 24.2875 23.9088 24.2875 23.7148V22.2143L24.6689 22.0115V24.4057H24.6701ZM24.8559 21.1168C24.8559 21.1168 24.8541 21.118 24.8535 21.118L23.7684 21.6945L21.3566 20.2525C21.1902 20.1529 20.974 20.2074 20.8744 20.3738C20.7748 20.5402 20.8293 20.7564 20.9957 20.8561L23.043 22.0801L21.1562 23.082L17.459 21.1186C17.459 21.1186 17.4572 21.1174 17.4561 21.1168L16.3557 20.5326L21.1562 17.9832L25.9568 20.5326L24.8559 21.1174V21.1168Z" fill="#DD2A2B"/>
</svg>
