<svg width="87" height="40" viewBox="0 0 87 40" fill="none" xmlns="http://www.w3.org/2000/svg">
<rect width="87" height="40" rx="6" fill="#E2FFE9"/>
<path d="M25.7168 20.0627C25.7789 22.0708 28.6872 22.0685 28.7509 20.0628C28.6875 18.0575 25.7792 18.0543 25.7168 20.0627Z" fill="#25C548"/>
<path d="M19.4825 22.5002L23.4884 18.9942C24.1115 18.483 23.7403 17.3937 22.9697 17.285C22.8341 17.2634 22.6954 17.2721 22.5636 17.3105C22.4318 17.3488 22.3101 17.4159 22.2073 17.5069L18.8575 20.4379L17.792 19.3692C17.6731 19.2532 17.5258 19.1706 17.3648 19.1297C17.2038 19.0889 17.0349 19.0913 16.8752 19.1366C16.7154 19.1819 16.5704 19.2686 16.4549 19.3879C16.3393 19.5072 16.2573 19.6549 16.2172 19.816C16.1798 19.971 16.1831 20.1331 16.2269 20.2864C16.2707 20.4397 16.3535 20.5791 16.4671 20.691L18.2326 22.4596C18.3975 22.6226 18.6178 22.7173 18.8496 22.7249C19.0813 22.7324 19.3074 22.6522 19.4825 22.5002Z" fill="#25C548"/>
<path d="M14.1851 21.2623C14.2459 21.1658 14.2808 21.0553 14.2863 20.9414C14.2917 20.8275 14.2676 20.7141 14.2163 20.6123L13.3664 18.9156C13.3095 18.806 13.2237 18.714 13.1181 18.6499C13.0126 18.5857 12.8915 18.5518 12.768 18.5518C12.6445 18.5518 12.5233 18.5857 12.4178 18.6498C12.3123 18.714 12.2264 18.8059 12.1696 18.9156L11.3228 20.6123C11.2727 20.7143 11.2492 20.8273 11.2547 20.9408C11.2601 21.0544 11.2942 21.1646 11.3538 21.2614C11.4135 21.3581 11.4966 21.4382 11.5956 21.4941C11.6945 21.55 11.806 21.5799 11.9197 21.581H13.6164C13.7306 21.5816 13.8431 21.5525 13.9428 21.4967C14.0425 21.4408 14.126 21.36 14.1851 21.2623Z" fill="#25C548"/>
<path d="M20.9845 26.2148C20.9296 26.12 20.8508 26.0412 20.756 25.9863C20.6611 25.9315 20.5535 25.9025 20.4439 25.9023H19.5565C19.447 25.9025 19.3394 25.9315 19.2445 25.9863C19.1496 26.0412 19.0708 26.12 19.016 26.2148L18.5722 26.9804C18.5185 27.0757 18.4902 27.1834 18.4902 27.2928C18.4902 27.4023 18.5185 27.5099 18.5722 27.6053L19.016 28.374C19.0708 28.4689 19.1496 28.5476 19.2445 28.6025C19.3394 28.6573 19.447 28.6863 19.5565 28.6865H20.4439C20.5535 28.6863 20.6611 28.6573 20.756 28.6025C20.8508 28.5476 20.9296 28.4689 20.9845 28.374L21.4282 27.6053C21.482 27.5099 21.5102 27.4023 21.5102 27.2928C21.5102 27.1834 21.482 27.0757 21.4282 26.9804L20.9845 26.2148Z" fill="#25C548"/>
<path d="M13.5424 17.5814C13.8898 16.6757 14.4241 15.8534 15.1106 15.168C15.797 14.4826 16.6202 13.9496 17.5265 13.6036C17.6033 13.5735 17.6652 13.5143 17.6985 13.4388C17.7319 13.3633 17.734 13.2776 17.7045 13.2005C17.6903 13.1619 17.6685 13.1265 17.6404 13.0964C17.6124 13.0663 17.5786 13.0421 17.541 13.0253C17.5035 13.0084 17.463 12.9992 17.4218 12.9981C17.3807 12.9971 17.3397 13.0043 17.3014 13.0193C16.3136 13.3978 15.4165 13.9799 14.6682 14.7276C13.92 15.4753 13.3373 16.372 12.9581 17.3596C12.9302 17.4367 12.9337 17.5217 12.968 17.5963C13.0022 17.6708 13.0644 17.7289 13.1411 17.758C13.2178 17.7871 13.3028 17.7849 13.3779 17.7519C13.453 17.7189 13.5121 17.6576 13.5424 17.5814Z" fill="#25C548"/>
<path d="M22.4817 13.6038C23.3871 13.9516 24.2092 14.4861 24.8945 15.1725C25.5798 15.8589 26.113 16.6818 26.4595 17.5878C26.4895 17.665 26.5489 17.7272 26.6247 17.7607C26.7005 17.7942 26.7864 17.7963 26.8638 17.7665C26.9411 17.7368 27.0035 17.6776 27.0372 17.6019C27.071 17.5262 27.0733 17.4402 27.0438 17.3628C26.6653 16.375 26.0833 15.4779 25.3355 14.7296C24.5878 13.9813 23.691 13.3987 22.7035 13.0194C22.6264 12.9917 22.5415 12.9953 22.467 13.0296C22.3926 13.0639 22.3346 13.126 22.3055 13.2026C22.2764 13.2792 22.2786 13.3642 22.3115 13.4392C22.3445 13.5142 22.4056 13.5733 22.4817 13.6038Z" fill="#25C548"/>
<path d="M20.8946 11.3135H19.1074C18.7622 11.3135 18.4824 11.5933 18.4824 11.9385V13.7257C18.4824 14.0708 18.7622 14.3507 19.1074 14.3507H20.8946C21.2398 14.3507 21.5196 14.0708 21.5196 13.7257V11.9385C21.5196 11.5933 21.2398 11.3135 20.8946 11.3135Z" fill="#25C548"/>
<path d="M17.5216 26.5233C16.616 26.1754 15.7937 25.6408 15.1081 24.9544C14.4225 24.268 13.889 23.445 13.5421 22.539C13.5275 22.5006 13.5054 22.4655 13.4772 22.4357C13.449 22.4059 13.4152 22.3819 13.3777 22.3651C13.3403 22.3484 13.2998 22.3392 13.2588 22.338C13.2178 22.3369 13.1769 22.3438 13.1386 22.3585C13.1002 22.3731 13.0651 22.3952 13.0353 22.4234C13.0055 22.4516 12.9815 22.4854 12.9647 22.5229C12.948 22.5603 12.9388 22.6008 12.9376 22.6418C12.9365 22.6828 12.9434 22.7237 12.9581 22.762C13.338 23.7696 13.9331 24.6822 14.702 25.4362C15.4708 26.1902 16.3948 26.7674 17.4096 27.1277C17.4819 27.1264 17.5516 27.1002 17.6067 27.0534C17.6619 27.0067 17.6993 26.9423 17.7125 26.8712C17.7256 26.8001 17.7138 26.7266 17.679 26.6632C17.6443 26.5998 17.5887 26.5504 17.5216 26.5233Z" fill="#25C548"/>
<path d="M26.8639 22.3627C26.8256 22.3479 26.7847 22.3409 26.7437 22.3419C26.7026 22.3429 26.6622 22.3521 26.6247 22.3688C26.5872 22.3855 26.5533 22.4094 26.5251 22.4392C26.4969 22.469 26.4748 22.5041 26.4601 22.5424C26.1122 23.448 25.5777 24.2703 24.8913 24.9558C24.2049 25.6414 23.3821 26.175 22.4761 26.5219C22.4089 26.5489 22.3531 26.5982 22.3182 26.6616C22.2833 26.725 22.2714 26.7985 22.2845 26.8697C22.2976 26.9409 22.3349 27.0054 22.3902 27.0522C22.4454 27.0989 22.5151 27.1252 22.5875 27.1264C23.6026 26.7674 24.5272 26.1913 25.2968 25.4383C26.0664 24.6852 26.6625 23.7734 27.0436 22.7664C27.0583 22.7281 27.0653 22.6873 27.0643 22.6463C27.0632 22.6052 27.0541 22.5648 27.0374 22.5273C27.0207 22.4898 26.9968 22.456 26.967 22.4278C26.9372 22.3995 26.9022 22.3774 26.8639 22.3627Z" fill="#25C548"/>
<path d="M35.9787 25.5H34.348L38.0121 15.3182H39.7869L43.451 25.5H41.8203L38.9418 17.1676H38.8622L35.9787 25.5ZM36.2521 21.5128H41.5419V22.8054H36.2521V21.5128ZM47.8956 25.6541C47.1565 25.6541 46.5201 25.4867 45.9865 25.152C45.4562 24.8139 45.0485 24.3482 44.7635 23.755C44.4785 23.1617 44.3359 22.4822 44.3359 21.7166C44.3359 20.9411 44.4818 20.2566 44.7734 19.6634C45.0651 19.0668 45.4761 18.6011 46.0064 18.2663C46.5367 17.9316 47.1615 17.7642 47.8807 17.7642C48.4607 17.7642 48.9777 17.8719 49.4318 18.0874C49.8859 18.2995 50.2521 18.5978 50.5305 18.9822C50.8123 19.3667 50.9796 19.8158 51.0327 20.3295H49.5859C49.5064 19.9716 49.3241 19.6634 49.0391 19.4048C48.7573 19.1463 48.3795 19.017 47.9055 19.017C47.4912 19.017 47.1283 19.1264 46.8168 19.3452C46.5085 19.5606 46.2682 19.8688 46.0959 20.2699C45.9235 20.6676 45.8374 21.1383 45.8374 21.6818C45.8374 22.2386 45.9219 22.7192 46.0909 23.1236C46.2599 23.5279 46.4986 23.8411 46.8068 24.0632C47.1184 24.2853 47.4846 24.3963 47.9055 24.3963C48.1873 24.3963 48.4425 24.3449 48.6712 24.2422C48.9032 24.1361 49.0971 23.9853 49.2528 23.7898C49.4119 23.5942 49.523 23.3589 49.5859 23.0838H51.0327C50.9796 23.5777 50.8189 24.0185 50.5504 24.4062C50.282 24.794 49.9223 25.099 49.4716 25.321C49.0241 25.5431 48.4988 25.6541 47.8956 25.6541ZM56.187 17.8636V19.0568H52.0158V17.8636H56.187ZM53.1344 16.0341H54.6209V23.2578C54.6209 23.5462 54.664 23.7633 54.7502 23.9091C54.8364 24.0516 54.9474 24.1494 55.0833 24.2024C55.2225 24.2521 55.3733 24.277 55.5357 24.277C55.655 24.277 55.7594 24.2687 55.8489 24.2521C55.9384 24.2356 56.008 24.2223 56.0577 24.2124L56.3262 25.4403C56.24 25.4735 56.1174 25.5066 55.9583 25.5398C55.7992 25.5762 55.6003 25.5961 55.3617 25.5994C54.9706 25.6061 54.606 25.5365 54.2679 25.3906C53.9299 25.2448 53.6564 25.0194 53.4476 24.7145C53.2388 24.4096 53.1344 24.0268 53.1344 23.5661V16.0341ZM57.8313 25.5V17.8636H59.3178V25.5H57.8313ZM58.582 16.6854C58.3235 16.6854 58.1014 16.5992 57.9158 16.4268C57.7335 16.2512 57.6424 16.0424 57.6424 15.8004C57.6424 15.5552 57.7335 15.3464 57.9158 15.174C58.1014 14.9983 58.3235 14.9105 58.582 14.9105C58.8406 14.9105 59.061 14.9983 59.2433 15.174C59.4289 15.3464 59.5217 15.5552 59.5217 15.8004C59.5217 16.0424 59.4289 16.2512 59.2433 16.4268C59.061 16.5992 58.8406 16.6854 58.582 16.6854ZM67.8503 17.8636L65.0811 25.5H63.4902L60.7161 17.8636H62.312L64.2459 23.7401H64.3255L66.2544 17.8636H67.8503ZM72.2788 25.6541C71.5264 25.6541 70.8784 25.4934 70.3349 25.1719C69.7946 24.8471 69.377 24.3913 69.082 23.8047C68.7904 23.2147 68.6445 22.5237 68.6445 21.7315C68.6445 20.9493 68.7904 20.2599 69.082 19.6634C69.377 19.0668 69.788 18.6011 70.315 18.2663C70.8453 17.9316 71.4651 17.7642 72.1744 17.7642C72.6052 17.7642 73.0228 17.8355 73.4272 17.978C73.8316 18.1205 74.1945 18.3442 74.516 18.6491C74.8375 18.9541 75.091 19.3501 75.2766 19.8374C75.4622 20.3213 75.555 20.9096 75.555 21.6023V22.1293H69.4847V21.0156H74.0984C74.0984 20.6245 74.0188 20.2782 73.8597 19.9766C73.7006 19.6716 73.4769 19.4313 73.1886 19.2557C72.9035 19.08 72.5688 18.9922 72.1843 18.9922C71.7667 18.9922 71.4021 19.0949 71.0906 19.3004C70.7823 19.5026 70.5437 19.7678 70.3746 20.0959C70.2089 20.4207 70.1261 20.7737 70.1261 21.1548V22.0249C70.1261 22.5353 70.2156 22.9695 70.3945 23.3274C70.5768 23.6854 70.8304 23.9588 71.1552 24.1477C71.48 24.3333 71.8595 24.4261 72.2937 24.4261C72.5754 24.4261 72.8323 24.3864 73.0643 24.3068C73.2963 24.224 73.4968 24.1013 73.6658 23.9389C73.8349 23.7765 73.9641 23.576 74.0536 23.3374L75.4606 23.5909C75.3479 24.0052 75.1457 24.3681 74.854 24.6797C74.5657 24.9879 74.2028 25.2282 73.7653 25.4006C73.3311 25.5696 72.8356 25.6541 72.2788 25.6541Z" fill="#08091D"/>
</svg>
