<svg width="24" height="24" viewBox="0 0 24 24" fill="none" xmlns="http://www.w3.org/2000/svg">
<g id="arrow-down 1" clip-path="url(#clip0_4239_418)">
<path id="Vector" d="M5.63602 16.9497C5.2455 17.3402 5.24549 17.9734 5.63602 18.3639C6.02656 18.7544 6.65972 18.7544 7.05024 18.3639L16.6568 8.75736L16.6568 16.2426C16.6569 16.7948 17.1046 17.2426 17.6568 17.2426C18.2091 17.2426 18.6569 16.7948 18.6568 16.2426L18.6568 6.34315C18.6568 5.79083 18.2091 5.34309 17.6568 5.34316L7.75734 5.34309C7.20509 5.34309 6.75735 5.79083 6.75735 6.34308C6.75735 6.89533 7.20509 7.34307 7.75734 7.34307L15.2426 7.34314L5.63602 16.9497Z" fill="#0267D9"/>
</g>
<defs>
<clipPath id="clip0_4239_418">
<rect width="24" height="24" fill="white"/>
</clipPath>
</defs>
</svg>
