<svg width="24" height="24" viewBox="0 0 24 24" fill="none" xmlns="http://www.w3.org/2000/svg">
<g id="arrow-down 1" clip-path="url(#clip0_4706_412)">
<path id="Vector" d="M5.63604 16.9497C5.24552 17.3402 5.2455 17.9734 5.63604 18.3639C6.02657 18.7544 6.65973 18.7544 7.05025 18.3639L16.6568 8.75736L16.6569 16.2426C16.6569 16.7948 17.1046 17.2426 17.6569 17.2426C18.2091 17.2426 18.6569 16.7948 18.6568 16.2426L18.6568 6.34315C18.6568 5.79083 18.2091 5.34309 17.6568 5.34316L7.75736 5.34309C7.20511 5.34309 6.75737 5.79083 6.75737 6.34308C6.75737 6.89533 7.20511 7.34307 7.75736 7.34307L15.2426 7.34314L5.63604 16.9497Z" fill="#F8FCFF"/>
</g>
<defs>
<clipPath id="clip0_4706_412">
<rect width="24" height="24" fill="white"/>
</clipPath>
</defs>
</svg>
