<svg width="28" height="28" viewBox="0 0 28 28" fill="none" xmlns="http://www.w3.org/2000/svg">
<path d="M14.0001 9.33377C13.8465 9.33288 13.6943 9.36231 13.5522 9.42037C13.41 9.47843 13.2807 9.56397 13.1717 9.6721L6.17172 16.6721C5.95203 16.8918 5.82861 17.1897 5.82861 17.5004C5.82861 17.8111 5.95203 18.1091 6.17172 18.3288C6.39141 18.5485 6.68937 18.6719 7.00005 18.6719C7.31074 18.6719 7.6087 18.5485 7.82839 18.3288L14.0001 12.1454L20.1717 18.3171C20.3949 18.5082 20.682 18.6081 20.9756 18.5968C21.2692 18.5854 21.5478 18.4637 21.7555 18.2559C21.9633 18.0481 22.085 17.7696 22.0964 17.476C22.1077 17.1824 22.0079 16.8953 21.8167 16.6721L14.8167 9.6721C14.5994 9.45657 14.3061 9.33506 14.0001 9.33377Z" fill="#0267D9"/>
</svg>
