<svg width="28" height="28" viewBox="0 0 28 28" fill="none" xmlns="http://www.w3.org/2000/svg">
<path d="M14 18.6662C13.8465 18.6671 13.6942 18.6377 13.5521 18.5796C13.41 18.5216 13.2807 18.436 13.1717 18.3279L6.17166 11.3279C5.95197 11.1082 5.82855 10.8103 5.82855 10.4996C5.82855 10.1889 5.95197 9.89092 6.17166 9.67123C6.39135 9.45154 6.68931 9.32812 6.99999 9.32812C7.31068 9.32812 7.60864 9.45154 7.82833 9.67123L14 15.8546L20.1717 9.6829C20.3948 9.49177 20.6819 9.39189 20.9756 9.40324C21.2692 9.41458 21.5477 9.5363 21.7555 9.74408C21.9633 9.95185 22.085 10.2304 22.0963 10.524C22.1077 10.8176 22.0078 11.1047 21.8167 11.3279L14.8167 18.3279C14.5994 18.5434 14.3061 18.6649 14 18.6662Z" fill="#0267D9"/>
</svg>
