<svg width="28" height="28" viewBox="0 0 28 28" fill="none" xmlns="http://www.w3.org/2000/svg">
<g id="Group">
<path id="Vector" d="M26.997 20.894L23.6964 17.5933C23.5564 17.4533 23.3103 17.4533 23.1703 17.5933L23.0007 17.7673L22.411 17.1776C23.8746 14.9461 23.6285 11.9127 21.6685 9.95274C19.4243 7.7085 15.7758 7.71274 13.5358 9.95274C12.4497 11.0388 11.8516 12.4855 11.8516 14.0212C11.8516 15.557 12.4497 17.0036 13.5358 18.0897C14.6558 19.2097 16.1322 19.7697 17.6043 19.7697C18.7031 19.7697 19.8061 19.4558 20.7607 18.8279L21.3546 19.4218L21.1849 19.5915C21.0407 19.7358 21.0407 19.9733 21.1849 20.1176L24.4855 23.4182C24.8207 23.7533 25.2703 23.94 25.7455 23.94C26.2207 23.94 26.6704 23.7533 27.0055 23.4182C27.3407 23.083 27.5273 22.6333 27.5273 22.1582C27.5188 21.6746 27.3364 21.2291 26.997 20.894ZM14.0619 17.5594C13.1158 16.6133 12.594 15.3576 12.594 14.017C12.594 12.6806 13.1158 11.4206 14.0619 10.4746C15.0376 9.4988 16.3231 9.01092 17.6043 9.01092C18.8855 9.01092 20.171 9.4988 21.1467 10.4746C23.0982 12.4261 23.0982 15.6036 21.1467 17.5594C19.191 19.5109 16.0134 19.5109 14.0619 17.5594ZM21.3546 18.3697C21.4607 18.2764 21.571 18.1873 21.6728 18.0855C21.7746 17.9836 21.8679 17.8776 21.957 17.7673L22.4788 18.2891L21.8764 18.8915L21.3546 18.3697ZM26.471 22.8879C26.0764 23.2824 25.3934 23.2782 24.9988 22.8879L21.9613 19.8503L22.131 19.6764L22.6952 19.1121L23.4291 18.3782L26.4667 21.4158C26.6619 21.6109 26.7722 21.874 26.7722 22.1497C26.7764 22.4297 26.6703 22.6927 26.471 22.8879Z" fill="#0267D9"/>
<path id="Vector_2" d="M17.6007 9.96121C16.5189 9.96121 15.5007 10.3812 14.7328 11.1491C13.9649 11.917 13.5449 12.9352 13.5449 14.017C13.5449 14.2206 13.7104 14.3903 13.9183 14.3903C14.1261 14.3903 14.2916 14.2248 14.2916 14.017C14.2916 13.1345 14.6352 12.303 15.2631 11.6752C15.8867 11.0473 16.7183 10.7036 17.6049 10.7036C17.8086 10.7036 17.9783 10.5382 17.9783 10.3303C17.974 10.1267 17.8086 9.96121 17.6007 9.96121Z" fill="#0267D9"/>
<path id="Vector_3" d="M20.3967 20.1515C20.1931 20.1515 20.0234 20.317 20.0234 20.5249V25.0303C20.0234 25.9933 19.2385 26.7824 18.2712 26.7824H2.96882C2.00579 26.7824 1.2167 25.9976 1.2167 25.0303V2.9697C1.2167 2.00667 2.00155 1.21758 2.96882 1.21758H6.45185V2.59637H2.96882C2.76518 2.60061 2.59973 2.76607 2.59973 2.9697V25.0303C2.59973 25.2339 2.76518 25.4036 2.97306 25.4036H18.2797C18.4834 25.4036 18.6531 25.2382 18.6531 25.0303V21.0636C18.6531 20.86 18.4876 20.6903 18.2797 20.6903C18.0719 20.6903 17.9064 20.8558 17.9064 21.0636V24.6612H3.34215V3.34304H6.45185V3.75031C6.45185 4.26789 6.87609 4.69213 7.39367 4.69213H13.8549C14.3725 4.69213 14.7967 4.26789 14.7967 3.75031V3.34304H17.9064V6.97031C17.9064 7.17395 18.0719 7.34364 18.2797 7.34364C18.4876 7.34364 18.6531 7.17819 18.6531 6.97031V2.9697C18.6531 2.76607 18.4876 2.59637 18.2797 2.59637H14.7967V1.22183H18.2797C19.2428 1.22183 20.0319 2.00667 20.0319 2.97395V7.51758C20.0319 7.72122 20.1973 7.89092 20.4052 7.89092C20.6131 7.89092 20.7785 7.72546 20.7785 7.51758V2.9697C20.7785 1.59516 19.6585 0.475159 18.284 0.475159H2.96882C1.59427 0.479401 0.478516 1.59516 0.478516 2.9697V25.0303C0.478516 26.4049 1.59852 27.5249 2.97306 27.5249H18.2797C19.6543 27.5249 20.7743 26.4049 20.7743 25.0303V20.5206C20.77 20.317 20.6003 20.1515 20.3967 20.1515ZM14.0543 3.75031C14.0543 3.86061 13.9652 3.9497 13.8549 3.9497H7.39367C7.28337 3.9497 7.19427 3.86061 7.19427 3.75031V1.22183H14.0543V3.75031Z" fill="#0267D9"/>
<path id="Vector_4" d="M8.81964 6.03273C8.81964 5.82909 8.65418 5.65939 8.4463 5.65939H4.6663C4.46267 5.65939 4.29297 5.82485 4.29297 6.03273V9.81273C4.29297 10.0164 4.45842 10.1861 4.6663 10.1861H8.4463C8.64994 10.1861 8.81964 10.0206 8.81964 9.81273V6.03273ZM8.07721 9.44364H5.03964V6.40606H8.07721V9.44364Z" fill="#0267D9"/>
<path id="Vector_5" d="M5.87584 8.81151C5.94796 8.88363 6.04129 8.92181 6.13887 8.92181C6.23644 8.92181 6.32978 8.88787 6.4019 8.81151L7.65341 7.55999C7.79766 7.41575 7.79766 7.17817 7.65341 7.03393C7.50917 6.88969 7.2716 6.88969 7.12735 7.03393L6.13887 8.02242L5.9819 7.86545C5.83766 7.72121 5.60008 7.72121 5.45584 7.86545C5.3116 8.00969 5.3116 8.24727 5.45584 8.39151L5.87584 8.81151Z" fill="#0267D9"/>
<path id="Vector_6" d="M16.5835 7.07637C16.5835 6.87273 16.4181 6.70303 16.2102 6.70303H10.012C9.80837 6.70303 9.63867 6.86849 9.63867 7.07637C9.63867 7.28425 9.80413 7.4497 10.012 7.4497H16.2102C16.4181 7.44546 16.5835 7.28 16.5835 7.07637Z" fill="#0267D9"/>
<path id="Vector_7" d="M12.9674 8.96425C12.9674 8.76061 12.8019 8.59091 12.594 8.59091H10.0061C9.80251 8.59091 9.63281 8.75637 9.63281 8.96425C9.63281 9.17212 9.80675 9.33334 10.0104 9.33334H12.5983C12.8019 9.33334 12.9674 9.16788 12.9674 8.96425Z" fill="#0267D9"/>
<path id="Vector_8" d="M8.81964 12.7867C8.81964 12.583 8.65418 12.4133 8.4463 12.4133H4.6663C4.46267 12.4133 4.29297 12.5788 4.29297 12.7867V16.5667C4.29297 16.7703 4.45842 16.94 4.6663 16.94H8.4463C8.64994 16.94 8.81964 16.7745 8.81964 16.5667V12.7867ZM8.07721 16.1933H5.03964V13.1558H8.07721V16.1933Z" fill="#0267D9"/>
<path id="Vector_9" d="M5.87584 15.5655C5.94372 15.6334 6.04129 15.6758 6.13887 15.6758C6.23644 15.6758 6.33402 15.6376 6.4019 15.5655L7.65341 14.314C7.79766 14.1697 7.79766 13.9321 7.65341 13.7879C7.50917 13.6437 7.2716 13.6437 7.12735 13.7879L6.13887 14.7764L5.9819 14.6194C5.83766 14.4752 5.60008 14.4752 5.45584 14.6194C5.3116 14.7637 5.3116 15.0012 5.45584 15.1455L5.87584 15.5655Z" fill="#0267D9"/>
<path id="Vector_10" d="M10.012 14.1952H10.5253C10.729 14.1952 10.8987 14.0297 10.8987 13.8218C10.8987 13.6139 10.7332 13.4485 10.5253 13.4485H10.012C9.80837 13.4485 9.63867 13.6139 9.63867 13.8218C9.63867 14.0297 9.80837 14.1952 10.012 14.1952Z" fill="#0267D9"/>
<path id="Vector_11" d="M10.729 15.3448H10.012C9.80837 15.3448 9.63867 15.5103 9.63867 15.7182C9.63867 15.9261 9.80413 16.0915 10.012 16.0915H10.729C10.9326 16.0915 11.1023 15.9261 11.1023 15.7182C11.1023 15.5103 10.9369 15.3448 10.729 15.3448Z" fill="#0267D9"/>
<path id="Vector_12" d="M8.4463 19.1673H4.6663C4.46267 19.1673 4.29297 19.3327 4.29297 19.5406V23.3206C4.29297 23.5242 4.45842 23.6939 4.6663 23.6939H8.4463C8.64994 23.6939 8.81964 23.5285 8.81964 23.3206V19.5406C8.81964 19.3327 8.65418 19.1673 8.4463 19.1673ZM8.07721 22.943H5.03964V19.9054H8.07721V22.943Z" fill="#0267D9"/>
<path id="Vector_13" d="M14.9375 20.2067H10.012C9.80837 20.2067 9.63867 20.3721 9.63867 20.58C9.63867 20.7879 9.80413 20.9533 10.012 20.9533H14.9375C15.1411 20.9533 15.3108 20.7879 15.3108 20.58C15.3108 20.3721 15.1453 20.2067 14.9375 20.2067Z" fill="#0267D9"/>
<path id="Vector_14" d="M10.012 22.0945C9.80837 22.0945 9.63867 22.26 9.63867 22.4679C9.63867 22.6758 9.80413 22.8412 10.012 22.8412H14.9544C15.1581 22.8412 15.3278 22.6758 15.3278 22.4679C15.3278 22.26 15.1623 22.0945 14.9544 22.0945H10.012Z" fill="#0267D9"/>
<path id="Vector_15" d="M5.66678 22.3152C5.7389 22.3873 5.83223 22.4255 5.92981 22.4255C6.02738 22.4255 6.12072 22.3873 6.19284 22.3152L6.55768 21.9503L6.92253 22.3152C6.99465 22.3873 7.09223 22.4255 7.18556 22.4255C7.2789 22.4255 7.37647 22.3915 7.44859 22.3152C7.59284 22.1709 7.59284 21.9334 7.44859 21.7891L7.08375 21.4243L7.44859 21.0594C7.59284 20.9152 7.59284 20.6776 7.44859 20.5334C7.30435 20.3891 7.06678 20.3891 6.92253 20.5334L6.55768 20.8982L6.19284 20.5334C6.04859 20.3891 5.81102 20.3891 5.66678 20.5334C5.52253 20.6776 5.52253 20.9152 5.66678 21.0594L6.03162 21.4243L5.66678 21.7891C5.52253 21.9376 5.52253 22.1709 5.66678 22.3152Z" fill="#0267D9"/>
</g>
</svg>
