<svg width="28" height="28" viewBox="0 0 28 28" fill="none" xmlns="http://www.w3.org/2000/svg">
<g id="Group">
<path id="Vector" d="M26.997 20.8938L23.6964 17.5932C23.5564 17.4532 23.3103 17.4532 23.1703 17.5932L23.0007 17.7671L22.411 17.1774C23.8746 14.9459 23.6285 11.9126 21.6685 9.95259C19.4243 7.70834 15.7758 7.71259 13.5358 9.95259C12.4497 11.0386 11.8516 12.4853 11.8516 14.0211C11.8516 15.5568 12.4497 17.0035 13.5358 18.0896C14.6558 19.2096 16.1322 19.7696 17.6043 19.7696C18.7031 19.7696 19.8061 19.4556 20.7607 18.8277L21.3546 19.4217L21.1849 19.5914C21.0407 19.7356 21.0407 19.9732 21.1849 20.1174L24.4855 23.418C24.8207 23.7532 25.2703 23.9399 25.7455 23.9399C26.2207 23.9399 26.6704 23.7532 27.0055 23.418C27.3407 23.0829 27.5273 22.6332 27.5273 22.158C27.5188 21.6744 27.3364 21.229 26.997 20.8938ZM14.0619 17.5593C13.1158 16.6132 12.594 15.3574 12.594 14.0168C12.594 12.6805 13.1158 11.4205 14.0619 10.4744C15.0376 9.49865 16.3231 9.01077 17.6043 9.01077C18.8855 9.01077 20.171 9.49865 21.1467 10.4744C23.0982 12.4259 23.0982 15.6035 21.1467 17.5593C19.191 19.5108 16.0134 19.5108 14.0619 17.5593ZM21.3546 18.3696C21.4607 18.2762 21.571 18.1871 21.6728 18.0853C21.7746 17.9835 21.8679 17.8774 21.957 17.7671L22.4788 18.289L21.8764 18.8914L21.3546 18.3696ZM26.471 22.8877C26.0764 23.2823 25.3934 23.278 24.9988 22.8877L21.9613 19.8502L22.131 19.6762L22.6952 19.112L23.4291 18.378L26.4667 21.4156C26.6619 21.6108 26.7722 21.8738 26.7722 22.1496C26.7764 22.4296 26.6703 22.6926 26.471 22.8877Z" fill="#3D3D3D"/>
<path id="Vector_2" d="M17.6007 9.96118C16.5189 9.96118 15.5007 10.3812 14.7328 11.1491C13.9649 11.9169 13.5449 12.9351 13.5449 14.0169C13.5449 14.2206 13.7104 14.3903 13.9183 14.3903C14.1261 14.3903 14.2916 14.2248 14.2916 14.0169C14.2916 13.1345 14.6352 12.303 15.2631 11.6751C15.8867 11.0472 16.7183 10.7036 17.6049 10.7036C17.8086 10.7036 17.9783 10.5382 17.9783 10.3303C17.974 10.1266 17.8086 9.96118 17.6007 9.96118Z" fill="#3D3D3D"/>
<path id="Vector_3" d="M20.3967 20.1515C20.1931 20.1515 20.0234 20.3169 20.0234 20.5248V25.0303C20.0234 25.9933 19.2385 26.7824 18.2712 26.7824H2.96882C2.00579 26.7824 1.2167 25.9975 1.2167 25.0303V2.96964C1.2167 2.00661 2.00155 1.21752 2.96882 1.21752H6.45185V2.59631H2.96882C2.76518 2.60055 2.59973 2.76601 2.59973 2.96964V25.0303C2.59973 25.2339 2.76518 25.4036 2.97306 25.4036H18.2797C18.4834 25.4036 18.6531 25.2381 18.6531 25.0303V21.0636C18.6531 20.8599 18.4876 20.6903 18.2797 20.6903C18.0719 20.6903 17.9064 20.8557 17.9064 21.0636V24.6612H3.34215V3.34298H6.45185V3.75025C6.45185 4.26783 6.87609 4.69207 7.39367 4.69207H13.8549C14.3725 4.69207 14.7967 4.26783 14.7967 3.75025V3.34298H17.9064V6.97025C17.9064 7.17389 18.0719 7.34358 18.2797 7.34358C18.4876 7.34358 18.6531 7.17813 18.6531 6.97025V2.96964C18.6531 2.76601 18.4876 2.59631 18.2797 2.59631H14.7967V1.22176H18.2797C19.2428 1.22176 20.0319 2.00661 20.0319 2.97389V7.51752C20.0319 7.72116 20.1973 7.89086 20.4052 7.89086C20.6131 7.89086 20.7785 7.7254 20.7785 7.51752V2.96964C20.7785 1.5951 19.6585 0.475098 18.284 0.475098H2.96882C1.59427 0.47934 0.478516 1.5951 0.478516 2.96964V25.0303C0.478516 26.4048 1.59852 27.5248 2.97306 27.5248H18.2797C19.6543 27.5248 20.7743 26.4048 20.7743 25.0303V20.5206C20.77 20.3169 20.6003 20.1515 20.3967 20.1515ZM14.0543 3.75025C14.0543 3.86055 13.9652 3.94964 13.8549 3.94964H7.39367C7.28337 3.94964 7.19427 3.86055 7.19427 3.75025V1.22176H14.0543V3.75025Z" fill="#3D3D3D"/>
<path id="Vector_4" d="M8.81964 6.03276C8.81964 5.82912 8.65418 5.65942 8.4463 5.65942H4.6663C4.46267 5.65942 4.29297 5.82488 4.29297 6.03276V9.81276C4.29297 10.0164 4.45842 10.1861 4.6663 10.1861H8.4463C8.64994 10.1861 8.81964 10.0206 8.81964 9.81276V6.03276ZM8.07721 9.44367H5.03964V6.40609H8.07721V9.44367Z" fill="#3D3D3D"/>
<path id="Vector_5" d="M5.87584 8.81154C5.94796 8.88366 6.04129 8.92184 6.13887 8.92184C6.23644 8.92184 6.32978 8.8879 6.4019 8.81154L7.65341 7.56002C7.79766 7.41578 7.79766 7.17821 7.65341 7.03396C7.50917 6.88972 7.2716 6.88972 7.12735 7.03396L6.13887 8.02245L5.9819 7.86548C5.83766 7.72124 5.60008 7.72124 5.45584 7.86548C5.3116 8.00972 5.3116 8.2473 5.45584 8.39154L5.87584 8.81154Z" fill="#3D3D3D"/>
<path id="Vector_6" d="M16.5835 7.07621C16.5835 6.87258 16.4181 6.70288 16.2102 6.70288H10.012C9.80837 6.70288 9.63867 6.86834 9.63867 7.07621C9.63867 7.28409 9.80413 7.44955 10.012 7.44955H16.2102C16.4181 7.4453 16.5835 7.27985 16.5835 7.07621Z" fill="#3D3D3D"/>
<path id="Vector_7" d="M12.9674 8.96415C12.9674 8.76052 12.8019 8.59082 12.594 8.59082H10.0061C9.80251 8.59082 9.63281 8.75627 9.63281 8.96415C9.63281 9.17203 9.80675 9.33325 10.0104 9.33325H12.5983C12.8019 9.33325 12.9674 9.16779 12.9674 8.96415Z" fill="#3D3D3D"/>
<path id="Vector_8" d="M8.81964 12.7867C8.81964 12.583 8.65418 12.4133 8.4463 12.4133H4.6663C4.46267 12.4133 4.29297 12.5788 4.29297 12.7867V16.5667C4.29297 16.7703 4.45842 16.94 4.6663 16.94H8.4463C8.64994 16.94 8.81964 16.7745 8.81964 16.5667V12.7867ZM8.07721 16.1933H5.03964V13.1558H8.07721V16.1933Z" fill="#3D3D3D"/>
<path id="Vector_9" d="M5.87584 15.5654C5.94372 15.6333 6.04129 15.6757 6.13887 15.6757C6.23644 15.6757 6.33402 15.6376 6.4019 15.5654L7.65341 14.3139C7.79766 14.1697 7.79766 13.9321 7.65341 13.7879C7.50917 13.6436 7.2716 13.6436 7.12735 13.7879L6.13887 14.7764L5.9819 14.6194C5.83766 14.4751 5.60008 14.4751 5.45584 14.6194C5.3116 14.7636 5.3116 15.0012 5.45584 15.1454L5.87584 15.5654Z" fill="#3D3D3D"/>
<path id="Vector_10" d="M10.012 14.1952H10.5253C10.729 14.1952 10.8987 14.0297 10.8987 13.8218C10.8987 13.6139 10.7332 13.4485 10.5253 13.4485H10.012C9.80837 13.4485 9.63867 13.6139 9.63867 13.8218C9.63867 14.0297 9.80837 14.1952 10.012 14.1952Z" fill="#3D3D3D"/>
<path id="Vector_11" d="M10.729 15.3447H10.012C9.80837 15.3447 9.63867 15.5102 9.63867 15.7181C9.63867 15.9259 9.80413 16.0914 10.012 16.0914H10.729C10.9326 16.0914 11.1023 15.9259 11.1023 15.7181C11.1023 15.5102 10.9369 15.3447 10.729 15.3447Z" fill="#3D3D3D"/>
<path id="Vector_12" d="M8.4463 19.1672H4.6663C4.46267 19.1672 4.29297 19.3327 4.29297 19.5406V23.3206C4.29297 23.5242 4.45842 23.6939 4.6663 23.6939H8.4463C8.64994 23.6939 8.81964 23.5284 8.81964 23.3206V19.5406C8.81964 19.3327 8.65418 19.1672 8.4463 19.1672ZM8.07721 22.943H5.03964V19.9054H8.07721V22.943Z" fill="#3D3D3D"/>
<path id="Vector_13" d="M14.9375 20.2065H10.012C9.80837 20.2065 9.63867 20.372 9.63867 20.5799C9.63867 20.7878 9.80413 20.9532 10.012 20.9532H14.9375C15.1411 20.9532 15.3108 20.7878 15.3108 20.5799C15.3108 20.372 15.1453 20.2065 14.9375 20.2065Z" fill="#3D3D3D"/>
<path id="Vector_14" d="M10.012 22.0945C9.80837 22.0945 9.63867 22.2599 9.63867 22.4678C9.63867 22.6757 9.80413 22.8411 10.012 22.8411H14.9544C15.1581 22.8411 15.3278 22.6757 15.3278 22.4678C15.3278 22.2599 15.1623 22.0945 14.9544 22.0945H10.012Z" fill="#3D3D3D"/>
<path id="Vector_15" d="M5.66678 22.315C5.7389 22.3872 5.83223 22.4254 5.92981 22.4254C6.02738 22.4254 6.12072 22.3872 6.19284 22.315L6.55768 21.9502L6.92253 22.315C6.99465 22.3872 7.09223 22.4254 7.18556 22.4254C7.2789 22.4254 7.37647 22.3914 7.44859 22.315C7.59284 22.1708 7.59284 21.9332 7.44859 21.789L7.08375 21.4241L7.44859 21.0593C7.59284 20.915 7.59284 20.6775 7.44859 20.5332C7.30435 20.389 7.06678 20.389 6.92253 20.5332L6.55768 20.8981L6.19284 20.5332C6.04859 20.389 5.81102 20.389 5.66678 20.5332C5.52253 20.6775 5.52253 20.915 5.66678 21.0593L6.03162 21.4241L5.66678 21.789C5.52253 21.9375 5.52253 22.1708 5.66678 22.315Z" fill="#3D3D3D"/>
</g>
</svg>
