<svg width="18" height="18" viewBox="0 0 18 18" fill="none" xmlns="http://www.w3.org/2000/svg">
<path d="M16.5 9C16.5 13.1325 13.1325 16.5 9 16.5C4.8675 16.5 1.5 13.1325 1.5 9C1.5 8.5875 1.8375 8.25 2.25 8.25C2.6625 8.25 3 8.5875 3 9C3 12.3075 5.6925 15 9 15C12.3075 15 15 12.3075 15 9C15 5.6925 12.3075 3 9 3C8.5875 3 8.25 2.6625 8.25 2.25C8.25 1.8375 8.5875 1.5 9 1.5C13.1325 1.5 16.5 4.8675 16.5 9ZM9 12C8.5875 12 8.25 12.3375 8.25 12.75C8.25 13.1625 8.5875 13.5 9 13.5C11.4825 13.5 13.5 11.4825 13.5 9C13.5 6.5175 11.4825 4.5 9 4.5C8.5875 4.5 8.25 4.8375 8.25 5.25C8.25 5.6625 8.5875 6 9 6C10.6575 6 12 7.3425 12 9C12 10.6575 10.6575 12 9 12Z" fill="#0267D9"/>
</svg>
