<svg width="25" height="24" viewBox="0 0 25 24" fill="none" xmlns="http://www.w3.org/2000/svg">
<g id="Clock" clip-path="url(#clip0_3151_7451)">
<g id="Group">
<path id="Vector" d="M16.6096 14.1199L13.2634 11.6102V6.49789C13.2634 5.98386 12.8479 5.56836 12.3338 5.56836C11.8198 5.56836 11.4043 5.98386 11.4043 6.49789V12.075C11.4043 12.3678 11.5419 12.6439 11.7761 12.8186L15.4941 15.6072C15.6546 15.728 15.8501 15.7933 16.0509 15.7931C16.3344 15.7931 16.6133 15.6657 16.7955 15.4203C17.1042 15.0103 17.0205 14.4275 16.6096 14.1199Z" fill="#3D3D3D"/>
<path id="Vector_2" d="M12.334 0C5.71678 0 0.333984 5.3828 0.333984 12C0.333984 18.6172 5.71678 24 12.334 24C18.9512 24 24.334 18.6172 24.334 12C24.334 5.3828 18.9512 0 12.334 0ZM12.334 22.141C6.74297 22.141 2.193 17.591 2.193 12C2.193 6.40898 6.74297 1.85902 12.334 1.85902C17.9259 1.85902 22.475 6.40898 22.475 12C22.475 17.591 17.925 22.141 12.334 22.141Z" fill="#3D3D3D"/>
</g>
</g>
<defs>
<clipPath id="clip0_3151_7451">
<rect width="24" height="24" fill="white" transform="translate(0.333984)"/>
</clipPath>
</defs>
</svg>
