<svg width="32" height="32" viewBox="0 0 32 32" fill="none" xmlns="http://www.w3.org/2000/svg">
<g clip-path="url(#clip0_1468_11310)">
<path d="M4.71265 31.9891H2.13841C1.83722 31.9891 1.5945 31.7464 1.5945 31.447V27.6273H0.612996C0.311811 27.6273 0.0690918 27.3846 0.0690918 27.0834V24.1778C0.0690918 23.8784 0.311811 23.6357 0.612996 23.6357H4.02701V18.9957C4.02701 15.8386 6.59417 13.2714 9.7513 13.2714H10.5184L11.2679 11.971C10.2509 11.2092 9.59007 9.9938 9.59007 8.62784V7.44613C8.71487 6.08725 8.4314 4.85594 8.74853 3.7823C9.06212 2.7193 9.87886 2.14705 10.2615 1.92913C10.8072 0.798802 11.9039 0.107849 13.3017 0.0192651C15.2913 -0.104752 17.4102 0.99723 18.3422 2.63957C19.166 4.09235 19.0207 5.7967 17.9382 7.45676V8.62784C17.9382 10.0044 17.2685 11.2269 16.2356 11.9887L16.978 13.2714H17.7433C20.9004 13.2714 23.4694 15.8386 23.4694 18.9957V23.6357H27.9907C28.2919 23.6357 28.5346 23.8784 28.5346 24.1778V27.0834C28.5346 27.3846 28.2919 27.6273 27.9907 27.6273H27.0092V31.447C27.0092 31.7464 26.7665 31.9891 26.4653 31.9891H23.891C23.5899 31.9891 23.3471 31.7464 23.3471 31.447V27.6273H5.25656V31.447C5.25656 31.7464 5.01384 31.9891 4.71265 31.9891ZM2.13487 26.5412H27.4486V24.7217H1.15513V26.5412H2.13487ZM5.11305 23.6357H7.59694V19.4067C7.59694 19.1073 7.83966 18.8628 8.14084 18.8628C8.44026 18.8628 8.68298 19.1073 8.68298 19.4067V23.6357H18.8116V19.4067C18.8116 19.1073 19.0544 18.8628 19.3555 18.8628C19.655 18.8628 19.8977 19.1073 19.8977 19.4067V23.6357H22.3833V18.9957C22.3833 16.4374 20.3016 14.3574 17.7433 14.3574H16.9337L14.1805 18.0053C13.9643 18.2941 13.5303 18.2941 13.3141 18.0053L10.561 14.3574H9.7513C7.193 14.3574 5.11305 16.4392 5.11305 18.9957V23.6357ZM17.6477 5.55929C17.8921 4.71243 17.8106 3.90455 17.3978 3.17462C16.6715 1.89547 14.9405 1.00609 13.3691 1.10353C12.7561 1.14251 11.6576 1.37814 11.1828 2.52973C11.1279 2.66083 11.0251 2.76536 10.8958 2.82206C10.8905 2.82383 10.0419 3.21182 9.78673 4.1012C9.65386 4.56007 9.69106 5.08271 9.89657 5.66382C10.4617 4.19333 11.6913 3.68486 13.3053 4.41302C13.8704 4.01971 15.1301 3.30572 16.2711 3.79471C16.9089 4.06754 17.3695 4.65928 17.6477 5.55929ZM10.6761 7.28313V8.62784C10.6761 9.76879 11.2997 10.768 12.2228 11.3013L12.299 11.3456C12.7348 11.5812 13.2344 11.7159 13.7641 11.7159C15.4384 11.7159 16.8522 10.357 16.8522 8.62784V7.31148C16.753 5.90477 16.4039 5.03311 15.8441 4.79393C15.1301 4.48743 14.037 5.19256 13.711 5.46362C13.5427 5.60536 13.3053 5.63016 13.1104 5.5274C12.3946 5.14826 11.8436 5.06854 11.4698 5.29177C10.8391 5.66559 10.6832 6.87742 10.6761 7.28313ZM13.7641 12.8019C13.2167 12.8019 12.694 12.6956 12.2157 12.5025L11.4822 13.7746L13.7482 16.7775L16.0142 13.7746L15.286 12.5131C14.8147 12.6991 14.301 12.8019 13.7641 12.8019ZM21.7278 13.5265C21.377 13.5265 21.1131 13.1934 21.2016 12.8462L21.4692 11.8151H20.4434C20.1439 11.8151 19.9012 11.5724 19.9012 11.2712V2.17185C19.9012 1.87067 20.1439 1.62795 20.4434 1.62795H31.387C31.6882 1.62795 31.9309 1.87067 31.9309 2.17185V11.2712C31.9309 11.5724 31.6882 11.8151 31.387 11.8151H25.6981L21.9475 13.4787C21.8766 13.5106 21.8022 13.5265 21.7278 13.5265ZM20.9873 10.729H22.1707C22.5251 10.729 22.7855 11.0657 22.6969 11.4076L22.5357 12.0295L25.3633 10.7751C25.4324 10.745 25.5068 10.729 25.583 10.729H30.8449V2.71398H20.9873V10.729ZM29.7393 5.10043H22.091C21.7916 5.10043 21.5489 4.85594 21.5489 4.55653C21.5489 4.25711 21.7916 4.01439 22.091 4.01439H29.7393C30.0405 4.01439 30.2832 4.25711 30.2832 4.55653C30.2832 4.85594 30.0405 5.10043 29.7393 5.10043ZM29.7393 7.26365H22.091C21.7916 7.26365 21.5489 7.02093 21.5489 6.72151C21.5489 6.4221 21.7916 6.17761 22.091 6.17761H29.7393C30.0405 6.17761 30.2832 6.4221 30.2832 6.72151C30.2832 7.02093 30.0405 7.26365 29.7393 7.26365ZM29.7393 9.42863H22.091C21.7916 9.42863 21.5489 9.18591 21.5489 8.8865C21.5489 8.58709 21.7916 8.3426 22.091 8.3426H29.7393C30.0405 8.3426 30.2832 8.58709 30.2832 8.8865C30.2832 9.18591 30.0405 9.42863 29.7393 9.42863ZM24.4332 30.9031H25.9231V27.6273H24.4332V30.9031ZM2.68054 30.9031H4.17052V27.6273H2.68054V30.9031Z" fill="#3D3D3D"/>
</g>
<defs>
<clipPath id="clip0_1468_11310">
<rect width="32" height="32" fill="white"/>
</clipPath>
</defs>
</svg>
