<svg width="20" height="20" viewBox="0 0 20 20" fill="none" xmlns="http://www.w3.org/2000/svg">
<g id="csv 1" clip-path="url(#clip0_4192_3133)">
<g id="Group">
<path id="Vector" d="M19.0128 3.88137L15.4924 0.360937C15.2596 0.128164 14.9502 0 14.621 0H5.30305C4.79617 0 4.38379 0.412344 4.38379 0.919219V10.3131C4.38379 10.4749 4.51496 10.6061 4.67676 10.6061C4.83855 10.6061 4.96973 10.4749 4.96973 10.3131V0.919219C4.96973 0.73543 5.11926 0.585938 5.30305 0.585938H14.621C14.6535 0.585938 14.6855 0.589102 14.7171 0.593789V3.73742C14.7171 4.2443 15.1295 4.65664 15.6363 4.65664H18.78C18.7846 4.68824 18.7878 4.72023 18.7878 4.75277V19.0808C18.7878 19.2646 18.6383 19.4141 18.4545 19.4141H5.30305C5.11926 19.4141 4.96973 19.2645 4.96973 19.0808C4.96973 18.919 4.83855 18.7878 4.67676 18.7878C4.51496 18.7878 4.38379 18.919 4.38379 19.0808C4.38379 19.5877 4.79617 20 5.30305 20H18.4545C18.9614 20 19.3737 19.5876 19.3737 19.0808V4.75277C19.3737 4.42359 19.2455 4.11414 19.0128 3.88137ZM15.303 3.73738V1.00027L18.3735 4.0707H15.6363C15.4526 4.0707 15.303 3.92117 15.303 3.73738Z" fill="#0267D9"/>
<path id="Vector_2" d="M13.1111 17.202V12.1919C13.1111 11.685 12.6987 11.2727 12.1919 11.2727H1.54544C1.03856 11.2727 0.626221 11.685 0.626221 12.1919V17.202C0.626221 17.7089 1.0386 18.1212 1.54544 18.1212H12.1918C12.6987 18.1212 13.1111 17.7089 13.1111 17.202ZM1.21216 17.202V12.1919C1.21216 12.0081 1.36169 11.8586 1.54544 11.8586H12.1918C12.3756 11.8586 12.5251 12.0082 12.5251 12.1919V17.202C12.5251 17.3858 12.3756 17.5353 12.1918 17.5353H1.54544C1.36169 17.5353 1.21216 17.3858 1.21216 17.202Z" fill="#0267D9"/>
<path id="Vector_3" d="M5.29194 15.4827C5.16804 15.3787 4.98323 15.3948 4.87921 15.5188C4.85378 15.5491 4.82636 15.5774 4.79776 15.6029C4.65077 15.7338 4.46382 15.8002 4.24214 15.8002C3.64968 15.8002 3.16772 15.3182 3.16772 14.7258C3.16772 14.1334 3.64972 13.6514 4.24214 13.6514C4.45749 13.6514 4.66515 13.7148 4.84265 13.8347C4.97675 13.9253 5.15886 13.89 5.24944 13.7559C5.34003 13.6219 5.30476 13.4398 5.17069 13.3492C4.89593 13.1636 4.57487 13.0654 4.24214 13.0654C3.32659 13.0654 2.58179 13.8103 2.58179 14.7258C2.58179 15.6413 3.32663 16.3861 4.24214 16.3861C4.60663 16.3861 4.93351 16.2666 5.18745 16.0404C5.23714 15.9962 5.2844 15.9474 5.328 15.8955C5.43202 15.7716 5.41585 15.5868 5.29194 15.4827Z" fill="#0267D9"/>
<path id="Vector_4" d="M7.45223 14.4723C7.10852 14.3455 6.78902 14.2073 6.69941 14.1679C6.62977 14.1146 6.59621 14.031 6.60918 13.9407C6.61742 13.8831 6.65852 13.7427 6.86098 13.6817C7.27285 13.5577 7.64961 13.8574 7.65867 13.8647C7.7825 13.9676 7.96641 13.9513 8.07016 13.8279C8.17426 13.704 8.15824 13.5192 8.03441 13.4151C8.00941 13.3941 7.41402 12.9031 6.69199 13.1207C6.33285 13.2288 6.07891 13.5112 6.02918 13.8574C5.98273 14.1811 6.12297 14.4925 6.39523 14.67C6.4082 14.6784 6.42176 14.6859 6.4359 14.6921C6.45168 14.6992 6.82684 14.8662 7.24945 15.0221C7.5273 15.1246 7.66938 15.2801 7.63926 15.4489C7.6084 15.6215 7.40328 15.8001 7.1134 15.8001C6.82801 15.8001 6.55289 15.6845 6.3775 15.4909C6.26887 15.3711 6.08359 15.3619 5.96367 15.4706C5.84379 15.5792 5.83465 15.7645 5.94332 15.8844C6.22797 16.1985 6.66539 16.3861 7.11344 16.3861C7.66606 16.3861 8.1298 16.0352 8.21609 15.5519C8.28063 15.19 8.11391 14.7164 7.45223 14.4723Z" fill="#0267D9"/>
<path id="Vector_5" d="M11.0749 13.0852C10.9212 13.0342 10.7555 13.1174 10.7045 13.2709L10.0263 15.3123L9.3147 13.2622C9.26166 13.1093 9.09462 13.0284 8.94185 13.0815C8.789 13.1345 8.7081 13.3015 8.76115 13.4543L9.69689 16.1501C9.74716 16.2915 9.88126 16.386 10.0311 16.386H10.0336C10.1844 16.3849 10.3184 16.2883 10.3676 16.1435L11.2605 13.4556C11.3115 13.302 11.2284 13.1362 11.0749 13.0852Z" fill="#0267D9"/>
<path id="Vector_6" d="M14.0706 15.6163H16.2626C16.7694 15.6163 17.1818 15.2039 17.1818 14.6971V6.55569C17.1818 6.04882 16.7694 5.63647 16.2626 5.63647H7.4949C6.98803 5.63647 6.57568 6.04882 6.57568 6.55569V10.3133C6.57568 10.4751 6.70686 10.6062 6.86865 10.6062C7.03045 10.6062 7.16162 10.4751 7.16162 10.3133V9.97999H9.39385V10.3133C9.39385 10.4751 9.52502 10.6062 9.68682 10.6062C9.84861 10.6062 9.97978 10.4751 9.97978 10.3133V9.97999H13.7777V15.3233C13.7777 15.4851 13.9088 15.6163 14.0706 15.6163ZM16.5958 9.39401H14.3636V8.10116H16.5958V9.39401ZM16.5958 13.1516H14.3636V11.8587H16.5958V13.1516ZM16.2626 15.0303H14.3636V13.7375H16.5958V14.697C16.5958 14.8808 16.4463 15.0303 16.2626 15.0303ZM16.5958 6.55569V7.51526H14.3636V6.22237H16.2626C16.4463 6.22237 16.5958 6.3719 16.5958 6.55569ZM13.7777 7.51522H9.97978V6.22237H13.7777V7.51522ZM7.4949 6.22237H9.39385V7.51522H7.16162V6.55565C7.16162 6.3719 7.31115 6.22237 7.4949 6.22237ZM7.16162 9.39401V8.10116H9.39385V9.39401H7.16162ZM9.97978 9.39401V8.10116H13.7777V9.39401H9.97978ZM16.5958 9.97995V11.2728H14.3636V9.97995H16.5958Z" fill="#0267D9"/>
</g>
</g>
<defs>
<clipPath id="clip0_4192_3133">
<rect width="20" height="20" fill="white"/>
</clipPath>
</defs>
</svg>
