<svg width="168" height="161" viewBox="0 0 168 161" fill="none" xmlns="http://www.w3.org/2000/svg">
<g id="Frame" clip-path="url(#clip0_5895_59016)">
<g id="Group">
<g id="Layer 1">
<g id="Group_2">
<g id="Group_3">
<g id="Group_4">
<g id="Group_5">
<path id="Vector" d="M138.952 4.92236H28.8574V94.8455H138.952V4.92236Z" fill="#4D6199"/>
<path id="Vector_2" d="M136.201 7.16968H31.6094V92.5981H136.201V7.16968Z" fill="white"/>
</g>
<path id="Vector_3" d="M139.092 94.5999H28.7051V97.646H139.092V94.5999Z" fill="#2C3765"/>
<g id="Group_6">
<path id="Vector_4" d="M145.479 2.03003H22.9277V10.8612H145.479V2.03003Z" fill="#A8A6B4"/>
<path id="Vector_5" d="M145.479 2.03003H22.9277V8.22625H145.479V2.03003Z" fill="#C2C2C7"/>
<path id="Vector_6" opacity="0.34" d="M115.521 3.40063H26.8814C26.4604 3.40063 26.1191 3.74238 26.1191 4.16394V4.31282C26.1191 4.73438 26.4604 5.07612 26.8814 5.07612H115.521C115.942 5.07612 116.283 4.73438 116.283 4.31282V4.16394C116.283 3.74238 115.942 3.40063 115.521 3.40063Z" fill="white"/>
<path id="Vector_7" d="M26.2717 1.92822H24.6504V10.7594H26.2717V1.92822Z" fill="#A8A6B4"/>
<path id="Vector_8" d="M143.248 1.92822H141.627V10.7594H143.248V1.92822Z" fill="#A8A6B4"/>
<g id="Group_7">
<path id="Vector_9" d="M148.419 2.82634V9.559C148.419 11.121 147.239 12.3853 145.783 12.3853C144.326 12.3853 143.146 11.121 143.146 9.559V2.82634C143.146 1.26429 144.326 0 145.783 0C146.512 0 147.17 0.316664 147.647 0.827107C148.124 1.33755 148.419 2.0465 148.419 2.82398V2.82634Z" fill="#07113D"/>
<path id="Vector_10" d="M148.419 2.82634V6.19149C148.419 7.75354 147.239 9.01783 145.783 9.01783C144.326 9.01783 143.146 7.75354 143.146 6.19149V2.82634C143.146 1.26429 144.326 0 145.783 0C146.512 0 147.17 0.316664 147.647 0.827107C148.124 1.33755 148.419 2.0465 148.419 2.82398V2.82634Z" fill="#2C3765"/>
</g>
<g id="Group_8">
<path id="Vector_11" d="M25.2586 2.82634V9.559C25.2586 11.121 24.0786 12.3853 22.6225 12.3853C21.1663 12.3853 19.9863 11.121 19.9863 9.559V2.82634C19.9863 1.26429 21.1663 0 22.6225 0C23.3517 0 24.0102 0.316664 24.4869 0.827107C24.9636 1.33755 25.2586 2.0465 25.2586 2.82398V2.82634Z" fill="#07113D"/>
<path id="Vector_12" d="M25.2586 2.82634V6.19149C25.2586 7.75354 24.0786 9.01783 22.6225 9.01783C21.1663 9.01783 19.9863 7.75354 19.9863 6.19149V2.82634C19.9863 1.26429 21.1663 0 22.6225 0C23.3517 0 24.0102 0.316664 24.4869 0.827107C24.9636 1.33755 25.2586 2.0465 25.2586 2.82398V2.82634Z" fill="#2C3765"/>
</g>
</g>
<path id="Vector_13" d="M39.1781 81.4039L44.2829 77.7504C46.2157 76.342 48.6654 76.2971 50.636 77.637C52.5004 78.906 54.8062 78.9391 56.6965 77.7244L62.5092 73.9906C63.6987 73.2273 65.0722 72.9437 66.4151 73.1872L68.65 73.5913C72.9924 74.3758 77.4387 73.6054 81.3917 71.3841L84.1482 69.8362V81.4086H39.1758L39.1781 81.4039Z" fill="#D93838"/>
<path id="Vector_14" d="M38.7383 81.4039H85.3675V68.8413" stroke="#2C3765" stroke-width="2.42" stroke-miterlimit="10" stroke-linecap="round"/>
<path id="Vector_15" d="M39.1781 65.0438L44.2829 61.3903C46.2157 59.9819 48.6654 59.937 50.636 61.2769C52.5004 62.5459 54.8062 62.579 56.6965 61.3643L62.5092 57.6305C63.6987 56.8672 65.0722 56.5836 66.4151 56.827L68.65 57.2311C72.9924 58.0157 77.4387 57.2453 81.3917 55.0239L84.1482 53.4761V65.0485H39.1758L39.1781 65.0438Z" fill="#4D6199"/>
<path id="Vector_16" d="M38.7383 65.0438H85.3675V52.4812" stroke="#2C3765" stroke-width="2.42" stroke-miterlimit="10" stroke-linecap="round"/>
<g id="Group_9">
<path id="Vector_17" d="M43.4608 24.832H39.8477V41.0362H43.4608V24.832Z" fill="#9995A7"/>
<path id="Vector_18" d="M49.8046 17.8276H46.1914V41.0339H49.8046V17.8276Z" fill="#9995A7"/>
<path id="Vector_19" d="M56.1483 28.1265H52.5352V41.0341H56.1483V28.1265Z" fill="#9995A7"/>
<path id="Vector_20" d="M56.1483 26.3469H52.5352V28.1264H56.1483V26.3469Z" fill="#4D6199"/>
<path id="Vector_21" d="M43.4608 20.8076H39.8477V24.8321H43.4608V20.8076Z" fill="#4D6199"/>
<path id="Vector_22" d="M62.4921 15.2188H58.8789V41.034H62.4921V15.2188Z" fill="#9995A7"/>
<path id="Vector_23" d="M68.8847 24.832H65.2715V41.0362H68.8847V24.832Z" fill="#9995A7"/>
<path id="Vector_24" d="M75.2284 32.9331H71.6152V41.034H75.2284V32.9331Z" fill="#9995A7"/>
<path id="Vector_25" d="M42.38 43.1702H40.9285C40.3316 43.1702 39.8477 43.6547 39.8477 44.2525V44.7582C39.8477 45.356 40.3316 45.8405 40.9285 45.8405H42.38C42.9769 45.8405 43.4608 45.356 43.4608 44.7582V44.2525C43.4608 43.6547 42.9769 43.1702 42.38 43.1702Z" fill="#2C3765"/>
<path id="Vector_26" d="M48.7237 43.1702H47.2723C46.6753 43.1702 46.1914 43.6547 46.1914 44.2525V44.7582C46.1914 45.356 46.6753 45.8405 47.2723 45.8405H48.7237C49.3207 45.8405 49.8046 45.356 49.8046 44.7582V44.2525C49.8046 43.6547 49.3207 43.1702 48.7237 43.1702Z" fill="#2C3765"/>
<path id="Vector_27" d="M55.0675 43.1702H53.616C53.0191 43.1702 52.5352 43.6547 52.5352 44.2525V44.7582C52.5352 45.356 53.0191 45.8405 53.616 45.8405H55.0675C55.6644 45.8405 56.1483 45.356 56.1483 44.7582V44.2525C56.1483 43.6547 55.6644 43.1702 55.0675 43.1702Z" fill="#2C3765"/>
<path id="Vector_28" d="M61.4112 43.1702H59.9598C59.3628 43.1702 58.8789 43.6547 58.8789 44.2525V44.7582C58.8789 45.356 59.3628 45.8405 59.9598 45.8405H61.4112C62.0082 45.8405 62.4921 45.356 62.4921 44.7582V44.2525C62.4921 43.6547 62.0082 43.1702 61.4112 43.1702Z" fill="#2C3765"/>
<path id="Vector_29" d="M67.8038 43.1702H66.3524C65.7554 43.1702 65.2715 43.6547 65.2715 44.2525V44.7582C65.2715 45.356 65.7554 45.8405 66.3524 45.8405H67.8038C68.4007 45.8405 68.8847 45.356 68.8847 44.7582V44.2525C68.8847 43.6547 68.4007 43.1702 67.8038 43.1702Z" fill="#2C3765"/>
<path id="Vector_30" d="M74.1475 43.1702H72.6961C72.0992 43.1702 71.6152 43.6547 71.6152 44.2525V44.7582C71.6152 45.356 72.0992 45.8405 72.6961 45.8405H74.1475C74.7445 45.8405 75.2284 45.356 75.2284 44.7582V44.2525C75.2284 43.6547 74.7445 43.1702 74.1475 43.1702Z" fill="#2C3765"/>
<path id="Vector_31" d="M75.2284 31.1511H71.6152V35.6837H75.2284V31.1511Z" fill="#4D6199"/>
</g>
<g id="Group_10">
<path id="Vector_32" d="M106.601 28.8707H118.711C118.711 35.523 113.245 40.9961 106.601 40.9961C99.958 40.9961 94.4922 35.523 94.4922 28.8707C94.4922 23.9884 97.4375 19.5622 101.938 17.6812L106.604 28.8707H106.601Z" fill="#EAA64F"/>
<path id="Vector_33" d="M118.659 43.2009H95.8259C95.5952 43.2009 95.4082 43.3882 95.4082 43.6192V43.7019C95.4082 43.9329 95.5952 44.1202 95.8259 44.1202H118.659C118.89 44.1202 119.077 43.9329 119.077 43.7019V43.6192C119.077 43.3882 118.89 43.2009 118.659 43.2009Z" fill="#2C3765"/>
<path id="Vector_34" d="M110.446 45.0371H95.7457C95.5593 45.0371 95.4082 45.1884 95.4082 45.375V45.6184C95.4082 45.8051 95.5593 45.9564 95.7457 45.9564H110.446C110.633 45.9564 110.784 45.8051 110.784 45.6184V45.375C110.784 45.1884 110.633 45.0371 110.446 45.0371Z" fill="#2C3765"/>
</g>
<g id="Group_11">
<g id="Group_12">
<path id="Vector_35" d="M114.151 53.7952H94.2891V55.0122H114.151V53.7952Z" fill="#4D6199"/>
<path id="Vector_36" d="M125.307 56.5364H94.2891V57.7534H125.307V56.5364Z" fill="#4D6199"/>
<path id="Vector_37" d="M115.185 59.2776H94.2891V60.4946H115.185V59.2776Z" fill="#4D6199"/>
</g>
<path id="Vector_38" d="M93.0226 54.4048C93.0226 54.9081 92.5789 55.3193 92.0338 55.3193C91.4886 55.3193 91.0449 54.9105 91.0449 54.4048C91.0449 53.8991 91.4862 53.4902 92.0338 53.4902C92.5813 53.4902 93.0226 53.8991 93.0226 54.4048Z" fill="#2C3765"/>
<path id="Vector_39" d="M93.0226 57.4485C93.0226 57.9518 92.5789 58.363 92.0338 58.363C91.4886 58.363 91.0449 57.9542 91.0449 57.4485C91.0449 56.9428 91.4862 56.5339 92.0338 56.5339C92.5813 56.5339 93.0226 56.9428 93.0226 57.4485Z" fill="#2C3765"/>
<path id="Vector_40" d="M93.0226 60.1897C93.0226 60.693 92.5789 61.1042 92.0338 61.1042C91.4886 61.1042 91.0449 60.6954 91.0449 60.1897C91.0449 59.684 91.4862 59.2751 92.0338 59.2751C92.5813 59.2751 93.0226 59.684 93.0226 60.1897Z" fill="#2C3765"/>
</g>
<g id="Group_13">
<path id="Vector_41" d="M91.957 65.3674H116.284" stroke="#2C3765" stroke-width="1.29" stroke-miterlimit="10" stroke-linecap="round"/>
<path id="Vector_42" d="M91.957 70.6443H125.103" stroke="#2C3765" stroke-width="1.29" stroke-miterlimit="10" stroke-linecap="round"/>
<path id="Vector_43" d="M91.957 67.1257H109.747" stroke="#2C3765" stroke-width="1.29" stroke-miterlimit="10" stroke-linecap="round"/>
<path id="Vector_44" d="M91.957 68.8862H125.559" stroke="#2C3765" stroke-width="1.29" stroke-miterlimit="10" stroke-linecap="round"/>
</g>
<g id="Group_14">
<path id="Vector_45" d="M91.957 72.6743H116.284" stroke="#2C3765" stroke-width="1.29" stroke-miterlimit="10" stroke-linecap="round"/>
<path id="Vector_46" d="M91.957 77.9536H125.103" stroke="#2C3765" stroke-width="1.29" stroke-miterlimit="10" stroke-linecap="round"/>
<path id="Vector_47" d="M91.957 74.4348H109.747" stroke="#2C3765" stroke-width="1.29" stroke-miterlimit="10" stroke-linecap="round"/>
<path id="Vector_48" d="M91.957 76.1931H125.559" stroke="#2C3765" stroke-width="1.29" stroke-miterlimit="10" stroke-linecap="round"/>
</g>
<path id="Vector_49" opacity="0.39" d="M136.356 10.8611H31.1367V14.2404H136.356V10.8611Z" fill="#C2C2C7"/>
</g>
<path id="Vector_50" opacity="0.7" d="M133.187 161H165.949C167.082 161 168 160.081 168 158.946V158.013C168 156.879 167.082 155.959 165.949 155.959H133.187C132.055 155.959 131.137 156.879 131.137 158.013V158.946C131.137 160.081 132.055 161 133.187 161Z" fill="#9995A7"/>
<g id="Group_15">
<path id="Vector_51" opacity="0.7" d="M6.13636 160.74H83.4882C84.6209 160.74 85.5391 159.821 85.5391 158.686V157.753C85.5391 156.619 84.6209 155.699 83.4882 155.699H6.13636C5.00371 155.699 4.08551 156.619 4.08551 157.753V158.686C4.08551 159.821 5.00371 160.74 6.13636 160.74Z" fill="#9995A7"/>
<path id="Vector_52" d="M76.2455 158.764H80.9844V107.363H76.2455V158.764Z" fill="#464C6B"/>
<path id="Vector_53" d="M31.0326 158.764H35.7715L35.7715 107.363H31.0326L31.0326 158.764Z" fill="#464C6B"/>
<path id="Vector_54" d="M19.4744 102.694H83.5323C84.5825 102.694 85.4345 103.547 85.4345 104.598V109.103H17.5723V104.598C17.5723 103.547 18.4242 102.694 19.4744 102.694Z" fill="#B95241"/>
<path id="Vector_55" d="M33.7059 119.89H10.0137V124.636H33.7059V119.89Z" fill="#464C6B"/>
<path id="Vector_56" d="M80.2847 119.89H54.7305V124.636H80.2847V119.89Z" fill="#464C6B"/>
<path id="Vector_57" d="M53.1459 158.764H57.8848L57.8848 107.363H53.1459L53.1459 158.764Z" fill="#9A92AE"/>
<path id="Vector_58" d="M7.93296 158.764H12.6719L12.6719 107.363H7.93296L7.93296 158.764Z" fill="#9A92AE"/>
<path id="Vector_59" d="M1.90217 102.694H60.0364C61.0866 102.694 61.9386 103.547 61.9386 104.598V109.103H0V104.598C0 103.547 0.851965 102.694 1.90217 102.694Z" fill="#E48867"/>
</g>
<g id="Group_16">
<g id="Group_17">
<path id="Vector_60" d="M117.127 55.8746L119.445 59.2232C119.714 59.6131 119.645 60.1307 119.289 60.3717L119.223 60.4166C118.866 60.6576 118.357 60.5371 118.085 60.1448L115.768 56.7962C115.499 56.4063 115.567 55.8888 115.923 55.6477L115.99 55.6028C116.346 55.3618 116.856 55.4823 117.127 55.8746Z" fill="#F4A891"/>
<path id="Vector_61" d="M116.685 63.5714C116.685 63.5714 114.417 62.085 113.751 61.6714C112.463 60.8727 111.996 60.1614 112.368 59.2846L113.607 57.7722C114.419 57.0467 114.842 56.7466 115.71 57.1318L118.573 58.4008C119.444 58.786 119.85 59.8164 119.477 60.6931L118.733 62.4395C118.361 63.3138 117.553 63.9566 116.683 63.5714H116.685Z" fill="#F4A891"/>
<path id="Vector_62" d="M114.451 58.0888L111.546 56.0093C111.067 55.6879 110.84 55.168 111.043 54.8537C111.246 54.5394 111.805 54.5465 112.285 54.8679L115.19 56.9474C115.669 57.2688 115.895 57.7887 115.692 58.103C115.489 58.4173 114.93 58.4102 114.451 58.0888Z" fill="#F4A891"/>
<path id="Vector_63" d="M112.906 58.9917L110.001 56.9121C109.522 56.5907 109.295 56.0708 109.498 55.7565C109.701 55.4422 110.261 55.4493 110.74 55.7707L113.645 57.8503C114.124 58.1717 114.35 58.6916 114.148 59.0059C113.945 59.3202 113.385 59.3131 112.906 58.9917Z" fill="#F4A891"/>
<path id="Vector_64" d="M112.783 60.9104L109.878 58.8308C109.399 58.5094 109.172 57.9895 109.375 57.6752C109.578 57.3609 110.138 57.368 110.617 57.6894L113.522 59.769C114.001 60.0904 114.227 60.6103 114.024 60.9246C113.821 61.2389 113.262 61.2318 112.783 60.9104Z" fill="#F4A891"/>
<path id="Vector_65" d="M129.08 69.3752C127.676 69.1224 126.316 68.723 125.025 68.1818C124.324 67.8911 123.645 67.5556 122.989 67.1775L115.835 63.0585C115.408 62.8127 115.106 62.4677 114.932 62.0707C114.606 61.3286 114.733 60.4094 115.354 59.639C116.312 58.4527 117.436 58.9844 118.656 59.6886L125.604 63.2003C126.371 63.5713 127.152 63.8761 127.942 64.1219C128.662 64.3464 129.387 64.5189 130.118 64.6442C134.01 65.3082 138.027 64.5969 141.63 62.7489L147.528 59.7217C148.942 58.9962 150.606 59.3578 151.243 60.5299C151.885 61.6997 151.255 63.2428 149.841 63.9659L143.943 66.9955C139.164 69.4461 133.868 70.2425 129.077 69.3728L129.08 69.3752Z" fill="#F4A891"/>
<path id="Vector_66" d="M131.098 64.8428L130.055 69.5739C128.65 69.321 127.279 69.0682 125.988 68.5246L128.362 64.2473L131.098 64.8428Z" fill="#F4A891"/>
<path id="Vector_67" d="M131.95 64.2165L131.06 66.9838L129.073 67.4517L130.708 68.716L130.243 70.2757L127.404 69.6093L129.382 63.5454L131.95 64.2165Z" fill="#07113D"/>
</g>
<path id="Vector_68" d="M164.694 33.0692C166.976 30.9131 167.08 27.3131 164.927 25.0283C162.774 22.7436 159.179 22.6392 156.897 24.7953C154.615 26.9514 154.511 30.5514 156.664 32.8362C158.818 35.1209 162.413 35.2253 164.694 33.0692Z" fill="#B95241"/>
<path id="Vector_69" d="M158.754 48.14C158.709 48.2109 158.712 47.3672 158.717 46.0817C158.731 42.5488 158.747 35.6625 157.747 35.1379C154.995 33.6987 143.825 41.5586 143.138 38.4699C142.975 37.7492 142.888 36.9977 142.881 36.232C142.881 36.0713 142.881 35.913 142.888 35.757C142.933 34.514 143.188 33.3253 143.617 32.2288C143.985 31.2977 144.474 30.4305 145.069 29.653V29.6482C147.101 26.9991 150.334 25.3378 153.919 25.4678C154.081 25.4725 154.242 25.4843 154.405 25.4938C158.707 25.8412 162.356 28.4856 163.902 32.4297C164.388 33.6609 164.666 35.0221 164.697 36.4801C164.876 45.3444 159.8 46.5567 158.757 48.1376L158.754 48.14Z" fill="#DB734C"/>
<path id="Vector_70" d="M158.753 48.1401C158.708 48.211 158.711 47.3673 158.715 46.0818L158.796 45.7982C158.796 45.7982 162.236 43.5768 163.35 38.9308C164.146 35.6153 164.03 33.4176 163.9 32.4321C164.386 33.6633 164.665 35.0245 164.696 36.4826C164.875 45.3468 159.799 46.5591 158.755 48.1401H158.753Z" fill="#B95241"/>
<path id="Vector_71" d="M154.424 62.6827L153.905 62.6275C152.434 62.4708 151.366 61.1475 151.523 59.6741L152.941 46.3219C153.097 44.8485 154.419 43.7796 155.89 43.9362L156.409 43.9915C157.88 44.1481 158.948 45.4714 158.791 46.9448L157.373 60.297C157.217 61.7704 155.895 62.8394 154.424 62.6827Z" fill="#F4A891"/>
<g id="Group_18">
<path id="Vector_72" d="M159.657 42.9766C159.648 43.0782 159.636 43.1727 159.622 43.272C159.619 43.3027 159.612 43.3358 159.607 43.3665C159.426 44.6024 158.991 45.7533 158.368 46.7623C158.338 46.812 158.307 46.8616 158.274 46.9112C157.259 48.4756 155.784 49.6809 154.059 50.3236C154.054 50.3284 154.052 50.326 154.052 50.326C153.384 50.5741 152.678 50.7348 151.951 50.7963C151.685 50.8175 151.418 50.8317 151.149 50.8317C151.059 50.8317 150.97 50.827 150.878 50.8223C150.84 50.8223 150.821 50.8223 150.821 50.8223C150.427 50.7986 150.045 50.7537 149.669 50.6734C149.561 50.6568 149.455 50.6356 149.348 50.6049C145.846 49.7636 143.248 46.6442 142.96 42.908C142.929 42.5087 142.922 42.0975 142.946 41.6886L142.983 41.0624L143.222 36.8938C143.255 36.2652 143.328 35.6578 143.46 35.0765C143.557 34.6228 143.701 34.1832 143.887 33.7626C144.378 32.6566 144.994 31.6759 145.856 30.8748C147.467 29.3742 149.643 28.5093 151.954 28.6298C153.684 28.7196 155.263 29.3506 156.561 30.3549C156.747 30.5014 156.929 30.655 157.106 30.8157C157.981 31.6192 158.692 32.6117 159.178 33.7248C159.178 33.7248 159.178 33.7295 159.178 33.7342C159.305 34.0249 159.423 34.3297 159.515 34.637C159.532 34.6937 159.548 34.7433 159.563 34.8047C159.676 35.1781 159.773 35.5633 159.841 35.9556C159.858 36.043 159.872 36.1305 159.886 36.2203C159.961 36.6976 159.997 37.1892 159.973 37.6878V37.7776L159.95 38.1155L159.928 38.4865L159.902 38.9592V38.9639V38.9875L159.898 39.0679L159.886 39.2829V39.2877L159.751 41.5398L159.711 42.2841L159.695 42.5654L159.688 42.6268C159.688 42.6481 159.688 42.667 159.683 42.6859C159.678 42.7851 159.671 42.8844 159.657 42.9789V42.9766Z" fill="#FFC7B0"/>
<path id="Vector_73" d="M160.259 42.6763C160.188 42.6881 160.113 42.6929 160.033 42.6952C160 42.7023 159.957 42.6976 159.919 42.6952L159.683 42.6834L159.391 42.6692L159.45 41.5491L159.464 41.2986L159.577 39.2639L159.886 39.2805L160.11 39.2946C160.16 39.2946 160.202 39.2994 160.25 39.3088C160.318 39.3159 160.384 39.3301 160.448 39.3443C160.778 39.4223 161.071 39.59 161.29 39.8311C161.581 40.1572 161.753 40.5684 161.727 41.0363C161.68 41.8587 161.047 42.5558 160.257 42.6763H160.259Z" fill="#FFC4BC"/>
</g>
<path id="Vector_74" d="M147.188 42.7969C147.188 42.7969 147.223 43.4349 148.11 43.5011C148.891 43.5578 149.028 43.0214 149.028 43.0214L147.188 42.7992V42.7969Z" fill="#F4A891"/>
<path id="Vector_75" d="M159.422 35.5111C159.422 35.5111 144.561 31.8671 143.167 34.8873C143.167 34.8873 142.909 31.6379 147.62 28.8257C152.33 26.0136 159.755 29.5654 160.229 31.0353C160.704 32.5052 160.51 33.5899 160.51 33.5899L159.422 35.5088V35.5111Z" fill="#DB734C"/>
<g id="Group_19">
<path id="Vector_76" d="M150.564 38.2123C150.564 38.2123 152.504 37.5341 154.017 38.8692" stroke="#B95241" stroke-width="1.31" stroke-miterlimit="10" stroke-linecap="round"/>
<path id="Vector_77" d="M143.971 37.3875C143.971 37.3875 145.837 36.688 147.442 37.9216" stroke="#B95241" stroke-width="1.31" stroke-miterlimit="10" stroke-linecap="round"/>
</g>
<path id="Vector_78" d="M151.663 41.1598L151.734 41.1673C151.929 41.1882 152.105 41.0462 152.126 40.8502L152.21 40.0583C152.231 39.8624 152.089 39.6866 151.893 39.6657L151.823 39.6582C151.627 39.6373 151.452 39.7793 151.431 39.9752L151.347 40.7671C151.326 40.9631 151.467 41.1389 151.663 41.1598Z" fill="#07113D"/>
<path id="Vector_79" d="M145.638 40.517L145.708 40.5245C145.904 40.5453 146.079 40.4034 146.1 40.2074L146.184 39.4155C146.205 39.2196 146.064 39.0438 145.868 39.0229L145.797 39.0154C145.602 38.9945 145.426 39.1365 145.405 39.3324L145.321 40.1243C145.3 40.3203 145.442 40.4961 145.638 40.517Z" fill="#07113D"/>
<path id="Vector_80" d="M146.369 44.6828L149.831 45.1885C149.831 45.1885 149.246 46.1621 147.882 46.0156C146.782 45.8974 146.369 44.6804 146.369 44.6804V44.6828Z" fill="#D93838"/>
<path id="Vector_81" d="M160.26 42.6763C160.189 42.6881 160.114 42.6928 160.033 42.6952C160 42.7023 159.958 42.6975 159.92 42.6952L159.684 42.6834C159.679 42.7826 159.672 42.8819 159.658 42.9764C159.649 43.078 159.637 43.1725 159.623 43.2718C159.62 43.3025 159.613 43.3356 159.609 43.3663C159.427 44.6023 158.993 45.7531 158.37 46.7622C158.339 46.8118 158.308 46.8614 158.275 46.9111C157.26 48.4755 155.785 49.6807 154.06 50.3235C154.055 50.3282 154.053 50.3258 154.053 50.3258C153.385 50.574 152.68 50.7347 151.953 50.7961C151.686 50.8174 151.419 50.8316 151.15 50.8316C151.061 50.8316 150.971 50.8268 150.879 50.8221C151.306 50.8316 153.801 50.5291 155.771 47.6862C157.909 44.5999 158.695 38.4888 158.695 38.4888C158.695 38.4888 158.665 35.8444 158.818 35.8609C158.868 35.8656 159.307 36.0145 159.889 36.2178C159.965 36.6951 160 37.1867 159.977 37.6853V37.7751L159.953 38.113L159.932 38.484L159.906 38.9567V38.9614V38.985L159.901 39.0654L159.889 39.2804L160.114 39.2946C160.163 39.2946 160.206 39.2993 160.253 39.3088C160.321 39.3159 160.387 39.33 160.451 39.3442C160.782 39.4222 161.074 39.59 161.294 39.831C161.584 40.1571 161.756 40.5683 161.73 41.0362C161.683 41.8586 161.051 42.5558 160.26 42.6763Z" fill="#F4A891"/>
<path id="Vector_82" d="M145.239 33.8971C145.114 35.0834 144.05 35.946 142.862 35.8184C141.678 35.6931 140.819 34.6273 140.944 33.4387C141.069 32.2523 142.133 31.3898 143.32 31.5174C144.505 31.6426 145.366 32.7084 145.239 33.8971Z" fill="#DB734C"/>
<path id="Vector_83" d="M149.028 33.7482C148.903 34.9345 147.839 35.797 146.651 35.6694C145.467 35.5442 144.608 34.4784 144.733 33.2897C144.858 32.1034 145.922 31.2409 147.109 31.3685C148.294 31.4937 149.155 32.5595 149.028 33.7482Z" fill="#DB734C"/>
<path id="Vector_84" d="M153.138 33.9965C153.013 35.1828 151.948 36.0453 150.761 35.9177C149.577 35.7925 148.715 34.7267 148.843 33.538C148.968 32.3517 150.032 31.4892 151.219 31.6168C152.404 31.742 153.265 32.8078 153.138 33.9965Z" fill="#DB734C"/>
<path id="Vector_85" d="M157.392 34.8307C157.267 36.017 156.202 36.8796 155.015 36.752C153.83 36.6267 152.969 35.5609 153.096 34.3722C153.222 33.1859 154.286 32.3234 155.473 32.451C156.658 32.5762 157.519 33.642 157.392 34.8307Z" fill="#DB734C"/>
<path id="Vector_86" d="M157.084 33.3299L158.758 40.8897C158.859 41.3481 159.492 41.4049 159.671 40.97L162.05 35.2394C162.05 35.2394 160.273 29.2511 157.082 33.3299H157.084Z" fill="#DB734C"/>
<g id="Group_20">
<path id="Vector_87" d="M149.15 101.812L156.834 102.396C160.228 102.653 163.159 101.096 163.346 98.7991L163.301 94.5785L143.76 94.2358L143.512 97.2891C143.326 99.586 145.759 101.552 149.152 101.812H149.15Z" fill="#07113D"/>
<g id="Group_21">
<g id="Group_22">
<path id="Vector_88" d="M148.71 157.42H148.214C147.917 157.42 147.674 157.179 147.674 156.879V149.34L149.928 149.813L149.248 156.928C149.222 157.205 148.988 157.417 148.71 157.417V157.42Z" fill="#07113D"/>
<g id="Group_23">
<path id="Vector_89" d="M143.237 148.882L140.549 153.66C140.094 154.409 139.298 154.879 138.427 154.915C137.734 154.941 137.172 155.494 137.129 156.193C137.082 156.985 137.71 157.647 138.494 157.637H140.669C141.8 157.633 142.888 157.202 143.716 156.427L149.602 150.926C149.883 150.552 150.013 150.087 149.966 149.624C149.859 148.572 148.901 147.823 147.863 147.981L143.237 148.884V148.882Z" fill="#07113D"/>
<path id="Vector_90" d="M143.1 148.272L140.412 153.05C139.957 153.799 139.162 154.27 138.291 154.305C137.597 154.331 137.035 154.884 136.993 155.584C136.946 156.375 137.573 157.037 138.357 157.027H139.917C141.444 157.023 142.914 156.441 144.033 155.395L149.468 150.316C149.749 149.943 149.878 149.477 149.831 149.014C149.725 147.962 148.767 147.213 147.728 147.372L143.103 148.274L143.1 148.272Z" fill="#B95241"/>
<path id="Vector_91" d="M141.031 151.828L142.244 152.571" stroke="#07113D" stroke-width="1.42" stroke-miterlimit="10" stroke-linecap="round"/>
<path id="Vector_92" d="M141.523 150.874L142.736 151.613" stroke="#07113D" stroke-width="1.42" stroke-miterlimit="10" stroke-linecap="round"/>
<path id="Vector_93" d="M142.012 149.959L143.227 150.699" stroke="#07113D" stroke-width="1.42" stroke-miterlimit="10" stroke-linecap="round"/>
</g>
</g>
<path id="Vector_94" d="M143.313 148.196L149.199 148.324L147.337 127.441C147.226 126.708 147.211 125.964 147.296 125.226L152.005 97.5349L143.608 96.5636L139.655 123.088C139.478 124.626 139.508 126.181 139.74 127.715L143.313 148.196Z" fill="#07113D"/>
<path id="Vector_95" d="M149.689 146.942H142.713V148.416H149.689V146.942Z" fill="#9995A7"/>
</g>
<g id="Group_24">
<g id="Group_25">
<path id="Vector_96" d="M162.337 157.857H161.841C161.544 157.857 161.301 157.616 161.301 157.316V149.777L163.555 150.25L162.875 157.365C162.849 157.642 162.615 157.855 162.337 157.855V157.857Z" fill="#07113D"/>
<g id="Group_26">
<path id="Vector_97" d="M156.864 149.317L154.176 154.095C153.721 154.844 152.925 155.314 152.054 155.35C151.361 155.376 150.799 155.929 150.756 156.628C150.709 157.42 151.337 158.082 152.12 158.072H154.296C155.427 158.067 156.515 157.637 157.343 156.862L163.229 151.361C163.51 150.987 163.64 150.522 163.593 150.059C163.486 149.007 162.528 148.258 161.49 148.416L156.864 149.319V149.317Z" fill="#07113D"/>
<path id="Vector_98" d="M156.727 148.707L154.039 153.485C153.584 154.234 152.789 154.704 151.918 154.74C151.224 154.766 150.662 155.319 150.62 156.018C150.572 156.81 151.2 157.472 151.984 157.462H153.544C155.071 157.458 156.541 156.876 157.66 155.829L163.095 150.751C163.376 150.378 163.505 149.912 163.458 149.449C163.352 148.397 162.394 147.648 161.355 147.806L156.73 148.709L156.727 148.707Z" fill="#B95241"/>
<path id="Vector_99" d="M154.656 152.266L155.872 153.005" stroke="#07113D" stroke-width="1.42" stroke-miterlimit="10" stroke-linecap="round"/>
<path id="Vector_100" d="M155.15 151.311L156.363 152.051" stroke="#07113D" stroke-width="1.42" stroke-miterlimit="10" stroke-linecap="round"/>
<path id="Vector_101" d="M155.639 150.396L156.852 151.136" stroke="#07113D" stroke-width="1.42" stroke-miterlimit="10" stroke-linecap="round"/>
</g>
</g>
<path id="Vector_102" d="M156.994 148.579L162.864 148.615L163.227 96.9063L153.459 96.4053L156.994 148.579Z" fill="#07113D"/>
<path id="Vector_103" d="M163.264 147.216H156.668V148.745H163.264V147.216Z" fill="#9995A7"/>
</g>
</g>
<path id="Vector_104" d="M163.488 93.4607H144.773V95.4174H163.488V93.4607Z" fill="#2C3765"/>
<path id="Vector_105" opacity="0.37" d="M164.764 71.1997L163.452 93.2551L157.729 93.5647C157.729 93.5647 157.524 81.7252 157.42 78.1214C157.316 74.5176 161.739 64.1196 161.739 64.1196C161.739 64.1196 163.313 67.1208 164.764 71.202V71.1997Z" fill="#591239"/>
<g id="Group_27">
<g id="Group_28">
<path id="Vector_106" d="M148.338 92.525L152.17 91.1591C152.616 91.0008 153.098 91.2016 153.237 91.6081L153.263 91.6837C153.402 92.0902 153.152 92.5534 152.706 92.7117L148.873 94.0776C148.427 94.2359 147.946 94.0351 147.807 93.6286L147.781 93.553C147.641 93.1465 147.892 92.6833 148.338 92.525Z" fill="#FFC7B0"/>
<g id="Group_29">
<path id="Vector_107" d="M154.188 103.407C154.034 103.658 153.826 103.878 153.567 104.053L146.831 108.602C145.859 109.259 144.54 109.001 143.881 108.027L136.096 96.4692C135.44 95.4956 135.697 94.1722 136.669 93.5152L136.745 93.4632L143.407 88.9661C144.379 88.3092 145.699 88.5668 146.357 89.538L149.345 93.9737L152.325 98.3999L154.143 101.099C154.622 101.817 154.612 102.717 154.19 103.407H154.188Z" fill="#C2C2C7"/>
<path id="Vector_108" d="M143.714 95.6161C144.042 96.0864 143.997 96.6866 143.615 96.9513C143.233 97.2184 142.657 97.0529 142.329 96.5803C142.001 96.11 142.046 95.5098 142.428 95.2451C142.81 94.9804 143.386 95.1435 143.714 95.6161Z" fill="white"/>
</g>
<path id="Vector_109" opacity="0.6" d="M152.326 98.3998L149.487 100.862C149.02 101.295 148.418 101.387 148.149 101.073C148.061 100.969 148.019 100.836 148.019 100.685C148.019 100.378 148.196 100.002 148.512 99.7138L150.485 98.0028L150.31 97.7476L147.53 100.163C147.063 100.588 146.461 100.685 146.195 100.368C146.107 100.264 146.065 100.132 146.065 99.9808C146.065 99.6736 146.242 99.3026 146.558 99.0119L149.463 96.4904L149.44 96.4502C149.399 96.3652 149.362 96.2848 149.326 96.2068L147.035 98.1942C146.565 98.6267 145.961 98.7189 145.692 98.4022C145.607 98.3006 145.564 98.1659 145.564 98.0146C145.564 97.7074 145.744 97.3341 146.058 97.0457L149.029 94.4675C149.043 94.4557 149.057 94.4415 149.074 94.4321C149.135 94.2856 149.222 94.1367 149.345 93.9736L152.326 98.3998Z" fill="#2C3765"/>
<path id="Vector_110" d="M155.644 94.9614C155.644 94.9614 153.619 96.7645 153.048 97.3009C151.944 98.3384 151.134 98.6031 150.388 98.0146L149.253 96.4219C148.767 95.4482 148.585 94.9614 149.185 94.2217L151.153 91.7853C151.75 91.0457 152.852 90.9204 153.598 91.5088L155.09 92.6833C155.835 93.2718 156.246 94.2194 155.647 94.9614H155.644Z" fill="#FFC7B0"/>
<path id="Vector_111" d="M149.774 95.6893L147.01 97.9556C146.576 98.336 146.015 98.4187 145.767 98.1399C145.517 97.861 145.67 97.3246 146.104 96.9441L148.868 94.6779C149.302 94.2974 149.864 94.2147 150.112 94.4935C150.362 94.7724 150.208 95.3088 149.774 95.6893Z" fill="#FFC7B0"/>
<path id="Vector_112" d="M150.241 97.4191L147.477 99.6854C147.043 100.066 146.481 100.149 146.234 99.8697C145.983 99.5909 146.137 99.0545 146.571 98.674L149.335 96.4077C149.769 96.0272 150.331 95.9445 150.578 96.2234C150.828 96.5022 150.675 97.0387 150.241 97.4191Z" fill="#FFC7B0"/>
<path id="Vector_113" d="M152.059 98.036L149.296 100.302C148.861 100.683 148.3 100.765 148.052 100.487C147.802 100.208 147.955 99.6713 148.389 99.2908L151.153 97.0245C151.587 96.6441 152.149 96.5614 152.397 96.8402C152.647 97.1191 152.493 97.6555 152.059 98.036Z" fill="#FFC7B0"/>
</g>
<path id="Vector_114" d="M164.472 84.4925C163.863 85.7828 163.124 86.9928 162.265 88.1011C161.8 88.7013 161.303 89.2708 160.767 89.8073L154.93 95.6467C154.584 95.994 154.171 96.1973 153.741 96.2611C152.941 96.3816 152.089 96.02 151.506 95.2166C150.612 93.9806 151.416 93.033 152.415 92.0381L157.614 86.2389C158.171 85.5938 158.671 84.9179 159.112 84.2184C159.516 83.5827 159.872 82.9257 160.184 82.2522C161.838 78.665 162.202 74.5956 161.359 70.6302L159.979 64.141C159.646 62.586 160.432 61.0712 161.727 60.7593C163.023 60.445 164.345 61.454 164.675 63.0114L166.058 69.503C167.174 74.761 166.561 80.0899 164.472 84.4949V84.4925Z" fill="#FFC7B0"/>
<path id="Vector_115" d="M160.628 81.3613L164.917 83.604C164.305 84.8943 163.704 86.1538 162.844 87.2621L159.34 83.8521L160.626 81.3637L160.628 81.3613Z" fill="#F4A891"/>
<path id="Vector_116" d="M161.165 77.5402C161.194 77.344 161.89 76.2877 160.967 72.1356C160.047 67.9836 158.928 63.6353 159.716 61.5912C160.507 59.5494 162.876 58.3631 164.455 61.0642C166.034 63.7653 167.351 73.7828 167.153 77.077C166.955 80.3713 164.717 85.2488 164.717 85.2488L159.452 81.9546C159.452 81.9546 160.835 79.7805 161.163 77.5402H161.165Z" fill="#D93838"/>
</g>
</g>
</g>
<g id="Group_30">
<g id="Group_31">
<g id="Group_32">
<path id="Vector_117" d="M138.954 4.92236H28.8594V94.8455H138.954V4.92236Z" fill="#464C6B"/>
<path id="Vector_118" d="M136.202 7.16968H31.6113V92.5981H136.202V7.16968Z" fill="white"/>
</g>
<path id="Vector_119" d="M139.094 94.8574H28.707V97.9035H139.094V94.8574Z" fill="#C2C2C7"/>
<g id="Group_33">
<path id="Vector_120" d="M145.481 2.03003H22.9297V10.8612H145.481V2.03003Z" fill="#A8A6B4"/>
<path id="Vector_121" d="M145.481 2.03003H22.9297V8.22625H145.481V2.03003Z" fill="#C2C2C7"/>
<path id="Vector_122" opacity="0.92" d="M49.3625 3.40063H26.8834C26.4624 3.40063 26.1211 3.74238 26.1211 4.16394V4.31282C26.1211 4.73438 26.4624 5.07612 26.8834 5.07612H49.3625C49.7835 5.07612 50.1248 4.73438 50.1248 4.31282V4.16394C50.1248 3.74238 49.7835 3.40063 49.3625 3.40063Z" fill="white"/>
<path id="Vector_123" opacity="0.92" d="M59.4603 3.40063H55.106C54.685 3.40063 54.3438 3.74238 54.3438 4.16394V4.31282C54.3438 4.73438 54.685 5.07612 55.106 5.07612H59.4603C59.8813 5.07612 60.2225 4.73438 60.2225 4.31282V4.16394C60.2225 3.74238 59.8813 3.40063 59.4603 3.40063Z" fill="white"/>
<path id="Vector_124" d="M26.2737 1.92822H24.6523V10.7594H26.2737V1.92822Z" fill="#A8A6B4"/>
<path id="Vector_125" d="M143.25 1.92822H141.629V10.7594H143.25V1.92822Z" fill="#A8A6B4"/>
<g id="Group_34">
<path id="Vector_126" d="M148.421 2.82634V9.559C148.421 11.121 147.241 12.3853 145.785 12.3853C144.328 12.3853 143.148 11.121 143.148 9.559V2.82634C143.148 1.26429 144.328 0 145.785 0C146.514 0 147.172 0.316664 147.649 0.827107C148.126 1.33755 148.421 2.0465 148.421 2.82398V2.82634Z" fill="#07113D"/>
<path id="Vector_127" d="M148.421 2.82634V6.19149C148.421 7.75354 147.241 9.01783 145.785 9.01783C144.328 9.01783 143.148 7.75354 143.148 6.19149V2.82634C143.148 1.26429 144.328 0 145.785 0C146.514 0 147.172 0.316664 147.649 0.827107C148.126 1.33755 148.421 2.0465 148.421 2.82398V2.82634Z" fill="#2C3765"/>
</g>
<g id="Group_35">
<path id="Vector_128" d="M25.2606 2.82634V9.559C25.2606 11.121 24.0805 12.3853 22.6244 12.3853C21.1683 12.3853 19.9883 11.121 19.9883 9.559V2.82634C19.9883 1.26429 21.1683 0 22.6244 0C23.3537 0 24.0121 0.316664 24.4888 0.827107C24.9656 1.33755 25.2606 2.0465 25.2606 2.82398V2.82634Z" fill="#07113D"/>
<path id="Vector_129" d="M25.2606 2.82634V6.19149C25.2606 7.75354 24.0805 9.01783 22.6244 9.01783C21.1683 9.01783 19.9883 7.75354 19.9883 6.19149V2.82634C19.9883 1.26429 21.1683 0 22.6244 0C23.3537 0 24.0121 0.316664 24.4888 0.827107C24.9656 1.33755 25.2606 2.0465 25.2606 2.82398V2.82634Z" fill="#2C3765"/>
</g>
</g>
<path id="Vector_130" d="M39.1801 81.4039L44.2848 77.7504C46.2177 76.342 48.6674 76.2971 50.638 77.637C52.5024 78.906 54.8081 78.9391 56.6985 77.7244L62.5112 73.9906C63.7006 73.2273 65.0742 72.9437 66.417 73.1872L68.652 73.5913C72.9944 74.3758 77.4407 73.6054 81.3937 71.3841L84.1502 69.8362V81.4086H39.1777L39.1801 81.4039Z" fill="#D93838"/>
<path id="Vector_131" d="M38.7402 81.4039H85.3694V68.8413" stroke="#2C3765" stroke-width="2.42" stroke-miterlimit="10" stroke-linecap="round"/>
<path id="Vector_132" d="M39.1801 65.0438L44.2848 61.3903C46.2177 59.9819 48.6674 59.937 50.638 61.2769C52.5024 62.5459 54.8081 62.579 56.6985 61.3643L62.5112 57.6305C63.7006 56.8672 65.0742 56.5836 66.417 56.827L68.652 57.2311C72.9944 58.0157 77.4407 57.2453 81.3937 55.0239L84.1502 53.4761V65.0485H39.1777L39.1801 65.0438Z" fill="#569DCC"/>
<path id="Vector_133" d="M38.7402 65.0438H85.3694V52.4812" stroke="#2C3765" stroke-width="2.42" stroke-miterlimit="10" stroke-linecap="round"/>
<g id="Group_36">
<path id="Vector_134" d="M43.4628 24.832H39.8496V41.0362H43.4628V24.832Z" fill="#569DCC"/>
<path id="Vector_135" d="M49.8065 17.8276H46.1934V41.0339H49.8065V17.8276Z" fill="#569DCC"/>
<path id="Vector_136" d="M56.1503 28.1265H52.5371V41.0341H56.1503V28.1265Z" fill="#569DCC"/>
<path id="Vector_137" d="M56.1503 26.3469H52.5371V28.1264H56.1503V26.3469Z" fill="#C7E223"/>
<path id="Vector_138" d="M43.4628 20.8076H39.8496V24.8321H43.4628V20.8076Z" fill="#C7E223"/>
<path id="Vector_139" d="M62.494 15.2188H58.8809V41.034H62.494V15.2188Z" fill="#569DCC"/>
<path id="Vector_140" d="M68.8866 24.832H65.2734V41.0362H68.8866V24.832Z" fill="#569DCC"/>
<path id="Vector_141" d="M75.2304 32.9331H71.6172V41.034H75.2304V32.9331Z" fill="#569DCC"/>
<path id="Vector_142" d="M42.3819 43.1702H40.9305C40.3335 43.1702 39.8496 43.6547 39.8496 44.2525V44.7582C39.8496 45.356 40.3335 45.8405 40.9305 45.8405H42.3819C42.9789 45.8405 43.4628 45.356 43.4628 44.7582V44.2525C43.4628 43.6547 42.9789 43.1702 42.3819 43.1702Z" fill="#2C3765"/>
<path id="Vector_143" d="M48.7257 43.1702H47.2742C46.6773 43.1702 46.1934 43.6547 46.1934 44.2525V44.7582C46.1934 45.356 46.6773 45.8405 47.2742 45.8405H48.7257C49.3226 45.8405 49.8065 45.356 49.8065 44.7582V44.2525C49.8065 43.6547 49.3226 43.1702 48.7257 43.1702Z" fill="#2C3765"/>
<path id="Vector_144" d="M55.0694 43.1702H53.618C53.021 43.1702 52.5371 43.6547 52.5371 44.2525V44.7582C52.5371 45.356 53.021 45.8405 53.618 45.8405H55.0694C55.6664 45.8405 56.1503 45.356 56.1503 44.7582V44.2525C56.1503 43.6547 55.6664 43.1702 55.0694 43.1702Z" fill="#2C3765"/>
<path id="Vector_145" d="M61.4132 43.1702H59.9617C59.3648 43.1702 58.8809 43.6547 58.8809 44.2525V44.7582C58.8809 45.356 59.3648 45.8405 59.9617 45.8405H61.4132C62.0101 45.8405 62.494 45.356 62.494 44.7582V44.2525C62.494 43.6547 62.0101 43.1702 61.4132 43.1702Z" fill="#2C3765"/>
<path id="Vector_146" d="M67.8057 43.1702H66.3543C65.7574 43.1702 65.2734 43.6547 65.2734 44.2525V44.7582C65.2734 45.356 65.7574 45.8405 66.3543 45.8405H67.8057C68.4027 45.8405 68.8866 45.356 68.8866 44.7582V44.2525C68.8866 43.6547 68.4027 43.1702 67.8057 43.1702Z" fill="#2C3765"/>
<path id="Vector_147" d="M74.1495 43.1702H72.6981C72.1011 43.1702 71.6172 43.6547 71.6172 44.2525V44.7582C71.6172 45.356 72.1011 45.8405 72.6981 45.8405H74.1495C74.7464 45.8405 75.2304 45.356 75.2304 44.7582V44.2525C75.2304 43.6547 74.7464 43.1702 74.1495 43.1702Z" fill="#2C3765"/>
<path id="Vector_148" d="M75.2304 31.1511H71.6172V35.6837H75.2304V31.1511Z" fill="#C7E223"/>
</g>
<g id="Group_37">
<path id="Vector_149" d="M106.603 28.8707H118.713C118.713 35.523 113.247 40.9961 106.603 40.9961C99.9599 40.9961 94.4941 35.523 94.4941 28.8707C94.4941 23.9884 97.4394 19.5622 101.94 17.6812L106.606 28.8707H106.603Z" fill="#FFB339"/>
<path id="Vector_150" d="M118.661 43.2009H95.8279C95.5972 43.2009 95.4102 43.3882 95.4102 43.6192V43.7019C95.4102 43.9329 95.5972 44.1202 95.8279 44.1202H118.661C118.892 44.1202 119.079 43.9329 119.079 43.7019V43.6192C119.079 43.3882 118.892 43.2009 118.661 43.2009Z" fill="#2C3765"/>
<path id="Vector_151" d="M110.448 45.0371H95.7476C95.5613 45.0371 95.4102 45.1884 95.4102 45.375V45.6184C95.4102 45.8051 95.5613 45.9564 95.7476 45.9564H110.448C110.635 45.9564 110.786 45.8051 110.786 45.6184V45.375C110.786 45.1884 110.635 45.0371 110.448 45.0371Z" fill="#2C3765"/>
</g>
<g id="Group_38">
<g id="Group_39">
<path id="Vector_152" d="M114.153 53.7952H94.291V55.0122H114.153V53.7952Z" fill="#4D6199"/>
<path id="Vector_153" d="M125.309 56.5364H94.291V57.7534H125.309V56.5364Z" fill="#4D6199"/>
<path id="Vector_154" d="M115.187 59.2776H94.291V60.4946H115.187V59.2776Z" fill="#4D6199"/>
</g>
<path id="Vector_155" d="M93.0246 54.4048C93.0246 54.9081 92.5809 55.3193 92.0357 55.3193C91.4906 55.3193 91.0469 54.9105 91.0469 54.4048C91.0469 53.8991 91.4882 53.4902 92.0357 53.4902C92.5832 53.4902 93.0246 53.8991 93.0246 54.4048Z" fill="#2C3765"/>
<path id="Vector_156" d="M93.0246 57.4485C93.0246 57.9518 92.5809 58.363 92.0357 58.363C91.4906 58.363 91.0469 57.9542 91.0469 57.4485C91.0469 56.9428 91.4882 56.5339 92.0357 56.5339C92.5832 56.5339 93.0246 56.9428 93.0246 57.4485Z" fill="#2C3765"/>
<path id="Vector_157" d="M93.0246 60.1897C93.0246 60.693 92.5809 61.1042 92.0357 61.1042C91.4906 61.1042 91.0469 60.6954 91.0469 60.1897C91.0469 59.684 91.4882 59.2751 92.0357 59.2751C92.5832 59.2751 93.0246 59.684 93.0246 60.1897Z" fill="#2C3765"/>
</g>
<g id="Group_40">
<path id="Vector_158" d="M91.959 65.3674H116.286" stroke="#2C3765" stroke-width="1.29" stroke-miterlimit="10" stroke-linecap="round"/>
<path id="Vector_159" d="M91.959 70.6443H125.105" stroke="#2C3765" stroke-width="1.29" stroke-miterlimit="10" stroke-linecap="round"/>
<path id="Vector_160" d="M91.959 67.1257H109.749" stroke="#2C3765" stroke-width="1.29" stroke-miterlimit="10" stroke-linecap="round"/>
<path id="Vector_161" d="M91.959 68.8862H125.561" stroke="#2C3765" stroke-width="1.29" stroke-miterlimit="10" stroke-linecap="round"/>
</g>
<g id="Group_41">
<path id="Vector_162" d="M91.959 72.6743H116.286" stroke="#2C3765" stroke-width="1.29" stroke-miterlimit="10" stroke-linecap="round"/>
<path id="Vector_163" d="M91.959 77.9536H125.105" stroke="#2C3765" stroke-width="1.29" stroke-miterlimit="10" stroke-linecap="round"/>
<path id="Vector_164" d="M91.959 74.4348H109.749" stroke="#2C3765" stroke-width="1.29" stroke-miterlimit="10" stroke-linecap="round"/>
<path id="Vector_165" d="M91.959 76.1931H125.561" stroke="#2C3765" stroke-width="1.29" stroke-miterlimit="10" stroke-linecap="round"/>
</g>
<g id="Vector_166" style="mix-blend-mode:multiply" opacity="0.7">
<path d="M138.948 10.8611H28.8105V13.203H138.948V10.8611Z" fill="#2C3765"/>
</g>
</g>
<path id="Vector_167" opacity="0.7" d="M133.187 161H165.949C167.082 161 168 160.081 168 158.946V158.013C168 156.879 167.082 155.959 165.949 155.959H133.187C132.055 155.959 131.137 156.879 131.137 158.013V158.946C131.137 160.081 132.055 161 133.187 161Z" fill="#9995A7"/>
<g id="Group_42">
<path id="Vector_168" opacity="0.7" d="M6.13636 160.74H83.4882C84.6209 160.74 85.5391 159.821 85.5391 158.687V157.753C85.5391 156.619 84.6209 155.699 83.4882 155.699H6.13636C5.00371 155.699 4.08551 156.619 4.08551 157.753V158.687C4.08551 159.821 5.00371 160.74 6.13636 160.74Z" fill="#9995A7"/>
<path id="Vector_169" d="M76.2455 158.765H80.9844V107.363H76.2455V158.765Z" fill="#464C6B"/>
<path id="Vector_170" d="M31.0326 158.765H35.7715L35.7715 107.363H31.0326L31.0326 158.765Z" fill="#464C6B"/>
<path id="Vector_171" d="M33.7059 119.89H10.0137V124.636H33.7059V119.89Z" fill="#464C6B"/>
<path id="Vector_172" d="M80.2867 119.89H54.7324V124.636H80.2867V119.89Z" fill="#464C6B"/>
<path id="Vector_173" d="M53.1459 158.765H57.8848L57.8848 107.363H53.1459L53.1459 158.765Z" fill="#9A92AE"/>
<path id="Vector_174" d="M7.93296 158.765H12.6719L12.6719 107.363H7.93296L7.93296 158.765Z" fill="#9A92AE"/>
</g>
<g id="Group_43">
<g id="Group_44">
<path id="Vector_175" d="M117.127 55.8746L119.445 59.2232C119.714 59.6131 119.645 60.1307 119.289 60.3717L119.223 60.4166C118.866 60.6576 118.357 60.5371 118.085 60.1448L115.768 56.7962C115.499 56.4063 115.567 55.8888 115.923 55.6477L115.99 55.6028C116.346 55.3618 116.856 55.4823 117.127 55.8746Z" fill="#F4A891"/>
<path id="Vector_176" d="M116.685 63.5714C116.685 63.5714 114.417 62.085 113.751 61.6714C112.463 60.8727 111.996 60.1614 112.368 59.2846L113.607 57.7722C114.419 57.0467 114.842 56.7466 115.71 57.1318L118.573 58.4008C119.444 58.786 119.85 59.8164 119.477 60.6931L118.733 62.4395C118.361 63.3138 117.553 63.9566 116.683 63.5714H116.685Z" fill="#F4A891"/>
<path id="Vector_177" d="M114.451 58.0888L111.546 56.0093C111.067 55.6879 110.84 55.168 111.043 54.8537C111.246 54.5394 111.805 54.5465 112.285 54.8679L115.19 56.9474C115.669 57.2688 115.895 57.7887 115.692 58.103C115.489 58.4173 114.93 58.4102 114.451 58.0888Z" fill="#F4A891"/>
<path id="Vector_178" d="M112.906 58.9917L110.001 56.9121C109.522 56.5907 109.295 56.0708 109.498 55.7565C109.701 55.4422 110.261 55.4493 110.74 55.7707L113.645 57.8503C114.124 58.1717 114.35 58.6916 114.148 59.0059C113.945 59.3202 113.385 59.3131 112.906 58.9917Z" fill="#F4A891"/>
<path id="Vector_179" d="M112.783 60.9104L109.878 58.8308C109.399 58.5094 109.172 57.9895 109.375 57.6752C109.578 57.3609 110.138 57.368 110.617 57.6894L113.522 59.769C114.001 60.0904 114.227 60.6103 114.024 60.9246C113.821 61.2389 113.262 61.2318 112.783 60.9104Z" fill="#F4A891"/>
<path id="Vector_180" d="M129.08 69.3752C127.676 69.1224 126.316 68.723 125.025 68.1818C124.324 67.8911 123.645 67.5556 122.989 67.1775L115.835 63.0585C115.408 62.8127 115.106 62.4677 114.932 62.0707C114.606 61.3286 114.733 60.4094 115.354 59.639C116.312 58.4527 117.436 58.9844 118.656 59.6886L125.604 63.2003C126.371 63.5713 127.152 63.8761 127.942 64.1219C128.662 64.3464 129.387 64.5189 130.118 64.6442C134.01 65.3082 138.027 64.5969 141.63 62.7489L147.528 59.7217C148.942 58.9962 150.606 59.3578 151.243 60.5299C151.885 61.6997 151.255 63.2428 149.841 63.9659L143.943 66.9955C139.164 69.4461 133.868 70.2425 129.077 69.3728L129.08 69.3752Z" fill="#F4A891"/>
<path id="Vector_181" d="M131.098 64.8428L130.055 69.5739C128.65 69.321 127.279 69.0682 125.988 68.5246L128.362 64.2473L131.098 64.8428Z" fill="#F4A891"/>
<path id="Vector_182" d="M134.92 64.3678C135.116 64.3442 136.199 64.4978 140.079 62.7679C144.672 60.7191 148.073 58.6584 149.88 57.4248C152.896 55.3665 153.581 61.2342 151.388 63.4651C149.196 65.6959 140.155 69.3683 136.929 70.037C133.7 70.7058 128.416 69.8149 128.416 69.8149L130.219 63.8668C130.219 63.8668 132.676 64.6348 134.923 64.3702L134.92 64.3678Z" fill="#C22D3C"/>
<path id="Vector_183" d="M131.95 64.2165L131.06 66.9838L129.073 67.4517L130.708 68.716L130.243 70.2757L127.404 69.6093L129.382 63.5454L131.95 64.2165Z" fill="white"/>
</g>
<path id="Vector_184" d="M158.754 48.14C158.709 48.2109 158.712 47.3672 158.717 46.0817C158.731 42.5488 158.747 35.6625 157.747 35.1379C154.995 33.6987 143.825 41.5586 143.138 38.4699C142.975 37.7492 142.888 36.9977 142.881 36.232C142.881 36.0713 142.881 35.913 142.888 35.757C142.933 34.514 143.188 33.3253 143.617 32.2288C143.985 31.2977 144.474 30.4305 145.069 29.653V29.6482C147.101 26.9991 150.334 25.3378 153.919 25.4678C154.081 25.4725 154.242 25.4843 154.405 25.4938C158.707 25.8412 162.356 28.4856 163.902 32.4297C164.388 33.6609 164.666 35.0221 164.697 36.4801C164.876 45.3444 159.8 46.5567 158.757 48.1376L158.754 48.14Z" fill="#DB734C"/>
<path id="Vector_185" d="M158.505 48.3669C158.461 48.4378 158.711 47.3673 158.715 46.0818L158.796 45.7982C158.796 45.7982 162.237 43.5768 163.35 38.9308C164.146 35.6153 164.03 33.4176 163.9 32.4321C164.698 33.8902 165.123 35.6744 165.151 37.1325C165.331 45.9967 159.549 46.786 158.505 48.3669Z" fill="#B95241"/>
<path id="Vector_186" d="M154.164 62.6568C155.774 62.827 157.227 61.6501 157.4 60.0408L158.851 45.6444C159.021 44.0327 157.756 44.1367 156.149 43.9666C154.542 43.7964 153.086 44.9733 152.913 46.5826L151.551 59.4169C151.382 61.0262 152.557 62.4843 154.164 62.6568Z" fill="#F4A891"/>
<g id="Group_45">
<path id="Vector_187" d="M159.657 42.9766C159.648 43.0782 159.636 43.1727 159.622 43.272C159.619 43.3027 159.612 43.3358 159.607 43.3665C159.426 44.6024 158.991 45.7533 158.368 46.7623C158.338 46.812 158.307 46.8616 158.274 46.9112C157.259 48.4756 155.784 49.6809 154.059 50.3236C154.054 50.3284 154.052 50.326 154.052 50.326C153.384 50.5741 152.678 50.7348 151.951 50.7963C151.685 50.8175 151.418 50.8317 151.149 50.8317C151.059 50.8317 150.97 50.827 150.878 50.8223C150.84 50.8223 150.821 50.8223 150.821 50.8223C150.427 50.7986 150.045 50.7537 149.669 50.6734C149.561 50.6568 149.455 50.6356 149.348 50.6049C145.846 49.7636 143.248 46.6442 142.96 42.908C142.929 42.5087 142.922 42.0975 142.946 41.6886L142.983 41.0624L143.222 36.8938C143.255 36.2652 143.328 35.6578 143.46 35.0765C143.557 34.6228 143.701 34.1832 143.887 33.7626C144.378 32.6566 144.994 31.6759 145.856 30.8748C147.467 29.3742 149.643 28.5093 151.954 28.6298C153.684 28.7196 155.263 29.3506 156.561 30.3549C156.747 30.5014 156.929 30.655 157.106 30.8157C157.981 31.6192 158.692 32.6117 159.178 33.7248C159.178 33.7248 159.178 33.7295 159.178 33.7342C159.305 34.0249 159.423 34.3297 159.515 34.637C159.532 34.6937 159.548 34.7433 159.563 34.8047C159.676 35.1781 159.773 35.5633 159.841 35.9556C159.858 36.043 159.872 36.1305 159.886 36.2203C159.961 36.6976 159.997 37.1892 159.973 37.6878V37.7776L159.95 38.1155L159.928 38.4865L159.902 38.9592V38.9639V38.9875L159.898 39.0679L159.886 39.2829V39.2877L159.751 41.5398L159.711 42.2841L159.695 42.5654L159.688 42.6268C159.688 42.6481 159.688 42.667 159.683 42.6859C159.678 42.7851 159.671 42.8844 159.657 42.9789V42.9766Z" fill="#FFC7B0"/>
<path id="Vector_188" d="M160.259 42.6763C160.188 42.6881 160.113 42.6929 160.033 42.6952C160 42.7023 159.957 42.6976 159.919 42.6952L159.683 42.6834L159.391 42.6692L159.45 41.5491L159.464 41.2986L159.577 39.2639L159.886 39.2805L160.11 39.2946C160.16 39.2946 160.202 39.2994 160.25 39.3088C160.318 39.3159 160.384 39.3301 160.448 39.3443C160.778 39.4223 161.071 39.59 161.29 39.8311C161.581 40.1572 161.753 40.5684 161.727 41.0363C161.68 41.8587 161.047 42.5558 160.257 42.6763H160.259Z" fill="#FFC4BC"/>
</g>
<path id="Vector_189" d="M147.188 42.7969C147.188 42.7969 147.223 43.4349 148.11 43.5011C148.891 43.5578 149.028 43.0214 149.028 43.0214L147.188 42.7992V42.7969Z" fill="#F4A891"/>
<path id="Vector_190" d="M159.422 35.5114C159.422 35.5114 144.561 31.8674 143.167 34.8875C143.167 34.8875 142.909 31.6381 147.62 28.826C152.33 26.0138 159.755 29.5657 160.229 31.0355C160.704 32.5054 160.51 33.5901 160.51 33.5901L159.422 35.509V35.5114Z" fill="#DB734C"/>
<g id="Group_46">
<path id="Vector_191" d="M150.564 38.2125C150.564 38.2125 152.504 37.5343 154.017 38.8695" stroke="#B95241" stroke-width="1.31" stroke-miterlimit="10" stroke-linecap="round"/>
<path id="Vector_192" d="M143.971 37.3877C143.971 37.3877 145.837 36.6882 147.442 37.9218" stroke="#B95241" stroke-width="1.31" stroke-miterlimit="10" stroke-linecap="round"/>
</g>
<path id="Vector_193" d="M151.663 41.16L151.734 41.1675C151.929 41.1884 152.105 41.0465 152.126 40.8505L152.21 40.0586C152.231 39.8626 152.089 39.6868 151.893 39.666L151.823 39.6585C151.627 39.6376 151.452 39.7795 151.431 39.9755L151.347 40.7674C151.326 40.9634 151.467 41.1391 151.663 41.16Z" fill="#07113D"/>
<path id="Vector_194" d="M145.638 40.517L145.708 40.5245C145.904 40.5453 146.079 40.4034 146.1 40.2074L146.184 39.4155C146.205 39.2196 146.064 39.0438 145.868 39.0229L145.797 39.0154C145.602 38.9945 145.426 39.1365 145.405 39.3324L145.321 40.1243C145.3 40.3203 145.442 40.4961 145.638 40.517Z" fill="#07113D"/>
<path id="Vector_195" d="M164.952 68.0545L164.766 71.1999L163.413 93.9359L163.359 94.841H163.336L157.882 94.607L144.861 94.0493L146.006 80.3878L144.991 67.8442C144.97 67.6527 144.968 67.459 144.977 67.2676C145.416 60.3978 147.96 55.2296 152.817 53.7432L152.345 62.3687C152.93 62.3687 157.294 53.7952 157.848 53.8897C158.696 54.0386 159.463 54.3623 160.157 54.8373C163.234 56.9453 164.787 62.0402 164.95 68.0568L164.952 68.0545Z" fill="#D93838"/>
<path id="Vector_196" d="M146.369 44.6828L149.831 45.1885C149.831 45.1885 149.246 46.1621 147.882 46.0156C146.782 45.8974 146.369 44.6804 146.369 44.6804V44.6828Z" fill="#D93838"/>
<path id="Vector_197" d="M160.26 42.6763C160.189 42.6881 160.114 42.6928 160.033 42.6952C160 42.7023 159.958 42.6975 159.92 42.6952L159.684 42.6834C159.679 42.7826 159.672 42.8819 159.658 42.9764C159.649 43.078 159.637 43.1725 159.623 43.2718C159.62 43.3025 159.613 43.3356 159.609 43.3663C159.427 44.6023 158.993 45.7531 158.37 46.7622C158.339 46.8118 158.308 46.8614 158.275 46.9111C157.26 48.4755 155.785 49.6807 154.06 50.3235C154.055 50.3282 154.053 50.3258 154.053 50.3258C153.385 50.574 152.68 50.7347 151.953 50.7961C151.686 50.8174 151.419 50.8316 151.15 50.8316C151.061 50.8316 150.971 50.8268 150.879 50.8221C151.306 50.8316 153.801 50.5291 155.771 47.6862C157.909 44.5999 158.695 38.4888 158.695 38.4888C158.695 38.4888 158.665 35.8444 158.818 35.8609C158.868 35.8656 159.307 36.0145 159.889 36.2178C159.965 36.6951 160 37.1867 159.977 37.6853V37.7751L159.953 38.113L159.932 38.484L159.906 38.9567V38.9614V38.985L159.901 39.0654L159.889 39.2804L160.114 39.2946C160.163 39.2946 160.206 39.2993 160.253 39.3088C160.321 39.3159 160.387 39.33 160.451 39.3442C160.782 39.4222 161.074 39.59 161.294 39.831C161.584 40.1571 161.756 40.5683 161.73 41.0362C161.683 41.8586 161.051 42.5558 160.26 42.6763Z" fill="#F4A891"/>
<path id="Vector_198" d="M145.239 33.8971C145.114 35.0834 144.05 35.946 142.862 35.8184C141.678 35.6931 140.819 34.6273 140.944 33.4387C141.069 32.2523 142.133 31.3898 143.32 31.5174C144.505 31.6426 145.366 32.7084 145.239 33.8971Z" fill="#DB734C"/>
<path id="Vector_199" d="M149.028 33.7484C148.903 34.9347 147.839 35.7973 146.651 35.6697C145.467 35.5444 144.608 34.4786 144.733 33.29C144.858 32.1037 145.922 31.2411 147.109 31.3687C148.294 31.494 149.155 32.5598 149.028 33.7484Z" fill="#DB734C"/>
<path id="Vector_200" d="M153.138 33.9965C153.013 35.1828 151.948 36.0453 150.761 35.9177C149.577 35.7925 148.715 34.7267 148.843 33.538C148.968 32.3517 150.032 31.4892 151.219 31.6168C152.404 31.742 153.265 32.8078 153.138 33.9965Z" fill="#DB734C"/>
<path id="Vector_201" d="M157.392 34.8307C157.267 36.017 156.202 36.8796 155.015 36.752C153.83 36.6267 152.969 35.5609 153.096 34.3722C153.222 33.1859 154.286 32.3234 155.473 32.451C156.658 32.5762 157.519 33.642 157.392 34.8307Z" fill="#DB734C"/>
<path id="Vector_202" d="M157.084 33.3302L158.758 40.8899C158.859 41.3484 159.492 41.4051 159.671 40.9703L162.05 35.2396C162.05 35.2396 160.273 29.2513 157.082 33.3302H157.084Z" fill="#DB734C"/>
<path id="Vector_203" d="M158.552 53.821L158.656 51.6587H155.021L153.239 57.4248L152.829 51.7272L151.458 51.6587L151.047 67.102L158.552 53.821Z" fill="white"/>
<g id="Group_47">
<path id="Vector_204" d="M149.15 101.812L156.834 102.396C160.228 102.653 163.159 101.096 163.346 98.7991L163.301 94.5785L143.76 94.2358L143.512 97.2891C143.326 99.586 145.759 101.552 149.152 101.812H149.15Z" fill="#07113D"/>
<g id="Group_48">
<g id="Group_49">
<path id="Vector_205" d="M148.71 157.42H148.214C147.917 157.42 147.674 157.179 147.674 156.879V149.34L149.928 149.813L149.248 156.928C149.222 157.205 148.988 157.417 148.71 157.417V157.42Z" fill="#07113D"/>
<g id="Group_50">
<path id="Vector_206" d="M143.237 148.882L140.549 153.66C140.094 154.409 139.298 154.879 138.427 154.915C137.734 154.941 137.172 155.494 137.129 156.193C137.082 156.985 137.71 157.647 138.494 157.637H140.669C141.8 157.633 142.888 157.202 143.716 156.427L149.602 150.926C149.883 150.552 150.013 150.087 149.966 149.624C149.859 148.572 148.901 147.823 147.863 147.981L143.237 148.884V148.882Z" fill="#07113D"/>
<path id="Vector_207" d="M143.1 148.272L140.412 153.05C139.957 153.799 139.162 154.27 138.291 154.305C137.597 154.331 137.035 154.884 136.993 155.584C136.946 156.375 137.573 157.037 138.357 157.027H139.917C141.444 157.023 142.914 156.441 144.033 155.395L149.468 150.316C149.749 149.943 149.878 149.477 149.831 149.014C149.725 147.962 148.767 147.213 147.728 147.372L143.103 148.274L143.1 148.272Z" fill="#B95241"/>
<path id="Vector_208" d="M141.031 151.828L142.244 152.571" stroke="#07113D" stroke-width="1.42" stroke-miterlimit="10" stroke-linecap="round"/>
<path id="Vector_209" d="M141.523 150.874L142.736 151.613" stroke="#07113D" stroke-width="1.42" stroke-miterlimit="10" stroke-linecap="round"/>
<path id="Vector_210" d="M142.012 149.959L143.227 150.699" stroke="#07113D" stroke-width="1.42" stroke-miterlimit="10" stroke-linecap="round"/>
</g>
</g>
<path id="Vector_211" d="M149.689 146.942H142.713V148.416H149.689V146.942Z" fill="#D15B4B"/>
</g>
<g id="Group_51">
<g id="Group_52">
<path id="Vector_212" d="M162.337 157.857H161.841C161.544 157.857 161.301 157.616 161.301 157.316V149.777L163.555 150.25L162.875 157.365C162.849 157.642 162.615 157.855 162.337 157.855V157.857Z" fill="#07113D"/>
<g id="Group_53">
<path id="Vector_213" d="M156.864 149.317L154.176 154.095C153.721 154.844 152.925 155.314 152.054 155.35C151.361 155.376 150.799 155.929 150.756 156.628C150.709 157.42 151.337 158.082 152.12 158.072H154.296C155.427 158.067 156.515 157.637 157.343 156.862L163.229 151.361C163.51 150.987 163.64 150.522 163.593 150.059C163.486 149.007 162.528 148.258 161.49 148.416L156.864 149.319V149.317Z" fill="#07113D"/>
<path id="Vector_214" d="M156.727 148.707L154.039 153.485C153.584 154.234 152.789 154.704 151.918 154.74C151.224 154.766 150.662 155.319 150.62 156.018C150.572 156.81 151.2 157.472 151.984 157.462H153.544C155.071 157.458 156.541 156.876 157.66 155.829L163.095 150.751C163.376 150.378 163.505 149.912 163.458 149.449C163.352 148.397 162.394 147.648 161.355 147.806L156.73 148.709L156.727 148.707Z" fill="#B95241"/>
<path id="Vector_215" d="M154.656 152.266L155.872 153.005" stroke="#07113D" stroke-width="1.42" stroke-miterlimit="10" stroke-linecap="round"/>
<path id="Vector_216" d="M155.15 151.311L156.363 152.051" stroke="#07113D" stroke-width="1.42" stroke-miterlimit="10" stroke-linecap="round"/>
<path id="Vector_217" d="M155.639 150.396L156.852 151.136" stroke="#07113D" stroke-width="1.42" stroke-miterlimit="10" stroke-linecap="round"/>
</g>
</g>
<path id="Vector_218" d="M163.264 147.216H156.668V148.745H163.264V147.216Z" fill="#D15B4B"/>
</g>
</g>
<path id="Vector_219" d="M163.488 93.4607H144.773V95.4174H163.488V93.4607Z" fill="#2C3765"/>
<path id="Vector_220" opacity="0.37" d="M164.764 71.1997L163.452 93.2551L157.729 93.5647C157.729 93.5647 157.524 81.7252 157.42 78.1214C157.316 74.5176 161.739 64.1196 161.739 64.1196C161.739 64.1196 163.313 67.1208 164.764 71.202V71.1997Z" fill="#591239"/>
<g id="Group_54">
<g id="Group_55">
<path id="Vector_221" d="M148.338 92.525L152.17 91.1591C152.616 91.0008 153.098 91.2016 153.237 91.6081L153.263 91.6837C153.402 92.0902 153.152 92.5534 152.706 92.7117L148.873 94.0776C148.427 94.2359 147.946 94.0351 147.807 93.6286L147.781 93.553C147.641 93.1465 147.892 92.6833 148.338 92.525Z" fill="#FFC7B0"/>
<g id="Group_56">
<path id="Vector_222" d="M154.188 103.407C154.034 103.658 153.826 103.878 153.567 104.053L146.831 108.602C145.859 109.259 144.54 109.001 143.881 108.027L136.096 96.4692C135.44 95.4956 135.697 94.1722 136.669 93.5152L136.745 93.4632L143.407 88.9661C144.379 88.3092 145.699 88.5668 146.357 89.538L149.345 93.9737L152.325 98.3999L154.143 101.099C154.622 101.817 154.612 102.717 154.19 103.407H154.188Z" fill="#C2C2C7"/>
<path id="Vector_223" d="M143.714 95.6161C144.042 96.0864 143.997 96.6866 143.615 96.9513C143.233 97.2184 142.657 97.0529 142.329 96.5803C142.001 96.11 142.046 95.5098 142.428 95.2451C142.81 94.9804 143.386 95.1435 143.714 95.6161Z" fill="white"/>
</g>
<path id="Vector_224" opacity="0.6" d="M152.326 98.3998L149.487 100.862C149.02 101.295 148.418 101.387 148.149 101.073C148.061 100.969 148.019 100.836 148.019 100.685C148.019 100.378 148.196 100.002 148.512 99.7138L150.485 98.0028L150.31 97.7476L147.53 100.163C147.063 100.588 146.461 100.685 146.195 100.368C146.107 100.264 146.065 100.132 146.065 99.9808C146.065 99.6736 146.242 99.3026 146.558 99.0119L149.463 96.4904L149.44 96.4502C149.399 96.3652 149.362 96.2848 149.326 96.2068L147.035 98.1942C146.565 98.6267 145.961 98.7189 145.692 98.4022C145.607 98.3006 145.564 98.1659 145.564 98.0146C145.564 97.7074 145.744 97.3341 146.058 97.0457L149.029 94.4675C149.043 94.4557 149.057 94.4415 149.074 94.4321C149.135 94.2856 149.222 94.1367 149.345 93.9736L152.326 98.3998Z" fill="#2C3765"/>
<path id="Vector_225" d="M155.644 94.9614C155.644 94.9614 153.619 96.7645 153.048 97.3009C151.944 98.3384 151.134 98.6031 150.388 98.0146L149.253 96.4219C148.767 95.4482 148.585 94.9614 149.185 94.2217L151.153 91.7853C151.75 91.0457 152.852 90.9204 153.598 91.5088L155.09 92.6833C155.835 93.2718 156.246 94.2194 155.647 94.9614H155.644Z" fill="#FFC7B0"/>
<path id="Vector_226" d="M149.774 95.6893L147.01 97.9556C146.576 98.336 146.015 98.4187 145.767 98.1399C145.517 97.861 145.67 97.3246 146.104 96.9441L148.868 94.6779C149.302 94.2974 149.864 94.2147 150.112 94.4935C150.362 94.7724 150.208 95.3088 149.774 95.6893Z" fill="#FFC7B0"/>
<path id="Vector_227" d="M150.241 97.4191L147.477 99.6854C147.043 100.066 146.481 100.149 146.234 99.8697C145.983 99.5909 146.137 99.0545 146.571 98.674L149.335 96.4077C149.769 96.0272 150.331 95.9445 150.578 96.2234C150.828 96.5022 150.675 97.0387 150.241 97.4191Z" fill="#FFC7B0"/>
<path id="Vector_228" d="M152.059 98.036L149.296 100.302C148.861 100.683 148.3 100.765 148.052 100.487C147.802 100.208 147.955 99.6713 148.389 99.2908L151.153 97.0245C151.587 96.6441 152.149 96.5614 152.397 96.8402C152.647 97.1191 152.493 97.6555 152.059 98.036Z" fill="#FFC7B0"/>
</g>
<path id="Vector_229" d="M164.472 84.4925C163.863 85.7828 163.124 86.9928 162.265 88.1011C161.8 88.7013 161.303 89.2708 160.767 89.8073L154.93 95.6467C154.584 95.994 154.171 96.1973 153.741 96.2611C152.941 96.3816 152.089 96.02 151.506 95.2166C150.612 93.9806 151.416 93.033 152.415 92.0381L157.614 86.2389C158.171 85.5938 158.671 84.9179 159.112 84.2184C159.516 83.5827 159.872 82.9257 160.184 82.2522C161.838 78.665 162.202 74.5956 161.359 70.6302L159.979 64.141C159.646 62.586 160.432 61.0712 161.727 60.7593C163.023 60.445 164.345 61.454 164.675 63.0114L166.058 69.503C167.174 74.761 166.561 80.0899 164.472 84.4949V84.4925Z" fill="#FFC7B0"/>
<path id="Vector_230" d="M160.628 81.3613L164.917 83.604C164.305 84.8943 163.704 86.1538 162.844 87.2621L159.34 83.8521L160.626 81.3637L160.628 81.3613Z" fill="#F4A891"/>
<path id="Vector_231" d="M161.165 77.5402C161.194 77.344 161.89 76.2877 160.967 72.1356C160.047 67.9835 158.928 63.6353 159.716 61.5912C160.507 59.5494 160.217 54.367 162.086 56.8767C167.523 64.1788 167.351 73.7804 167.153 77.077C166.955 80.3712 164.717 85.2488 164.717 85.2488L159.452 81.9546C159.452 81.9546 160.835 79.7805 161.163 77.5402H161.165Z" fill="#D93838"/>
<path id="Vector_232" d="M160.247 80.3735L162.682 81.9545L162.616 83.9986L164.261 82.7462L165.642 83.6016L164.261 86.1727L158.93 82.68L160.247 80.3735Z" fill="white"/>
</g>
</g>
</g>
</g>
<path id="Vector_233" d="M19.4744 102.694H83.5323C84.5825 102.694 85.4345 103.547 85.4345 104.598V109.103H17.5723V104.598C17.5723 103.547 18.4242 102.694 19.4744 102.694Z" fill="#A84835"/>
<path id="Vector_234" d="M1.90217 102.694H60.0364C61.0866 102.694 61.9386 103.547 61.9386 104.598V109.103H0V104.598C0 103.547 0.851965 102.694 1.90217 102.694Z" fill="#C96239"/>
<g id="Group_57">
<g id="Group_58">
<path id="Vector_235" d="M20.521 102.039H41.6643C43.0473 102.039 44.6144 101.9 44.0267 100.645L36.0003 83.5923C35.3584 82.2193 33.9801 81.3425 32.465 81.3425H12.9996C11.9919 81.3425 11.324 82.3918 11.7535 83.3063L20.5233 102.039H20.521Z" fill="#A7A7B7"/>
<g id="Group_59">
<path id="Vector_236" d="M41.8901 102.774H56.9658C57.5747 102.774 58.0727 102.275 58.0727 101.666C58.0727 101.056 57.5747 100.557 56.9658 100.557H41.8901C41.2812 100.557 40.7832 101.056 40.7832 101.666C40.7832 102.275 41.2812 102.774 41.8901 102.774Z" fill="#616172"/>
<g id="Group_60">
<path id="Vector_237" d="M47.3086 101.94H49.4609V101.292H47.3086V101.94Z" fill="#0E2244"/>
<path id="Vector_238" d="M50.108 101.94H51.668V101.292H50.108V101.94Z" fill="#0E2244"/>
</g>
</g>
<path id="Vector_239" d="M21.1435 102.722H42.3365C43.0964 102.722 43.5991 101.93 43.2781 101.24L35.3367 84.2751C34.6947 82.9021 33.3165 82.0254 31.8014 82.0254H12.3336C11.3259 82.0254 10.658 83.0746 11.0875 83.9892L19.3098 101.555C19.6426 102.266 20.3576 102.722 21.1435 102.722Z" fill="#494956"/>
</g>
<path id="Vector_240" d="M25.7713 93.5814C26.274 94.7582 27.2133 95.4861 27.8694 95.2049C28.5254 94.9237 28.6505 93.7421 28.1478 92.5652C27.6452 91.3884 26.7059 90.6605 26.0498 90.9417C25.3937 91.223 25.2686 92.4045 25.7713 93.5814Z" fill="white"/>
</g>
<g id="Group_61">
<g id="Group_62">
<path id="Vector_241" d="M60.5312 93.5671V102.753H68.1942V93.5671C68.1942 93.163 67.8662 92.8345 67.4626 92.8345H61.2652C60.8617 92.8345 60.5336 93.163 60.5336 93.5671H60.5312Z" fill="#FFB339"/>
<path id="Vector_242" d="M67.9339 100.635C68.033 100.579 70.386 99.1985 70.596 96.7809C70.6763 95.8593 70.327 95.2898 70.0225 94.9731C69.18 94.1035 67.7805 94.1531 67.6248 94.1602L67.6861 95.2803C67.9693 95.2661 68.8071 95.3252 69.2201 95.7553C69.4302 95.9751 69.5151 96.2776 69.4797 96.684C69.3192 98.5226 67.3958 99.6498 67.377 99.6616L67.9363 100.635H67.9339Z" fill="#FFB339"/>
</g>
<path id="Vector_243" d="M61.3691 93.9097V96.7195C61.3691 97.2205 62.1456 97.2205 62.1456 96.7195V93.9097C62.1456 93.4087 61.3691 93.4087 61.3691 93.9097Z" fill="white"/>
<path id="Vector_244" d="M61.6707 97.712C61.4606 97.7215 61.2812 97.8821 61.2812 98.1019V98.6644C61.2812 98.8676 61.4606 99.0637 61.6707 99.0543C61.8807 99.0448 62.0601 98.8841 62.0601 98.6644V98.1019C62.0601 97.8987 61.8807 97.7025 61.6707 97.712Z" fill="white"/>
</g>
</g>
</g>
</g>
<defs>
<clipPath id="clip0_5895_59016">
<rect width="168" height="161" fill="white"/>
</clipPath>
</defs>
</svg>
