<svg width="32" height="32" viewBox="0 0 32 32" fill="none" xmlns="http://www.w3.org/2000/svg">
<path fill-rule="evenodd" clip-rule="evenodd" d="M11.9066 5.95999C10.1963 5.77039 8.47023 5.77039 6.75991 5.95999C6.56255 5.9822 6.37833 6.06992 6.23669 6.20914C6.09505 6.34836 6.00417 6.53105 5.97858 6.72799C5.77607 8.45898 5.77607 10.2077 5.97858 11.9387C6.00423 12.1358 6.09531 12.3187 6.23721 12.4579C6.37912 12.5971 6.56365 12.6847 6.76125 12.7067C8.45591 12.896 10.2106 12.896 11.9052 12.7067C12.1028 12.6847 12.2874 12.5971 12.4293 12.4579C12.5712 12.3187 12.6623 12.1358 12.6879 11.9387C12.8906 10.208 12.8906 8.45866 12.6879 6.72799C12.6623 6.53084 12.5712 6.34801 12.4293 6.20876C12.2874 6.06951 12.1028 5.98192 11.9052 5.95999H11.9066ZM6.53725 3.97333C8.39466 3.76735 10.2692 3.76735 12.1266 3.97333C13.4466 4.12 14.5172 5.16 14.6732 6.496C14.8937 8.38113 14.8937 10.2855 14.6732 12.1707C14.595 12.8165 14.3009 13.4171 13.8387 13.8749C13.3764 14.3328 12.7732 14.6212 12.1266 14.6933C10.2839 14.9 8.37991 14.9 6.53725 14.6933C5.89066 14.6212 5.28738 14.3328 4.82516 13.8749C4.36294 13.4171 4.06887 12.8165 3.99058 12.1707C3.77007 10.2855 3.77007 8.38112 3.99058 6.496C4.06887 5.85012 4.36294 5.2496 4.82516 4.79174C5.28738 4.33387 5.89066 4.0455 6.53725 3.97333ZM11.9066 19.2933C10.1963 19.1037 8.47023 19.1037 6.75991 19.2933C6.56255 19.3155 6.37833 19.4033 6.23669 19.5425C6.09505 19.6817 6.00417 19.8644 5.97858 20.0613C5.77607 21.7923 5.77607 23.541 5.97858 25.272C6.00423 25.4691 6.09531 25.652 6.23721 25.7912C6.37912 25.9305 6.56365 26.0181 6.76125 26.04C8.45591 26.2293 10.2106 26.2293 11.9052 26.04C12.1028 26.0181 12.2874 25.9305 12.4293 25.7912C12.5712 25.652 12.6623 25.4691 12.6879 25.272C12.8906 23.5413 12.8906 21.792 12.6879 20.0627C12.6625 19.8653 12.5716 19.6821 12.4297 19.5426C12.2877 19.4031 12.103 19.3153 11.9052 19.2933H11.9066ZM6.53858 17.3067C8.396 17.1008 10.2705 17.1008 12.1279 17.3067C13.4479 17.4533 14.5186 18.4933 14.6746 19.8293C14.895 21.7145 14.895 23.6189 14.6746 25.504C14.5966 26.1501 14.3026 26.7509 13.8404 27.2091C13.3781 27.6672 12.7747 27.9558 12.1279 28.028C10.2852 28.2333 8.38125 28.2333 6.53858 28.028C5.89179 27.9558 5.28836 27.6672 4.82612 27.2091C4.36387 26.7509 4.06992 26.1501 3.99191 25.504C3.7714 23.6189 3.7714 21.7145 3.99191 19.8293C4.0702 19.1835 4.36428 18.5829 4.8265 18.1251C5.28871 17.6672 5.89199 17.3788 6.53858 17.3067ZM25.2399 5.95999C23.5296 5.7704 21.8036 5.7704 20.0932 5.95999C19.8959 5.9822 19.7117 6.06992 19.57 6.20914C19.4284 6.34836 19.3375 6.53105 19.3119 6.72799C19.1094 8.45898 19.1094 10.2077 19.3119 11.9387C19.3376 12.1358 19.4286 12.3187 19.5705 12.4579C19.7125 12.5971 19.897 12.6847 20.0946 12.7067C21.7892 12.896 23.5439 12.896 25.2386 12.7067C25.4362 12.6847 25.6207 12.5971 25.7626 12.4579C25.9045 12.3187 25.9956 12.1358 26.0212 11.9387C26.2239 10.208 26.2239 8.45866 26.0212 6.72799C25.9956 6.53084 25.9045 6.34801 25.7626 6.20876C25.6207 6.06951 25.4375 5.98192 25.2399 5.95999ZM19.8719 3.97333C21.7293 3.76735 23.6038 3.76735 25.4612 3.97333C26.7812 4.12 27.8519 5.16 28.0079 6.496C28.2284 8.38113 28.2284 10.2855 28.0079 12.1707C27.9296 12.8165 27.6356 13.4171 27.1733 13.8749C26.7111 14.3328 26.1078 14.6212 25.4612 14.6933C23.6186 14.9 21.7146 14.9 19.8719 14.6933C19.2253 14.6212 18.622 14.3328 18.1598 13.8749C17.6976 13.4171 17.4035 12.8165 17.3252 12.1707C17.1047 10.2855 17.1047 8.38112 17.3252 6.496C17.4035 5.85012 17.6976 5.2496 18.1598 4.79174C18.622 4.33387 19.2253 4.0455 19.8719 3.97333ZM25.2399 19.2933C23.5296 19.1037 21.8036 19.1037 20.0932 19.2933C19.8959 19.3155 19.7117 19.4033 19.57 19.5425C19.4284 19.6817 19.3375 19.8644 19.3119 20.0613C19.1094 21.7923 19.1094 23.541 19.3119 25.272C19.3376 25.4691 19.4286 25.652 19.5705 25.7912C19.7125 25.9305 19.897 26.0181 20.0946 26.04C21.7892 26.2293 23.5439 26.2293 25.2386 26.04C25.4362 26.0181 25.6207 25.9305 25.7626 25.7912C25.9045 25.652 25.9956 25.4691 26.0212 25.272C26.2239 23.5413 26.2239 21.792 26.0212 20.0627C25.9959 19.8653 25.9049 19.6821 25.763 19.5426C25.6211 19.4031 25.4377 19.3153 25.2399 19.2933ZM19.8719 17.3067C21.7293 17.1008 23.6038 17.1008 25.4612 17.3067C26.7812 17.4533 27.8519 18.4933 28.0079 19.8293C28.2284 21.7145 28.2284 23.6189 28.0079 25.504C27.9299 26.1501 27.636 26.7509 27.1737 27.2091C26.7115 27.6672 26.108 27.9558 25.4612 28.028C23.6186 28.2333 21.7146 28.2333 19.8719 28.028C19.2251 27.9558 18.6217 27.6672 18.1595 27.2091C17.6972 26.7509 17.4033 26.1501 17.3252 25.504C17.1047 23.6189 17.1047 21.7145 17.3252 19.8293C17.4035 19.1835 17.6976 18.5829 18.1598 18.1251C18.622 17.6672 19.2253 17.3788 19.8719 17.3067Z" fill="#0267D9"/>
</svg>
