<svg width="32" height="32" viewBox="0 0 32 32" fill="none" xmlns="http://www.w3.org/2000/svg">
<path fill-rule="evenodd" clip-rule="evenodd" d="M11.9067 5.96048C10.1964 5.77088 8.47035 5.77088 6.76004 5.96048C6.56267 5.98268 6.37845 6.07041 6.23681 6.20963C6.09517 6.34885 6.0043 6.53153 5.9787 6.72848C5.77619 8.45947 5.77619 10.2082 5.9787 11.9392C6.00436 12.1363 6.09543 12.3191 6.23733 12.4584C6.37924 12.5976 6.56377 12.6852 6.76137 12.7071C8.45604 12.8965 10.2107 12.8965 11.9054 12.7071C12.103 12.6852 12.2875 12.5976 12.4294 12.4584C12.5713 12.3191 12.6624 12.1363 12.688 11.9392C12.8907 10.2085 12.8907 8.45915 12.688 6.72848C12.6624 6.53133 12.5713 6.34849 12.4294 6.20925C12.2875 6.07 12.103 5.9824 11.9054 5.96048H11.9067ZM6.53737 3.97382C8.39479 3.76784 10.2693 3.76784 12.1267 3.97382C13.4467 4.12048 14.5174 5.16048 14.6734 6.49648C14.8938 8.38162 14.8938 10.286 14.6734 12.1712C14.5951 12.817 14.301 13.4175 13.8388 13.8754C13.3766 14.3333 12.7733 14.6216 12.1267 14.6938C10.284 14.9005 8.38003 14.9005 6.53737 14.6938C5.89078 14.6216 5.2875 14.3333 4.82528 13.8754C4.36307 13.4175 4.06899 12.817 3.9907 12.1712C3.77019 10.286 3.77019 8.38161 3.9907 6.49648C4.06899 5.85061 4.36307 5.25009 4.82528 4.79223C5.2875 4.33436 5.89078 4.04598 6.53737 3.97382ZM11.9067 19.2938C10.1964 19.1042 8.47035 19.1042 6.76004 19.2938C6.56267 19.316 6.37845 19.4037 6.23681 19.543C6.09517 19.6822 6.0043 19.8649 5.9787 20.0618C5.77619 21.7928 5.77619 23.5415 5.9787 25.2725C6.00436 25.4696 6.09543 25.6525 6.23733 25.7917C6.37924 25.931 6.56377 26.0186 6.76137 26.0405C8.45604 26.2298 10.2107 26.2298 11.9054 26.0405C12.103 26.0186 12.2875 25.931 12.4294 25.7917C12.5713 25.6525 12.6624 25.4696 12.688 25.2725C12.8907 23.5418 12.8907 21.7925 12.688 20.0632C12.6627 19.8658 12.5717 19.6826 12.4298 19.5431C12.2878 19.4036 12.1032 19.3158 11.9054 19.2938H11.9067ZM6.5387 17.3071C8.39612 17.1012 10.2706 17.1012 12.128 17.3071C13.448 17.4538 14.5187 18.4938 14.6747 19.8298C14.8951 21.715 14.8951 23.6194 14.6747 25.5045C14.5967 26.1506 14.3027 26.7514 13.8405 27.2096C13.3783 27.6677 12.7748 27.9563 12.128 28.0285C10.2854 28.2338 8.38137 28.2338 6.5387 28.0285C5.89191 27.9563 5.28848 27.6677 4.82624 27.2096C4.364 26.7514 4.07004 26.1506 3.99203 25.5045C3.77152 23.6194 3.77152 21.7149 3.99203 19.8298C4.07032 19.1839 4.3644 18.5834 4.82662 18.1256C5.28884 17.6677 5.89211 17.3793 6.5387 17.3071ZM25.24 5.96048C23.5297 5.77089 21.8037 5.77089 20.0934 5.96048C19.896 5.98268 19.7118 6.07041 19.5701 6.20963C19.4285 6.34885 19.3376 6.53153 19.312 6.72848C19.1095 8.45947 19.1095 10.2082 19.312 11.9392C19.3377 12.1363 19.4288 12.3191 19.5707 12.4584C19.7126 12.5976 19.8971 12.6852 20.0947 12.7071C21.7894 12.8965 23.544 12.8965 25.2387 12.7071C25.4363 12.6852 25.6208 12.5976 25.7627 12.4584C25.9046 12.3191 25.9957 12.1363 26.0214 11.9392C26.224 10.2085 26.224 8.45915 26.0214 6.72848C25.9957 6.53133 25.9046 6.34849 25.7627 6.20925C25.6208 6.07 25.4376 5.9824 25.24 5.96048ZM19.872 3.97382C21.7295 3.76784 23.604 3.76784 25.4614 3.97382C26.7814 4.12048 27.852 5.16048 28.008 6.49648C28.2285 8.38162 28.2285 10.286 28.008 12.1712C27.9298 12.817 27.6357 13.4175 27.1735 13.8754C26.7112 14.3333 26.108 14.6216 25.4614 14.6938C23.6187 14.9005 21.7147 14.9005 19.872 14.6938C19.2254 14.6216 18.6222 14.3333 18.16 13.8754C17.6977 13.4175 17.4037 12.817 17.3254 12.1712C17.1048 10.286 17.1048 8.38161 17.3254 6.49648C17.4037 5.85061 17.6977 5.25009 18.16 4.79223C18.6222 4.33436 19.2254 4.04598 19.872 3.97382ZM25.24 19.2938C23.5297 19.1042 21.8037 19.1042 20.0934 19.2938C19.896 19.316 19.7118 19.4037 19.5701 19.543C19.4285 19.6822 19.3376 19.8649 19.312 20.0618C19.1095 21.7928 19.1095 23.5415 19.312 25.2725C19.3377 25.4696 19.4288 25.6525 19.5707 25.7917C19.7126 25.931 19.8971 26.0186 20.0947 26.0405C21.7894 26.2298 23.544 26.2298 25.2387 26.0405C25.4363 26.0186 25.6208 25.931 25.7627 25.7917C25.9046 25.6525 25.9957 25.4696 26.0214 25.2725C26.224 23.5418 26.224 21.7925 26.0214 20.0632C25.996 19.8658 25.905 19.6826 25.7631 19.5431C25.6212 19.4036 25.4378 19.3158 25.24 19.2938ZM19.872 17.3071C21.7295 17.1012 23.6039 17.1012 25.4614 17.3071C26.7814 17.4538 27.852 18.4938 28.008 19.8298C28.2285 21.715 28.2285 23.6194 28.008 25.5045C27.93 26.1506 27.6361 26.7514 27.1738 27.2096C26.7116 27.6677 26.1082 27.9563 25.4614 28.0285C23.6187 28.2338 21.7147 28.2338 19.872 28.0285C19.2252 27.9563 18.6218 27.6677 18.1596 27.2096C17.6973 26.7514 17.4034 26.1506 17.3254 25.5045C17.1048 23.6194 17.1048 21.7149 17.3254 19.8298C17.4037 19.1839 17.6977 18.5834 18.16 18.1256C18.6222 17.6677 19.2254 17.3793 19.872 17.3071Z" fill="#3D3D3D"/>
</svg>
