<svg width="324" height="170" viewBox="0 0 324 170" fill="none" xmlns="http://www.w3.org/2000/svg">
<g clip-path="url(#clip0_3543_18461)">
<path d="M180.611 115.651C179.254 115.099 177.848 115.045 176.432 114.966C175.328 114.357 174.123 114.455 172.93 114.458C170.244 114.458 167.558 114.458 164.871 114.458C159.206 114.465 153.537 114.448 147.871 114.46C146.871 114.395 145.896 114.725 144.982 115.062C144.041 115.492 143.031 115.087 142.073 115.308C138.982 106.664 137.447 97.4601 134.912 88.6142C134.328 81.0592 128.019 80.097 121.878 80.7271C120.912 80.9028 119.981 81.3115 118.968 81.1779C118.256 81.0261 117.534 80.9576 116.813 81.0832C104.393 83.342 91.8434 85.8314 80.1623 90.6904C78.7458 91.2109 78.4319 93.0885 78.675 94.4103C79.248 97.8459 78.8531 101.318 79.1418 104.761C79.1841 106.943 78.3931 109.22 79.8917 111.233C81.2945 112.253 83.1368 111.526 84.7199 111.456C89.5709 111.115 94.4424 111.324 99.2945 111.351C99.9235 111.269 100.527 111.047 101.077 110.736C104.999 108.914 108.96 107.176 112.789 105.166C114.021 104.52 114.721 104.762 115.043 106.168C115.621 108.518 116.063 110.913 116.882 113.193C118.7 118.244 119.951 123.484 122.007 128.452C122.249 128.803 122.649 128.957 122.96 129.221C125.51 136.76 127.539 144.476 129.322 152.204C129.876 153.541 129.869 155.334 131.766 155.773C132.746 156.918 134.057 156.554 135.29 156.542C136.492 156.276 137.703 156.191 138.918 156.053C140.181 155.759 141.062 155.763 141.778 156.933C142.296 157.609 142.757 158.345 143.583 158.759C142.658 158.507 141.471 158.15 140.358 158.231C139.775 158.327 139.19 158.408 138.595 158.386C136.857 158.525 135.401 160.08 133.605 159.595C129.739 158.846 131.898 166.145 133.359 167.707C142.1 167.718 151.604 168.468 159.987 167.465H160.172C160.767 166.732 160.491 166.024 160.114 165.316C158.536 162.528 155.364 161.734 152.514 160.903C152.252 160.666 151.867 160.824 151.596 160.614C151.382 160.573 151.167 160.531 150.951 160.49C150.56 160.174 150.002 160.556 149.626 160.172C149.558 160.141 149.493 160.105 149.429 160.065C149.171 159.861 148.553 160.093 148.664 159.439C149.287 158.737 150.123 158.984 150.879 158.981C155.919 158.958 160.958 158.995 165.997 158.937C167.447 158.92 169.356 159.281 169.9 157.484C170.476 155.442 168.215 153.942 166.646 153.059C166.194 152.857 165.706 152.718 165.242 152.52C164.988 152.37 164.746 152.211 164.523 152.017C164.395 152.041 164.343 152.031 164.37 151.985L164.465 151.89C163.946 144.144 163.669 136.335 163.716 128.56C163.225 125.503 163.619 122.444 163.51 119.381C163.738 119.189 164.007 119.087 164.295 119.032C166.959 118.452 169.695 119.138 172.354 118.618C174.048 118.1 175.811 118.718 177.505 118.242C177.972 117.87 178.614 118.066 179.159 118.017C180.541 118.173 182.927 116.535 180.607 115.651H180.611ZM156.245 151.002L152.623 149.119C149.002 147.236 148.214 144.617 148.214 144.617L142.813 118.864H156.245V151.002Z" fill="#041439"/>
<path d="M90.452 87.7208C86.8577 89.0448 83.2634 90.37 79.6691 91.694C78.7012 91.4966 78.7982 90.6576 78.6852 89.9853C77.9456 82.9805 75.0749 77.6775 67.4983 76.9231C66.2987 76.4254 65.1036 76.5669 63.9097 76.9516C59.6774 77.068 55.6859 78.2071 51.7891 79.7709C50.0587 80.6498 47.7417 80.6383 47.8021 78.085C47.7462 66.3844 47.6138 54.6884 48.261 43.0141C48.2656 42.3122 48.5486 41.6113 48.8831 40.9664C49.1056 40.6434 49.4458 40.4722 49.7745 40.2884C50.9775 36.6063 53.2763 33.9125 56.8661 32.3591C59.5096 31.2143 62.1382 30.0363 64.7737 28.8721C65.7257 28.8687 66.0738 29.6562 66.5315 30.26C67.6318 31.7073 69.0015 32.7631 70.7365 33.3247C72.3116 33.7276 74.4015 33.8806 75.5909 32.568C76.3442 31.9824 76.6467 30.9631 77.5518 30.5248C85.2574 31.9059 93.1446 45.9521 98.5891 51.9C99.8503 53.3804 101.255 56.1152 103.475 54.4442C110.063 50.3511 116.233 45.5766 122.833 41.552C124.967 43.118 126.094 45.2467 126.354 47.8583C124.895 49.664 123.091 51.1101 121.253 52.4764C115.501 56.7532 110.024 61.3896 104.123 65.4645C102.299 66.7234 100.529 68.1388 98.169 68.2849C95.6271 69.0519 93.3009 66.7337 91.203 65.7053C90.4303 65.3914 89.9018 64.0902 89.193 64.468C88.5641 64.8047 88.9453 66.0477 88.9762 66.8775C89.0481 68.7951 88.5299 70.6567 88.5481 72.5686C88.5607 73.9554 88.6383 75.3217 88.9898 76.6685C90.4509 79.7344 90.678 83.0604 91.0489 86.3534C91.1106 86.8955 90.9234 87.3829 90.4531 87.7196L90.452 87.7208Z" fill="#5F99D8"/>
<path d="M191.689 146.623C192.472 139.681 193.184 132.777 194.237 125.878C194.254 123.973 193.765 122.106 194.185 120.223C195.941 112.406 196.262 84.8836 207.04 85.7956C208.186 86.0752 209.324 85.9428 210.46 85.7168C214.184 85.7488 217.862 86.3663 221.568 86.6139C223.129 87.0477 224.76 86.8251 226.346 87.0888C227.037 87.2178 227.655 87.5682 228.358 87.6469C229.757 88.3626 231.143 87.5716 232.567 87.6595C235.891 88.1834 239.191 88.9721 242.55 89.3259C244.467 89.5029 246.792 90.0736 246.448 92.5618C246.208 98.0429 245.65 103.507 245.622 108.999C245.619 109.536 245.408 110.02 245.054 110.434C243.968 111.416 242.607 111.032 241.353 111.183C236.225 110.281 231.192 111.491 226.066 111.583C224.846 111.763 223.333 112.233 223.626 113.757C223.897 115.651 223.453 117.495 223.287 119.36C223.499 124.423 222.972 129.606 222.69 134.721C222.846 138.519 222.315 142.278 222.197 146.069C222.193 147.096 222.024 148.35 220.862 148.993C218.044 149.182 215.226 149.313 212.419 148.836C211.108 148.459 210.589 147.47 210.415 146.222C209.867 142.29 209.682 138.327 209.425 134.373C209.699 132.667 209.237 130.991 209.082 129.315C208.867 127.675 208.929 125.679 208.806 124.275C208.47 127.565 207.362 130.654 206.688 133.841C205.588 138.749 205.262 144.236 202.101 148.353C199.182 154.87 204.209 153.983 200.737 163.482C200.46 164.686 199.81 165.803 199.268 166.917C197.51 168.239 197.353 165.337 197.186 164.198C197.202 163.304 196.846 162.437 196.982 161.553C196.98 161.575 196.892 161.527 196.889 161.549C196.563 162.378 196.058 163.097 195.718 163.899C194.67 165.12 194.306 167.326 192.349 167.273C188.824 167.717 185.284 167.351 181.753 167.472C180.922 167.387 180.064 167.664 179.255 167.285C178.036 166.265 179.16 165.599 179.838 164.967C180.706 164.517 181.588 164.02 182.514 163.711C182.727 163.415 183.146 163.611 183.373 163.351C183.638 163.225 183.929 163.145 184.196 163.013C185.222 162.801 186.195 162.174 187.26 162.32C191.891 162.876 193.102 157.433 195.602 154.676C197.098 152.836 197.708 150.786 197.305 148.45C197.032 147.679 196.052 147.783 195.396 147.616C194.183 147.125 192.471 147.953 191.691 146.622L191.689 146.623Z" fill="#041439"/>
<path d="M244.956 110.338C244.762 103.725 245.348 97.1413 245.72 90.5497C245.086 88.8821 245.922 87.3515 246.181 85.7706C247.359 79.7417 252.09 75.8301 258.173 75.4888C260.526 75.3199 260.571 75.272 261.096 72.9344C261.947 69.1449 261.574 65.2162 262.465 61.4358C262.66 60.84 263.173 60.4063 263.303 59.7774C264.835 54.2164 269.341 48.3496 266.269 42.5581C265.931 41.8744 265.443 41.1781 265.852 40.3369C271.57 40.6394 277.29 40.9407 283.009 41.2455C288.106 41.5925 293.224 41.831 298.268 42.7145C298.825 43.4187 298.491 44.0967 298.166 44.7405C294.481 52.0683 292.383 59.9657 289.957 67.7398C288.411 72.6958 286.926 77.6735 285.398 82.6363C285.145 83.457 284.855 84.2686 284.057 84.7479C282.518 85.5914 278.947 81.1171 277.084 80.3878C275.33 79.4153 275.338 79.4073 274.757 81.2609C274.028 82.3727 272.589 81.294 271.802 80.8352C270.025 79.8251 268.235 78.8366 266.245 78.3024C265.338 78.0593 265.004 78.2545 265.103 79.3753C265.434 83.1134 266.014 86.7568 267.049 90.4002C268.299 94.7958 266.494 98.6891 263.74 102.111C261.557 104.824 258.8 106.857 255.635 108.284C253.174 109.393 250.669 110.403 248.169 111.424C247.094 112.07 244.273 112.356 244.955 110.335L244.956 110.338Z" fill="#F4755C"/>
<path d="M263.177 61.1936C262.541 65.6896 262.628 70.2746 261.53 74.7067C261.372 75.8264 260.755 76.259 259.635 76.2271C253.894 76.0673 249.808 78.6457 247.296 83.7786C246.795 84.1918 246.373 84.7271 245.697 84.8801C241.183 85.9005 236.88 87.8512 232.158 87.9516C230.753 88.5839 229.166 88.4025 227.754 87.7998C227.102 87.3147 226.763 86.6082 226.423 85.9051C225.168 83.3095 225.445 82.3827 227.946 81.0415C228.748 80.6112 229.463 80.0222 230.337 79.7278C235.451 78.0225 240.228 75.516 245.184 73.4363C247.205 72.2744 250.385 72.1922 250.712 69.3661C251.61 64.1316 251.353 58.7521 251.365 53.5267C251.137 53.4685 251.265 53.5633 251.251 53.6055C251.17 53.8498 251.303 53.5096 251.369 53.7653C251.54 70.3739 252.756 65.0687 235.805 64.8849C233.763 64.8564 231.765 64.2891 229.723 64.5128C228.05 64.0026 227.129 62.2779 227.236 60.0168C227.449 57.5456 228.834 55.4911 229.669 53.23C229.428 53.6078 229.325 54.0472 229.159 54.457C227.772 57.5034 226.229 60.5532 228.197 63.7241C228.544 64.3598 228.886 64.9865 228.853 65.7444C227.883 68.4255 226.19 75.3744 223.571 76.4337C220.601 75.815 214.666 75.7306 212.772 73.4089C210.681 67.8537 207.752 62.4891 206.111 56.8277C207.201 54.7549 208.931 53.7162 211.256 53.6352C214.092 56.2307 215.575 59.8741 217.846 62.9205C218.131 63.3406 218.334 64.0985 218.849 64.0208C219.442 63.9318 219.476 63.134 219.656 62.6078C224.209 52.5337 224.018 36.3474 238.304 36.2915C239.023 36.2276 239.738 36.1191 240.455 36.0312C244.121 39.5685 249.884 37.3872 254.287 36.9786C260.22 37.8643 264.452 43.1148 264.081 48.9805C263.996 53.0325 264.263 57.2215 263.178 61.1947L263.177 61.1936Z" fill="#FFFEFE"/>
<path d="M100.053 110.478C104.908 109.389 109.874 110.002 114.779 109.877C115.545 109.859 116.183 110.146 116.777 110.581C118.742 116.554 120.706 122.525 122.672 128.498C122.823 128.889 122.527 129.05 122.292 129.241C121.36 130.747 120.086 131.908 118.629 132.885C117.673 134.204 116.15 134.159 114.782 134.506C104.105 137 93.0532 135.835 82.2327 135.639C80.839 135.617 79.6862 135.262 78.8107 134.074C77.5153 132.316 75.5189 131.48 73.6653 130.527C62.9737 125.48 51.732 121.204 40.1707 118.574C39.6331 118.488 39.1777 118.243 38.8409 117.802C37.3548 113.626 35.8527 109.454 34.6554 105.182C36.46 102.915 38.7439 103.435 40.9388 104.261C44.944 105.767 48.9458 107.284 52.9533 108.785C60.6601 111.672 68.4125 114.431 76.3168 116.74C78.7137 117.44 78.8393 117.294 79.1018 114.876C79.2525 113.488 79.0367 111.93 80.3459 110.881C81.3892 111.025 82.3913 111.004 83.4106 110.852C88.9236 110.663 94.6444 111.455 100.053 110.478Z" fill="#C66056"/>
<path d="M274.62 81.4123C274.55 81.1611 274.475 80.9112 274.408 80.6601C274.225 79.9866 273.442 79.1545 273.933 78.6968C274.602 78.0725 275.5 78.8167 276.24 79.134C279.124 80.3701 281.174 82.7363 283.572 84.6322C285.597 85.5145 286.71 87.1684 287.409 89.1727C287.361 89.9545 287.855 90.5344 288.178 91.1679C290.73 96.1729 292.752 101.382 294.216 106.804C294.315 107.636 295.67 111.577 293.781 110.882C292.182 110.342 292.683 111.41 292.864 112.102C294.337 117.098 294.497 122.426 295.488 127.388C295.09 111.568 297.815 95.9059 298.221 80.0791C298.727 76.801 298.187 70.8519 302.233 69.9822C304.241 69.6854 305.686 71.2777 306.514 72.9293C311.393 81.6793 312.844 90.9476 310.75 100.765C308.349 112.064 299.332 109.152 298.996 114.431C298.519 118.952 298.256 123.479 298.25 128.022C298.25 128.597 297.88 129.415 298.868 129.637C299.831 129.852 300.127 129.163 300.393 128.463C301.343 125.958 302.825 123.666 303.379 121.004C303.078 120.605 302.527 120.946 302.205 120.608C302.938 115.032 307.879 111.818 312.719 109.914C316.053 108.496 319.4 107.111 322.488 105.18C322.892 104.928 323.389 104.345 323.855 104.777C324.609 105.545 322.236 109.653 321.661 110.507C318.771 114.894 314.861 118.32 309.753 119.861C307.25 120.86 304.986 120.307 303.907 123.396C303.168 125.344 301.956 127.104 301.568 129.197C303.711 129.996 305.983 129.119 308.165 129.613C310.705 129.758 311.074 129.94 311.19 131.988C312.339 144.637 313.475 163.347 295.691 161.911C294.846 160.979 295.594 160.236 296.168 159.763C299.703 156.854 300.258 153.2 299.462 148.908C298.492 143.675 298.188 138.339 297.51 133.056C297.307 131.473 296.608 130.877 295.087 130.9C293.111 130.93 291.133 130.927 289.157 130.89C288.241 130.873 287.279 130.935 286.706 129.979C286.975 128.71 288.476 129.299 289.015 128.442C289.991 125.568 286.783 120.978 288.371 119.139C290.566 117.938 291.171 120.311 291.482 121.919C291.883 122.558 292.321 128.63 293.077 127.453C292.876 122.64 292.278 117.9 291.213 113.216C290.845 111.599 289.774 110.652 288.431 109.837C279.397 104.101 278.968 91.8915 274.666 82.9429C274.459 82.4452 274.415 81.9293 274.62 81.4123Z" fill="#517F8C"/>
<path d="M38.842 117.801C41.4502 117.703 43.967 118.261 46.3753 119.142C53.2329 121.651 60.2332 123.77 66.9903 126.549C70.1931 128.057 77.1694 130.586 79.184 133.216C80.8344 136.644 85.6078 133.611 88.3574 135.373C88.9396 136.032 88.9601 136.825 88.7626 137.595C87.4181 142.835 86.4604 148.173 84.7734 153.324C83.6514 156.579 82.9244 160.259 80.7328 162.982C80.5297 163.09 80.3368 163.074 80.1553 162.932C79.6611 162.914 79.1668 162.897 78.6726 162.879C76.9776 161.734 77.3041 159.875 77.1089 158.242C76.9228 156.688 77.2367 155.076 76.5793 153.569C75.8271 148.812 75.7609 143.971 75.4652 139.169C75.415 138.21 75.6399 137.153 74.6218 136.496C73.5306 135.979 72.3857 135.808 71.1827 135.813C42.4877 136.226 55.381 131.869 42.9865 157.311C41.5791 160.306 38.2143 159.008 39.3009 155.546C41.9992 149.144 42.393 141.629 43.854 134.757C42.9077 128.997 40.1547 123.531 38.8432 117.803L38.842 117.801Z" fill="#813840"/>
<path d="M49.7585 40.4462C48.2827 46.6155 48.858 53.0142 48.5201 59.2977C48.3603 59.6253 48.4105 60.2393 47.8969 60.1526C46.3742 59.8946 46.0261 61.0269 45.5422 62.0108C43.7068 67.0707 41.8292 72.8348 35.2101 70.617C34.1292 70.2849 33.1636 69.9014 32.2231 71.0565C31.5713 71.8566 30.794 71.166 30.1263 70.77C29.1538 70.0235 29.6298 68.6709 28.9096 67.7681C25.7056 59.9197 24.6681 50.9232 19.4895 44.0519C19.0604 43.5759 18.6141 43.028 18.9462 42.2827C19.6379 41.6618 20.5339 41.6058 21.3592 41.6013C30.6902 41.7759 40.9309 40.0889 49.7574 40.445L49.7585 40.4462Z" fill="#D86959"/>
<path d="M263.116 60.0632C262.973 50.4366 265.73 40.5121 253.889 37.3036C247.211 34.8107 247.772 25.4295 245.299 19.8252C244.993 18.8367 244.198 18.3836 243.457 17.8654C241.452 16.2286 235.743 12.9334 235.782 10.323C235.048 7.377 235.565 6.32006 238.337 5.01429C241.407 3.49279 244.897 2.93236 248.289 3.41632C258.378 5.75963 262.174 19.606 260.751 28.8012C260.282 31.536 260.828 34.0346 262.39 36.3094C263.397 37.775 264.512 39.1549 265.853 40.3374C268.906 44.426 268.605 48.704 266.648 53.1201C265.615 55.4497 264.703 57.8341 263.736 60.1934C263.495 60.3109 263.287 60.2733 263.116 60.0621V60.0632Z" fill="#041439"/>
<path d="M16.6314 161.826C17.3094 161.554 18.0262 161.499 18.7521 161.585C20.8523 160.505 22.4811 158.783 24.3279 157.354C28.4518 154.165 29.5145 150.097 27.8537 145.269C26.6998 141.912 25.7319 138.5 24.7023 135.107C23.7618 132.006 22.9742 131.512 19.6755 131.802C17.605 131.515 15.514 131.577 13.4378 131.443C12.7495 131.39 12.1902 131.936 11.4996 131.864C9.65056 131.942 7.79235 131.708 5.94669 131.991C4.15811 142.469 3.12513 159.898 16.6303 161.826H16.6314Z" fill="#517F8C"/>
<path d="M202.173 88.2856C196.434 99.1655 196.785 112.989 194.155 124.053C188.6 113.382 187.196 100.923 186.004 89.0709C185.845 86.8931 186.056 84.7176 186.318 82.5592C187.076 76.2894 191.582 72.88 198.162 73.5386C200.977 76.367 202.021 79.9556 202.503 83.7679C202.695 85.2849 203.318 86.8566 202.173 88.2845V88.2856Z" fill="#D86959"/>
<path d="M80.3459 110.881C80.3071 112.788 79.7752 114.641 79.822 116.57C79.8574 118.062 79.3369 118.39 77.7892 117.975C72.1906 116.474 66.689 114.656 61.2502 112.659C54.1472 110.051 47.0522 107.417 39.9903 104.703C38.0568 103.96 36.4097 104.78 34.6565 105.182C33.216 101.412 32.0039 97.5676 30.8876 93.6914C31.8121 91.8252 32.796 90.0286 35.2546 89.9521C36.6277 90.5126 36.1529 92.2989 37.2897 93.018C48.9823 98.0447 60.9283 102.941 73.6093 104.86C74.7998 105.071 75.8008 104.769 76.8338 104.289C81.8275 102.226 78.9192 108.627 80.3459 110.881Z" fill="#D86959"/>
<path d="M286.791 129.75C288.589 130.35 290.448 129.961 292.276 130.073C293.656 130.157 295.044 130.117 296.428 130.132C297.524 130.144 298.119 130.661 298.244 131.784C298.755 136.36 299.291 140.933 299.828 145.506C300.299 150.359 302.244 155.766 297.679 159.324C296.839 160.044 295.975 160.79 295.444 161.81C294.809 161.981 294.176 162.04 293.551 161.764C291.229 161.184 289.208 159.964 287.164 158.786C285.128 157.94 284.499 155.802 283.101 154.364C283.042 154.153 282.979 153.948 282.907 153.741C280.192 146.629 282.146 138.498 282.495 131.081C282.718 129.422 284.318 128.905 285.791 129.122C286.21 129.132 286.644 129.333 286.791 129.75Z" fill="#517F8C"/>
<path d="M18.1187 161.681C22.9765 156.92 30.5463 153.312 27.0547 145.303C25.8357 141.898 24.8792 138.42 23.8314 134.966C23.0826 132.501 23.1123 132.494 20.4631 132.437C18.5512 132.494 19.4689 130.192 19.776 129.175C21.1514 125.762 23.7252 117.893 27.2556 116.657C29.2599 115.086 31.6866 113.276 34.386 113.751C36.1289 114.875 36.4109 115.625 35.5708 117.478C34.0116 120.914 31.795 123.909 29.204 126.637C28.7086 127.159 28.2281 127.693 27.7407 128.223C27.872 128.288 27.9131 128.388 27.8651 128.526C27.8674 128.526 27.6985 128.579 27.6985 128.579C27.6985 128.579 27.832 128.695 27.832 128.694C27.9279 128.598 28.0375 128.58 28.1608 128.639C29.559 128.161 30.9583 127.683 32.3566 127.205C33.1635 127.109 33.9717 126.989 34.7661 127.282C36.549 129.134 36.3652 130.258 33.9614 131.117C32.8679 131.509 32.6237 132.009 32.7355 133.109C33.2263 137.937 33.4888 142.78 33.2845 147.638C32.9296 153.739 30.4013 160.395 23.5575 161.409C23.2516 161.577 22.8258 161.418 22.5838 161.764C21.092 161.967 19.5979 162.148 18.1198 161.68L18.1187 161.681Z" fill="#517F8C"/>
<path d="M202.173 88.2852C201.881 84.2173 201.477 80.1767 199.459 76.5025C198.939 75.5563 197.882 74.8372 198.162 73.5394C206.997 72.0807 215.624 74.1866 224.234 75.869C225.52 75.5483 232.929 78.9953 230.417 80.1516C229.829 81.1012 228.915 81.5589 227.905 81.9481C225.709 82.7951 213.451 87.1644 225.986 86.701C226.972 86.6644 227.755 86.8265 228.204 87.7054C227.821 88.1106 227.074 87.9759 226.585 87.8184C221.202 87.4657 215.837 86.8733 210.444 86.4636C207.555 86.1029 204.49 86.3985 202.172 88.2852H202.173Z" fill="#C66056"/>
<path d="M35.137 90.1131C33.8929 90.9931 32.4981 91.7088 31.8783 93.2485C31.7117 93.664 31.2699 93.6572 30.8864 93.6903C25.7398 78.2984 20.5761 62.9053 15.7205 47.4199C14.9855 44.5287 15.9625 42.9821 18.9484 42.2812C22.3042 45.492 23.8656 49.6239 25.0493 53.9807C25.5469 55.8104 26.2215 57.6035 26.952 59.3567C28.1139 62.1475 28.4609 65.1802 29.6137 67.9675C30.3682 68.5736 29.6446 69.6762 30.3579 70.3473C31.1512 71.4066 31.6603 72.5913 31.9947 73.8697C33.1384 78.2413 34.499 82.557 35.4235 86.9833C35.6404 88.0197 36.1928 89.1612 35.1382 90.1131H35.137Z" fill="#F4755C"/>
<path d="M90.452 87.7209C89.8939 84.041 89.8037 80.0952 88.1886 76.6904C90.4486 75.1632 93.1492 75.0456 95.6694 74.3482C99.2226 73.7912 102.697 72.3941 106.391 73.3483C111.915 73.136 117.481 72.7445 122.984 73.4944C123.371 74.2204 122.932 74.7911 122.542 75.283C121.091 77.1138 120.17 79.2038 119.406 81.3816C110.01 83.072 99.944 85.2544 90.452 87.7221V87.7209Z" fill="#C66056"/>
<path d="M76.2095 1.41767C78.0757 2.04659 80.5468 2.83302 81.9679 0.918879C85.0451 -2.65373 86.8428 5.17519 84.6411 7.62122C82.6402 10.6345 81.3664 10.7498 78.0962 11.1037C77.021 11.7508 77.6899 13.3636 77.3463 14.3921C77.1329 15.4387 76.9012 16.547 75.77 16.9488C74.5042 17.3985 74.1549 16.1327 73.4769 15.5072C73.179 15.304 72.8697 15.2687 72.5456 15.4433C71.2398 16.7011 72.4873 18.0891 72.3355 19.4028C72.0936 20.5054 71.4053 21.3158 70.6052 22.0543C69.1008 22.9115 67.7197 25.0448 65.7576 24.3269C65.1584 19.2579 64.2019 14.2163 63.8846 9.12103C63.7738 4.69922 64.251 3.98242 68.4068 2.16758C70.7855 1.12433 73.6847 0.797889 76.2095 1.41882V1.41767Z" fill="#041439"/>
<path d="M235.782 10.3215C237.97 12.699 240.254 15.0435 243.092 16.5707C250.135 21.0062 245.934 32.9316 254.445 37.3192C251.143 38.9594 246.434 38.7516 242.586 38.4286C240.622 38.3259 239.689 36.4996 241.155 35.0786C242.966 33.4692 244.741 31.8313 245.492 29.4149C245.907 28.3671 245.976 28.0407 244.918 28.8636C243.877 29.3487 242.863 30.1557 241.67 29.2015C239.024 29.4811 234.613 30.594 235.018 26.4507C235.01 24.2923 235.182 22.0837 233.12 20.585C232.803 20.3544 232.863 20.0006 233.034 19.7015C234.767 16.8012 234.403 13.2971 235.783 10.3203L235.782 10.3215Z" fill="#D86959"/>
<path d="M20.4563 129.195C20.1984 130.245 19.9393 131.295 19.6813 132.345C18.2488 132.465 16.8244 132.393 15.4067 132.168C14.86 132.286 14.3144 132.343 13.778 132.12C13.1468 132.114 12.5098 132.176 11.9026 131.93C11.4598 130.336 9.87662 129.531 8.27523 128.073C5.16489 125.328 1.65849 121.564 5.32583 117.737C7.10186 115.301 10.1506 118.765 11.8319 119.784C12.1514 120.095 12.5966 119.795 12.9345 120.006C13.7665 120.446 13.762 120.019 13.6513 119.357C12.6343 114.774 15.0346 96.2571 22.6033 102.069C22.7312 102.716 23.0644 103.322 23.1238 103.971C21.9527 106.381 20.5533 108.677 20.1059 111.41C19.4861 115.201 19.0695 118.971 20.0968 122.745C20.6778 124.877 20.3924 127.041 20.4563 129.194V129.195Z" fill="#2C537D"/>
<path d="M287.409 89.1723C285.676 88.0423 284.866 86.1338 283.573 84.6317C284.287 84.0428 284.422 83.1639 284.673 82.3592C289.039 69.112 291.924 55.2142 298.268 42.7158C300.74 43.3984 301.561 44.7053 300.921 47.2678C296.579 61.2694 292.326 75.3726 287.409 89.1723Z" fill="#D86959"/>
<path d="M22.6032 102.071C20.4562 101.486 18.2682 101.146 17.1747 103.556C15.7639 106.184 15.1019 109.049 14.5746 111.957C14.0073 115.088 14.0792 118.199 14.7458 121.304C14.8234 121.667 15.0745 122.131 14.5506 122.308C13.7642 122.523 13.093 120.79 12.6148 120.285C12.504 120.125 12.2472 120.064 12.286 119.803C12.3077 119.117 11.9915 118.535 11.721 117.936C8.48172 111.23 5.89301 94.5778 15.3404 92.004C20.7062 91.4561 23.0061 97.6003 22.6021 102.073L22.6032 102.071Z" fill="#517F8C"/>
<path d="M238.02 153.483C236.944 156.524 237.876 159.879 236.589 162.846C234.82 163.115 234.231 161.928 233.671 160.493C230.694 153.223 229.155 145.536 227.374 137.914C227.106 136.809 226.946 135.718 227.699 134.714C229.856 133.451 236.626 133.85 239.209 134.481C239.873 135.002 240.109 135.949 240.107 136.76C239.537 140.281 240.094 151.506 238.02 153.483Z" fill="#813840"/>
<path d="M140.377 29.1906C141.233 28.8299 141.333 29.7841 141.839 30.0318L141.733 30.1916C142.439 37.4955 133.784 42.7323 128.231 45.9887C126.183 44.7708 125.032 42.9537 124.651 40.6241C124.966 40.0477 125.488 39.4975 125.563 38.8914C126.008 35.2891 128.591 32.9892 130.622 30.3514C131.118 29.3219 132.206 29.7933 131.766 30.8616C131.683 31.1116 131.56 31.349 131.497 31.6035C131.344 32.2131 130.493 32.8819 131.022 33.359C131.697 33.9663 132.524 33.2723 133.143 32.8534C134.888 31.6743 136.574 30.4073 138.287 29.1803C138.867 28.766 139.396 28.1999 140.228 28.4521L140.197 28.6051C140.482 28.4818 140.334 29.0308 140.398 29.2111C140.289 29.291 140.19 29.436 140.115 29.4657C140.185 29.3903 140.316 29.2728 140.378 29.1917L140.377 29.1906Z" fill="#D86959"/>
<path d="M211.254 53.6337C209.539 54.6975 207.824 55.7624 206.109 56.8262C204.959 54.072 203.198 52.1076 200.1 51.3817C196.353 50.3498 195.68 45.8139 193.937 42.8531C193.359 41.884 194.106 40.5885 193.256 39.5521C192.965 39.196 193.543 39.1287 193.825 39.3181C195.843 40.6753 198.24 41.0337 200.469 41.8155C206.597 43.5642 208.493 48.4996 211.253 53.6325L211.254 53.6337Z" fill="#F4755C"/>
<path d="M20.4563 129.194C19.4701 124.86 18.4839 120.2 18.7715 115.617C19.2293 111.402 19.6002 106.616 22.9799 103.613C29.3045 101.414 27.2054 113.406 26.5765 116.667C26.6998 116.906 26.6518 117.124 26.5 117.331C23.9866 121.031 22.0143 125.008 20.4563 129.194Z" fill="#041439"/>
<path d="M77.0736 10.2343C83.5819 10.8233 83.5853 5.74399 84.519 13.5478C84.7416 14.8444 85.1 16.068 85.7061 17.2391C86.6203 19.006 86.5164 19.2206 84.6194 20.1543C83.6253 21.1872 82.3903 21.9349 81.4383 23.0454C79.3073 25.2073 77.3829 21.5 75.6354 20.5252C74.4541 19.9146 72.6951 20.8654 72.0343 19.2993C70.6771 16.7677 70.7228 16.0543 72.3413 14.5077C73.243 14.0523 74.2817 14.6675 74.6196 15.5418C74.8353 15.963 74.7542 16.7357 75.4676 16.625C76.0132 16.5406 76.1285 15.882 76.3728 15.4243C77.5301 13.6973 75.8694 10.6566 77.0724 10.2354L77.0736 10.2343Z" fill="#D86959"/>
<path d="M119.071 81.5628C118.821 79.2891 120.09 77.5861 121.243 75.8512C121.783 75.0385 122.401 74.2783 122.983 73.493C125.51 72.5274 127.897 73.0308 130.123 74.3377C134.652 76.996 137 84.1013 134.912 88.6133C133.369 85.4653 131.792 81.6301 127.765 81.3414C126.951 81.1485 126.136 81.1587 125.321 81.3357C123.233 81.3665 121.152 81.75 119.069 81.5628H119.071Z" fill="#D86959"/>
<path d="M123.078 157.176C119.982 160.187 120.869 155.029 119.033 153.738C118.161 153.261 117.783 152.442 117.485 151.553C115.862 146.706 114.243 141.858 112.656 136.999C112.373 136.132 112.002 135.248 112.683 134.382C114.537 133.37 116.667 133.452 118.632 132.884C120.037 140.924 121.894 149.302 123.079 157.175L123.078 157.176Z" fill="#813840"/>
<path d="M221.989 168.467C221.646 168.818 221.303 168.748 220.959 168.468C219.57 167.239 220.104 165.376 219.449 163.906C219.345 163.484 219.43 163.083 219.597 162.696C219.619 162.571 219.755 162.531 219.817 162.432C219.697 162.405 219.627 162.465 219.609 162.613C219.368 163.123 219.31 163.695 219.029 164.186C217.82 165.739 217.787 168.011 215.974 169.192L215.879 169.176C215.525 169.732 214.909 169.271 214.481 169.538C213.578 170.125 212.466 169.737 211.481 169.846C209.599 169.504 201.589 171.112 204.892 167.34C204.941 165.908 207.268 165.052 208.476 164.766C209.888 164.664 211.239 165.478 212.601 164.646C213.764 164.339 214.195 163.313 214.696 162.414C216.169 159.772 217.516 157.062 218.992 154.421C219.466 153.571 219.813 152.594 220.923 152.315C221.513 152.279 221.976 152.513 222.335 152.973C224.538 155.961 224.244 159.155 223.107 162.417C222.465 162.937 222.307 163.708 222.368 164.499C223.307 165.81 223.054 167.352 221.988 168.468L221.989 168.467Z" fill="#041439"/>
<path d="M195.78 147.031C196.442 147.071 197.103 147.109 197.765 147.149C197.894 147.277 198.04 147.301 198.202 147.22C198.431 149.949 198.202 152.52 196.384 154.811C193.864 157.517 192.884 162.415 188.718 163.017C187.926 163.29 187.135 162.899 186.331 162.863C186.095 162.635 185.595 162.899 185.495 162.416C188.989 157.712 189.77 151.944 191.689 146.622C192.26 146.678 192.832 146.734 193.404 146.79C194.175 147.072 195.012 146.713 195.78 147.028V147.031Z" fill="#F4755C"/>
<path d="M74.3673 19.7202C77.0884 18.2216 78.9831 25.8039 81.3093 22.3021C82.0661 21.0477 83.2075 20.3937 84.6194 20.1551C84.907 20.9895 84.3968 21.4232 83.7896 21.8079C83.6058 22.0019 83.5853 22.2028 83.7622 22.414C84.1058 23.9275 84.6388 25.409 84.5532 26.9967C84.7107 28.0251 84.2267 28.7476 83.3661 29.2601C83.0968 29.5352 82.6059 29.1973 82.3868 29.6128C80.79 30.3467 78.95 30.0249 77.2368 30.3776C73.2932 28.9565 71.6621 22.8956 74.3684 19.7225L74.3673 19.7202Z" fill="#041439"/>
<path d="M65.7576 24.3276C67.5439 23.8162 68.7869 22.4248 70.3255 21.5117C72.2625 23.1337 69.9637 28.6832 75.5189 32.4567C76.5074 33.3059 74.9026 33.8983 74.1584 33.9873C70.1623 35.115 66.5498 32.2273 64.7726 28.8727C65.422 27.4276 65.4848 25.8548 65.7576 24.3276Z" fill="#D86959"/>
<path d="M106.39 73.3468C102.839 73.9175 99.2877 74.4882 95.7367 75.0589C93.5441 73.7303 92.0169 68.457 91.3515 65.9516C91.2932 65.6993 91.4987 65.4631 91.7041 65.2861C93.7701 66.4766 95.8577 67.6192 98.1668 68.2846C99.823 69.8107 102.02 70.4088 103.868 71.6027C104.725 72.1574 105.856 72.3218 106.39 73.3456V73.3468Z" fill="#D86959"/>
<path d="M144.307 159.436C143.018 159.225 141.73 159.012 140.441 158.801C137.042 158.283 136.495 161.233 132.912 160.078C132.654 159.763 132.02 160.295 131.915 159.635C131.866 158.349 131.817 157.062 131.768 155.775C134.522 155.733 137.297 155.528 140.006 155.222C140.978 154.977 141.626 155.313 142.051 156.236C142.612 157.454 143.534 158.368 144.679 159.059C144.772 159.399 144.707 159.583 144.307 159.435V159.436Z" fill="#D86959"/>
<path d="M7.32325 117.023C5.70131 117.793 4.14557 120.485 4.47544 122.082C4.61012 122.736 4.73796 123.366 4.61126 124.026C3.18679 122.956 2.06022 121.584 0.849183 120.301C-0.55589 118.813 -0.195205 117.28 1.79655 116.531C3.6833 115.822 5.52439 116.365 7.32439 117.023H7.32325Z" fill="#517F8C"/>
<path d="M241.669 29.2017C243.533 29.0499 245.066 28.2806 246.214 26.7808C246.365 26.5833 246.496 26.2683 246.799 26.3516C247.146 26.4464 246.998 26.7465 246.954 26.9908C246.468 29.7439 244.411 34.9829 241.154 35.0788C241.276 33.1156 242.005 31.2049 241.669 29.2017Z" fill="#C66056"/>
<path d="M124.65 40.6221C125.844 42.4107 127.036 44.1981 128.23 45.9867C127.965 46.974 127.209 47.466 126.352 47.8586C125.178 45.7573 124.005 43.6548 122.831 41.5535C123.363 41.0969 123.988 40.823 124.65 40.6221Z" fill="#FFFEFE"/>
<path d="M212.821 73.5217C212.571 73.8128 212.31 73.879 212.029 73.5617C212.246 73.5708 212.75 73.2763 212.821 73.5217Z" fill="#D86959"/>
<path d="M79.8209 104.757C77.2562 103.721 76.5691 106.418 73.6824 105.722C61.4066 104.041 50.2334 99.0276 38.7588 94.7028C37.937 94.4129 37.13 94.1458 36.7237 93.2818C35.8551 89.482 43.6417 82.4395 46.7509 80.5585C47.5853 80.0163 48.4436 79.9775 49.3522 79.9627C54.9919 77.2016 61.1897 75.7383 67.4926 76.1481C76.415 76.9471 79.1178 83.533 79.6691 91.6952C79.1475 93.9814 79.7935 96.2414 79.8552 98.514C79.9111 100.598 79.9956 102.677 79.8221 104.757H79.8209Z" fill="#F4755C"/>
<path d="M115.42 104.616C115.217 103.542 114.611 103.356 113.702 103.841C109.58 106.039 105.245 107.811 101.178 110.118C101.27 110.409 101.38 110.666 101.734 110.628C106.749 110.618 111.764 110.836 116.778 110.58C116.574 108.536 115.8 106.621 115.42 104.615V104.616Z" fill="#813840"/>
<path d="M148.214 144.616C149.48 148.246 153.329 149.174 156.245 151.001C153.889 150.742 151.601 150.231 149.256 149.915C147.666 149.719 146.102 149.749 144.715 150.717C143.76 151.381 143.385 151.007 143.101 149.99C141.723 145.614 145.252 145.962 148.214 144.616Z" fill="#C66056"/>
<path d="M49.351 79.9624C30.6376 89.5353 40.6101 108.225 30.3568 70.3471C33.3074 71.7636 30.9115 68.3931 34.0344 69.3747C37.1311 70.8459 40.795 70.8653 42.5607 67.4251C43.814 65.8568 45.1905 56.6194 48.0829 59.6533C48.1034 59.6727 48.3694 59.4216 48.5212 59.2972C48.5463 65.535 48.5577 71.7716 48.6148 78.0094C48.6216 78.7034 48.1856 79.6645 49.351 79.9635V79.9624Z" fill="#C66056"/>
<path d="M91.7042 65.2872C92.8182 68.6395 94.2826 71.8469 95.7356 75.0599C93.2108 75.561 90.8447 76.804 88.1863 76.6899C87.5323 75.3076 87.8325 73.842 87.8588 72.4141C87.9158 69.3917 88.0596 66.3715 88.1761 63.3514C88.1886 63.0386 88.0619 62.6277 88.3838 62.4485C88.8484 62.1894 89.0732 62.6699 89.3312 62.9176C90.137 63.6915 90.9143 64.4951 91.703 65.2872H91.7042Z" fill="#D86959"/>
<path d="M77.4958 30.0853C77.554 30.3296 77.6122 30.5738 77.6704 30.8192C77.1568 31.6593 76.9731 32.7528 75.8773 33.1431C73.3673 32.3282 71.8949 30.519 71.177 28.073C70.5503 25.9397 70.2376 23.7471 70.3255 21.511C70.8951 20.7737 71.4646 20.0363 72.0342 19.2979C72.7989 19.5067 73.5523 19.7818 74.3661 19.7202C74.2417 20.8171 74.083 21.9105 74.0008 23.0109C73.7737 26.0481 74.7838 28.4907 77.4947 30.0842L77.4958 30.0853Z" fill="#C66056"/>
<path d="M244.956 110.339C245.266 110.663 245.221 111.08 245.25 111.477C246.09 112.229 246.019 113.253 246.006 114.225C245.989 115.591 246.48 116.012 247.802 115.468C254.84 112.57 261.801 109.523 268.234 105.399C269.38 104.579 271.473 103.092 272.49 104.859C273.861 107.426 275.629 109.712 277.429 111.979C277.807 112.457 278.136 113.265 277.647 113.785C269.571 118.819 260.502 122.407 252.01 126.781C248.612 128.411 245.502 130.443 243.031 133.387C241.502 135.206 240.332 135.303 238.967 134.068C238.827 133.387 239.032 132.765 239.295 132.155C242.347 125.914 238.235 119.609 238.882 113.155C238.933 111.106 239.024 110.385 241.272 110.461C242.5 110.42 243.728 110.38 244.956 110.34V110.339Z" fill="#C66056"/>
<path d="M239.683 110.774C238.665 118.451 243.745 126.25 239.607 133.464C239.456 133.748 239.39 134.077 239.285 134.386C239.527 134.443 239.511 134.721 239.304 134.815C236.163 134.838 233.023 134.856 229.882 134.887C229.107 134.895 228.296 134.761 227.629 135.331C226.004 136.462 224.288 136.17 222.556 135.663C222.256 135.451 222.071 135.153 221.927 134.823C222.174 130.076 222.42 125.328 222.667 120.581C222.593 118.168 223.066 115.798 222.821 113.371C222.647 112.148 223.324 111.245 224.638 110.992C229.601 110.557 234.701 110.152 239.682 110.775L239.683 110.774Z" fill="#D86959"/>
<path d="M220.9 148.809C220.817 150.106 220.599 151.401 220.766 152.707C218.788 156.38 216.795 160.045 214.845 163.733C214.393 164.586 213.891 165.285 212.856 165.399C211.372 165.574 209.868 165.584 208.411 165.19C208.21 164.809 207.934 164.405 208.671 164.296C209.818 163.536 209.618 162.192 210.047 161.12C211.682 157.043 212.506 152.804 212.544 148.411C215.344 148.234 218.148 147.954 220.899 148.807L220.9 148.809Z" fill="#F4755C"/>
<path d="M231.49 88.0495C236.698 86.4036 241.982 85.0339 247.296 83.7783C246.987 86.0851 246.495 88.3508 245.719 90.5492C241.302 89.9157 236.931 89.2069 232.569 88.2526C232.288 88.2355 232.007 88.2184 231.725 88.2013C231.533 88.3245 231.455 88.2732 231.489 88.0483L231.49 88.0495Z" fill="#C66056"/>
<path d="M210.043 134.036C208.766 133.706 207.459 133.634 206.147 133.601C206.662 129.702 207.953 125.99 208.908 122.197C208.987 122.051 209.081 122.042 209.188 122.169C209.558 125.825 209.929 129.48 210.296 133.136C210.329 133.466 210.328 133.793 210.043 134.036Z" fill="#C66056"/>
<path d="M271.429 104.339C263.909 109.34 255.684 113.086 247.352 116.508C245.657 117.215 245.285 116.919 245.245 115.031C245.22 113.847 245.245 112.662 245.25 111.477C254.97 108.703 269.227 102.181 266.164 89.8119C265.1 86.9515 264.344 84.0523 264.621 80.9637C264.694 80.1499 264.416 79.4205 264.068 78.6969C263.115 77.4162 263.923 76.7519 265.351 77.2393C267.965 77.7849 270.284 78.9959 272.54 80.3679C273.202 80.7708 273.762 81.3963 274.622 81.4123C277.812 87.1901 278.89 93.8045 281.672 99.7684C281.984 100.489 282.344 101.202 282.283 102.026C282.399 103.062 282.254 103.996 281.266 104.594C279.563 105.273 276.975 101.446 275.612 100.424C274.469 99.0972 270.62 96.9936 271.166 100.382C271.243 101.662 272.406 103.198 271.429 104.34V104.339Z" fill="#D86959"/>
<path d="M230.418 80.1512C230.642 79.1 229.861 78.2086 230.211 77.1779C231.18 73.0471 230.313 69.1561 228.71 65.354C228.269 63.9855 229.624 63.5438 230.734 63.6294C237.489 64.1613 244.26 64.8061 251.046 64.8119C251.731 65.8836 251.223 67.0684 251.365 68.1938C251.454 68.897 251.215 69.6275 251.54 70.3123C250.896 71.819 249.635 72.4399 248.172 73.0425C243.092 75.137 238.078 77.3902 233.053 79.6136C232.197 79.9926 231.374 80.3533 230.416 80.1501L230.418 80.1512Z" fill="#FFF2E2"/>
<path d="M229.123 65.1192C231.86 69.549 231.966 74.2299 230.458 79.0661C228.327 78.1119 226.166 77.2113 224.235 75.8679C225.678 72.3763 227.122 68.8847 228.565 65.3932C228.649 65.0964 228.815 64.9617 229.123 65.1192Z" fill="#F4755C"/>
<path d="M229.123 65.1192C228.937 65.2116 228.749 65.3041 228.565 65.3942C224.929 60.1506 228.275 55.69 230.498 50.7317C230.881 49.7649 231.513 50.3151 230.997 51.0547C229.625 55.2289 225.611 59.8561 228.855 64.0896C228.944 64.4332 229.034 64.7767 229.124 65.1192H229.123Z" fill="#7DAFDD"/>
<path d="M251.541 70.3133C250.7 68.5407 251.465 66.6231 251.046 64.8128C251.09 61.1318 251.129 57.4496 251.191 53.7686C251.88 48.8502 251.481 69.4481 251.541 70.3144V70.3133Z" fill="#7DAFDD"/>
<path d="M288.621 119.313C288.266 118.78 287.68 118.643 287.131 118.449C283.85 117.291 280.951 115.419 278.035 113.578C274.5 109.812 271.319 105.543 270.345 100.378C270.072 99.4225 270.087 98.5424 271 97.9375C273.53 96.3612 276.272 100.269 278.073 101.695C279.054 102.624 279.785 103.849 281.12 104.377C281.688 104.332 282.172 104.547 282.529 104.959C284.081 106.586 296.474 121.164 288.622 119.313H288.621Z" fill="#517F8C"/>
<path d="M29.9836 68.7964C29.8604 68.5202 29.7371 68.244 29.6127 67.9678C30.1206 68.0716 30.471 68.2463 29.9836 68.7964Z" fill="#C66056"/>
<path d="M13.7791 132.119C14.3224 132.135 14.8645 132.151 15.4078 132.167C14.8554 132.476 14.3121 132.464 13.7791 132.119Z" fill="#517F8C"/>
<path d="M264.909 135.224C264.263 134.539 263.425 134.845 262.678 134.842C255.174 134.376 245.936 135.685 239.285 134.387C240.659 134.558 241.778 134.043 242.522 132.931C244.186 130.443 246.567 128.732 249.113 127.436C258.353 122.731 267.693 118.222 277 113.65C279.194 112.463 274.366 123.604 274.236 124.956C272.843 129.295 270.661 133.613 271.711 138.295C272.825 144.612 274.39 150.877 275.206 157.213C275.502 158.904 273.198 159.667 272.792 157.837C269.9 150.395 267.837 142.659 264.909 135.224Z" fill="#813840"/>
</g>
<defs>
<clipPath id="clip0_3543_18461">
<rect width="324" height="169.904" fill="white"/>
</clipPath>
</defs>
</svg>
