<svg width="32" height="32" viewBox="0 0 32 32" fill="none" xmlns="http://www.w3.org/2000/svg">
<path fill-rule="evenodd" clip-rule="evenodd" d="M16 27.8227C9.47049 27.8227 4.17728 22.5295 4.17728 16C4.17728 9.47049 9.47049 4.17728 16 4.17728C22.5295 4.17728 27.8227 9.47049 27.8227 16C27.8227 22.5295 22.5295 27.8227 16 27.8227ZM16 27.4823C9.6585 27.4823 4.5177 22.3415 4.5177 16C4.5177 9.6585 9.6585 4.5177 16 4.5177C22.3415 4.5177 27.4823 9.6585 27.4823 16C27.4823 22.3415 22.3415 27.4823 16 27.4823Z" fill="#DD2A2B"/>
<path fill-rule="evenodd" clip-rule="evenodd" d="M16 32C24.8366 32 32 24.8366 32 16C32 7.16344 24.8366 0 16 0C7.16344 0 0 7.16344 0 16C0 24.8366 7.16344 32 16 32ZM16 31.6596C24.6485 31.6596 31.6596 24.6485 31.6596 16C31.6596 7.35146 24.6485 0.340426 16 0.340426C7.35146 0.340426 0.340426 7.35146 0.340426 16C0.340426 24.6485 7.35146 31.6596 16 31.6596Z" fill="#DD2A2B"/>
<path fill-rule="evenodd" clip-rule="evenodd" d="M30.2979 9.36181L28.3437 5.83563L0.340483 18.0427L1.3617 21.9575L3.23404 25.3618L31.5117 13.2837L31.149 11.4044L30.2979 9.36181ZM2.75386 23.0482L3.83361 22.5859C4.15723 22.4473 4.40685 22.265 4.58249 22.0388C4.75917 21.8122 4.85763 21.5534 4.87788 21.2624C4.89916 20.971 4.83875 20.6594 4.69663 20.3274C4.55496 19.9966 4.37208 19.7386 4.14798 19.5534C3.92389 19.3683 3.67066 19.2613 3.38829 19.2325C3.10651 19.2022 2.80744 19.2548 2.49109 19.3902L1.38956 19.8619L2.75386 23.0482ZM3.59177 22.0985L3.11724 22.3016L2.18061 20.1141L2.67226 19.9036C2.888 19.8112 3.0858 19.7744 3.26565 19.7932C3.44609 19.8104 3.6083 19.8839 3.75226 20.0138C3.89578 20.1426 4.01972 20.3288 4.12408 20.5726C4.22845 20.8163 4.27815 21.0356 4.2732 21.2304C4.2678 21.4242 4.20848 21.5938 4.09524 21.7393C3.98156 21.8837 3.81373 22.0034 3.59177 22.0985ZM4.56425 18.5025L5.92855 21.6889L8.01337 20.7962L7.8062 20.3124L6.29859 20.9579L5.9262 20.0882L7.31401 19.494L7.10683 19.0101L5.71903 19.6043L5.34864 18.7393L6.8438 18.0991L6.63662 17.6152L4.56425 18.5025ZM8.38288 20.638L8.999 20.3742L8.92609 19.4757L10.124 18.9628L10.7244 19.6355L11.3405 19.3717L8.85292 16.6663L8.14034 16.9714L8.38288 20.638ZM9.76972 18.5659L8.78886 17.4669L8.76397 17.4776L8.88307 18.9455L9.76972 18.5659ZM12.852 16.2262L13.4339 15.977C13.3341 15.8099 13.2157 15.674 13.0789 15.5693C12.9426 15.4632 12.7944 15.388 12.6343 15.3436C12.4737 15.2982 12.3065 15.2833 12.1327 15.2988C11.9589 15.3143 11.7834 15.36 11.606 15.4359C11.328 15.555 11.1068 15.7264 10.9425 15.9502C10.7781 16.174 10.6845 16.4356 10.6617 16.735C10.6385 17.0334 10.7004 17.3542 10.8474 17.6975C10.994 18.0398 11.1829 18.3063 11.4143 18.4969C11.6456 18.6875 11.899 18.8005 12.1744 18.836C12.4498 18.8715 12.7275 18.8293 13.0076 18.7094C13.1974 18.6281 13.3581 18.5262 13.4897 18.4036C13.6209 18.2799 13.723 18.1429 13.7961 17.9925C13.8687 17.8412 13.9124 17.6838 13.9271 17.5204C13.9429 17.3565 13.9293 17.1942 13.8862 17.0334L13.303 17.2795C13.3253 17.3804 13.3287 17.4771 13.3131 17.5697C13.2986 17.6618 13.2682 17.7472 13.2221 17.8259C13.1771 17.9041 13.1181 17.9742 13.0452 18.0361C12.9728 18.0965 12.889 18.1471 12.7935 18.188C12.6214 18.2617 12.4504 18.2852 12.2806 18.2585C12.1114 18.2303 11.9529 18.1496 11.8051 18.0165C11.6579 17.882 11.5321 17.6928 11.4277 17.4491C11.3252 17.2095 11.2762 16.9905 11.2809 16.7921C11.2851 16.5927 11.3356 16.4213 11.4326 16.2779C11.5291 16.1335 11.6639 16.0242 11.8372 15.95C11.9347 15.9083 12.0312 15.8829 12.1267 15.8739C12.2229 15.8634 12.3153 15.8699 12.4039 15.8933C12.4925 15.9168 12.575 15.9563 12.6516 16.0119C12.7277 16.0664 12.7945 16.1378 12.852 16.2262ZM13.3621 14.7356L13.5693 15.2194L14.5541 14.7977L15.7113 17.5002L16.2838 17.2551L15.1267 14.5526L16.1115 14.1309L15.9044 13.647L13.3621 14.7356ZM18.336 16.3764L16.9717 13.1901L16.3945 13.4372L17.7588 16.6236L18.336 16.3764ZM19.9261 14.8928L18.023 12.7399L17.3898 13.011L19.8759 15.7171L20.5884 15.412L20.3475 11.7447L19.7127 12.0164L19.9588 14.8789L19.9261 14.8928ZM21.5523 14.9993L22.1684 14.7355L22.0955 13.837L23.2934 13.3241L23.8938 13.9967L24.5099 13.7329L22.0223 11.0275L21.3097 11.3326L21.5523 14.9993ZM22.9391 12.9271L21.9583 11.8282L21.9334 11.8389L22.0525 13.3067L22.9391 12.9271ZM23.0402 10.5917L23.2474 11.0756L24.2322 10.6539L25.3894 13.3564L25.9619 13.1112L24.8048 10.4087L25.7896 9.98705L25.5825 9.50318L23.0402 10.5917ZM26.0726 9.29334L27.4369 12.4797L29.5217 11.587L29.3145 11.1032L27.8069 11.7487L27.4345 10.879L28.8223 10.2848L28.6151 9.80089L27.2273 10.3951L26.8569 9.53006L28.3521 8.88987L28.1449 8.40601L26.0726 9.29334Z" fill="#DD2A2B"/>
</svg>
