<svg width="12" height="16" viewBox="0 0 12 16" fill="none" xmlns="http://www.w3.org/2000/svg">
<path d="M8.04072 5.96387C7.84951 5.96387 7.69452 6.11886 7.69452 6.31007V12.8532C7.69452 13.0443 7.84951 13.1994 8.04072 13.1994C8.23196 13.1994 8.38692 13.0443 8.38692 12.8532V6.31007C8.38692 6.11886 8.23196 5.96387 8.04072 5.96387ZM3.95557 5.96387C3.76437 5.96387 3.60938 6.11886 3.60938 6.31007V12.8532C3.60938 13.0443 3.76437 13.1994 3.95557 13.1994C4.14681 13.1994 4.30177 13.0443 4.30177 12.8532V6.31007C4.30177 6.11886 4.14681 5.96387 3.95557 5.96387Z" fill="#DD2A2B"/>
<path d="M0.977394 5.00936V13.539C0.977394 14.0431 1.16226 14.5166 1.4852 14.8563C1.64421 15.0248 1.83591 15.1591 2.04859 15.2511C2.26127 15.3431 2.49046 15.3907 2.72217 15.3911H9.27238C9.5041 15.3907 9.7333 15.3431 9.94598 15.2511C10.1587 15.1592 10.3504 15.0248 10.5094 14.8563C10.8323 14.5166 11.0172 14.0431 11.0172 13.539V5.00936C11.6591 4.83896 12.0751 4.21878 11.9892 3.56006C11.9032 2.90146 11.3421 2.40882 10.6778 2.40868H8.90534V1.97593C8.90634 1.79578 8.87154 1.61723 8.80296 1.45064C8.73439 1.28405 8.6334 1.13274 8.50587 1.0055C8.3783 0.878271 8.22673 0.777656 8.05995 0.709494C7.89318 0.641333 7.71452 0.606984 7.53436 0.608443H4.46022C4.28006 0.60698 4.10139 0.641326 3.93461 0.709488C3.76783 0.777649 3.61625 0.878267 3.48868 1.0055C3.36115 1.13274 3.26016 1.28405 3.19159 1.45064C3.12301 1.61723 3.08821 1.79578 3.08921 1.97593V2.40868H1.31674C0.652452 2.40882 0.0913673 2.90146 0.00533691 3.56006C-0.0805204 4.21878 0.335437 4.83896 0.977394 5.00936ZM9.27238 14.6987H2.7222C2.13027 14.6987 1.66979 14.1902 1.66979 13.539V5.03979H10.3248V13.539C10.3248 14.1903 9.86432 14.6987 9.27238 14.6987ZM3.7816 1.97593C3.78047 1.88667 3.79728 1.7981 3.83104 1.71547C3.86479 1.63283 3.91481 1.55782 3.97811 1.49489C4.04138 1.43191 4.11666 1.38229 4.19948 1.34896C4.2823 1.31563 4.37096 1.29926 4.46022 1.30084H7.53436C7.62362 1.29926 7.71229 1.31563 7.7951 1.34896C7.87792 1.38229 7.9532 1.43191 8.01648 1.49489C8.07978 1.55782 8.12979 1.63283 8.16354 1.71546C8.19729 1.7981 8.21409 1.88667 8.21295 1.97593V2.40868H3.7816V1.97593ZM1.31674 3.10107H10.6779C11.0221 3.10107 11.3011 3.38008 11.3011 3.72423C11.3011 4.06839 11.0221 4.34739 10.6779 4.34739H1.3167C0.972547 4.34739 0.693545 4.06839 0.693545 3.72423C0.693545 3.38008 0.972582 3.10107 1.31674 3.10107Z" fill="#DD2A2B"/>
<path d="M5.99854 5.96387C5.80734 5.96387 5.65234 6.11886 5.65234 6.31007V12.8532C5.65234 13.0443 5.80734 13.1994 5.99854 13.1994C6.18978 13.1994 6.34474 13.0443 6.34474 12.8532V6.31007C6.34474 6.11886 6.18978 5.96387 5.99854 5.96387Z" fill="#DD2A2B"/>
</svg>
