<svg width="60" height="60" viewBox="0 0 60 60" fill="none" xmlns="http://www.w3.org/2000/svg">
<g clip-path="url(#clip0_910_23326)">
<path d="M33.3123 26.6953C33.0019 26.6953 32.7502 26.9469 32.7502 27.2574V37.8803C32.7502 38.1906 33.0019 38.4424 33.3123 38.4424C33.6228 38.4424 33.8743 38.1906 33.8743 37.8803V27.2574C33.8743 26.9469 33.6228 26.6953 33.3123 26.6953ZM26.68 26.6953C26.3696 26.6953 26.1179 26.9469 26.1179 27.2574V37.8803C26.1179 38.1906 26.3696 38.4424 26.68 38.4424C26.9905 38.4424 27.242 38.1906 27.242 37.8803V27.2574C27.242 26.9469 26.9905 26.6953 26.68 26.6953Z" fill="#DD2A2B"/>
<path d="M21.8463 25.145V38.993C21.8463 39.8115 22.1465 40.5801 22.6708 41.1316C22.9289 41.4053 23.2401 41.6234 23.5854 41.7727C23.9307 41.922 24.3028 41.9993 24.679 42H35.3134C35.6896 41.9994 36.0617 41.922 36.407 41.7727C36.7523 41.6234 37.0635 41.4053 37.3216 41.1316C37.846 40.5801 38.1461 39.8115 38.1461 38.993V25.145C39.1883 24.8684 39.8637 23.8615 39.7243 22.7921C39.5846 21.7228 38.6737 20.923 37.5952 20.9228H34.7175V20.2202C34.7191 19.9277 34.6626 19.6378 34.5513 19.3674C34.4399 19.0969 34.276 18.8513 34.0689 18.6447C33.8618 18.4381 33.6157 18.2748 33.345 18.1641C33.0742 18.0535 32.7842 17.9977 32.4917 18.0001H27.5008C27.2083 17.9977 26.9182 18.0535 26.6474 18.1641C26.3767 18.2748 26.1306 18.4381 25.9235 18.6447C25.7164 18.8513 25.5524 19.0969 25.4411 19.3674C25.3298 19.6378 25.2733 19.9277 25.2749 20.2202V20.9228H22.3973C21.3188 20.923 20.4078 21.7228 20.2682 22.7921C20.1288 23.8615 20.8041 24.8684 21.8463 25.145ZM35.3134 40.8759H24.6791C23.718 40.8759 22.9704 40.0503 22.9704 38.993V25.1944H37.0219V38.993C37.0219 40.0504 36.2744 40.8759 35.3134 40.8759ZM26.399 20.2202C26.3972 20.0753 26.4245 19.9315 26.4793 19.7973C26.5341 19.6632 26.6153 19.5414 26.718 19.4392C26.8208 19.337 26.943 19.2564 27.0774 19.2023C27.2119 19.1482 27.3558 19.1216 27.5008 19.1242H32.4917C32.6366 19.1216 32.7805 19.1482 32.915 19.2023C33.0495 19.2564 33.1717 19.337 33.2744 19.4392C33.3772 19.5414 33.4584 19.6632 33.5132 19.7973C33.568 19.9315 33.5952 20.0753 33.5934 20.2202V20.9228H26.399V20.2202ZM22.3973 22.0469H37.5953C38.154 22.0469 38.607 22.4999 38.607 23.0586C38.607 23.6174 38.154 24.0703 37.5953 24.0703H22.3972C21.8385 24.0703 21.3855 23.6174 21.3855 23.0586C21.3855 22.4999 21.8385 22.0469 22.3973 22.0469Z" fill="#DD2A2B"/>
<path d="M29.9961 26.6953C29.6857 26.6953 29.4341 26.9469 29.4341 27.2574V37.8803C29.4341 38.1906 29.6857 38.4424 29.9961 38.4424C30.3066 38.4424 30.5582 38.1906 30.5582 37.8803V27.2574C30.5582 26.9469 30.3066 26.6953 29.9961 26.6953Z" fill="#DD2A2B"/>
</g>
<rect x="0.5" y="0.5" width="59" height="59" rx="7.5" stroke="#DD2A2B"/>
<defs>
<clipPath id="clip0_910_23326">
<rect width="24" height="24" fill="white" transform="translate(18 18)"/>
</clipPath>
</defs>
</svg>
