<svg width="24" height="24" viewBox="0 0 24 24" fill="none" xmlns="http://www.w3.org/2000/svg">
<g clip-path="url(#clip0_1721_4819)">
<path d="M10.9997 22.9719C4.93489 22.9719 0 18.0372 0 11.9724C0 5.90755 4.93489 0.972656 10.9997 0.972656C13.1087 0.972656 15.1605 1.57358 16.9334 2.71152C17.2815 2.93567 17.3835 3.39963 17.1594 3.7486C16.9345 4.09762 16.4715 4.19849 16.1225 3.97453C14.5925 2.9915 12.8207 2.47261 10.9997 2.47261C5.76179 2.47261 1.49995 6.73445 1.49995 11.9724C1.49995 17.2101 5.76179 21.472 10.9997 21.472C16.2375 21.472 20.4993 17.2101 20.4993 11.9724C20.4993 11.6593 20.4843 11.3493 20.4554 11.0444C20.4154 10.6313 20.7174 10.2653 21.1293 10.2254C21.5433 10.1873 21.9083 10.4874 21.9483 10.8994C21.9824 11.2561 21.9994 11.6141 21.9993 11.9724C21.9993 18.0372 17.0645 22.9719 10.9997 22.9719Z" fill="white"/>
<path d="M12.2496 14.472C12.0577 14.472 11.8657 14.3989 11.7197 14.252L7.21984 9.75219C6.92688 9.45909 6.92688 8.98412 7.21984 8.69116C7.5128 8.3982 7.98777 8.3982 8.28073 8.69116L12.2507 12.6611L22.7192 2.19238C23.0124 1.89942 23.4874 1.89942 23.7803 2.19238C24.0733 2.48534 24.0733 2.96031 23.7803 3.25326L12.7806 14.253C12.6396 14.3934 12.4486 14.4722 12.2496 14.472Z" fill="white"/>
</g>
<defs>
<clipPath id="clip0_1721_4819">
<rect width="24" height="24" fill="white"/>
</clipPath>
</defs>
</svg>
