<svg width="21" height="20" viewBox="0 0 21 20" fill="none" xmlns="http://www.w3.org/2000/svg">
<g id="download (1) 1" clip-path="url(#clip0_4165_21400)">
<path id="Vector" d="M20.5 18.75C20.5 19.4404 19.9404 20 19.25 20H1.75C1.05965 20 0.5 19.4404 0.5 18.75C0.5 18.0596 1.05965 17.5 1.75 17.5H19.25C19.9404 17.5 20.5 18.0596 20.5 18.75ZM9.61613 14.7902C9.86023 15.0343 10.1801 15.1563 10.5 15.1563C10.8198 15.1563 11.1398 15.0342 11.3839 14.7902L15.8127 10.3614C16.3009 9.8732 16.3009 9.08176 15.8127 8.59359C15.3245 8.10543 14.5331 8.10543 14.0449 8.59359L11.75 10.8885V1.25C11.75 0.559648 11.1904 0 10.5 0C9.80965 0 9.25 0.559648 9.25 1.25V10.8885L6.95508 8.59359C6.46691 8.10543 5.67547 8.10543 5.1873 8.59359C4.69914 9.08176 4.69914 9.8732 5.1873 10.3614L9.61613 14.7902Z" fill="white"/>
</g>
<defs>
<clipPath id="clip0_4165_21400">
<rect width="20" height="20" fill="white" transform="translate(0.5)"/>
</clipPath>
</defs>
</svg>
