<svg width="17" height="16" viewBox="0 0 17 16" fill="none" xmlns="http://www.w3.org/2000/svg">
<path d="M8.40005 10.6671C8.31231 10.6676 8.22533 10.6508 8.14411 10.6176C8.06288 10.5845 7.98901 10.5356 7.92671 10.4738L3.92671 6.47378C3.80118 6.34825 3.73065 6.17798 3.73065 6.00045C3.73065 5.82291 3.80118 5.65265 3.92671 5.52712C4.05225 5.40158 4.22251 5.33105 4.40005 5.33105C4.57758 5.33105 4.74784 5.40158 4.87338 5.52712L8.40005 9.06045L11.9267 5.53378C12.0542 5.42457 12.2183 5.36749 12.3861 5.37397C12.5539 5.38046 12.713 5.45001 12.8318 5.56874C12.9505 5.68747 13.02 5.84663 13.0265 6.01441C13.033 6.1822 12.9759 6.34625 12.8667 6.47378L8.86671 10.4738C8.74254 10.5969 8.57494 10.6664 8.40005 10.6671Z" fill="#08091D"/>
</svg>
