<svg width="25" height="24" viewBox="0 0 25 24" fill="none" xmlns="http://www.w3.org/2000/svg">
<path d="M12.4999 16.0002C12.3683 16.0009 12.2379 15.9757 12.116 15.926C11.9942 15.8762 11.8834 15.8029 11.7899 15.7102L5.78994 9.71019C5.60164 9.52188 5.49585 9.26649 5.49585 9.00019C5.49585 8.73388 5.60164 8.47849 5.78994 8.29019C5.97824 8.10188 6.23364 7.99609 6.49994 7.99609C6.76624 7.99609 7.02164 8.10188 7.20994 8.29019L12.4999 13.5902L17.7899 8.30019C17.9812 8.13636 18.2273 8.05075 18.479 8.06047C18.7307 8.0702 18.9694 8.17453 19.1475 8.35262C19.3256 8.53072 19.4299 8.76946 19.4397 9.02113C19.4494 9.27281 19.3638 9.51888 19.1999 9.71019L13.1999 15.7102C13.0137 15.8949 12.7623 15.9991 12.4999 16.0002Z" fill="white"/>
</svg>
