<svg width="80" height="97" viewBox="0 0 80 97" fill="none" xmlns="http://www.w3.org/2000/svg">
<g id="Group 3">
<path id="Ellipse 3" d="M160 80C160 100.282 152.296 119.807 138.447 134.625C124.598 149.443 105.638 158.448 85.4021 159.817C65.1662 161.187 45.1655 154.819 29.4462 142.003C13.7268 129.186 3.46247 110.877 0.729567 90.7795C-2.00334 70.6823 2.99925 50.2973 14.7253 33.7484C26.4514 17.1994 44.0254 5.72216 63.8922 1.6384C83.759 -2.44536 104.435 1.16929 121.738 11.7511C139.041 22.3329 151.679 39.0918 157.095 58.6375L149.187 60.8288C144.326 43.2881 132.985 28.2482 117.457 18.7519C101.929 9.25553 83.3734 6.01166 65.5445 9.67652C47.7156 13.3414 31.9442 23.6414 21.421 38.4927C10.8978 53.3441 6.40833 71.6381 8.86091 89.6738C11.3135 107.71 20.525 124.14 34.6318 135.642C48.7387 147.145 66.6878 152.859 84.848 151.63C103.008 150.401 120.024 142.32 132.452 129.022C144.88 115.724 151.794 98.2017 151.794 80H160Z" fill="#6BADF8"/>
<circle id="Ellipse 2" cx="80" cy="80" r="64.252" fill="url(#paint0_linear_4226_20483)"/>
<circle id="Ellipse 4" cx="80" cy="80" r="49.7638" fill="#D9E8F8"/>
</g>
<defs>
<linearGradient id="paint0_linear_4226_20483" x1="44.7244" y1="33.0709" x2="118.11" y2="104.252" gradientUnits="userSpaceOnUse">
<stop stop-color="#83BDFE"/>
<stop offset="0.735631" stop-color="white" stop-opacity="0"/>
</linearGradient>
</defs>
</svg>
