<svg width="191" height="165" viewBox="0 0 191 165" fill="none" xmlns="http://www.w3.org/2000/svg">
<path d="M254 127C254 159.198 241.77 190.194 219.785 213.718C197.8 237.241 167.7 251.536 135.576 253.71C103.451 255.884 71.7002 245.776 46.7458 225.429C21.7914 205.082 5.49668 176.017 1.15819 144.113C-3.1803 112.208 4.76131 79.8469 23.3764 53.5755C41.9915 27.3041 69.8904 9.08393 101.429 2.60097C132.967 -3.882 165.791 1.85625 193.26 18.6549C220.728 35.4535 240.791 62.0583 249.388 93.0871L236.834 96.5658C229.118 68.7198 211.114 44.8441 186.463 29.7686C161.812 14.6931 132.355 9.54351 104.052 15.3615C75.7485 21.1794 50.7115 37.5306 34.0058 61.1072C17.3002 84.6838 10.1732 113.725 14.0667 142.357C17.9601 170.989 32.5834 197.073 54.9781 215.332C77.3727 233.592 105.867 242.664 134.696 240.713C163.525 238.761 190.537 225.933 210.267 204.822C229.997 183.712 240.973 155.895 240.973 127H254Z" fill="#F7BEBE"/>
<circle cx="127" cy="127" r="102" fill="url(#paint0_linear_1029_11600)"/>
<circle cx="127" cy="127" r="79" fill="#F7BEBE"/>
<defs>
<linearGradient id="paint0_linear_1029_11600" x1="71" y1="52.5" x2="187.5" y2="165.5" gradientUnits="userSpaceOnUse">
<stop stop-color="#DC6868"/>
<stop offset="1" stop-color="#CEC5E3" stop-opacity="0"/>
</linearGradient>
</defs>
</svg>
