<svg width="25" height="24" viewBox="0 0 25 24" fill="none" xmlns="http://www.w3.org/2000/svg">
<path d="M7.52542 13.6097L6.86687 16.9475C6.80445 17.2638 7.01027 17.5708 7.32653 17.6332C7.40114 17.6479 7.47791 17.6479 7.55251 17.6332L10.8903 16.9747C11.0039 16.9522 11.1082 16.8965 11.19 16.8146L20.5976 7.40711C21.1341 6.87078 21.1342 6.00113 20.5979 5.46466L20.5976 5.4644L19.0356 3.90239C18.4992 3.36593 17.6295 3.36586 17.093 3.90226L17.0929 3.90239L7.68533 13.31C7.60349 13.3918 7.54783 13.4962 7.52542 13.6097ZM17.9184 4.72788C17.9571 4.68924 18.0096 4.66753 18.0643 4.66753C18.119 4.66753 18.1714 4.68924 18.2102 4.72788L19.7721 6.28989C19.8108 6.3286 19.8325 6.38106 19.8325 6.43575C19.8325 6.49045 19.8108 6.54291 19.7721 6.58162L18.5863 7.7674L16.7326 5.91367L17.9184 4.72788ZM8.63633 14.0099L15.9071 6.73916L17.7609 8.59293L10.4901 15.8637L8.18075 16.3193L8.63633 14.0099Z" fill="#3D3D3D"/>
<path d="M20.3272 9.98811C20.0048 9.98811 19.7435 10.2494 19.7435 10.5718V17.3548C19.7422 18.4465 18.8576 19.3311 17.766 19.3323H7.1449C6.05328 19.3311 5.16865 18.4465 5.16742 17.3548V6.73377C5.16865 5.64215 6.05328 4.75752 7.1449 4.75629H13.9279C14.2503 4.75629 14.5116 4.49495 14.5116 4.17258C14.5116 3.85021 14.2503 3.58887 13.9279 3.58887H7.1449C5.40881 3.59083 4.00196 4.99771 4 6.73377V17.3548C4.00196 19.0909 5.40884 20.4978 7.1449 20.4998H17.766C19.502 20.4978 20.9089 19.0909 20.9109 17.3548V10.5718C20.9109 10.2494 20.6495 9.98811 20.3272 9.98811Z" fill="#3D3D3D"/>
</svg>
