<svg width="25" height="24" viewBox="0 0 25 24" fill="none" xmlns="http://www.w3.org/2000/svg">
<path d="M6.64751 13.8938L5.87274 17.8206C5.79931 18.1927 6.04146 18.5538 6.41353 18.6273C6.5013 18.6446 6.59161 18.6446 6.67938 18.6273L10.6062 17.8525C10.7398 17.8261 10.8626 17.7605 10.9588 17.6642L22.0265 6.5966C22.6577 5.96562 22.6578 4.9425 22.0268 4.31137L22.0265 4.31105L20.1889 2.4734C19.5579 1.84227 18.5347 1.84219 17.9035 2.47324L17.9034 2.4734L6.83563 13.5411C6.73936 13.6374 6.67388 13.7602 6.64751 13.8938ZM18.8745 3.44457C18.9201 3.39911 18.9818 3.37357 19.0461 3.37357C19.1105 3.37357 19.1722 3.39911 19.2178 3.44457L21.0554 5.28223C21.1009 5.32777 21.1264 5.38948 21.1264 5.45383C21.1264 5.51817 21.1009 5.57989 21.0554 5.62543L19.6604 7.02047L17.4795 4.83961L18.8745 3.44457ZM7.95446 14.3646L16.5083 5.81078L18.6892 7.99168L10.1354 16.5455L7.41849 17.0815L7.95446 14.3646Z" fill="white"/>
<path d="M21.7084 9.63398C21.3292 9.63398 21.0217 9.94145 21.0217 10.3207V18.3007C21.0202 19.585 19.9795 20.6257 18.6953 20.6272H6.19988C4.91563 20.6257 3.87488 19.585 3.87344 18.3007V5.80535C3.87488 4.52109 4.91563 3.48035 6.19988 3.47891H14.1799C14.5592 3.47891 14.8666 3.17145 14.8666 2.79219C14.8666 2.41293 14.5592 2.10547 14.1799 2.10547H6.19988C4.15742 2.10777 2.5023 3.76293 2.5 5.80535V18.3007C2.5023 20.3432 4.15746 21.9983 6.19988 22.0006H18.6953C20.7377 21.9983 22.3928 20.3432 22.3952 18.3007V10.3207C22.3952 9.94145 22.0877 9.63398 21.7084 9.63398Z" fill="white"/>
</svg>
