<svg width="18" height="18" viewBox="0 0 18 18" fill="none" xmlns="http://www.w3.org/2000/svg">
<path d="M4.61045 10.4203L4.02938 13.3654C3.9743 13.6445 4.15591 13.9154 4.43496 13.9704C4.50079 13.9834 4.56853 13.9834 4.63436 13.9704L7.57945 13.3894C7.67967 13.3696 7.77174 13.3204 7.84395 13.2481L16.1447 4.94745C16.6181 4.47422 16.6182 3.70688 16.145 3.23353L16.1447 3.23329L14.7665 1.85505C14.2932 1.3817 13.5258 1.38164 13.0525 1.85493L13.0523 1.85505L4.75154 10.1558C4.67934 10.2281 4.63023 10.3201 4.61045 10.4203ZM13.7807 2.58343C13.8149 2.54933 13.8612 2.53018 13.9094 2.53018C13.9577 2.53018 14.004 2.54933 14.0382 2.58343L15.4164 3.96167C15.4505 3.99582 15.4696 4.04211 15.4696 4.09037C15.4696 4.13863 15.4505 4.18492 15.4164 4.21907L14.3701 5.26535L12.7344 3.62971L13.7807 2.58343ZM5.59066 10.7735L12.0061 4.35809L13.6417 5.99376L7.22634 12.4091L5.18868 12.8111L5.59066 10.7735Z" fill="#0267D9"/>
<path d="M15.9063 7.225C15.6219 7.225 15.3913 7.4556 15.3913 7.74004V13.7251C15.3902 14.6883 14.6096 15.4688 13.6465 15.4699H4.27491C3.31172 15.4688 2.53116 14.6883 2.53008 13.7251V4.35353C2.53116 3.39033 3.31172 2.60978 4.27491 2.60869H10.2599C10.5444 2.60869 10.775 2.3781 10.775 2.09365C10.775 1.80921 10.5444 1.57861 10.2599 1.57861H4.27491C2.74307 1.58034 1.50173 2.82171 1.5 4.35353V13.7251C1.50173 15.2569 2.7431 16.4983 4.27491 16.5H13.6465C15.1783 16.4983 16.4196 15.2569 16.4214 13.7251V7.74004C16.4214 7.4556 16.1908 7.225 15.9063 7.225Z" fill="#0267D9"/>
</svg>
