<svg width="32" height="32" viewBox="0 0 32 32" fill="none" xmlns="http://www.w3.org/2000/svg">
<g id="folder 1">
<path id="Vector" d="M7 30H25C25.7956 30 26.5587 29.6839 27.1213 29.1213C27.6839 28.5587 28 27.7956 28 27V5C28 4.20435 27.6839 3.44129 27.1213 2.87868C26.5587 2.31607 25.7956 2 25 2H13.83C13.0346 2.0007 12.2721 2.31723 11.71 2.88L4.88 9.71C4.31723 10.2721 4.0007 11.0346 4 11.83V27C4 27.7956 4.31607 28.5587 4.87868 29.1213C5.44129 29.6839 6.20435 30 7 30ZM26 5V27C26 27.2652 25.8946 27.5196 25.7071 27.7071C25.5196 27.8946 25.2652 28 25 28H7C6.73478 28 6.48043 27.8946 6.29289 27.7071C6.10536 27.5196 6 27.2652 6 27V12H11C11.7956 12 12.5587 11.6839 13.1213 11.1213C13.6839 10.5587 14 9.79565 14 9V4H25C25.2652 4 25.5196 4.10536 25.7071 4.29289C25.8946 4.48043 26 4.73478 26 5ZM12 5.41V9C12 9.26522 11.8946 9.51957 11.7071 9.70711C11.5196 9.89464 11.2652 10 11 10H7.41L12 5.41Z" fill="#DD2A2B"/>
<path id="Vector_2" d="M14.6304 13.88C14.443 13.6938 14.1896 13.5892 13.9254 13.5892C13.6612 13.5892 13.4078 13.6938 13.2204 13.88L12.5104 14.59L11.8004 13.88C11.6091 13.7162 11.363 13.6306 11.1113 13.6403C10.8597 13.65 10.6209 13.7544 10.4428 13.9325C10.2647 14.1106 10.1604 14.3493 10.1507 14.601C10.141 14.8526 10.2266 15.0987 10.3904 15.29L11.0904 16L10.3904 16.71C10.2042 16.8974 10.0996 17.1508 10.0996 17.415C10.0996 17.6792 10.2042 17.9327 10.3904 18.12C10.5778 18.3063 10.8312 18.4108 11.0954 18.4108C11.3596 18.4108 11.613 18.3063 11.8004 18.12L12.5104 17.41L13.2204 18.12C13.4078 18.3063 13.6612 18.4108 13.9254 18.4108C14.1896 18.4108 14.443 18.3063 14.6304 18.12C14.8167 17.9327 14.9212 17.6792 14.9212 17.415C14.9212 17.1508 14.8167 16.8974 14.6304 16.71L13.9204 16L14.6304 15.29C14.8167 15.1027 14.9212 14.8492 14.9212 14.585C14.9212 14.3208 14.8167 14.0674 14.6304 13.88Z" fill="#DD2A2B"/>
<path id="Vector_3" d="M17.3709 18.12C17.5582 18.3063 17.8117 18.4108 18.0759 18.4108C18.3401 18.4108 18.5935 18.3063 18.7809 18.12L19.4909 17.41L20.2009 18.12C20.3882 18.3063 20.6417 18.4108 20.9059 18.4108C21.1701 18.4108 21.4235 18.3063 21.6109 18.12C21.7971 17.9326 21.9017 17.6792 21.9017 17.415C21.9017 17.1508 21.7971 16.8974 21.6109 16.71L20.9109 16L21.6109 15.29C21.7156 15.2004 21.8006 15.09 21.8606 14.966C21.9206 14.8419 21.9544 14.7068 21.9597 14.5691C21.965 14.4313 21.9418 14.294 21.8915 14.1657C21.8412 14.0374 21.765 13.9208 21.6675 13.8234C21.5701 13.7259 21.4535 13.6496 21.3252 13.5994C21.1969 13.5491 21.0595 13.5259 20.9218 13.5312C20.7841 13.5365 20.649 13.5703 20.5249 13.6303C20.4008 13.6903 20.2905 13.7753 20.2009 13.88L19.4909 14.59L18.7809 13.88C18.5896 13.7162 18.3435 13.6306 18.0918 13.6403C17.8401 13.65 17.6014 13.7543 17.4233 13.9324C17.2452 14.1105 17.1409 14.3493 17.1312 14.6009C17.1214 14.8526 17.207 15.0987 17.3709 15.29L18.0809 16L17.3709 16.71C17.1846 16.8974 17.0801 17.1508 17.0801 17.415C17.0801 17.6792 17.1846 17.9326 17.3709 18.12Z" fill="#DD2A2B"/>
<path id="Vector_4" d="M10.5894 22.41C10.6986 22.651 10.8988 22.8389 11.1462 22.9326C11.3936 23.0263 11.668 23.0182 11.9094 22.91C13.1888 22.3075 14.5854 21.9951 15.9994 21.9951C17.4135 21.9951 18.8101 22.3075 20.0894 22.91C20.2182 22.9686 20.3579 22.9993 20.4994 23C20.7274 22.9989 20.9482 22.92 21.1252 22.7763C21.3022 22.6326 21.4247 22.4328 21.4726 22.2099C21.5204 21.987 21.4907 21.7544 21.3883 21.5507C21.2858 21.3471 21.1169 21.1845 20.9094 21.09C19.3717 20.3738 17.6958 20.0027 15.9994 20.0027C14.3031 20.0027 12.6272 20.3738 11.0894 21.09C10.8484 21.1991 10.6605 21.3993 10.5668 21.6467C10.4731 21.8941 10.4812 22.1686 10.5894 22.41Z" fill="#DD2A2B"/>
</g>
</svg>
