<svg width="20" height="20" viewBox="0 0 20 20" fill="none" xmlns="http://www.w3.org/2000/svg">
<path d="M8.68756 7.46595C8.74712 9.33755 11.4645 9.33725 11.5238 7.46591C11.4642 5.5944 8.74687 5.59497 8.68756 7.46595ZM10.1057 6.62124C10.3284 6.62389 10.5409 6.71407 10.6974 6.87221C10.8539 7.03034 10.9416 7.24371 10.9416 7.46602C10.9416 7.68834 10.8539 7.9017 10.6974 8.05984C10.5409 8.21798 10.3283 8.30814 10.1057 8.31079C9.88312 8.30814 9.67053 8.21796 9.51405 8.05982C9.35758 7.90168 9.26983 7.68832 9.26983 7.466C9.26983 7.24368 9.35759 7.03033 9.51407 6.87219C9.67055 6.71406 9.88314 6.62389 10.1057 6.62124Z" fill="#F5890D"/>
<path d="M11.0516 3.90662C11.1268 3.9055 11.1985 3.87491 11.2512 3.82145C11.304 3.76799 11.3335 3.69595 11.3335 3.6209C11.3335 3.54585 11.3039 3.47382 11.2512 3.42036C11.1985 3.3669 11.1268 3.33631 11.0516 3.3352H10.1629C10.087 3.3352 10.0142 3.3653 9.96059 3.41888C9.90693 3.47246 9.87679 3.54514 9.87679 3.62091V5.21629C9.87679 5.29207 9.90693 5.36474 9.96059 5.41832C10.0142 5.4719 10.087 5.502 10.1629 5.502H11.0516C11.1268 5.50094 11.1986 5.47037 11.2513 5.4169C11.3041 5.36343 11.3337 5.29137 11.3337 5.21628C11.3337 5.1412 11.3041 5.06914 11.2513 5.01568C11.1985 4.96221 11.1268 4.93165 11.0516 4.93059H10.449V4.70431H11.0516C11.1268 4.70324 11.1986 4.67267 11.2513 4.61921C11.3041 4.56574 11.3337 4.49367 11.3337 4.41859C11.3337 4.34351 11.3041 4.27145 11.2513 4.21798C11.1985 4.16452 11.1268 4.13395 11.0516 4.13289H10.449V3.90662H11.0516Z" fill="#F5890D"/>
<path d="M13.0275 3.45073L12.6649 3.939L12.3022 3.45071C12.2564 3.3915 12.1892 3.35259 12.1149 3.34234C12.0407 3.33209 11.9654 3.35132 11.9053 3.39589C11.8451 3.44046 11.8048 3.50683 11.7931 3.58073C11.7814 3.65462 11.7992 3.73017 11.8426 3.79112L12.3086 4.4186L11.8426 5.04609C11.8202 5.07623 11.804 5.11047 11.7949 5.14687C11.7857 5.18327 11.7839 5.2211 11.7894 5.25821C11.7949 5.29533 11.8077 5.331 11.827 5.36318C11.8463 5.39536 11.8718 5.42343 11.902 5.44578C11.9321 5.46813 11.9664 5.48432 12.0029 5.49344C12.0393 5.50255 12.0772 5.50441 12.1144 5.4989C12.1515 5.4934 12.1873 5.48063 12.2195 5.46134C12.2517 5.44205 12.2798 5.41661 12.3022 5.38648L12.6648 4.89821L13.0275 5.38648C13.0733 5.4457 13.1405 5.48462 13.2147 5.49488C13.289 5.50514 13.3643 5.48591 13.4244 5.44133C13.4846 5.39676 13.5249 5.33038 13.5366 5.25648C13.5483 5.18257 13.5305 5.10702 13.4871 5.04607L13.0211 4.41859L13.4871 3.7911C13.5305 3.73013 13.5482 3.65461 13.5365 3.58074C13.5248 3.50687 13.4845 3.44054 13.4243 3.39599C13.3642 3.35144 13.2889 3.33222 13.2147 3.34245C13.1405 3.35269 13.0733 3.39156 13.0275 3.45073Z" fill="#F5890D"/>
<path d="M14.6973 5.21629V3.6209C14.6962 3.54583 14.6656 3.47419 14.6121 3.42148C14.5585 3.36876 14.4864 3.33921 14.4112 3.33921C14.336 3.33921 14.2639 3.36876 14.2103 3.42148C14.1568 3.47419 14.1262 3.54583 14.1251 3.6209V5.21629C14.1262 5.29136 14.1568 5.363 14.2103 5.41572C14.2639 5.46843 14.336 5.49798 14.4112 5.49798C14.4864 5.49798 14.5585 5.46843 14.6121 5.41572C14.6656 5.363 14.6962 5.29136 14.6973 5.21629Z" fill="#F5890D"/>
<path d="M15.8516 5.50199C15.9275 5.50199 16.0003 5.47189 16.0539 5.41831C16.1076 5.36473 16.1377 5.29206 16.1377 5.21629V3.90661H16.4441C16.5199 3.90661 16.5927 3.87651 16.6464 3.82293C16.7 3.76935 16.7302 3.69668 16.7302 3.6209C16.7302 3.54513 16.7 3.47246 16.6464 3.41888C16.5927 3.3653 16.5199 3.3352 16.4441 3.3352H15.2592C15.1833 3.3352 15.1105 3.3653 15.0569 3.41888C15.0032 3.47246 14.9731 3.54513 14.9731 3.6209C14.9731 3.69668 15.0032 3.76935 15.0569 3.82293C15.1105 3.87651 15.1833 3.90661 15.2592 3.90661H15.5655V5.21629C15.5655 5.29206 15.5957 5.36473 15.6493 5.41831C15.703 5.47189 15.7757 5.50199 15.8516 5.50199Z" fill="#F5890D"/>
<path d="M13.0141 7.52496C13.0141 7.60073 13.0442 7.6734 13.0979 7.72698C13.1515 7.78056 13.2243 7.81066 13.3002 7.81066H14.8308L14.6365 8.00444C14.5834 8.05809 14.5537 8.13055 14.5538 8.20602C14.554 8.28148 14.5841 8.3538 14.6375 8.4072C14.6909 8.46059 14.7633 8.49072 14.8388 8.491C14.9144 8.49129 14.987 8.4617 15.0408 8.40871L15.7243 7.72709C15.751 7.70056 15.7721 7.66905 15.7865 7.63437C15.8009 7.59968 15.8083 7.5625 15.8083 7.52495C15.8083 7.4874 15.8009 7.45022 15.7865 7.41553C15.7721 7.38085 15.751 7.34934 15.7243 7.32281L15.0408 6.64119C14.987 6.5882 14.9144 6.55861 14.8388 6.5589C14.7633 6.55918 14.6909 6.58931 14.6375 6.64271C14.5841 6.6961 14.554 6.76843 14.5538 6.84389C14.5537 6.91935 14.5834 6.99182 14.6365 7.04547L14.8308 7.23924H13.3002C13.2626 7.23924 13.2254 7.24663 13.1907 7.26099C13.156 7.27535 13.1245 7.29639 13.0979 7.32293C13.0713 7.34946 13.0502 7.38095 13.0359 7.41562C13.0215 7.45028 13.0141 7.48744 13.0141 7.52496Z" fill="#F5890D"/>
<path d="M17.2183 2H9.38869C9.18143 2.00022 8.98271 2.08253 8.83615 2.22889C8.6896 2.37525 8.60716 2.57369 8.60695 2.78067V5.41996C8.60796 5.49507 8.63855 5.56677 8.69209 5.61952C8.74564 5.67228 8.81783 5.70186 8.89305 5.70186C8.96827 5.70185 9.04047 5.67227 9.09401 5.61951C9.14755 5.56675 9.17813 5.49506 9.17914 5.41995V2.78067C9.17921 2.72519 9.20131 2.672 9.24059 2.63277C9.27988 2.59355 9.33314 2.57148 9.38869 2.57141H17.2183C17.2738 2.57148 17.3271 2.59355 17.3664 2.63278C17.4056 2.67201 17.4277 2.72519 17.4278 2.78067V17.2189C17.4277 17.2744 17.4056 17.3275 17.3664 17.3668C17.3271 17.406 17.2738 17.4281 17.2183 17.4281H8.30124L9.52601 14.7741C9.64337 14.5224 9.66883 14.2377 9.59797 13.9692C9.52711 13.7008 9.3644 13.4656 9.13806 13.3044L8.48582 12.8387C8.41163 12.7864 8.3606 12.7074 8.34341 12.6183C8.32622 12.5293 8.34422 12.437 8.39362 12.3609L8.86719 11.631L9.00941 11.9583C9.08425 12.1308 9.19895 12.2831 9.3441 12.4029C9.48926 12.5226 9.66074 12.6062 9.84451 12.647L11.2697 12.9672C11.5079 13.0177 11.7564 12.9732 11.9622 12.8433C12.1681 12.7134 12.3149 12.5083 12.3715 12.2718C12.4281 12.0353 12.3898 11.7861 12.265 11.5773C12.1402 11.3686 11.9386 11.2168 11.7033 11.1543L10.7606 10.914C10.6618 10.8892 10.5721 10.8367 10.5021 10.7628C10.4321 10.6888 10.3847 10.5965 10.3654 10.4966C10.2747 10.0751 10.2468 9.45219 9.82354 9.20728C9.47613 8.99371 8.71702 8.35954 8.30505 8.29601L6.88686 7.9612C6.51874 7.87714 6.13267 7.92669 5.79779 8.10098L4.14588 8.96439C3.97213 9.0587 3.83464 9.20793 3.75497 9.38868C3.67529 9.56944 3.65795 9.77148 3.70566 9.96314C3.75336 10.1548 3.86341 10.3252 4.01856 10.4477C4.1737 10.5702 4.36516 10.6377 4.56291 10.6398C4.70284 10.6402 4.8408 10.6069 4.96506 10.5426L6.5488 9.7332L7.08719 9.92488L6.74522 10.4818C6.72545 10.5138 6.71219 10.5493 6.70621 10.5864C6.70023 10.6235 6.70164 10.6615 6.71036 10.698C6.71909 10.7346 6.73495 10.7691 6.75704 10.7995C6.77913 10.83 6.80702 10.8558 6.8391 10.8754C6.87119 10.8951 6.90685 10.9082 6.94403 10.9141C6.9812 10.9199 7.01918 10.9184 7.05577 10.9096C7.09237 10.9008 7.12686 10.8849 7.15728 10.8627C7.1877 10.8406 7.21344 10.8127 7.23304 10.7806L7.75941 9.92346C7.78132 9.88713 7.79491 9.84641 7.79921 9.80422C7.80351 9.76203 7.79842 9.71941 7.78429 9.67942C7.77017 9.63943 7.74736 9.60304 7.71751 9.57288C7.68766 9.54272 7.6515 9.51952 7.61161 9.50495L6.62452 9.15353C6.58775 9.14051 6.5487 9.13511 6.50977 9.13765C6.47084 9.14019 6.43283 9.15063 6.39807 9.16832L4.70342 10.0344C4.62829 10.0702 4.54225 10.0759 4.46303 10.0503C4.38381 10.0247 4.31745 9.96971 4.27763 9.89668C4.24019 9.82202 4.23332 9.73574 4.25849 9.65611C4.28365 9.57648 4.33886 9.50976 4.41243 9.47008L6.06267 8.60753C6.27637 8.49663 6.52247 8.46485 6.75738 8.51782L8.17335 8.85207C8.44338 8.88299 9.26448 9.53969 9.4995 9.6782C9.54508 9.70898 9.58407 9.7485 9.61421 9.79446C9.64435 9.84042 9.66505 9.89191 9.67508 9.94593L9.80361 10.6048C9.84358 10.8113 9.94163 11.0022 10.0863 11.155C10.231 11.3079 10.4162 11.4164 10.6204 11.4679L11.5618 11.7079C11.6283 11.7255 11.6884 11.7616 11.7351 11.8119C11.7819 11.8623 11.8133 11.9249 11.8258 11.9924C11.8383 12.0599 11.8314 12.1296 11.8058 12.1933C11.7802 12.2571 11.737 12.3122 11.6813 12.3524C11.6402 12.3815 11.5935 12.4017 11.5441 12.4116C11.4947 12.4214 11.4438 12.4207 11.3948 12.4096L9.96941 12.0894C9.8738 12.0684 9.78454 12.025 9.70897 11.9628C9.6334 11.9006 9.57367 11.8214 9.53468 11.7317L9.17985 10.9146C9.15871 10.8678 9.12539 10.8274 9.08337 10.7978C9.04134 10.7681 8.99212 10.7502 8.94083 10.746C8.88955 10.7417 8.83805 10.7512 8.7917 10.7736C8.74534 10.7959 8.70581 10.8302 8.67722 10.8729L7.91362 12.0498C7.78372 12.2492 7.7361 12.4911 7.78073 12.7248C7.82536 12.9585 7.95878 13.1659 8.15306 13.3035L8.80614 13.7698C8.92376 13.8537 9.0082 13.9762 9.04482 14.1159C9.08144 14.2556 9.06792 14.4036 9.00661 14.5344L7.74459 17.2691C7.71462 17.3315 7.66245 17.3805 7.59826 17.4065C7.53407 17.4325 7.46247 17.4337 7.39744 17.4099C7.36377 17.3965 7.33308 17.3765 7.30716 17.3512C7.28123 17.3259 7.26058 17.2957 7.2464 17.2624C7.23222 17.2291 7.22478 17.1933 7.22452 17.1571C7.22427 17.1209 7.23119 17.085 7.2449 17.0515L8.0089 15.2054C8.1068 14.9686 8.12565 14.7066 8.06264 14.4583C7.99962 14.2099 7.85811 13.9885 7.6591 13.8268L6.30531 12.7235C6.25674 12.6834 6.22429 12.6272 6.21395 12.5652C6.2036 12.5031 6.21606 12.4395 6.24901 12.3859L7.54414 10.274C7.58233 10.2094 7.59354 10.1324 7.57534 10.0596C7.55715 9.98676 7.51101 9.92403 7.44689 9.8849C7.38277 9.84578 7.30581 9.8334 7.23263 9.85046C7.15946 9.86751 7.09593 9.91262 7.05577 9.97604L5.76064 12.0881C5.6824 12.2169 5.64041 12.3643 5.63913 12.5149C5.63784 12.6655 5.67729 12.8136 5.75333 12.9437L5.23692 13.5545C5.16944 13.6344 5.08527 13.6987 4.99032 13.7427C4.89536 13.7867 4.79191 13.8095 4.68722 13.8094H2.91544C2.67191 13.8115 2.43908 13.9096 2.26763 14.0823C2.09619 14.2551 2 14.4884 2 14.7316C2 14.9748 2.0962 15.2082 2.26765 15.3809C2.4391 15.5537 2.67193 15.6518 2.91546 15.6539H5.30411C5.49599 15.6543 5.68551 15.6118 5.85882 15.5295C6.03213 15.4473 6.18482 15.3274 6.30574 15.1786L7.14697 14.1469C7.29532 14.2227 7.41095 14.3498 7.47222 14.5046C7.53349 14.6593 7.5362 14.831 7.47986 14.9876L6.7163 16.8327C6.66346 16.964 6.64424 17.1063 6.66039 17.2468C6.67654 17.3873 6.72754 17.5216 6.80878 17.6375C6.89002 17.7533 6.99892 17.8471 7.12562 17.9104C7.25232 17.9736 7.39282 18.0042 7.53438 17.9995L17.2183 17.9996C17.4255 17.9993 17.6242 17.917 17.7708 17.7707C17.9174 17.6243 17.9998 17.4259 18 17.2189V2.78067C17.9998 2.57369 17.9174 2.37525 17.7708 2.22889C17.6242 2.08254 17.4255 2.00022 17.2183 2ZM5.86205 14.8177C5.79471 14.9006 5.70965 14.9674 5.61311 15.0132C5.51657 15.059 5.41099 15.0827 5.30411 15.0825H2.91544C2.82318 15.0811 2.73517 15.0435 2.67042 14.9779C2.60567 14.9122 2.56937 14.8238 2.56938 14.7316C2.56938 14.6395 2.60568 14.5511 2.67043 14.4854C2.73518 14.4198 2.8232 14.3822 2.91546 14.3808H4.68721C4.87518 14.381 5.06092 14.3401 5.23141 14.261C5.40189 14.182 5.55301 14.0666 5.67416 13.9231L6.16294 13.345L6.70369 13.7857L5.86205 14.8177Z" fill="#F5890D"/>
</svg>
