<svg width="86" height="40" viewBox="0 0 86 40" fill="none" xmlns="http://www.w3.org/2000/svg">
<rect width="86" height="40" rx="6" fill="#FEF3E7"/>
<path d="M18.6876 17.4659C18.7471 19.3375 21.4645 19.3372 21.5238 17.4659C21.4642 15.5944 18.7469 15.595 18.6876 17.4659ZM20.1057 16.6212C20.3284 16.6239 20.5409 16.7141 20.6974 16.8722C20.8539 17.0303 20.9416 17.2437 20.9416 17.466C20.9416 17.6883 20.8539 17.9017 20.6974 18.0598C20.5409 18.218 20.3283 18.3081 20.1057 18.3108C19.8831 18.3081 19.6705 18.218 19.5141 18.0598C19.3576 17.9017 19.2698 17.6883 19.2698 17.466C19.2698 17.2437 19.3576 17.0303 19.5141 16.8722C19.6706 16.7141 19.8831 16.6239 20.1057 16.6212Z" fill="#F8A70D"/>
<path d="M21.0516 13.9066C21.1268 13.9055 21.1985 13.8749 21.2512 13.8214C21.304 13.768 21.3335 13.6959 21.3335 13.6209C21.3335 13.5459 21.3039 13.4738 21.2512 13.4204C21.1985 13.3669 21.1268 13.3363 21.0516 13.3352H20.1629C20.087 13.3352 20.0142 13.3653 19.9606 13.4189C19.9069 13.4725 19.8768 13.5451 19.8768 13.6209V15.2163C19.8768 15.2921 19.9069 15.3647 19.9606 15.4183C20.0142 15.4719 20.087 15.502 20.1629 15.502H21.0516C21.1268 15.5009 21.1986 15.4704 21.2513 15.4169C21.3041 15.3634 21.3337 15.2914 21.3337 15.2163C21.3337 15.1412 21.3041 15.0691 21.2513 15.0157C21.1985 14.9622 21.1268 14.9316 21.0516 14.9306H20.449V14.7043H21.0516C21.1268 14.7032 21.1986 14.6727 21.2513 14.6192C21.3041 14.5657 21.3337 14.4937 21.3337 14.4186C21.3337 14.3435 21.3041 14.2714 21.2513 14.218C21.1985 14.1645 21.1268 14.134 21.0516 14.1329H20.449V13.9066H21.0516Z" fill="#F8A70D"/>
<path d="M23.0275 13.4507L22.6649 13.939L22.3022 13.4507C22.2564 13.3915 22.1892 13.3526 22.1149 13.3423C22.0407 13.3321 21.9654 13.3513 21.9053 13.3959C21.8451 13.4405 21.8048 13.5068 21.7931 13.5807C21.7814 13.6546 21.7992 13.7302 21.8426 13.7911L22.3086 14.4186L21.8426 15.0461C21.8202 15.0762 21.804 15.1105 21.7949 15.1469C21.7857 15.1833 21.7839 15.2211 21.7894 15.2582C21.7949 15.2953 21.8077 15.331 21.827 15.3632C21.8463 15.3954 21.8718 15.4234 21.902 15.4458C21.9321 15.4681 21.9664 15.4843 22.0029 15.4934C22.0393 15.5026 22.0772 15.5044 22.1144 15.4989C22.1515 15.4934 22.1873 15.4806 22.2195 15.4613C22.2517 15.4421 22.2798 15.4166 22.3022 15.3865L22.6648 14.8982L23.0275 15.3865C23.0733 15.4457 23.1405 15.4846 23.2147 15.4949C23.289 15.5051 23.3643 15.4859 23.4244 15.4413C23.4846 15.3968 23.5249 15.3304 23.5366 15.2565C23.5483 15.1826 23.5305 15.107 23.4871 15.0461L23.0211 14.4186L23.4871 13.7911C23.5305 13.7301 23.5482 13.6546 23.5365 13.5807C23.5248 13.5069 23.4845 13.4405 23.4243 13.396C23.3642 13.3514 23.2889 13.3322 23.2147 13.3425C23.1405 13.3527 23.0733 13.3916 23.0275 13.4507Z" fill="#F8A70D"/>
<path d="M24.6973 15.2163V13.6209C24.6962 13.5458 24.6656 13.4742 24.6121 13.4215C24.5585 13.3688 24.4864 13.3392 24.4112 13.3392C24.336 13.3392 24.2639 13.3688 24.2103 13.4215C24.1568 13.4742 24.1262 13.5458 24.1251 13.6209V15.2163C24.1262 15.2914 24.1568 15.363 24.2103 15.4157C24.2639 15.4684 24.336 15.498 24.4112 15.498C24.4864 15.498 24.5585 15.4684 24.6121 15.4157C24.6656 15.363 24.6962 15.2914 24.6973 15.2163Z" fill="#F8A70D"/>
<path d="M25.8516 15.502C25.9275 15.502 26.0003 15.4719 26.0539 15.4183C26.1076 15.3647 26.1377 15.2921 26.1377 15.2163V13.9066H26.4441C26.5199 13.9066 26.5927 13.8765 26.6464 13.8229C26.7 13.7693 26.7302 13.6967 26.7302 13.6209C26.7302 13.5451 26.7 13.4725 26.6464 13.4189C26.5927 13.3653 26.5199 13.3352 26.4441 13.3352H25.2592C25.1833 13.3352 25.1105 13.3653 25.0569 13.4189C25.0032 13.4725 24.9731 13.5451 24.9731 13.6209C24.9731 13.6967 25.0032 13.7693 25.0569 13.8229C25.1105 13.8765 25.1833 13.9066 25.2592 13.9066H25.5655V15.2163C25.5655 15.2921 25.5957 15.3647 25.6493 15.4183C25.703 15.4719 25.7757 15.502 25.8516 15.502Z" fill="#F8A70D"/>
<path d="M23.0141 17.525C23.0141 17.6007 23.0442 17.6734 23.0979 17.727C23.1515 17.7806 23.2243 17.8107 23.3002 17.8107H24.8308L24.6365 18.0044C24.5834 18.0581 24.5537 18.1306 24.5538 18.206C24.554 18.2815 24.5841 18.3538 24.6375 18.4072C24.6909 18.4606 24.7633 18.4907 24.8388 18.491C24.9144 18.4913 24.987 18.4617 25.0408 18.4087L25.7243 17.7271C25.751 17.7006 25.7721 17.6691 25.7865 17.6344C25.8009 17.5997 25.8083 17.5625 25.8083 17.525C25.8083 17.4874 25.8009 17.4502 25.7865 17.4155C25.7721 17.3808 25.751 17.3493 25.7243 17.3228L25.0408 16.6412C24.987 16.5882 24.9144 16.5586 24.8388 16.5589C24.7633 16.5592 24.6909 16.5893 24.6375 16.6427C24.5841 16.6961 24.554 16.7684 24.5538 16.8439C24.5537 16.9193 24.5834 16.9918 24.6365 17.0455L24.8308 17.2392H23.3002C23.2626 17.2392 23.2254 17.2466 23.1907 17.261C23.156 17.2753 23.1245 17.2964 23.0979 17.3229C23.0713 17.3495 23.0502 17.381 23.0359 17.4156C23.0215 17.4503 23.0141 17.4874 23.0141 17.525Z" fill="#F8A70D"/>
<path d="M27.2183 12H19.3887C19.1814 12.0002 18.9827 12.0825 18.8362 12.2289C18.6896 12.3752 18.6072 12.5737 18.6069 12.7807V15.42C18.608 15.4951 18.6385 15.5668 18.6921 15.6195C18.7456 15.6723 18.8178 15.7019 18.8931 15.7019C18.9683 15.7019 19.0405 15.6723 19.094 15.6195C19.1476 15.5668 19.1781 15.4951 19.1791 15.4199V12.7807C19.1792 12.7252 19.2013 12.672 19.2406 12.6328C19.2799 12.5935 19.3331 12.5715 19.3887 12.5714H27.2183C27.2738 12.5715 27.3271 12.5935 27.3664 12.6328C27.4056 12.672 27.4277 12.7252 27.4278 12.7807V27.2189C27.4277 27.2744 27.4056 27.3275 27.3664 27.3668C27.3271 27.406 27.2738 27.4281 27.2183 27.4281H18.3012L19.526 24.7741C19.6434 24.5224 19.6688 24.2377 19.598 23.9692C19.5271 23.7008 19.3644 23.4656 19.1381 23.3044L18.4858 22.8387C18.4116 22.7864 18.3606 22.7074 18.3434 22.6183C18.3262 22.5293 18.3442 22.437 18.3936 22.3609L18.8672 21.631L19.0094 21.9583C19.0843 22.1308 19.199 22.2831 19.3441 22.4029C19.4893 22.5226 19.6607 22.6062 19.8445 22.647L21.2697 22.9672C21.5079 23.0177 21.7564 22.9732 21.9622 22.8433C22.1681 22.7134 22.3149 22.5083 22.3715 22.2718C22.4281 22.0353 22.3898 21.7861 22.265 21.5773C22.1402 21.3686 21.9386 21.2168 21.7033 21.1543L20.7606 20.914C20.6618 20.8892 20.5721 20.8367 20.5021 20.7628C20.4321 20.6888 20.3847 20.5965 20.3654 20.4966C20.2747 20.0751 20.2468 19.4522 19.8235 19.2073C19.4761 18.9937 18.717 18.3595 18.3051 18.296L16.8869 17.9612C16.5187 17.8771 16.1327 17.9267 15.7978 18.101L14.1459 18.9644C13.9721 19.0587 13.8346 19.2079 13.755 19.3887C13.6753 19.5694 13.658 19.7715 13.7057 19.9631C13.7534 20.1548 13.8634 20.3252 14.0186 20.4477C14.1737 20.5702 14.3652 20.6377 14.5629 20.6398C14.7028 20.6402 14.8408 20.6069 14.9651 20.5426L16.5488 19.7332L17.0872 19.9249L16.7452 20.4818C16.7254 20.5138 16.7122 20.5493 16.7062 20.5864C16.7002 20.6235 16.7016 20.6615 16.7104 20.698C16.7191 20.7346 16.7349 20.7691 16.757 20.7995C16.7791 20.83 16.807 20.8558 16.8391 20.8754C16.8712 20.8951 16.9068 20.9082 16.944 20.9141C16.9812 20.9199 17.0192 20.9184 17.0558 20.9096C17.0924 20.9008 17.1269 20.8849 17.1573 20.8627C17.1877 20.8406 17.2134 20.8127 17.233 20.7806L17.7594 19.9235C17.7813 19.8871 17.7949 19.8464 17.7992 19.8042C17.8035 19.762 17.7984 19.7194 17.7843 19.6794C17.7702 19.6394 17.7474 19.603 17.7175 19.5729C17.6877 19.5427 17.6515 19.5195 17.6116 19.505L16.6245 19.1535C16.5877 19.1405 16.5487 19.1351 16.5098 19.1376C16.4708 19.1402 16.4328 19.1506 16.3981 19.1683L14.7034 20.0344C14.6283 20.0702 14.5422 20.0759 14.463 20.0503C14.3838 20.0247 14.3175 19.9697 14.2776 19.8967C14.2402 19.822 14.2333 19.7357 14.2585 19.6561C14.2836 19.5765 14.3389 19.5098 14.4124 19.4701L16.0627 18.6075C16.2764 18.4966 16.5225 18.4649 16.7574 18.5178L18.1733 18.8521C18.4434 18.883 19.2645 19.5397 19.4995 19.6782C19.5451 19.709 19.5841 19.7485 19.6142 19.7945C19.6444 19.8404 19.665 19.8919 19.6751 19.9459L19.8036 20.6048C19.8436 20.8113 19.9416 21.0022 20.0863 21.155C20.231 21.3079 20.4162 21.4164 20.6204 21.4679L21.5618 21.7079C21.6283 21.7255 21.6884 21.7616 21.7351 21.8119C21.7819 21.8623 21.8133 21.9249 21.8258 21.9924C21.8383 22.0599 21.8314 22.1296 21.8058 22.1933C21.7802 22.2571 21.737 22.3122 21.6813 22.3524C21.6402 22.3815 21.5935 22.4017 21.5441 22.4116C21.4947 22.4214 21.4438 22.4207 21.3948 22.4096L19.9694 22.0894C19.8738 22.0684 19.7845 22.025 19.709 21.9628C19.6334 21.9006 19.5737 21.8214 19.5347 21.7317L19.1798 20.9146C19.1587 20.8678 19.1254 20.8274 19.0834 20.7978C19.0413 20.7681 18.9921 20.7502 18.9408 20.746C18.8895 20.7417 18.8381 20.7512 18.7917 20.7736C18.7453 20.7959 18.7058 20.8302 18.6772 20.8729L17.9136 22.0498C17.7837 22.2492 17.7361 22.4911 17.7807 22.7248C17.8254 22.9585 17.9588 23.1659 18.1531 23.3035L18.8061 23.7698C18.9238 23.8537 19.0082 23.9762 19.0448 24.1159C19.0814 24.2556 19.0679 24.4036 19.0066 24.5344L17.7446 27.2691C17.7146 27.3315 17.6624 27.3805 17.5983 27.4065C17.5341 27.4325 17.4625 27.4337 17.3974 27.4099C17.3638 27.3965 17.3331 27.3765 17.3072 27.3512C17.2812 27.3259 17.2606 27.2957 17.2464 27.2624C17.2322 27.2291 17.2248 27.1933 17.2245 27.1571C17.2243 27.1209 17.2312 27.085 17.2449 27.0515L18.0089 25.2054C18.1068 24.9686 18.1256 24.7066 18.0626 24.4583C17.9996 24.2099 17.8581 23.9885 17.6591 23.8268L16.3053 22.7235C16.2567 22.6834 16.2243 22.6272 16.2139 22.5652C16.2036 22.5031 16.2161 22.4395 16.249 22.3859L17.5441 20.274C17.5823 20.2094 17.5935 20.1324 17.5753 20.0596C17.5571 19.9868 17.511 19.924 17.4469 19.8849C17.3828 19.8458 17.3058 19.8334 17.2326 19.8505C17.1595 19.8675 17.0959 19.9126 17.0558 19.976L15.7606 22.0881C15.6824 22.2169 15.6404 22.3643 15.6391 22.5149C15.6378 22.6655 15.6773 22.8136 15.7533 22.9437L15.2369 23.5545C15.1694 23.6344 15.0853 23.6987 14.9903 23.7427C14.8954 23.7867 14.7919 23.8095 14.6872 23.8094H12.9154C12.6719 23.8115 12.4391 23.9096 12.2676 24.0823C12.0962 24.2551 12 24.4884 12 24.7316C12 24.9748 12.0962 25.2082 12.2676 25.3809C12.4391 25.5537 12.6719 25.6518 12.9155 25.6539H15.3041C15.496 25.6543 15.6855 25.6118 15.8588 25.5295C16.0321 25.4473 16.1848 25.3274 16.3057 25.1786L17.147 24.1469C17.2953 24.2227 17.4109 24.3498 17.4722 24.5046C17.5335 24.6593 17.5362 24.831 17.4799 24.9876L16.7163 26.8327C16.6635 26.964 16.6442 27.1063 16.6604 27.2468C16.6765 27.3873 16.7275 27.5216 16.8088 27.6375C16.89 27.7533 16.9989 27.8471 17.1256 27.9104C17.2523 27.9736 17.3928 28.0042 17.5344 27.9995L27.2183 27.9996C27.4255 27.9993 27.6242 27.917 27.7708 27.7707C27.9174 27.6243 27.9998 27.4259 28 27.2189V12.7807C27.9998 12.5737 27.9174 12.3752 27.7708 12.2289C27.6242 12.0825 27.4255 12.0002 27.2183 12ZM15.8621 24.8177C15.7947 24.9006 15.7097 24.9674 15.6131 25.0132C15.5166 25.059 15.411 25.0827 15.3041 25.0825H12.9154C12.8232 25.0811 12.7352 25.0435 12.6704 24.9779C12.6057 24.9122 12.5694 24.8238 12.5694 24.7316C12.5694 24.6395 12.6057 24.5511 12.6704 24.4854C12.7352 24.4198 12.8232 24.3822 12.9155 24.3808H14.6872C14.8752 24.381 15.0609 24.3401 15.2314 24.261C15.4019 24.182 15.553 24.0666 15.6742 23.9231L16.1629 23.345L16.7037 23.7857L15.8621 24.8177Z" fill="#F8A70D"/>
<path d="M35.1186 25.5V15.3182H41.5021V16.6406H36.6548V19.7429H41.169V21.0604H36.6548V24.1776H41.5618V25.5H35.1186ZM44.6081 17.8636L46.2935 20.8366L47.9938 17.8636H49.6195L47.2381 21.6818L49.6394 25.5H48.0137L46.2935 22.6463L44.5783 25.5H42.9476L45.324 21.6818L42.9775 17.8636H44.6081ZM51.1458 25.5V17.8636H52.6323V25.5H51.1458ZM51.8965 16.6854C51.638 16.6854 51.4159 16.5992 51.2303 16.4268C51.048 16.2512 50.9569 16.0424 50.9569 15.8004C50.9569 15.5552 51.048 15.3464 51.2303 15.174C51.4159 14.9983 51.638 14.9105 51.8965 14.9105C52.155 14.9105 52.3754 14.9983 52.5577 15.174C52.7433 15.3464 52.8361 15.5552 52.8361 15.8004C52.8361 16.0424 52.7433 16.2512 52.5577 16.4268C52.3754 16.5992 52.155 16.6854 51.8965 16.6854ZM58.1967 17.8636V19.0568H54.0256V17.8636H58.1967ZM55.1442 16.0341H56.6307V23.2578C56.6307 23.5462 56.6738 23.7633 56.7599 23.9091C56.8461 24.0516 56.9571 24.1494 57.093 24.2024C57.2322 24.2521 57.383 24.277 57.5455 24.277C57.6648 24.277 57.7692 24.2687 57.8587 24.2521C57.9482 24.2356 58.0178 24.2223 58.0675 24.2124L58.3359 25.4403C58.2498 25.4735 58.1271 25.5066 57.968 25.5398C57.8089 25.5762 57.6101 25.5961 57.3714 25.5994C56.9804 25.6061 56.6158 25.5365 56.2777 25.3906C55.9396 25.2448 55.6662 25.0194 55.4574 24.7145C55.2486 24.4096 55.1442 24.0268 55.1442 23.5661V16.0341ZM63.0502 25.6541C62.2979 25.6541 61.6499 25.4934 61.1064 25.1719C60.5661 24.8471 60.1485 24.3913 59.8535 23.8047C59.5618 23.2147 59.416 22.5237 59.416 21.7315C59.416 20.9493 59.5618 20.2599 59.8535 19.6634C60.1485 19.0668 60.5595 18.6011 61.0865 18.2663C61.6168 17.9316 62.2366 17.7642 62.9458 17.7642C63.3767 17.7642 63.7943 17.8355 64.1987 17.978C64.603 18.1205 64.966 18.3442 65.2875 18.6491C65.609 18.9541 65.8625 19.3501 66.0481 19.8374C66.2337 20.3213 66.3265 20.9096 66.3265 21.6023V22.1293H60.2562V21.0156H64.8699C64.8699 20.6245 64.7903 20.2782 64.6312 19.9766C64.4721 19.6716 64.2484 19.4313 63.96 19.2557C63.675 19.08 63.3403 18.9922 62.9558 18.9922C62.5382 18.9922 62.1736 19.0949 61.862 19.3004C61.5538 19.5026 61.3152 19.7678 61.1461 20.0959C60.9804 20.4207 60.8975 20.7737 60.8975 21.1548V22.0249C60.8975 22.5353 60.987 22.9695 61.166 23.3274C61.3483 23.6854 61.6019 23.9588 61.9267 24.1477C62.2515 24.3333 62.631 24.4261 63.0652 24.4261C63.3469 24.4261 63.6038 24.3864 63.8358 24.3068C64.0678 24.224 64.2683 24.1013 64.4373 23.9389C64.6064 23.7765 64.7356 23.576 64.8251 23.3374L66.2321 23.5909C66.1194 24.0052 65.9172 24.3681 65.6255 24.6797C65.3372 24.9879 64.9743 25.2282 64.5368 25.4006C64.1026 25.5696 63.6071 25.6541 63.0502 25.6541ZM70.8345 25.6491C70.218 25.6491 69.6679 25.4917 69.1839 25.1768C68.7034 24.8587 68.3255 24.4062 68.0504 23.8196C67.7786 23.2296 67.6428 22.522 67.6428 21.6967C67.6428 20.8714 67.7803 20.1655 68.0554 19.5788C68.3338 18.9922 68.715 18.5431 69.1989 18.2315C69.6828 17.92 70.2313 17.7642 70.8445 17.7642C71.3184 17.7642 71.6996 17.8438 71.9879 18.0028C72.2796 18.1586 72.505 18.3409 72.6641 18.5497C72.8265 18.7585 72.9524 18.9425 73.0419 19.1016H73.1314V15.3182H74.6179V25.5H73.1662V24.3118H73.0419C72.9524 24.4742 72.8232 24.6598 72.6541 24.8686C72.4884 25.0774 72.2597 25.2597 71.968 25.4155C71.6764 25.5713 71.2985 25.6491 70.8345 25.6491ZM71.1626 24.3814C71.5902 24.3814 71.9515 24.2687 72.2464 24.0433C72.5447 23.8146 72.7701 23.4981 72.9226 23.0938C73.0784 22.6894 73.1562 22.2187 73.1562 21.6818C73.1562 21.1515 73.08 20.6875 72.9276 20.2898C72.7751 19.892 72.5514 19.5821 72.2564 19.3601C71.9614 19.138 71.5968 19.027 71.1626 19.027C70.7152 19.027 70.3423 19.143 70.044 19.375C69.7457 19.607 69.5204 19.9235 69.3679 20.3246C69.2188 20.7256 69.1442 21.178 69.1442 21.6818C69.1442 22.1922 69.2204 22.6513 69.3729 23.0589C69.5253 23.4666 69.7507 23.7898 70.049 24.0284C70.3506 24.2637 70.7218 24.3814 71.1626 24.3814Z" fill="#08091D"/>
</svg>
