<svg width="330" height="254" viewBox="0 0 330 254" fill="none" xmlns="http://www.w3.org/2000/svg">
<g clip-path="url(#clip0_1029_11976)">
<path d="M193.685 45.9776C206.133 47.9454 218.397 50.4675 230.427 53.4293C247.179 57.5531 265.399 64.2602 269.778 80.6135C273.191 93.3543 266.795 108.519 257.492 120.457C248.188 132.396 236.154 142.096 225.392 152.869C221.376 156.888 217.265 161.619 216.885 166.79C216.497 172.053 220.274 176.223 224.937 178.058C229.6 179.893 235.054 179.868 240.353 179.96C258.651 180.274 276.63 182.236 294.001 185.814C300.882 187.23 307.838 188.978 313.14 193.043C318.442 197.108 321.829 203.979 319.976 211.193C317.181 222.074 304.717 228.695 293.87 232.96C218.793 262.478 130.766 259.137 65.7831 231.491C58.774 228.509 51.1042 223.614 52.16 215.554C52.9607 209.444 58.5074 204.405 62.4232 199.053C71.7638 186.289 72.1488 169.92 67.0109 157.301C61.8731 144.681 52.0313 135.08 42.0927 126.062C35.0983 119.716 27.8579 113.397 23.2611 105.086C18.6642 96.7753 17.0332 85.9774 21.597 76.1032C28.7782 60.5672 47.6281 53.1414 64.0701 49.292C107.97 39.0143 151.855 39.3669 193.684 45.9798L193.685 45.9776Z" fill="#DFE9F4"/>
<path d="M100.183 208.543C100.635 193.078 101.075 177.603 100.682 162.133C100.294 146.805 99.0819 131.462 96.2242 116.38C93.7732 103.444 90.059 90.7617 84.7093 78.71C79.7571 67.5539 73.4529 56.9543 65.6841 47.5064C57.9596 38.1118 48.7351 29.8812 38.2225 23.6865C36.9434 22.9327 35.645 22.2107 34.3329 21.5158C33.6974 21.1792 34.1746 20.1681 34.8147 20.507C45.5745 26.203 55.119 33.9166 63.2342 42.944C71.4609 52.096 78.1865 62.5256 83.5533 73.5672C89.1444 85.0703 93.2026 97.2398 95.9851 109.704C99.353 124.79 100.95 140.211 101.588 155.635C102.235 171.287 101.91 186.958 101.469 202.611C101.414 204.556 101.358 206.502 101.301 208.447C101.28 209.157 100.162 209.261 100.182 208.543H100.183Z" fill="#005E45"/>
<path d="M5.34058e-05 52.2219C0.00688934 52.7105 0.68232 53.1605 1.93404 53.5595C2.24725 53.6604 2.59577 53.7533 2.9796 53.8531C3.36343 53.954 3.78143 54.0537 4.2336 54.1489C4.68577 54.2453 5.17097 54.336 5.68806 54.4289C6.20515 54.5298 6.75413 54.6284 7.335 54.7236C7.91473 54.8166 8.52636 54.9152 9.16646 55.0183C9.80656 55.1215 10.4774 55.2224 11.1767 55.321C11.8749 55.4343 12.6015 55.5443 13.3555 55.6531C13.5446 55.6803 13.7348 55.7075 13.9262 55.7347C14.1175 55.7653 14.3111 55.7959 14.5059 55.8265C14.8966 55.8866 15.2929 55.9467 15.6973 56.0079C18.9251 56.4999 22.5675 57.0757 26.5436 57.8057C28.5334 58.1707 30.6393 58.5572 32.8455 58.9619C33.3968 59.0695 33.9537 59.1772 34.5164 59.2872C35.079 59.3994 35.6519 59.4969 36.2248 59.6216C37.3717 59.8619 38.5483 60.0875 39.7362 60.3561C42.1224 60.8605 44.5757 61.4568 47.0917 62.104C47.7192 62.2718 48.3502 62.4418 48.9858 62.6118C49.3047 62.6946 49.6213 62.7864 49.9391 62.8782C50.2569 62.97 50.5758 63.0618 50.8958 63.1536C52.1806 63.5107 53.4596 63.9267 54.7614 64.3257C57.3469 65.1679 59.9642 66.0895 62.5759 67.1164C65.1818 68.1559 67.7878 69.2871 70.3573 70.5272C72.92 71.7798 75.4496 73.1309 77.9132 74.5841C80.3665 76.052 82.7538 77.6174 85.0431 79.2746C82.7538 77.6185 80.428 75.9681 78.0681 74.3438C75.699 72.7342 73.2947 71.1552 70.8653 69.6204C68.429 68.0981 65.9643 66.6302 63.4905 65.2201C61.0098 63.8247 58.5143 62.5007 56.0268 61.2504C54.774 60.6474 53.5393 60.0251 52.2922 59.4629C51.9812 59.3201 51.6715 59.1772 51.3628 59.0344C51.0541 58.8916 50.7455 58.7488 50.4345 58.615C49.8138 58.3441 49.1953 58.0754 48.5814 57.8079C46.1144 56.7651 43.6805 55.7948 41.2864 54.9628C40.0939 54.5298 38.9071 54.1535 37.7419 53.7783C37.161 53.5856 36.5768 53.4257 36.0027 53.2534C35.4264 53.0868 34.8581 52.9168 34.292 52.7638C32.0254 52.1573 29.8398 51.6404 27.7543 51.2664C23.5857 50.5012 19.7372 50.0705 16.3305 49.8801C15.9046 49.8597 15.4854 49.8381 15.0742 49.8189C14.8681 49.8098 14.6642 49.8007 14.4626 49.7928C14.2599 49.7883 14.0594 49.7849 13.8601 49.7803C13.064 49.7667 12.2986 49.7588 11.564 49.7588C10.8282 49.7724 10.1232 49.7928 9.4512 49.8189C9.1152 49.8336 8.78717 49.8427 8.46712 49.8665C8.14707 49.8914 7.835 49.9152 7.53204 49.9379C6.92496 49.9878 6.35206 50.0433 5.81333 50.1034C5.2746 50.1714 4.77118 50.2496 4.30306 50.3278C3.83495 50.4072 3.4033 50.491 3.00922 50.5783C2.61399 50.6679 2.25634 50.771 1.93743 50.8708C0.659515 51.2777 -0.00563812 51.7311 0.00119019 52.2197L5.34058e-05 52.2219Z" fill="#005E45"/>
<path d="M111.2 4.73116C110.932 4.32309 110.23 4.25167 109.13 4.50898C108.856 4.57473 108.552 4.65521 108.233 4.76743C107.917 4.88191 107.576 5.01794 107.213 5.17436C106.851 5.33192 106.462 5.50762 106.058 5.70939C105.661 5.92022 105.24 6.15146 104.802 6.40424C104.583 6.53232 104.358 6.66381 104.128 6.79984C103.897 6.93586 103.673 7.09115 103.438 7.24304C102.973 7.5525 102.486 7.88122 101.984 8.23374C101.495 8.59987 100.99 8.98754 100.467 9.39561C100.337 9.49876 100.206 9.60191 100.073 9.70619C99.9441 9.81501 99.8154 9.92496 99.6844 10.036C99.4247 10.2605 99.1605 10.4883 98.8917 10.7196C96.7596 12.5944 94.5181 14.9215 92.3552 17.7043C91.2652 19.0895 90.2299 20.6436 89.2185 22.3087C88.9668 22.7258 88.731 23.1588 88.485 23.5907C88.3643 23.8072 88.2424 24.026 88.1194 24.2459C88.059 24.3559 87.9986 24.4658 87.9371 24.5769C87.8802 24.6891 87.8221 24.8025 87.764 24.9147C87.305 25.8192 86.8301 26.7363 86.4075 27.6975C85.5214 29.5995 84.7446 31.6251 84.0214 33.7131C83.8505 34.2379 83.6774 34.7661 83.5043 35.2978C83.4143 35.5619 83.338 35.8316 83.2594 36.1014C83.182 36.3712 83.1034 36.641 83.0248 36.9119C82.9462 37.1828 82.8687 37.4537 82.7902 37.7258C82.7093 37.9967 82.6466 38.2744 82.5749 38.5487C82.4348 39.0985 82.2947 39.6516 82.1546 40.2059C81.6409 42.4378 81.2036 44.7151 80.8653 47.0207C80.5453 49.3308 80.3061 51.6636 80.1614 54.002C80.035 56.3428 79.9917 58.6858 80.0248 61.014C80.0817 63.3434 80.2138 65.6558 80.4029 67.9432C80.2138 65.6558 80.1865 63.3355 80.3118 61.0197C80.461 58.7039 80.7651 56.3983 81.1968 54.1313C81.6478 51.8665 82.2389 49.647 82.9246 47.4911C83.6284 45.3396 84.4462 43.2585 85.3221 41.2578C85.5533 40.7625 85.7822 40.2694 86.0112 39.7797C86.1273 39.536 86.2333 39.2889 86.3574 39.0497C86.4793 38.8105 86.6 38.5714 86.7207 38.3322C86.8415 38.0942 86.961 37.8573 87.0818 37.6203C87.2002 37.3834 87.3187 37.1477 87.4485 36.9176C87.7014 36.4551 87.9519 35.996 88.2014 35.5403C89.2287 33.7324 90.2652 32.0037 91.3506 30.3907C91.8722 29.5723 92.4315 28.7981 92.9566 28.0285C93.0226 27.9321 93.0875 27.8369 93.1536 27.7406C93.2219 27.6465 93.2903 27.5535 93.3586 27.4594C93.4942 27.2724 93.6297 27.0876 93.7641 26.9029C94.034 26.5345 94.2903 26.1638 94.5557 25.8068C95.6274 24.3819 96.6479 23.0262 97.6388 21.768C99.6047 19.238 101.51 17.0242 103.241 15.0961C103.458 14.8547 103.671 14.6177 103.88 14.3854C103.984 14.2675 104.088 14.1519 104.19 14.0363C104.296 13.924 104.4 13.8129 104.503 13.703C104.917 13.2609 105.312 12.8302 105.688 12.4108C106.076 12.005 106.446 11.6128 106.795 11.2296C106.972 11.0403 107.137 10.8465 107.308 10.6686C107.477 10.4883 107.641 10.3126 107.803 10.1426C108.122 9.79687 108.42 9.46362 108.697 9.1417C108.981 8.82884 109.246 8.53413 109.485 8.24848C109.726 7.96283 109.943 7.69079 110.137 7.43121C110.331 7.1739 110.511 6.94153 110.662 6.71596C111.264 5.81934 111.466 5.13582 111.198 4.72775L111.2 4.73116Z" fill="#005E45"/>
<path d="M49.9868 69.3137C49.6896 69.7014 49.775 70.3384 50.2078 71.1806C50.4242 71.6012 50.7271 72.0739 51.1121 72.5908C51.3046 72.8503 51.5176 73.1201 51.7511 73.4012C51.9823 73.6857 52.2329 73.9804 52.5017 74.2865C53.0415 74.8975 53.6589 75.5504 54.3491 76.2396C55.0324 76.9367 55.7898 77.6712 56.6145 78.4375C58.2591 79.9779 60.1669 81.6601 62.2945 83.4624C66.5553 87.0579 72.2524 91.0094 78.224 95.5242C81.199 97.7901 84.2423 100.191 87.1945 102.739C90.1376 105.294 92.9918 107.993 95.6012 110.819C92.9918 107.993 90.444 105.012 87.9394 102.012C85.4314 99.003 82.9405 96.0128 80.5316 93.1223C75.667 87.3606 70.9723 82.0693 66.6237 78.4012C64.454 76.5637 62.397 74.9802 60.52 73.6619C59.578 73.0067 58.684 72.4128 57.8434 71.8857C56.9972 71.3654 56.2044 70.9109 55.4744 70.5232C55.1087 70.3294 54.7591 70.1525 54.4242 69.9927C54.0882 69.8351 53.7671 69.6969 53.4641 69.5733C52.857 69.3285 52.3171 69.1539 51.8513 69.0508C50.9196 68.8445 50.2818 68.9249 49.9846 69.3137H49.9868Z" fill="#005E45"/>
<path d="M76.0532 19.6042C75.6238 19.8411 75.5555 20.663 75.8129 21.9812C75.8766 22.3111 75.9643 22.6704 76.0646 23.0638C76.1625 23.4582 76.281 23.8822 76.4165 24.3344C76.5521 24.7878 76.7104 25.2685 76.8812 25.7797C77.0464 26.2932 77.2297 26.8361 77.4302 27.404C77.6329 27.9708 77.8471 28.5681 78.0714 29.1961C78.2958 29.823 78.5373 30.4747 78.7935 31.1514C79.0384 31.8338 79.2992 32.5423 79.576 33.2734C79.6455 33.4559 79.7149 33.6407 79.7867 33.8266C79.855 34.0136 79.9234 34.2029 79.9929 34.3933C80.133 34.7731 80.2765 35.1596 80.4223 35.5529C81.5863 38.695 82.8892 42.2486 84.2344 46.174C84.9098 48.1373 85.625 50.215 86.3733 52.3914C86.5556 52.9378 86.7412 53.4898 86.9269 54.0486C87.1114 54.6075 87.313 55.1685 87.4929 55.7432C87.8608 56.8881 88.2538 58.0522 88.6182 59.2481C89.3791 61.6308 90.1 64.1189 90.8096 66.6851C90.9816 67.329 91.1536 67.9762 91.3278 68.628C91.5044 69.2798 91.657 69.9395 91.8244 70.6015C92.165 71.9243 92.4554 73.2732 92.7709 74.6323C93.3575 77.3573 93.8928 80.148 94.3415 82.9886C94.7755 85.8292 95.1354 88.7174 95.3882 91.6295C95.6285 94.5415 95.7698 97.4751 95.796 100.404C95.8062 103.333 95.7014 106.255 95.4736 109.141C95.7014 106.255 95.9099 103.341 96.083 100.411C96.2402 97.4807 96.3598 94.537 96.4315 91.5966C96.4908 88.6562 96.4942 85.7204 96.4463 82.8073C96.3848 79.8952 96.2584 77.0093 96.0773 74.1687C95.9645 72.7518 95.8757 71.3405 95.7322 69.9497C95.6627 69.2537 95.6081 68.5589 95.5272 67.872C95.4486 67.1839 95.37 66.5004 95.2926 65.8203C94.9532 63.1043 94.5705 60.4553 94.0921 57.9117C93.87 56.6365 93.6035 55.3919 93.3461 54.1688C93.2219 53.5567 93.0705 52.957 92.9338 52.3608C92.7914 51.7657 92.6547 51.1751 92.5055 50.5948C91.903 48.2756 91.2652 46.0743 90.5567 44.0294C89.1547 39.9363 87.6296 36.2886 86.1194 33.1476C85.928 32.7565 85.7401 32.3711 85.5544 31.9937C85.461 31.8055 85.3676 31.6185 85.2765 31.4326C85.1809 31.2489 85.0852 31.0676 84.9918 30.8873C84.6137 30.1675 84.2435 29.4784 83.8824 28.8198C83.51 28.1669 83.1467 27.5446 82.7936 26.954C82.6159 26.6593 82.4462 26.3702 82.2696 26.0937C82.092 25.8182 81.9177 25.5496 81.7491 25.2889C81.4074 24.7686 81.0783 24.28 80.7617 23.8255C80.4382 23.3743 80.1238 22.9583 79.8254 22.5763C79.527 22.1943 79.2423 21.8464 78.9724 21.5324C78.7013 21.2195 78.4359 20.9475 78.191 20.7083C77.2092 19.7516 76.4826 19.3673 76.0543 19.6042H76.0532Z" fill="#005E45"/>
<path d="M146.269 76.8623C146.105 76.4021 145.439 76.1674 144.308 76.1572C144.025 76.1572 143.712 76.1629 143.375 76.1958C143.039 76.2309 142.676 76.2819 142.285 76.3465C141.894 76.4123 141.476 76.4893 141.035 76.588C140.597 76.6956 140.134 76.8192 139.646 76.9575C139.402 77.0289 139.152 77.1015 138.896 77.1774C138.639 77.2545 138.383 77.3486 138.119 77.4392C137.59 77.624 137.038 77.8246 136.465 78.0423C135.9 78.2758 135.313 78.5263 134.706 78.7915C134.555 78.8584 134.402 78.9264 134.247 78.9944C134.096 79.0681 133.943 79.1418 133.788 79.2166C133.481 79.3685 133.168 79.5227 132.849 79.6802C130.313 80.96 127.551 82.6376 124.736 84.7618C123.322 85.816 121.912 87.0425 120.494 88.38C120.141 88.7155 119.797 89.0692 119.444 89.4217C119.269 89.5986 119.093 89.7765 118.917 89.9556C118.829 90.0452 118.742 90.1358 118.653 90.2254C118.567 90.3183 118.481 90.4113 118.395 90.5042C117.709 91.2524 117.004 92.0084 116.335 92.82C114.965 94.4126 113.661 96.1492 112.385 97.9583C112.074 98.4162 111.761 98.8764 111.446 99.3401C111.287 99.569 111.137 99.8071 110.986 100.045C110.836 100.282 110.685 100.52 110.533 100.759C110.382 100.997 110.231 101.236 110.079 101.476C109.925 101.714 109.786 101.963 109.639 102.207C109.35 102.696 109.058 103.187 108.767 103.681C107.64 105.68 106.567 107.741 105.573 109.856C104.594 111.979 103.681 114.145 102.848 116.342C102.031 118.545 101.285 120.773 100.607 123.008C99.9509 125.25 99.3621 127.498 98.8268 129.735C99.3609 127.497 100.052 125.274 100.878 123.1C101.725 120.931 102.71 118.815 103.798 116.769C104.903 114.731 106.122 112.772 107.408 110.897C108.71 109.032 110.092 107.261 111.506 105.58C111.868 105.167 112.229 104.757 112.589 104.348C112.77 104.145 112.943 103.938 113.13 103.742C113.314 103.544 113.499 103.347 113.682 103.151C113.866 102.955 114.048 102.76 114.23 102.565C114.411 102.37 114.592 102.175 114.781 101.989C115.154 101.613 115.524 101.239 115.893 100.867C117.387 99.4035 118.868 98.0161 120.358 96.7477C121.087 96.0982 121.837 95.4974 122.556 94.8932C122.646 94.8184 122.736 94.7425 122.825 94.6677C122.916 94.5951 123.007 94.5226 123.098 94.45C123.28 94.3049 123.46 94.161 123.64 94.0182C124 93.7325 124.349 93.4423 124.703 93.1669C126.123 92.0685 127.475 91.0223 128.769 90.0588C131.345 88.1148 133.771 86.4485 135.948 85.0078C136.22 84.8276 136.488 84.6507 136.752 84.4762C136.883 84.3877 137.013 84.3005 137.143 84.2143C137.274 84.1316 137.403 84.0488 137.532 83.9672C138.047 83.6396 138.54 83.3188 139.012 83.0037C139.491 82.7045 139.95 82.4131 140.386 82.1264C140.605 81.9847 140.815 81.8373 141.025 81.7058C141.235 81.5721 141.439 81.4406 141.638 81.3136C142.035 81.0552 142.408 80.8024 142.757 80.5576C143.11 80.3218 143.44 80.0974 143.744 79.8775C144.048 79.6575 144.327 79.4444 144.579 79.2393C144.832 79.0352 145.063 78.8516 145.263 78.668C146.068 77.9391 146.427 77.3225 146.265 76.8623H146.269Z" fill="#005E45"/>
<path d="M41.8444 101.753C41.734 102.229 42.1485 102.795 43.013 103.42C43.2283 103.577 43.4743 103.733 43.7442 103.901C44.0142 104.071 44.3103 104.246 44.6326 104.424C44.955 104.602 45.3046 104.781 45.677 104.968C46.0483 105.162 46.4447 105.359 46.8639 105.559C47.2841 105.756 47.7272 105.963 48.1907 106.182C48.6543 106.4 49.1418 106.62 49.6509 106.844C50.1566 107.08 50.6839 107.319 51.2329 107.56C51.3707 107.621 51.5086 107.682 51.6487 107.743C51.7876 107.806 51.9277 107.871 52.0689 107.936C52.3525 108.064 52.6396 108.193 52.9323 108.326C55.274 109.379 57.9107 110.577 60.766 111.965C62.1977 112.656 63.7125 113.387 65.3003 114.153C65.6955 114.349 66.0964 114.546 66.5007 114.747C66.9039 114.949 67.3208 115.14 67.7285 115.355C68.5486 115.776 69.3971 116.19 70.2422 116.643C71.9507 117.524 73.6887 118.494 75.4644 119.521C75.9052 119.783 76.3493 120.047 76.7958 120.313C77.2446 120.576 77.682 120.861 78.1307 121.137C79.0305 121.684 79.9097 122.282 80.8129 122.87C82.592 124.079 84.3734 125.365 86.1194 126.741C87.8563 128.126 89.5682 129.592 91.214 131.143C92.8507 132.703 94.4293 134.343 95.9179 136.056C97.394 137.778 98.7812 139.57 100.053 141.415C98.7812 139.57 97.4806 137.719 96.1434 135.878C94.7937 134.048 93.4076 132.23 91.9851 130.442C90.5534 128.661 89.0784 126.917 87.5761 125.215C86.0636 123.524 84.5135 121.887 82.944 120.31C82.1456 119.54 81.3653 118.754 80.5567 118.018C80.1546 117.649 79.7606 117.269 79.354 116.912C78.9473 116.553 78.5441 116.196 78.1421 115.841C76.5179 114.442 74.8949 113.11 73.2594 111.906C72.4507 111.291 71.6283 110.725 70.822 110.165C70.421 109.882 70.0099 109.625 69.6078 109.36C69.2035 109.1 68.806 108.838 68.4051 108.592C66.7991 107.611 65.2285 106.727 63.6966 105.992C60.6385 104.506 57.7376 103.383 55.1236 102.567C54.7956 102.468 54.4733 102.37 54.1567 102.274C53.9983 102.227 53.8411 102.181 53.6851 102.134C53.5279 102.092 53.3719 102.05 53.2181 102.01C52.5997 101.847 52.004 101.697 51.43 101.558C50.8525 101.433 50.2967 101.32 49.7659 101.218C49.4994 101.17 49.242 101.118 48.9869 101.079C48.7318 101.042 48.4823 101.006 48.2397 100.971C47.7545 100.904 47.2944 100.85 46.8604 100.807C46.4242 100.771 46.0131 100.75 45.6304 100.738C45.2477 100.726 44.8912 100.725 44.5643 100.736C44.2363 100.747 43.9344 100.779 43.6622 100.815C42.5734 100.966 41.9526 101.28 41.8422 101.756L41.8444 101.753Z" fill="#005E45"/>
<path d="M60.0075 56.0224C58.282 56.9519 61.5918 65.9192 68.5737 78.7552C75.5555 91.5912 88.7458 108.864 98.2881 126.409C88.7458 108.864 81.4291 88.4276 74.4473 75.5904C67.4655 62.7544 61.733 55.0918 60.0075 56.0213V56.0224Z" fill="#005E45"/>
<path d="M120.548 96.1359C120.082 96.2901 119.818 96.9679 119.738 98.072C119.716 98.3486 119.715 98.6501 119.708 98.9811C119.699 99.3132 119.701 99.6714 119.711 100.053C119.721 100.437 119.746 100.842 119.773 101.274C119.788 101.709 119.812 102.169 119.845 102.65C119.863 102.891 119.883 103.137 119.902 103.389C119.924 103.641 119.929 103.903 119.948 104.168C119.978 104.699 120.019 105.252 120.066 105.825C120.091 106.403 120.124 107.003 120.165 107.622C120.175 107.777 120.186 107.932 120.197 108.091C120.203 108.25 120.208 108.409 120.213 108.571C120.227 108.893 120.24 109.219 120.254 109.551C120.36 112.208 120.398 115.209 120.246 118.497C120.182 120.142 120.067 121.881 119.94 123.709C119.906 124.166 119.853 124.626 119.813 125.093C119.793 125.326 119.772 125.561 119.751 125.798C119.74 125.916 119.73 126.035 119.72 126.154C119.706 126.272 119.691 126.391 119.678 126.51C119.562 127.461 119.47 128.438 119.314 129.424C119.054 131.407 118.666 133.445 118.212 135.535C118.089 136.056 117.965 136.58 117.839 137.107C117.781 137.372 117.708 137.634 117.636 137.897C117.564 138.16 117.492 138.425 117.419 138.69C117.346 138.955 117.275 139.221 117.202 139.489C117.132 139.757 117.041 140.018 116.96 140.284C116.794 140.817 116.628 141.351 116.46 141.888C115.736 144.018 114.905 146.167 113.928 148.289C112.933 150.399 111.813 152.49 110.546 154.51C109.261 156.518 107.843 158.459 106.294 160.291C104.725 162.105 103.029 163.806 101.232 165.358C103.029 163.805 104.794 162.183 106.506 160.484C108.196 158.767 109.829 156.976 111.391 155.119C112.935 153.25 114.393 151.311 115.765 149.328C117.121 147.333 118.368 145.286 119.521 143.217C119.796 142.693 120.07 142.171 120.343 141.651C120.477 141.39 120.622 141.133 120.746 140.869C120.873 140.605 120.999 140.343 121.125 140.08C121.252 139.817 121.377 139.556 121.503 139.294C121.63 139.032 121.756 138.771 121.868 138.506C122.099 137.977 122.329 137.449 122.557 136.926C123.429 134.814 124.213 132.712 124.817 130.63C125.144 129.594 125.394 128.558 125.65 127.54C125.682 127.413 125.713 127.286 125.745 127.159C125.772 127.032 125.8 126.904 125.827 126.778C125.879 126.525 125.932 126.272 125.984 126.02C126.086 125.516 126.194 125.018 126.279 124.523C126.612 122.538 126.846 120.621 126.918 118.803C127.086 115.166 126.861 111.834 126.41 108.938C126.35 108.576 126.291 108.222 126.232 107.871C126.202 107.697 126.172 107.524 126.142 107.353C126.106 107.183 126.07 107.014 126.034 106.847C125.888 106.179 125.74 105.537 125.594 104.925C125.424 104.315 125.253 103.735 125.084 103.183C124.998 102.908 124.92 102.638 124.826 102.378C124.73 102.12 124.637 101.868 124.546 101.623C124.36 101.135 124.177 100.677 123.997 100.248C123.804 99.8233 123.608 99.4322 123.42 99.0706C123.232 98.709 123.049 98.3803 122.87 98.0822C122.689 97.7852 122.498 97.5256 122.322 97.2955C121.612 96.3774 121.014 95.9829 120.548 96.137V96.1359Z" fill="#005E45"/>
<path d="M1.93404 33.3275C2.01149 33.8092 2.55248 34.1924 3.48529 34.4712C3.95227 34.6106 4.5172 34.7251 5.1721 34.8135C5.50013 34.8589 5.84978 34.8929 6.22108 34.928C6.59467 34.9745 6.98988 35.0153 7.40674 35.0493C8.23932 35.1196 9.15506 35.1649 10.1482 35.1876C11.1448 35.2511 12.2189 35.2941 13.3647 35.3145C13.5082 35.3168 13.6517 35.3191 13.7975 35.3213C13.9433 35.3213 14.089 35.3236 14.2371 35.3338C14.5332 35.3474 14.8328 35.3599 15.138 35.3746C15.7474 35.3984 16.3738 35.4177 17.0173 35.4313C17.3385 35.4381 17.6654 35.4438 17.9946 35.4506C18.3249 35.4676 18.6586 35.4846 18.9968 35.5016C19.6734 35.5333 20.3659 35.5594 21.0743 35.5809C21.7839 35.5889 22.5117 35.6421 23.26 35.6693C24.0094 35.6988 24.7782 35.7181 25.5675 35.7283C26.3546 35.76 27.1598 35.8031 27.9844 35.8303C28.8079 35.862 29.653 35.8677 30.5072 35.9357C31.3626 35.989 32.2362 36.0377 33.1257 36.0831C33.5722 36.0978 34.0152 36.15 34.4651 36.1874C34.915 36.227 35.3683 36.2667 35.8239 36.3064C36.2817 36.3461 36.7419 36.3846 37.2055 36.4243C37.4378 36.4401 37.669 36.4707 37.9002 36.5002C38.1314 36.5297 38.3649 36.558 38.5973 36.5875C39.5335 36.7054 40.4788 36.8233 41.4333 36.9434C45.234 37.5306 49.1634 38.349 53.0393 39.5199C56.897 40.7317 60.6943 42.2846 64.2217 44.19C60.6966 42.2846 57.0929 40.3621 53.4243 38.5542C49.7397 36.7881 45.9948 35.1513 42.275 33.7265C41.3365 33.3955 40.4048 33.0679 39.4834 32.7437C39.2522 32.6621 39.021 32.5816 38.7909 32.5011C38.5608 32.4195 38.3319 32.3379 38.0995 32.271C37.636 32.1293 37.1747 31.9888 36.7168 31.8494C36.2578 31.7111 35.8011 31.5728 35.3467 31.4356C34.8922 31.3019 34.4423 31.1557 33.9879 31.0491C33.0824 30.819 32.1872 30.5968 31.3045 30.3826C30.4229 30.1536 29.5459 29.9983 28.6849 29.8351C27.8238 29.6775 26.9776 29.5177 26.1461 29.3919C25.3124 29.2865 24.4958 29.1924 23.6985 29.1108C22.9012 29.0314 22.1233 28.9498 21.3636 28.9396C20.6051 28.9158 19.8636 28.8988 19.1392 28.8875C18.777 28.8829 18.4194 28.8784 18.0663 28.875C17.7132 28.8807 17.3636 28.8977 17.0196 28.9101C16.3317 28.9373 15.6619 28.9702 15.0127 29.0076C14.6881 29.028 14.3681 29.0473 14.0537 29.0666C13.8966 29.0745 13.7405 29.0915 13.5856 29.1096C13.4307 29.1278 13.2781 29.1448 13.1255 29.1618C11.9102 29.3035 10.7792 29.4599 9.74047 29.6299C8.70402 29.8396 7.76097 30.0618 6.91586 30.2874C6.49331 30.4007 6.09579 30.5152 5.72448 30.632C5.35432 30.7589 5.00924 30.8949 4.69033 31.0253C4.05365 31.2894 3.52175 31.5535 3.0992 31.8142C2.25636 32.3356 1.85545 32.8469 1.9329 33.3286L1.93404 33.3275Z" fill="#005E45"/>
<path d="M26.4297 0.779378C26.2622 1.23846 26.5447 1.83016 27.2053 2.51254C27.3704 2.68483 27.5606 2.85599 27.7702 3.04529C27.9786 3.23572 28.2099 3.43182 28.4627 3.63359C28.7156 3.83536 28.9901 4.04053 29.285 4.25476C29.5755 4.47807 29.8864 4.70591 30.2179 4.93941C30.383 5.05616 30.5538 5.17405 30.7292 5.29307C30.9046 5.41209 31.0801 5.54358 31.2623 5.6694C31.6268 5.92558 32.0106 6.18629 32.4115 6.45153C32.8056 6.73151 33.219 7.01603 33.6496 7.30507C33.7578 7.37762 33.866 7.45017 33.9764 7.52271C34.0846 7.59866 34.1928 7.67574 34.3033 7.75395C34.5243 7.90698 34.7487 8.0634 34.9764 8.22096C36.7999 9.48711 38.8364 10.9392 41.0027 12.6213C42.0915 13.4556 43.2317 14.3545 44.4344 15.2964C44.734 15.5333 45.0289 15.7816 45.3342 16.0264C45.4868 16.1488 45.6406 16.2724 45.7943 16.3959L46.0267 16.5818L46.2545 16.7745C46.8638 17.2914 47.5016 17.8049 48.1212 18.3603C49.3889 19.4451 50.6486 20.6308 51.9231 21.8822C52.2363 22.2007 52.5529 22.5204 52.8707 22.8423C53.0325 23.0021 53.1862 23.1687 53.3411 23.3354C53.496 23.502 53.652 23.6698 53.8081 23.8375C54.1213 24.173 54.4391 24.5097 54.7398 24.8634C55.0461 25.2136 55.3537 25.5661 55.6623 25.9198C56.8662 27.3616 58.0427 28.8817 59.1464 30.4868C60.2364 32.0986 61.266 33.7853 62.192 35.5434C63.1043 37.306 63.9209 39.1333 64.6134 41.0047C65.2877 42.8819 65.8367 44.7998 66.2433 46.7313C65.8367 44.8009 65.3902 42.8603 64.8879 40.9197C64.3674 38.9848 63.79 37.0533 63.1533 35.1376C62.5018 33.2276 61.782 31.3392 61.0041 29.4836C60.2125 27.636 59.3514 25.8291 58.4402 24.0744C58.2033 23.6403 57.9664 23.2084 57.7318 22.7788C57.5006 22.3447 57.2512 21.9253 57.004 21.5059C56.8799 21.2962 56.7569 21.0865 56.6339 20.8779C56.5109 20.6682 56.389 20.4596 56.258 20.2579C55.9995 19.8498 55.742 19.444 55.4869 19.0404C54.4368 17.4444 53.3571 15.9108 52.2135 14.503C51.6554 13.7854 51.0643 13.1167 50.488 12.4547C50.4151 12.3719 50.3434 12.2903 50.2716 12.2076C50.1976 12.1282 50.1235 12.0477 50.0495 11.9684C49.9003 11.8097 49.7522 11.6533 49.6053 11.4957C49.308 11.184 49.0187 10.8723 48.7203 10.5753C47.521 9.39189 46.3228 8.30938 45.1144 7.38102C42.7077 5.51184 40.3319 4.04166 38.1428 2.92967C37.8683 2.79365 37.5972 2.65989 37.3318 2.52727C37.1986 2.46266 37.0664 2.39805 36.9355 2.33457C36.8022 2.27563 36.6701 2.21669 36.5391 2.15888C36.014 1.92877 35.5061 1.71454 35.0175 1.5139C34.5209 1.328 34.0425 1.15798 33.5835 1.00155C33.3534 0.924469 33.1313 0.845123 32.9092 0.781645C32.6871 0.717035 32.4696 0.656958 32.2578 0.599148C31.8341 0.484662 31.4309 0.384912 31.0493 0.298764C30.6643 0.220551 30.2999 0.161608 29.9593 0.112866C29.6188 0.0652585 29.301 0.0312527 29.0071 0.00971579C28.7122 -0.00955412 28.4376 -0.0038865 28.1894 0.00744874C27.1962 0.0607244 26.6005 0.318034 26.4331 0.777111L26.4297 0.779378Z" fill="#005E45"/>
<path d="M48.6656 63.5596C48.275 63.8555 48.1474 64.4211 48.2738 65.2293C48.3376 65.6329 48.4652 66.0976 48.6554 66.6179C48.7511 66.8775 48.8592 67.1529 48.988 67.4386C49.1235 67.7185 49.275 68.011 49.4413 68.3159C49.775 68.9257 50.1725 69.5843 50.6303 70.286C51.1121 70.9661 51.6565 71.687 52.2602 72.4442C52.4128 72.6312 52.5609 72.8296 52.7283 73.0132C52.8946 73.1991 53.0643 73.3873 53.2352 73.5789C53.5803 73.9597 53.9413 74.3485 54.316 74.7441C54.504 74.9414 54.693 75.1431 54.8901 75.3403C55.0928 75.533 55.2978 75.7269 55.5062 75.9241C55.9242 76.3163 56.3559 76.7142 56.8024 77.1155C57.2409 77.5258 57.7318 77.9033 58.2329 78.292C58.7352 78.6797 59.258 79.0674 59.7967 79.4573C60.3457 79.8336 60.922 80.1986 61.5074 80.5716C62.0951 80.9411 62.6897 81.322 63.3264 81.6631C63.9562 82.0134 64.5986 82.3637 65.2501 82.7151C65.5724 82.8964 65.9141 83.0517 66.2512 83.2183C66.5895 83.3816 66.9301 83.5459 67.2729 83.7114C67.6157 83.8747 67.9597 84.039 68.3059 84.2056C68.4779 84.2907 68.6556 84.3655 68.8333 84.4414C69.0109 84.5174 69.1886 84.5933 69.3674 84.6704C70.0793 84.9742 70.798 85.2814 71.5235 85.5908C74.4575 86.7527 77.5144 87.8068 80.5885 88.7771C83.6785 89.7157 86.7765 90.576 89.8062 91.4511C86.7742 90.576 83.7992 89.3167 80.994 87.8204C78.2001 86.2913 75.585 84.523 73.1784 82.7037C72.5895 82.2322 72.0053 81.7652 71.4278 81.3027C71.2843 81.1871 71.1408 81.0726 70.9984 80.9581C70.8549 80.8447 70.7126 80.7314 70.5759 80.609C70.3002 80.3709 70.0269 80.134 69.7547 79.8983C69.4825 79.6647 69.2125 79.4324 68.9449 79.2011C68.6784 78.9699 68.4061 78.75 68.1544 78.5085C67.6419 78.0359 67.1373 77.5757 66.6385 77.1279C66.1328 76.6892 65.6658 76.2234 65.1954 75.7847C64.7273 75.3426 64.2603 74.9221 63.8082 74.5072C63.3662 74.0787 62.93 73.6684 62.4972 73.2762C62.0655 72.8829 61.6304 72.5179 61.2284 72.1404C60.8195 71.7709 60.4152 71.4127 60.0165 71.067C59.8161 70.8958 59.6191 70.7258 59.4232 70.558C59.2329 70.3857 59.045 70.2146 58.8593 70.0468C58.4869 69.7113 58.1213 69.3882 57.7603 69.0788C57.5792 68.9246 57.4003 68.7727 57.2249 68.6242C57.0461 68.478 56.8844 68.3193 56.7147 68.1731C56.0473 67.5802 55.4037 67.0407 54.7887 66.5567C54.1976 66.0523 53.6349 65.6034 53.103 65.2157C52.8365 65.0219 52.5791 64.8428 52.3297 64.6784C52.0871 64.5095 51.8559 64.352 51.6315 64.2125C51.1839 63.9337 50.7693 63.7195 50.3946 63.5732C49.6451 63.2819 49.0517 63.2649 48.6611 63.5608L48.6656 63.5596Z" fill="#24755F"/>
<path d="M65.3275 18.3045C64.9528 18.6196 64.8651 19.2238 65.0291 20.058C65.069 20.2666 65.1293 20.4876 65.1977 20.7268C65.266 20.9671 65.348 21.221 65.446 21.4885C65.5428 21.7561 65.6567 22.0349 65.7808 22.3296C65.9004 22.6277 66.0348 22.9372 66.1829 23.2602C66.4858 23.8996 66.8082 24.6125 67.1966 25.3573C67.3799 25.737 67.577 26.1292 67.7854 26.5305C67.8378 26.6302 67.8913 26.7322 67.9437 26.8342C67.995 26.9374 68.0474 27.0417 68.0997 27.146C68.2068 27.3545 68.315 27.5665 68.4255 27.7819C69.3116 29.5037 70.315 31.4364 71.3731 33.5787C71.9073 34.6476 72.4745 35.7777 73.085 36.9611C73.3845 37.5562 73.6909 38.1649 74.003 38.7873C74.3071 39.4141 74.634 40.0477 74.9392 40.7063C75.5759 42.0133 76.1898 43.3905 76.8014 44.821C77.4074 46.2538 77.9768 47.7512 78.519 49.2973C79.0418 50.8468 79.5281 52.4485 79.9427 54.0921C80.347 55.7368 80.6899 57.4212 80.9427 59.1295C81.1853 60.8388 81.3436 62.5697 81.3994 64.3029C81.4427 66.0349 81.3846 67.7669 81.216 69.4717C81.3846 67.7669 81.5464 66.0451 81.6853 64.3097C81.8117 62.5742 81.9142 60.8264 81.9837 59.0739C82.0418 57.3226 82.06 55.5679 82.0372 53.8212C82.0031 52.0767 81.9188 50.3413 81.7889 48.6308C81.6409 46.9237 81.4552 45.2393 81.1978 43.6025C80.9359 41.9679 80.6352 40.3708 80.2548 38.8473C80.0771 38.0811 79.863 37.3397 79.6557 36.6098C79.5554 36.2436 79.4336 35.8888 79.3208 35.534C79.2046 35.1804 79.0942 34.829 78.9712 34.4867C78.4803 33.1162 77.9529 31.8252 77.3652 30.6486C76.2012 28.2897 74.9335 26.2414 73.6784 24.5332C73.5201 24.3212 73.3629 24.1127 73.2091 23.9075C73.1317 23.8055 73.0543 23.7046 72.9779 23.6048C72.8982 23.5074 72.8196 23.4099 72.7422 23.3135C72.429 22.9304 72.1214 22.5654 71.823 22.2208C71.2034 21.5441 70.6294 20.9331 70.0576 20.4253C69.7752 20.1691 69.503 19.9322 69.241 19.7157C68.9745 19.5026 68.7148 19.3122 68.4688 19.1399C68.2216 18.9676 67.987 18.8157 67.7638 18.6853C67.5394 18.555 67.3207 18.4496 67.1179 18.3612C66.3047 18.012 65.6977 17.9894 65.3241 18.3056L65.3275 18.3045Z" fill="#24755F"/>
<path d="M14.5571 14.5891C14.2507 14.97 14.3384 15.6161 14.7883 16.4844C15.0138 16.9185 15.3293 17.4082 15.7314 17.9489C15.933 18.2187 16.1551 18.5021 16.3988 18.7968C16.6448 19.0892 16.9125 19.393 17.1995 19.7081C17.7747 20.3384 18.433 21.0128 19.1699 21.7258C19.9125 22.432 20.7337 23.1767 21.6289 23.9532C23.4251 25.5004 25.5299 27.1656 27.9126 28.8874C32.6757 32.3401 39.1336 35.7883 46.0995 39.326C49.5905 41.0852 53.209 42.8728 56.8195 44.7091C60.4357 46.5375 64.0417 48.4169 67.5052 50.3949C64.0417 48.4169 60.6441 46.177 57.3639 43.8227C54.0883 41.4593 50.9322 38.9803 47.923 36.541C41.9161 31.6407 36.5186 26.9015 31.8352 23.5066C29.49 21.8119 27.3192 20.3112 25.3579 19.0382C24.3807 18.3978 23.4524 17.8197 22.5799 17.3039C21.7132 16.7802 20.9034 16.3212 20.154 15.929C19.7792 15.7329 19.4205 15.5526 19.0776 15.3905C18.7359 15.2262 18.4125 15.0777 18.1038 14.9473C17.4877 14.6866 16.9398 14.4962 16.4648 14.3794C15.5161 14.1459 14.8612 14.2071 14.5548 14.588L14.5571 14.5891Z" fill="#24755F"/>
<path d="M19.1051 13.5277C18.9524 13.9914 19.0777 14.5116 19.4445 15.0625C19.6278 15.338 19.8716 15.6214 20.1723 15.9093C20.3226 16.0532 20.4866 16.1972 20.6643 16.3445C20.8408 16.4953 21.0299 16.6483 21.2326 16.8014C21.6381 17.1074 22.0971 17.4169 22.6051 17.7274C23.1074 18.0516 23.6598 18.3781 24.2589 18.7023C25.4514 19.3643 26.8215 20.0489 28.3409 20.7619C28.7247 20.9331 29.1154 21.1167 29.5243 21.289C29.9332 21.4624 30.3569 21.6313 30.7965 21.7957C31.2316 21.968 31.6781 22.1425 32.1394 22.3114C32.5995 22.4826 33.0767 22.6435 33.5539 22.8272C34.0334 23.0051 34.5255 23.182 35.0266 23.3588C35.5278 23.5368 36.0289 23.734 36.5449 23.9222C36.8023 24.0174 37.062 24.1137 37.3239 24.2101C37.5859 24.3053 37.8433 24.413 38.1064 24.515C38.6314 24.7224 39.1622 24.9333 39.6986 25.1452C41.824 26.0328 44.0051 27.0405 46.1042 28.2318C48.193 29.4356 50.201 30.8162 51.9835 32.3896C50.2022 30.8174 48.4687 29.1216 46.7363 27.4055C44.9948 25.7029 43.2545 23.9856 41.5119 22.3556C41.07 21.9555 40.6303 21.5588 40.1964 21.1654C39.9777 20.9705 39.7636 20.7687 39.5426 20.5817C39.3217 20.3935 39.1018 20.2065 38.8843 20.0194C38.4447 19.6499 38.0153 19.2758 37.5768 18.9279C37.1383 18.581 36.7032 18.2421 36.2704 17.9122C35.841 17.5778 35.4036 17.2752 34.9742 16.9771C34.5437 16.6812 34.1189 16.3933 33.6952 16.1246C33.2681 15.8639 32.8467 15.6168 32.4298 15.3845C32.0129 15.1532 31.604 14.9322 31.1929 14.7485C29.5596 13.9834 28.0129 13.4087 26.612 13.0052C25.9081 12.8102 25.2441 12.6504 24.6245 12.5268C23.9992 12.4169 23.4183 12.3432 22.8864 12.3035C22.621 12.2831 22.367 12.2729 22.1267 12.2695C21.8852 12.2707 21.6552 12.2831 21.4388 12.3024C21.0071 12.3409 20.629 12.4124 20.3089 12.5166C19.6688 12.7252 19.2599 13.063 19.1073 13.5277H19.1051Z" fill="#24755F"/>
<path d="M64.4312 47.2319C64.0599 47.5515 63.9232 48.0888 64.0018 48.8029C64.0405 49.16 64.1339 49.5613 64.2785 50.0022C64.3503 50.2232 64.4369 50.4522 64.5337 50.6925C64.6282 50.9351 64.7353 51.1867 64.8537 51.4475C65.0918 51.9689 65.3799 52.5266 65.7148 53.1149C66.0394 53.7111 66.4118 54.3402 66.8298 54.9965C67.6556 56.3159 68.6442 57.7612 69.7718 59.3164C72.0303 62.4154 75.3459 65.8976 78.6864 69.9194C80.3414 71.9359 82.002 74.0794 83.5225 76.3408C85.0305 78.6067 86.4018 80.9871 87.4998 83.4366C86.4018 80.9882 85.412 78.4367 84.4519 75.8681C83.4804 73.3063 82.535 70.7321 81.5714 68.2451C79.6204 63.2916 77.5634 58.6839 75.1921 55.4318C74.0133 53.804 72.8344 52.3939 71.7148 51.2162C71.1499 50.6313 70.6055 50.1008 70.0838 49.627C69.5531 49.1611 69.0462 48.7519 68.5679 48.4028C68.3287 48.2282 68.0975 48.0684 67.8731 47.9233C67.6465 47.7805 67.4266 47.6547 67.2148 47.5425C66.7922 47.3192 66.4039 47.1571 66.0531 47.0573C65.3515 46.8578 64.8013 46.9122 64.4312 47.2319Z" fill="#24755F"/>
<path d="M94.5865 68.2083C94.222 68.5348 94.1274 69.1253 94.2539 69.8984C94.2835 70.0934 94.3359 70.2929 94.386 70.515C94.435 70.7395 94.4965 70.9741 94.5694 71.2201C94.6423 71.4672 94.7311 71.72 94.8245 71.9886C94.9088 72.2652 95.0033 72.5508 95.1104 72.8467C95.1639 72.9941 95.2197 73.1448 95.2789 73.2967C95.3359 73.4509 95.3849 73.6141 95.4418 73.7762C95.5523 74.1026 95.6787 74.4348 95.8074 74.7816C95.9225 75.1375 96.0466 75.5025 96.1822 75.8755C96.2539 76.0602 96.3131 76.2552 96.3746 76.4536C96.4384 76.6497 96.5033 76.8492 96.5694 77.0521C97.0922 78.6741 97.6241 80.5229 98.0854 82.6007C98.2152 83.1153 98.3109 83.6582 98.4407 84.208C98.5091 84.4823 98.5614 84.7646 98.6184 85.0502C98.6765 85.3359 98.738 85.6238 98.8029 85.9162C98.8587 86.2109 98.9145 86.5091 98.9703 86.8106C99.025 87.1132 99.0968 87.417 99.1412 87.7287C99.2414 88.3499 99.3633 88.9858 99.4453 89.6398C99.6469 90.9445 99.7767 92.3138 99.8815 93.7477C99.902 94.1071 99.9225 94.4675 99.9441 94.8314C99.9669 95.1964 99.9681 95.5636 99.9817 95.9332C99.9931 96.3038 100.006 96.6768 100.002 97.0531C100.002 97.4294 100.002 97.808 100.002 98.1889C99.9749 99.7112 99.8929 101.272 99.7471 102.85C99.5911 104.427 99.3781 106.022 99.1013 107.614C98.8177 109.206 98.4772 110.795 98.0785 112.364C97.6753 113.931 97.2186 115.481 96.7072 116.996C97.2186 115.481 97.7744 113.965 98.3519 112.45C98.9259 110.932 99.5182 109.413 100.107 107.891C100.69 106.366 101.264 104.837 101.811 103.304C102.349 101.769 102.852 100.228 103.305 98.6865C103.412 98.2988 103.518 97.9123 103.624 97.528C103.733 97.1438 103.828 96.7572 103.921 96.3707C104.013 95.9842 104.115 95.6011 104.196 95.2157C104.277 94.8291 104.358 94.4449 104.438 94.0629C104.481 93.8713 104.516 93.6797 104.548 93.4882C104.581 93.2966 104.614 93.105 104.648 92.9146C104.712 92.5326 104.785 92.154 104.83 91.7709C104.879 91.3877 104.928 91.008 104.977 90.6317C105.026 90.2542 105.048 89.8768 105.082 89.5027C105.155 88.7546 105.171 88.0155 105.191 87.2878C105.207 86.9239 105.191 86.5635 105.186 86.2064C105.177 85.8493 105.171 85.4957 105.151 85.1454C105.125 84.7963 105.098 84.4506 105.067 84.1083C105.038 83.7671 105.007 83.4293 104.953 83.0972C104.852 82.434 104.764 81.7857 104.61 81.1656C104.059 78.6764 103.224 76.4638 102.26 74.6241C102.136 74.3962 102.013 74.1718 101.893 73.9508C101.772 73.7308 101.653 73.5166 101.517 73.3126C101.255 72.9022 100.997 72.5123 100.745 72.1428C100.477 71.7801 100.206 71.4434 99.9464 71.1249C99.8143 70.9662 99.6913 70.8109 99.558 70.6658C99.4225 70.5218 99.2892 70.3847 99.1571 70.2509C98.894 69.9857 98.64 69.7408 98.3963 69.5175C98.1423 69.301 97.8895 69.1106 97.6526 68.9383C97.4145 68.7671 97.1879 68.6175 96.9726 68.4883C96.7562 68.3613 96.5364 68.2661 96.3382 68.1845C95.5386 67.866 94.9532 67.8773 94.5888 68.2038L94.5865 68.2083Z" fill="#24755F"/>
<path d="M72.4597 89.4188C71.9802 89.5208 71.626 89.9935 71.4028 90.8074C71.2912 91.2143 71.2126 91.7062 71.1681 92.2775C71.1465 92.5632 71.1294 92.8704 71.1272 93.1946C71.134 93.5165 71.1499 93.8577 71.175 94.2181C71.2251 94.9379 71.3128 95.7314 71.4381 96.5917C71.5964 97.4419 71.7934 98.3589 72.0315 99.336C72.0941 99.5797 72.1465 99.8302 72.224 100.077C72.2991 100.326 72.3766 100.576 72.454 100.832C72.6124 101.342 72.7821 101.866 72.962 102.402C73.0531 102.67 73.142 102.943 73.2411 103.215C73.3481 103.485 73.4563 103.758 73.5657 104.034C73.7878 104.586 74.0201 105.15 74.2638 105.723C74.4973 106.301 74.7935 106.872 75.0942 107.458C75.3971 108.043 75.7183 108.637 76.0543 109.24C76.4051 109.835 76.7878 110.431 77.175 111.038C77.5657 111.644 77.9564 112.264 78.4063 112.863C78.8448 113.469 79.2947 114.08 79.7537 114.696C79.9769 115.008 80.2309 115.304 80.4746 115.609C80.7218 115.91 80.9701 116.214 81.2195 116.52C81.4701 116.824 81.7218 117.13 81.9747 117.437C82.0988 117.593 82.2332 117.741 82.3676 117.891C82.502 118.04 82.6353 118.19 82.7708 118.34C83.3072 118.937 83.8505 119.54 84.3972 120.15C86.6512 122.526 89.0715 124.852 91.5533 127.101C94.0625 129.326 96.6206 131.475 99.1172 133.6C96.6194 131.475 94.3392 129.013 92.3221 126.398C90.3301 123.757 88.6114 120.966 87.1125 118.214C86.7583 117.515 86.4063 116.823 86.0578 116.137C85.9713 115.967 85.8847 115.797 85.7993 115.627C85.7127 115.458 85.6262 115.289 85.5498 115.116C85.3915 114.772 85.2344 114.43 85.0783 114.09C84.9223 113.752 84.7662 113.417 84.6125 113.082C84.4599 112.748 84.297 112.424 84.1626 112.087C83.8824 111.419 83.6034 110.766 83.3254 110.128C83.0373 109.496 82.797 108.853 82.543 108.234C82.2924 107.614 82.0327 107.014 81.7867 106.425C81.5555 105.829 81.3232 105.251 81.0863 104.692C80.8505 104.133 80.5999 103.598 80.3869 103.065C80.1637 102.537 79.9405 102.022 79.7161 101.523C79.6033 101.273 79.4917 101.026 79.3812 100.782C79.2787 100.535 79.1762 100.293 79.076 100.052C78.8732 99.5729 78.6717 99.107 78.4689 98.6559C78.3664 98.4314 78.265 98.2093 78.1659 97.9916C78.0623 97.7751 77.9803 97.5541 77.8858 97.3421C77.5213 96.4886 77.1568 95.6951 76.7958 94.9674C76.4666 94.2306 76.1397 93.5584 75.8163 92.9565C75.6545 92.6561 75.4939 92.3728 75.3345 92.1075C75.1841 91.84 75.0395 91.5895 74.8937 91.3582C74.6021 90.8958 74.3151 90.5104 74.0349 90.2066C73.4734 89.599 72.9404 89.3179 72.4609 89.4199L72.4597 89.4188Z" fill="#24755F"/>
<path d="M49.2374 104.064C48.8115 104.307 48.6941 104.99 48.8695 106.069C48.9572 106.608 49.119 107.246 49.3525 107.975C49.4698 108.338 49.6019 108.728 49.7568 109.135C49.922 109.537 50.1042 109.961 50.3058 110.404C50.7078 111.291 51.1817 112.262 51.7272 113.306C52.3047 114.328 52.9539 115.423 53.6726 116.583C53.7626 116.728 53.8537 116.874 53.9448 117.02C54.0359 117.167 54.1293 117.315 54.2307 117.46C54.43 117.75 54.6316 118.045 54.8377 118.343C55.2512 118.939 55.6817 119.55 56.1282 120.175C56.3525 120.486 56.5781 120.804 56.8138 121.12C57.0576 121.43 57.3047 121.744 57.5541 122.061C58.0564 122.695 58.5747 123.341 59.11 123.997C59.6351 124.662 60.2284 125.302 60.8332 125.96C61.4403 126.618 62.0702 127.285 62.7216 127.96C63.3879 128.622 64.0895 129.278 64.8025 129.949C65.5189 130.617 66.2399 131.304 67.0224 131.953C67.7946 132.613 68.5827 133.277 69.3846 133.948C69.7798 134.289 70.2046 134.604 70.6215 134.932C71.0406 135.256 71.4632 135.583 71.888 135.911C72.3129 136.239 72.74 136.568 73.1694 136.899C73.3812 137.066 73.6044 137.224 73.8265 137.383C74.0486 137.541 74.2719 137.7 74.4951 137.86C75.3858 138.496 76.2867 139.139 77.1956 139.787C80.8892 142.294 84.7868 144.723 88.7583 147.043C92.7561 149.327 96.8142 151.508 100.802 153.637C96.812 151.506 92.9566 148.962 89.3426 146.182C85.7504 143.367 82.412 140.313 79.3437 137.242C78.5954 136.456 77.8539 135.677 77.1193 134.905C76.9359 134.712 76.7537 134.521 76.5714 134.33C76.3892 134.14 76.207 133.95 76.035 133.751C75.6865 133.359 75.3391 132.969 74.994 132.581C74.6489 132.196 74.306 131.811 73.9666 131.431C73.6284 131.049 73.2821 130.68 72.9632 130.289C72.3163 129.518 71.6773 128.762 71.0463 128.024C70.4051 127.297 69.8185 126.542 69.2251 125.82C68.6363 125.094 68.0463 124.396 67.478 123.707C66.9244 123.004 66.3777 122.324 65.8367 121.668C65.2968 121.01 64.7524 120.387 64.2547 119.755C63.7467 119.132 63.2467 118.524 62.7535 117.936C62.5052 117.642 62.2615 117.352 62.0189 117.065C61.7854 116.773 61.5542 116.484 61.3264 116.199C60.8697 115.63 60.4198 115.08 59.979 114.547C59.7569 114.282 59.5382 114.02 59.323 113.762C59.2125 113.635 59.11 113.505 59.0075 113.375C58.905 113.245 58.8025 113.117 58.7022 112.99C57.8913 111.975 57.1134 111.04 56.3731 110.186C55.6658 109.312 54.9949 108.521 54.3628 107.822C54.0473 107.471 53.742 107.145 53.447 106.841C53.1612 106.532 52.8924 106.241 52.6304 105.978C52.1076 105.451 51.6281 105.022 51.1964 104.698C50.3342 104.048 49.6657 103.816 49.2397 104.059L49.2374 104.064Z" fill="#24755F"/>
<path d="M102.912 109.798C102.481 110.031 102.287 110.65 102.302 111.568C102.303 111.799 102.327 112.044 102.347 112.315C102.366 112.587 102.396 112.877 102.438 113.184C102.479 113.493 102.536 113.815 102.597 114.158C102.647 114.506 102.707 114.87 102.779 115.251C102.814 115.441 102.853 115.635 102.894 115.833C102.934 116.032 102.964 116.24 103.002 116.449C103.076 116.868 103.163 117.301 103.254 117.752C103.329 118.209 103.413 118.681 103.507 119.167C103.53 119.289 103.557 119.411 103.576 119.535C103.596 119.66 103.616 119.787 103.635 119.914C103.678 120.168 103.721 120.425 103.765 120.687C104.113 122.783 104.446 125.159 104.691 127.795C104.822 129.113 104.938 130.514 105.068 131.991C105.095 132.361 105.121 132.735 105.148 133.114C105.173 133.493 105.214 133.876 105.228 134.264C105.266 135.041 105.327 135.836 105.347 136.647C105.424 138.27 105.434 139.96 105.418 141.712C105.395 143.462 105.312 145.265 105.188 147.107C105.049 148.948 104.861 150.826 104.614 152.723C104.36 154.617 104.055 156.53 103.694 158.441C103.328 160.351 102.911 162.26 102.445 164.15C101.976 166.039 101.46 167.911 100.899 169.748C101.461 167.91 102.076 166.07 102.721 164.23C103.363 162.391 104.031 160.551 104.702 158.715C105.368 156.876 106.031 155.039 106.672 153.206C107.306 151.37 107.911 149.539 108.472 147.716C109.017 145.89 109.526 144.076 109.949 142.278C110.364 140.482 110.731 138.703 110.975 136.959C111.114 136.089 111.2 135.227 111.289 134.379C111.339 133.956 111.358 133.533 111.388 133.117C111.415 132.7 111.444 132.286 111.459 131.877C111.509 130.239 111.488 128.665 111.342 127.183C111.067 124.219 110.505 121.533 109.777 119.228C109.682 118.941 109.589 118.659 109.498 118.382C109.451 118.243 109.404 118.106 109.359 117.971C109.312 117.836 109.256 117.704 109.206 117.572C108.999 117.046 108.794 116.543 108.591 116.063C108.371 115.588 108.148 115.138 107.933 114.713C107.822 114.501 107.721 114.293 107.607 114.095C107.492 113.897 107.377 113.706 107.264 113.52C107.039 113.149 106.818 112.805 106.604 112.485C106.379 112.17 106.153 111.883 105.938 111.62C105.723 111.358 105.516 111.121 105.317 110.91C105.115 110.701 104.907 110.525 104.718 110.371C103.95 109.759 103.342 109.565 102.911 109.797L102.912 109.798Z" fill="#24755F"/>
<path d="M83.4508 116.674C82.961 116.693 82.5316 117.174 82.174 118.08C81.9952 118.533 81.8346 119.091 81.6922 119.75C81.6216 120.078 81.5532 120.433 81.4951 120.812C81.4462 121.189 81.4018 121.591 81.3642 122.016C81.289 122.866 81.2366 123.808 81.2093 124.837C81.2138 125.863 81.2457 126.974 81.305 128.162C81.3232 128.459 81.33 128.761 81.3619 129.067C81.3915 129.372 81.4211 129.683 81.4519 129.998C81.5157 130.627 81.5863 131.275 81.666 131.941C81.7059 132.273 81.7457 132.611 81.7924 132.951C81.8482 133.29 81.904 133.633 81.961 133.981C82.0772 134.676 82.2013 135.388 82.3346 136.113C82.4576 136.841 82.641 137.58 82.8278 138.337C83.0157 139.094 83.2195 139.867 83.4371 140.656C83.6694 141.441 83.9314 142.238 84.1968 143.048C84.4656 143.859 84.7332 144.685 85.059 145.509C85.3745 146.336 85.6991 147.175 86.0328 148.024C86.1934 148.451 86.3847 148.87 86.5658 149.295C86.7503 149.719 86.936 150.146 87.1228 150.576C87.3107 151.004 87.4986 151.435 87.6889 151.868C87.7811 152.086 87.8847 152.3 87.9872 152.514C88.0898 152.73 88.1923 152.945 88.2959 153.16C88.7082 154.022 89.1251 154.891 89.5454 155.77C91.2994 159.245 93.2276 162.753 95.2276 166.224C97.2596 169.683 99.3541 173.102 101.378 176.477C99.353 173.101 97.6206 169.472 96.1696 165.775C94.747 162.063 93.6149 158.287 92.6798 154.62C92.4668 153.699 92.255 152.785 92.0454 151.881C91.993 151.655 91.9406 151.431 91.8893 151.206C91.8369 150.983 91.7846 150.76 91.7424 150.534C91.6525 150.085 91.5636 149.64 91.4748 149.195C91.3848 148.753 91.2959 148.313 91.2082 147.878C91.1217 147.442 91.0237 147.012 90.9543 146.579C90.8039 145.715 90.6513 144.866 90.4975 144.034C90.3324 143.206 90.2139 142.382 90.0784 141.579C89.9463 140.777 89.8016 139.993 89.6672 139.228C89.5476 138.459 89.4235 137.709 89.2914 136.982C89.1604 136.253 89.0112 135.549 88.895 134.858C88.7697 134.17 88.641 133.497 88.51 132.842C88.4428 132.514 88.3768 132.19 88.3119 131.87C88.2538 131.55 88.1968 131.233 88.1399 130.921C88.0248 130.296 87.9075 129.688 87.7879 129.098C87.7264 128.803 87.6661 128.513 87.6068 128.226C87.5431 127.941 87.4998 127.657 87.444 127.379C87.2332 126.267 87.0112 125.23 86.7822 124.274C86.5841 123.313 86.3768 122.433 86.1604 121.638C86.0522 121.24 85.9428 120.865 85.8312 120.511C85.7275 120.158 85.6285 119.826 85.5225 119.517C85.313 118.9 85.0943 118.376 84.8699 117.952C84.4189 117.104 83.9405 116.656 83.4508 116.673V116.674Z" fill="#24755F"/>
<path d="M79.0224 240.881H117.926L112.04 186.923H84.9097L79.0224 240.881Z" fill="#959AA3"/>
<path d="M94.8256 234.393C96.6775 233.562 98.411 232.424 100.018 230.794C103.416 227.348 105.43 222.813 106.579 218.175C107.32 215.182 107.721 212.111 107.911 209.037C108.049 206.822 108.738 186.922 108.651 186.922H112.04L117.926 240.881H79.0224L79.4689 236.787C79.4689 236.787 83.0601 237.028 85.5806 236.703C88.9235 236.272 92.0066 235.657 94.8244 234.392L94.8256 234.393Z" fill="#83878F"/>
<path d="M136.935 242.671H134.209L136.014 218.69H145.037L136.935 242.671Z" fill="#C7CDDA"/>
<path d="M136.935 242.671H135.811L140.525 218.69H145.037L136.935 242.671Z" fill="#959AA3"/>
<path d="M162.74 240.426H160.268L161.904 218.69H170.081L162.74 240.426Z" fill="#C7CDDA"/>
<path d="M162.74 240.426H161.72L165.993 218.69H170.081L162.74 240.426Z" fill="#959AA3"/>
<path d="M239.43 242.671H242.156L240.351 218.69H231.328L239.43 242.671Z" fill="#C7CDDA"/>
<path d="M239.43 242.671H240.554L235.84 218.69H231.328L239.43 242.671Z" fill="#959AA3"/>
<path d="M213.625 240.426H216.097L214.461 218.69H206.283L213.625 240.426Z" fill="#C7CDDA"/>
<path d="M213.625 240.426H214.645L210.372 218.69H206.284L213.625 240.426Z" fill="#959AA3"/>
<path d="M130.072 189.298C159.084 185.142 188.516 184.375 217.767 187.017C222.822 187.465 227.859 183.774 228.968 178.669C234.235 153.576 239.5 128.484 244.767 103.391C245.875 98.2894 241.071 90.9657 234.065 89.9965C194.02 84.4728 153.43 83.625 113.121 87.4767C106.068 88.1432 101.253 95.4895 102.409 100.918C107.897 127.563 113.385 154.207 118.873 180.852C120.029 186.285 125.059 190.02 130.072 189.298Z" fill="#2464A2"/>
<path d="M140.507 170.732C166.483 167.076 192.824 166.454 218.995 168.883C223.518 169.294 228.048 166 229.068 161.431C233.352 141.602 237.636 121.774 241.919 101.944C242.94 97.3778 238.756 92.8075 232.6 91.9664C197.419 87.1704 161.767 86.4835 126.371 89.9226C120.177 90.5189 115.988 95.1278 117.051 99.9861C121.51 121.041 125.969 142.096 130.428 163.153C131.492 168.016 136.02 171.366 140.507 170.732Z" fill="#0267D9"/>
<path d="M227.642 152.976V196.29C227.642 201.437 231.841 205.616 237.013 205.616H248.317C253.489 205.616 257.687 201.437 257.687 196.29V152.976C257.687 147.829 253.489 143.65 248.317 143.65H237.013C231.841 143.65 227.642 147.829 227.642 152.976Z" fill="#18436C"/>
<path d="M236.898 152.976V196.29C236.898 201.437 241.096 205.616 246.268 205.616H257.572C262.744 205.616 266.942 201.437 266.942 196.29V152.976C266.942 147.829 262.744 143.65 257.572 143.65H246.268C241.096 143.65 236.898 147.829 236.898 152.976Z" fill="#0267D9"/>
<path d="M141.108 192.182H233.344C238.695 192.182 241.849 188.491 240.352 183.98C240.352 183.98 227.153 166.424 215.782 166.852L122.589 166.875C115.502 166.867 115.041 170.543 116.539 175.055C116.539 175.055 123.837 184.006 127.328 187.622C130.201 190.596 135.756 192.182 141.107 192.182H141.108Z" fill="#286FB4"/>
<path d="M121.052 194.183L133.526 203.372C133.526 203.372 141.399 184.471 137.551 180.285C135.469 178.019 120.978 166.946 120.978 166.946C114.452 166.844 114.524 169.638 114.524 174.15L114.145 182.329C114.145 186.841 114.747 188.663 121.052 194.182V194.183Z" fill="#BC842C"/>
<path d="M139.416 180.286H233.202C238.147 180.286 242.156 184.276 242.156 189.198V196.704C242.156 201.626 238.147 205.616 233.202 205.616H139.416C134.471 205.616 130.461 201.626 130.461 196.704V189.198C130.461 184.276 134.471 180.286 139.416 180.286Z" fill="#0267D9"/>
<path d="M129.514 193.12H249.438C252.171 193.12 254.386 195.325 254.386 198.045V216.105C254.386 218.825 252.171 221.03 249.438 221.03H129.514C126.781 221.03 124.565 218.825 124.565 216.105V198.045C124.565 195.325 126.781 193.12 129.514 193.12Z" fill="#0267D9"/>
<g style="mix-blend-mode:multiply">
<path d="M215.783 166.852C219.929 166.696 224.318 168.932 228.222 171.835C229.032 183.647 231.178 195.297 232.828 207.276C233.464 211.992 234.246 216.531 235.19 221.029H214.776C214.776 221.029 209.543 205.208 207.565 200.718L208.871 184.574C208.871 184.574 191.928 176.314 184.183 172.46C180.652 175.861 176.498 181.271 173.945 183.812C175.48 196.304 177.586 208.653 179.415 221.029H160.349C156.875 203.055 153.495 185.082 151.61 166.869L215.785 166.854L215.783 166.852Z" fill="#C5C5D1"/>
</g>
<path d="M250.118 237.843C250.118 237.843 245.561 235.016 243.434 233.481L237.573 226.961L229.912 226.298C229.912 226.298 232.283 235.533 232.281 236.462C232.279 239.802 234.342 242.97 239.271 242.582C244.201 242.194 250.118 237.843 250.118 237.843Z" fill="#CCCCCC"/>
<path d="M260.532 243.763C259.563 242.485 256.243 241.597 255.648 241.318C253.849 240.475 250.727 235.648 250.727 235.648C247.203 233.753 245.425 233.759 241.919 235.74C240.302 236.655 239.083 238.751 238.5 240.024C237.169 239.073 234.104 237.54 233.45 236.345C232.496 234.601 232.167 234.09 231.133 235.406C230.888 235.716 230.727 248.96 230.727 248.96L259.571 249.337C259.571 249.337 262.101 245.833 260.532 243.762V243.763Z" fill="#20202C"/>
<path d="M184.09 237.881C184.09 237.881 180.08 235.061 178.21 233.53L173.059 227.019L166.996 227.047C166.996 227.047 168.387 235.598 168.384 236.529C168.376 239.868 170.188 243.033 174.531 242.637C178.874 242.242 184.091 237.882 184.091 237.882L184.09 237.881Z" fill="#CCCCCC"/>
<path d="M193.253 243.786C192.401 242.508 189.478 241.626 188.955 241.349C187.372 240.508 184.629 235.687 184.629 235.687C181.529 233.796 179.963 233.805 176.873 235.793C175.447 236.71 174.371 238.809 173.855 240.083C172.683 239.134 169.987 237.606 169.413 236.412C168.576 234.669 168.286 234.159 167.374 235.476C167.159 235.788 166.995 249.032 166.995 249.032L192.397 249.364C192.397 249.364 194.631 245.857 193.253 243.788V243.786Z" fill="#20202C"/>
<path d="M163.903 145.486C156.293 156.076 151.634 155.803 149.506 163.949C148.726 166.937 153.346 170.15 154.088 176.545C154.912 183.633 150.869 191.178 166.2 233.764H180.574C176.096 201.602 176.042 175.813 176.096 173.056C180.169 170.659 181.907 168.115 185.981 165.717C190.061 165.345 207.344 171.969 209.518 173.822C211.985 175.926 210.844 190.195 212.142 193.146C218.941 208.594 230.388 232.58 230.388 232.58L243.726 232.524C243.726 232.524 232.909 174.717 230.355 167.913C228.019 161.69 217.461 157.11 209.373 154.944C208.192 151.83 207.69 148.597 206.509 145.484H163.903V145.486Z" fill="#2B2B3B"/>
<path d="M149.505 163.95C151.633 155.803 156.293 156.076 163.901 145.486H206.508C207.689 148.6 208.191 151.833 209.372 154.946C215.426 156.568 222.865 159.542 227.203 163.546C224.096 163.682 221.006 164.086 217.875 164.91C215.713 165.49 213.55 165.49 211.471 166.317C209.975 166.896 209.143 168.303 209.559 169.876C209.975 171.697 211.97 172.69 213.219 174.098C213.634 174.594 214.216 174.925 214.466 175.504C216.461 179.974 216.046 184.857 216.212 189.656C216.212 190.815 216.544 192.056 216.96 193.216C219.704 200.912 223.779 207.865 226.773 215.562C228.852 221.107 231.93 225.99 233.343 231.949C233.403 232.161 233.476 232.368 233.555 232.57L230.388 232.584C230.388 232.584 218.941 208.599 212.142 193.15C210.844 190.198 211.985 175.929 209.518 173.826C207.344 171.972 190.062 165.348 185.981 165.72C181.909 168.117 180.17 170.661 176.096 173.059C176.042 175.817 176.096 201.606 180.574 233.767H175.482C173.922 222.101 172.387 182.623 171.554 175.836C171.471 175.257 171.471 174.595 171.637 174.016C171.804 173.106 175.935 168.956 173.685 165.363C171.436 161.769 155.254 160.36 151.43 160.691C150.682 160.691 150.682 162.098 150.515 163.008C150.349 163.753 150.432 164.498 150.266 165.325C150.109 165.951 150.027 166.65 150.228 167.214C149.603 166.021 149.238 164.974 149.505 163.951V163.95Z" fill="#1C1C26"/>
<path d="M145.648 58.5915C145.508 59.1186 145.393 59.6525 145.303 60.1853C143.801 69.122 149.195 78.741 157.625 82.162C161.98 83.9292 166.799 84.1332 171.503 84.1593C177.128 84.191 182.852 83.9859 188.182 82.1972C193.512 80.4096 199.773 80.6522 202.226 76.7279C204.167 73.6255 206.777 68.6107 204.896 64.3782C203.437 61.0943 199.141 56.7427 195.56 56.3007C183.592 54.8203 170.317 49.2604 158.257 49.3567C155.422 49.3794 152.489 49.9121 150.178 51.5467C147.844 53.1971 146.386 55.8133 145.646 58.5915H145.648Z" fill="#2B2B3B"/>
<path d="M165.569 69.9902C167.829 77.8693 175.635 85.1658 183.512 85.1658C191.389 85.1658 198.935 77.6448 201.543 69.9482C204.772 60.4164 192.324 67.4227 183.201 62.2561C170.801 55.2328 163.268 61.9637 165.57 69.9902H165.569Z" fill="#16161E"/>
<path d="M160.65 77.21C165.506 76.0753 169.128 71.7929 170.793 67.1125C172.458 62.4322 173.662 37.6035 173.662 37.6035H188.862C188.862 37.6035 190.066 62.4322 191.731 67.1125C193.396 71.7929 197.018 76.0742 201.875 77.21C201.875 77.21 193.038 84.095 181.263 84.095C169.487 84.095 160.651 77.21 160.651 77.21H160.65Z" fill="#FBB5AB"/>
<path d="M185.098 66.3147C180.066 65.2923 175.711 62.6409 172.095 59.1656C173.05 50.2243 173.661 37.6025 173.661 37.6025H188.861C188.861 37.6025 189.805 57.0685 191.176 64.7765C189.414 66.156 187.111 66.7148 185.096 66.3136L185.098 66.3147Z" fill="#F29B91"/>
<path d="M211.362 155.843C208.89 137.152 209.909 129.832 211.362 111.021C217.215 76.7444 209.182 72.7362 201.542 69.9478C200.316 76.9654 197.209 81.3385 188.076 80.9713C179.597 80.6301 170.832 74.8774 165.157 68.6113C157.726 70.3966 148.22 72.6682 141.266 75.8341C144.487 85.6255 146.344 96.3849 151.626 105.246C152.566 126.149 154.515 133.108 149.446 153.416C152.333 154.303 192.503 163.465 211.362 155.843Z" fill="#2B2B3B"/>
<path d="M152.592 102.509C152.983 103.191 153.546 123.253 155.918 124.385C158.291 125.518 195.037 124.227 207.562 124.129C207.758 124.129 210.943 100.72 213.165 96.7431C212.881 100.805 212.301 105.523 211.362 111.022C209.909 129.833 208.891 137.152 211.362 155.844C192.503 163.466 152.333 154.305 149.446 153.417C154.514 133.11 152.565 126.15 151.626 105.247C149.925 102.394 148.581 99.3446 147.431 96.1934C147.84 96.4722 152.103 101.633 152.593 102.509H152.592Z" fill="#1C1C26"/>
<path d="M235.816 130.388C233.707 123.82 226.678 105.449 222.638 94.1333C220.927 89.3407 218.978 84.2161 215.023 81.3131C208.442 76.4854 197.668 80.7747 198.697 90.8982C203.566 104.444 214.49 128.038 218.444 134.072C222.1 139.65 239.016 140.354 235.816 130.387V130.388Z" fill="#2B2B3B"/>
<path d="M222.994 128.927C227.245 126.601 235.223 129.366 235.273 132.371C235.324 135.377 231.851 139.145 226.424 136.447C224.392 135.437 215.576 133.671 217.034 132.221C217.703 131.555 219.996 130.566 222.994 128.925V128.927Z" fill="#FBB5AB"/>
<path d="M223.412 129.226C223.412 129.226 216.956 131.353 215.951 131.939C214.946 132.525 211.008 140.502 209.962 142.413C208.917 144.323 211.244 146.128 212.67 143.636C214.094 141.146 217.834 135.298 217.834 135.298C217.834 135.298 222.536 134.519 223.735 134.307C224.933 134.095 226 129.383 223.413 129.226H223.412Z" fill="#FBB5AB"/>
<path d="M223.133 131.153L217.536 136.198C217.536 136.198 214.56 142.007 213.793 143.781C213.024 145.555 215.279 146.754 216.339 144.694C217.4 142.635 220.355 138.571 220.355 138.571C220.355 138.571 226.313 134.19 227.041 133.97C227.769 133.75 223.133 131.153 223.133 131.153Z" fill="#FBB5AB"/>
<path d="M228.199 132.145L222.759 135.555C222.759 135.555 219.674 141.26 218.874 143.006C218.073 144.753 220.313 146.012 221.411 143.989C222.51 141.965 225.544 138 225.544 138C225.544 138 230.82 134.951 231.554 134.753C232.287 134.554 228.199 132.145 228.199 132.145Z" fill="#FBB5AB"/>
<path d="M230.42 132.131L226.074 135.544C226.074 135.544 224.022 140.749 223.517 142.33C223.012 143.912 225.093 144.816 225.826 142.97C226.558 141.123 228.756 137.43 228.756 137.43C228.756 137.43 232.999 134.344 233.613 134.11C234.227 133.877 230.419 132.13 230.419 132.13L230.42 132.131Z" fill="#FBB5AB"/>
<path d="M203.323 74.4109C202.896 77.5009 201.107 80.3358 198.576 82.1551C197.862 82.6686 197.091 83.088 196.278 83.4213C195.994 83.5369 195.87 83.0778 196.151 82.9633C198.915 81.8332 201.151 79.4947 202.228 76.7289C202.534 75.9411 202.748 75.1216 202.863 74.2851C202.881 74.157 203.044 74.089 203.157 74.1196C203.295 74.1559 203.341 74.2851 203.323 74.412V74.4109Z" fill="#20202C"/>
<path d="M191.723 85.2827C188.878 85.3643 186.028 85.285 183.191 85.0458C180.37 84.8077 177.561 84.4133 174.784 83.868C171.991 83.3194 169.228 82.6155 166.514 81.762C163.815 80.9129 161.163 79.9154 158.574 78.7763C155.971 77.6314 153.432 76.3403 150.975 74.9087C150.67 74.7307 150.365 74.5505 150.062 74.368C149.799 74.2104 150.039 73.799 150.303 73.9576C152.719 75.4108 155.216 76.728 157.779 77.9012C160.347 79.0766 162.981 80.1059 165.665 80.99C168.344 81.8719 171.073 82.6064 173.834 83.1902C176.599 83.774 179.394 84.207 182.206 84.4813C185.014 84.7556 187.839 84.8735 190.66 84.8315C191.014 84.8259 191.369 84.8179 191.723 84.8077C192.03 84.7987 192.03 85.2736 191.723 85.2827Z" fill="#20202C"/>
<path d="M164.68 70.6446C165.56 76.4143 166.937 82.1068 168.789 87.6441C170.642 93.1848 172.97 98.5656 175.743 103.712C177.294 106.591 178.985 109.394 180.806 112.112C181.039 112.46 180.476 112.785 180.243 112.44C176.972 107.558 174.127 102.398 171.742 97.0308C169.372 91.6976 167.45 86.1671 166.015 80.5131C165.204 77.3154 164.549 74.0792 164.053 70.8181C163.99 70.41 164.618 70.2343 164.68 70.6458V70.6446Z" fill="#C44D4F"/>
<path d="M180.314 113.362C179.618 113.362 179.054 112.838 179.054 112.191C179.054 111.545 179.618 111.021 180.314 111.021C181.01 111.021 181.574 111.545 181.574 112.191C181.574 112.838 181.01 113.362 180.314 113.362Z" fill="#CCCCCC"/>
<path d="M177.037 107.761C176.341 107.761 175.777 107.237 175.777 106.59C175.777 105.943 176.341 105.419 177.037 105.419C177.733 105.419 178.297 105.943 178.297 106.59C178.297 107.237 177.733 107.761 177.037 107.761Z" fill="#CCCCCC"/>
<path d="M202.749 70.6141C203.722 76.369 204.017 80.079 203.992 85.9144C203.968 91.7543 203.443 97.5897 202.42 103.34C201.848 106.557 201.122 109.746 200.243 112.892C200.131 113.295 200.769 113.428 200.88 113.028C202.458 107.374 203.544 101.588 204.127 95.7488C204.707 89.9452 204.8 84.0951 204.392 78.2767C204.16 74.9861 203.767 73.8333 203.217 70.5812C203.149 70.1743 202.749 70.6129 202.749 70.6129V70.6141Z" fill="#C44D4F"/>
<path d="M201.935 112.425C202.138 113.039 201.765 113.713 201.105 113.928C200.443 114.145 199.743 113.821 199.541 113.207C199.338 112.593 199.71 111.919 200.371 111.704C201.033 111.488 201.732 111.811 201.935 112.425Z" fill="#CCCCCC"/>
<path d="M203.291 106.086C203.494 106.7 203.122 107.373 202.461 107.589C201.799 107.805 201.1 107.482 200.897 106.868C200.695 106.253 201.067 105.58 201.728 105.365C202.388 105.149 203.089 105.471 203.291 106.086Z" fill="#CCCCCC"/>
<path d="M169.716 41.8623C167.581 56.9325 184.867 68.7053 191.33 68.4922C196.428 68.3245 206.413 64.4387 212.134 50.162C220.664 28.8778 216.477 18.2567 199.254 13.7476C182.03 9.2384 173.046 18.3406 169.716 41.8623Z" fill="#FBB5AB"/>
<path d="M179.052 45.0968C179.088 45.6862 179.568 46.2156 180.367 46.6701C180.568 46.7835 180.788 46.8923 181.026 46.9966C181.265 47.1054 181.522 47.221 181.796 47.3264C182.344 47.5441 182.96 47.7198 183.633 47.9408C183.969 48.044 184.32 48.1426 184.683 48.2367C185.046 48.3319 185.421 48.4509 185.809 48.5484C186.003 48.5971 186.2 48.647 186.399 48.6969C186.5 48.7218 186.6 48.7433 186.701 48.7705C186.801 48.7989 186.904 48.8272 187.005 48.8556C187.414 48.9666 187.833 49.0732 188.264 49.1741C189.978 49.6218 191.84 50.0854 193.79 50.6012C195.735 51.1351 197.578 51.6701 199.286 52.145C199.708 52.2743 200.124 52.3933 200.534 52.5021C200.636 52.5293 200.739 52.5554 200.839 52.5826C200.939 52.6098 201.037 52.6427 201.136 52.671C201.335 52.7277 201.529 52.7844 201.722 52.8388C202.107 52.9487 202.491 53.0349 202.853 53.1346C203.214 53.2366 203.567 53.3273 203.91 53.4067C204.602 53.554 205.223 53.7116 205.806 53.7989C206.097 53.8453 206.377 53.8748 206.638 53.9009C206.896 53.9315 207.141 53.9473 207.371 53.9496C208.291 53.9587 208.974 53.7422 209.303 53.2514C209.632 52.7617 209.573 52.0385 209.151 51.1317C209.047 50.905 208.919 50.6669 208.769 50.4176C208.617 50.1727 208.437 49.929 208.238 49.6706C207.837 49.1605 207.362 48.5937 206.775 48.0598C206.485 47.7866 206.175 47.5078 205.845 47.2256C205.515 46.9444 205.152 46.6837 204.779 46.4071C204.591 46.27 204.4 46.1328 204.202 45.9945C204.103 45.9265 204.005 45.8551 203.904 45.7882C203.802 45.7236 203.698 45.659 203.593 45.5944C203.175 45.3348 202.739 45.0753 202.288 44.8157C200.467 43.8193 198.35 42.9306 196.04 42.2981C193.725 41.6838 191.448 41.3879 189.372 41.3335C188.852 41.3312 188.344 41.3369 187.852 41.3505C187.729 41.3539 187.607 41.3584 187.485 41.3618C187.363 41.3675 187.242 41.38 187.123 41.389C186.883 41.4094 186.648 41.4321 186.416 41.4559C185.954 41.5069 185.51 41.55 185.082 41.6271C184.653 41.7064 184.244 41.7903 183.856 41.881C183.079 42.0476 182.382 42.297 181.777 42.5373C181.476 42.6608 181.197 42.7821 180.941 42.9159C180.686 43.0553 180.456 43.197 180.25 43.3398C179.428 43.9123 179.011 44.5062 179.047 45.0945L179.052 45.0968Z" fill="#F29B91"/>
<path d="M194.417 51.0713C194.407 51.1258 194.445 51.1836 194.534 51.2436C194.578 51.272 194.635 51.3082 194.705 51.3332C194.775 51.357 194.858 51.3785 194.955 51.3989C195.338 51.4715 195.943 51.3944 196.552 51.0407C197.161 50.6905 197.757 50.0818 198.151 49.2384C198.542 48.3826 198.652 47.4191 198.652 46.4692C198.648 45.5239 198.553 44.6749 198.53 43.9505C198.505 43.2228 198.545 42.5847 198.638 42.0644C198.731 41.5452 198.87 41.1394 198.982 40.8458C199.011 40.7744 199.035 40.7064 199.054 40.6441C199.075 40.5828 199.093 40.5318 199.103 40.4831C199.124 40.3879 199.119 40.3165 199.082 40.2757C199.044 40.236 198.975 40.2292 198.873 40.2575C198.823 40.2723 198.763 40.2938 198.699 40.3289C198.636 40.3641 198.567 40.4094 198.491 40.465C198.191 40.6871 197.833 41.1156 197.561 41.7198C197.289 42.3228 197.115 43.0857 197.058 43.9177C197 44.7531 197.051 45.6168 197.053 46.4704C197.053 46.8966 197.038 47.2967 196.996 47.6696C196.956 48.0392 196.882 48.3962 196.786 48.6841C196.581 49.2849 196.235 49.7916 195.886 50.1294C195.535 50.4717 195.181 50.6667 194.905 50.78C194.836 50.805 194.773 50.8322 194.715 50.8582C194.658 50.8832 194.608 50.9002 194.565 50.9228C194.479 50.9671 194.426 51.0158 194.417 51.0702V51.0713Z" fill="#DE7172"/>
<path d="M183.423 38.2207C184.822 35.8834 187.625 34.6444 189.977 35.1919C192.255 35.7224 194.058 37.9169 194.334 40.5093C192.963 43.0495 190.01 44.5208 187.59 43.7285C184.109 42.5893 183.414 38.2343 183.422 38.2196L183.423 38.2207Z" fill="white"/>
<path d="M187.267 43.538C185.582 42.6524 184.937 40.5753 185.827 38.8985C186.717 37.2218 188.804 36.5804 190.489 37.4659C192.174 38.3515 192.818 40.4286 191.928 42.1054C191.038 43.7821 188.951 44.4235 187.267 43.538Z" fill="#39394F"/>
<path d="M194.364 40.7268C194.096 38.8156 192.837 37.1063 191.127 36.2119C189.407 35.3119 187.341 35.3856 185.632 36.2743C184.682 36.7685 184.005 37.4203 183.44 38.3282C183.377 38.2194 183.435 37.7683 183.496 37.6696C184.501 36.0532 186.305 35.0013 188.201 34.8426C190.152 34.6794 192.035 35.5579 193.26 37.0598C193.946 37.9009 194.409 38.912 194.559 39.9866C194.573 40.0874 194.491 40.2586 194.464 40.3572C194.442 40.4445 194.418 40.5318 194.394 40.6179C194.386 40.6451 194.358 40.6995 194.363 40.7256L194.364 40.7268Z" fill="#39394F"/>
<path d="M212.247 45.7665C212.251 43.0642 210.635 40.6679 208.529 40.049C206.491 39.4494 204.038 40.5296 202.598 42.672C202.476 45.5398 204.101 48.2092 206.376 48.6468C209.647 49.2747 212.248 45.7824 212.248 45.7665H212.247Z" fill="white"/>
<path d="M205.741 48.4602C204.066 48.0217 203.101 46.1796 203.586 44.3458C204.071 42.5119 205.822 41.3808 207.496 41.8193C209.171 42.2578 210.136 44.0999 209.651 45.9337C209.166 47.7676 207.416 48.8987 205.741 48.4602Z" fill="#39394F"/>
<path d="M202.471 42.8492C203.584 41.2996 205.38 40.3905 207.144 40.4053C208.92 40.42 210.508 41.4504 211.431 43.0283C211.944 43.9056 212.168 44.792 212.183 45.853C212.285 45.7872 212.452 45.3644 212.45 45.25C212.425 43.3638 211.502 41.5989 210.089 40.573C208.633 39.5177 206.74 39.4078 205.068 40.1514C204.133 40.5674 203.292 41.2384 202.667 42.1101C202.608 42.1917 202.592 42.381 202.566 42.4785C202.543 42.5658 202.52 42.6531 202.497 42.7403C202.491 42.7675 202.486 42.8276 202.471 42.8492Z" fill="#39394F"/>
<path d="M170.439 20.1903C172.062 16.6809 174.136 12.9358 176.809 9.96707C183.305 4.49442 193.652 1.89185 201.829 4.27112C207.639 5.9612 212.736 9.82425 216.101 14.8208C218.668 16.1697 220.272 19.0727 220.678 21.9813C221.129 25.2152 220.36 28.4832 219.514 31.6366C217.881 37.718 214.066 48.2326 214.066 48.2326C214.066 48.2326 212.927 49.1269 212.582 48.8299C212.828 47.9594 213.098 47.0956 213.417 46.2444C215.44 40.3909 217.52 31.8089 212.673 27.4188C212.164 26.8679 211.542 26.4304 210.857 26.1855C209.739 27.3293 209.183 29.0035 209.417 30.5847C209.667 32.2805 210.816 33.8175 212.376 34.543C209.494 34.1383 206.226 33.4888 204.743 30.9962C203.493 28.8947 203.991 26.2535 204.251 23.8244C204.46 21.8804 204.352 19.644 203.248 18.1432C201.147 17.5073 198.729 16.9428 196.919 18.1624C195.159 19.3481 194.747 21.7036 193.692 23.5388C192.567 25.4963 190.573 26.9371 188.354 27.3961C186.131 27.8552 183.718 27.3202 181.903 25.9645C183.272 24.9035 184.215 23.2973 184.431 21.5812C183.969 22.4982 182.888 22.9266 181.87 23.0865C180.851 23.2463 179.791 23.2202 178.825 23.5818C176.867 24.3141 175.814 26.4304 175.299 28.448C174.785 30.4657 174.601 32.6171 173.553 34.4183C172.963 35.4317 171.968 36.2932 170.876 36.6854C170.236 36.9155 168.532 37.582 167.891 37.4256C169.424 31.6264 170.957 25.8273 172.49 20.0282C171.831 20.2357 171.124 20.2946 170.439 20.1915V20.1903Z" fill="#2B2B3B"/>
<path d="M194.229 35.5387C192.35 33.8021 189.693 32.9882 187.155 33.2829C186.446 33.3657 185.749 33.5357 185.084 33.7919C185.095 33.7874 185.166 33.2523 185.156 33.317C185.218 32.9361 185.284 32.5552 185.35 32.1744C185.418 31.7935 190.812 29.8665 193.06 31.0748C193.688 31.4126 194.271 31.8275 194.794 32.3104C194.819 32.3342 194.715 32.8318 194.722 32.7853C194.659 33.1662 194.593 33.5471 194.527 33.9279C194.46 34.3088 194.394 34.6885 194.322 35.0682C194.306 35.1521 194.29 35.236 194.274 35.3199C194.263 35.3936 194.247 35.4661 194.228 35.5387H194.229Z" fill="#2B2B3B"/>
<path d="M204.627 38.2605C207.101 37.6632 209.794 38.2503 211.837 39.7443C212.408 40.1615 212.924 40.6489 213.371 41.1975C213.363 41.1884 213.566 40.6874 213.543 40.7498C213.676 40.387 213.807 40.0232 213.937 39.6593C214.067 39.2954 210.365 34.9858 207.832 34.9427C207.125 34.9302 206.418 35.0073 205.73 35.1739C205.697 35.1819 205.541 35.667 205.558 35.6217C205.425 35.9844 205.294 36.3483 205.164 36.7121C205.034 37.076 204.904 37.4399 204.779 37.8049C204.751 37.8853 204.723 37.967 204.696 38.0474C204.669 38.1177 204.647 38.1891 204.628 38.2605H204.627Z" fill="#2B2B3B"/>
<path d="M177.818 38.917C177.428 36.5264 175.888 34.3478 173.759 33.1735C172.645 32.5591 171.259 32.2202 170.103 32.7529C169.073 33.2279 168.438 34.3081 168.186 35.4088C167.737 37.3766 168.35 39.4883 169.525 41.1342C170.698 42.7801 174.487 45.3736 176.277 46.3212L177.82 38.917H177.818Z" fill="#FBB5AB"/>
<path d="M170.233 37.7242C170.332 37.6698 170.372 37.5282 170.405 37.3434C170.435 37.1586 170.477 36.9217 170.556 36.6633C170.595 36.5329 170.653 36.398 170.717 36.2597C170.791 36.1248 170.866 35.9843 170.97 35.8573C171.168 35.5966 171.432 35.3892 171.719 35.2804C172.01 35.1818 172.347 35.1727 172.666 35.2475C172.826 35.2792 172.976 35.3393 173.119 35.3971C173.257 35.4629 173.388 35.5297 173.502 35.6057C173.73 35.7542 173.914 35.9095 174.055 36.033C174.199 36.1543 174.321 36.2382 174.431 36.2167C174.536 36.1974 174.624 36.067 174.641 35.8222C174.659 35.5785 174.578 35.2248 174.343 34.8542C174.111 34.4835 173.716 34.1106 173.167 33.8691C172.891 33.7535 172.581 33.6583 172.24 33.6413C171.899 33.6198 171.532 33.6594 171.176 33.7853C170.822 33.9167 170.513 34.1185 170.266 34.352C170.014 34.5833 169.838 34.8542 169.7 35.1171C169.433 35.6522 169.368 36.1906 169.428 36.6236C169.486 37.0577 169.651 37.3808 169.821 37.5576C169.99 37.7356 170.142 37.7798 170.235 37.7276L170.233 37.7242Z" fill="#F58D8E"/>
<path d="M185.209 50.7818C185.466 50.6175 185.725 50.452 185.982 50.2876C186.209 50.1425 186.613 50.2412 186.834 50.3511C187.011 50.4384 187.208 50.6254 186.978 50.7728C186.829 50.868 186.678 50.9643 186.529 51.0596C188.695 52.0503 190.862 53.041 193.027 54.0317C193.602 54.2946 194.176 54.5576 194.751 54.8206C195.017 54.9419 195.282 55.0609 195.549 55.1765C195.842 55.3035 195.986 55.3624 196.276 55.4701C196.549 55.5698 196.823 55.6628 197.102 55.741C197.122 55.7467 197.2 55.7671 197.21 55.7705C197.271 55.7852 197.331 55.8 197.391 55.8136C197.542 55.8476 197.693 55.877 197.846 55.9008C197.866 55.9042 197.953 55.9156 197.959 55.9167C198.02 55.9235 198.082 55.9303 198.143 55.936C198.262 55.9462 198.381 55.9518 198.501 55.9552C198.514 55.9552 198.565 55.9552 198.588 55.9552C198.648 55.9541 198.707 55.9507 198.765 55.9473C198.888 55.9394 199.011 55.928 199.133 55.9122C199.134 55.9122 199.135 55.9122 199.137 55.9122C199.18 55.9054 199.221 55.8986 199.263 55.8906C199.321 55.8793 199.379 55.868 199.436 55.8544C199.567 55.8249 199.697 55.7898 199.825 55.7489C200.013 55.6889 200.268 55.5778 200.475 55.4633C200.926 55.2139 201.303 54.8637 201.584 54.4329C201.636 54.3524 201.817 54.3286 201.896 54.3218C202.048 54.3105 202.227 54.3343 202.37 54.3853C202.529 54.442 202.869 54.5916 202.727 54.8093C202.169 55.6628 201.223 56.1808 200.243 56.4075C199.046 56.6841 197.813 56.5367 196.643 56.2035C195.423 55.8555 194.275 55.2865 193.126 54.7605C191.903 54.2006 190.68 53.6417 189.456 53.0818C188.088 52.4561 186.719 51.8304 185.351 51.2047C185.175 51.1242 184.98 50.9292 185.208 50.783L185.209 50.7818Z" fill="#BA564A"/>
<path d="M151.418 162.208C152.555 163.173 153.873 163.907 155.273 164.328C158.604 165.329 162.256 164.676 165.302 162.907C182.613 170.804 203.023 170.886 220.356 163.016C222.665 164.38 225.437 164.885 228.068 164.483C231.506 163.957 234.674 161.959 236.959 159.196C238.542 157.283 239.758 154.875 239.696 152.336C239.635 149.797 238.001 147.206 235.633 146.756C235.633 146.756 234.273 146.497 232.558 146.171C205.743 146.171 178.93 146.171 152.117 146.171C152.117 146.171 152.094 146.171 152.042 146.171C149.083 147.863 147.227 151.648 147.614 155.24C147.91 157.988 149.372 160.473 151.419 162.21L151.418 162.208Z" fill="#C44D4F"/>
<path d="M152.042 146.17C152.094 146.17 152.117 146.17 152.117 146.17C178.93 146.17 205.743 146.17 232.558 146.17C234.275 146.497 235.633 146.755 235.633 146.755C238.001 147.206 239.636 149.796 239.696 152.335C239.758 154.874 238.541 157.282 236.959 159.195C234.674 161.958 231.507 163.955 228.068 164.482C227.356 164.591 226.634 164.632 225.913 164.608C229.716 163.396 233.868 161.169 235.514 157.258C236.927 153.9 236.216 149.626 228.819 149.626C199.428 148.81 184.541 149.545 156.643 149.545C152.845 149.545 151.134 150.314 149.949 151.923C147.793 154.849 150.668 161.194 155.115 162.024C160.119 162.853 161.42 162.441 165.027 158.85C166.284 162.382 172.212 164.719 175.47 165.549C185.773 167.981 196.175 168.338 206.31 167.542C192.611 170.308 178.11 168.749 165.303 162.908C162.258 164.676 158.606 165.329 155.274 164.328C153.875 163.907 152.556 163.174 151.419 162.208C149.372 160.471 147.91 157.986 147.614 155.238C147.227 151.646 149.083 147.861 152.042 146.169V146.17Z" fill="#933A3B"/>
<path d="M118.084 121.391C119.949 115.468 128.672 97.8317 132.352 87.6595C133.91 83.351 135.695 78.7466 139.533 76.22C145.917 72.0169 156.717 76.2222 155.987 85.397C151.548 97.5744 141.247 119.423 139.446 125.143C137.644 130.864 116.219 127.314 118.084 121.391Z" fill="#2B2B3B"/>
<path d="M159.577 130.555C154.834 131.336 154.447 135.194 155.777 138.103C157.107 141.013 161.901 143.053 165.467 137.996C166.802 136.102 168.807 131.427 170.14 129.815C171.472 128.203 164.827 129.69 159.578 130.555H159.577Z" fill="#FBB5AB"/>
<path d="M164.826 129.69C164.826 129.69 171.51 128.798 172.666 128.906C173.823 129.012 180.954 134.883 182.752 136.242C184.551 137.601 183.318 140.392 180.919 138.647C178.519 136.903 172.538 132.986 172.538 132.986C172.538 132.986 168.023 134.376 166.867 134.717C165.711 135.058 162.612 131.017 164.826 129.691V129.69Z" fill="#FBB5AB"/>
<path d="M164.489 132.059L172.393 133.959C172.393 133.959 178.675 138.127 180.479 139.479C182.283 140.832 181.247 143.329 179.014 141.854C176.782 140.378 171.677 137.962 171.677 137.962C171.677 137.962 163.918 136.939 163.182 137.131C162.444 137.324 164.488 132.058 164.488 132.058L164.489 132.059Z" fill="#FBB5AB"/>
<path d="M161.025 135.949L167.68 136.022C167.68 136.022 173.838 138.994 175.605 139.971C177.372 140.948 176.316 142.988 174.128 141.938C171.94 140.886 166.924 139.242 166.924 139.242C166.924 139.242 160.634 139.371 159.901 139.565C159.17 139.758 161.025 135.949 161.025 135.949Z" fill="#FBB5AB"/>
<path d="M159.18 136.991L164.932 137.585C164.932 137.585 169.921 140.658 171.338 141.648C172.755 142.638 171.606 144.326 169.833 143.238C168.06 142.15 163.907 140.323 163.907 140.323C163.907 140.323 158.447 139.934 157.792 140.044C157.136 140.154 159.18 136.992 159.18 136.992V136.991Z" fill="#FBB5AB"/>
<path d="M161.432 142.694C149.439 142.806 141.6 142.457 129.608 142.573C124.296 142.242 118.884 140.489 116.886 135.978C114.997 131.709 116.153 124.662 118.084 121.391C120.016 118.119 135.624 122.741 135.624 122.741C147.668 125.985 163.936 129.29 163.936 129.29L161.432 142.695V142.694Z" fill="#2B2B3B"/>
<path d="M141.828 125.363C140.36 125.071 139.48 127.049 138.599 128.023C138.403 128.218 138.11 128.315 138.013 128.218C137.23 127.146 138.502 125.394 137.621 125.102C135.762 124.518 131.848 127.101 131.848 126.66C131.848 126.219 136.153 124.03 138.403 122.57C139.864 121.554 140.936 120.247 141.898 118.867C141.061 120.855 140.369 122.559 139.893 123.851C147.859 125.861 156.56 127.743 160.988 128.677C160.988 128.677 148.247 126.55 141.828 125.365V125.363Z" fill="#1C1C26"/>
<path d="M118.084 121.391C119.949 115.469 128.672 97.832 132.352 87.6598C133.607 84.1901 135.009 80.5299 137.512 77.916C137.377 78.1552 137.25 78.3989 137.131 78.6494C136.055 80.8892 135.621 81.8301 134.489 85.5639C133.358 89.2977 124.071 108.45 120.646 120.428C119.276 125.297 117.089 131.563 119.731 136.336C121.199 139.063 124.087 140.293 128.707 141.08C130.969 141.466 134.488 142.021 136.659 142.554C134.439 142.546 132.114 142.55 129.607 142.574C124.295 142.243 118.883 140.491 116.885 135.98C114.995 131.711 116.151 124.664 118.083 121.392L118.084 121.391Z" fill="#3C3C57"/>
<path d="M153.666 145.048L167.558 143.375H186.71V145.048H153.666Z" fill="#D2D7E1"/>
<path d="M242.835 95.834H181.805C180.071 95.834 178.38 97.2441 178.047 98.9682L169.744 141.913C169.411 143.637 170.556 145.047 172.29 145.047H233.32C235.054 145.047 236.744 143.637 237.078 141.913L245.381 98.9682C245.714 97.2441 244.568 95.834 242.835 95.834Z" fill="white"/>
<path d="M244.543 95.834H183.513C181.78 95.834 180.088 97.2441 179.756 98.9682L171.453 141.913C171.119 143.637 172.265 145.047 173.998 145.047H235.029C236.762 145.047 238.453 143.637 238.786 141.913L247.089 98.9682C247.423 97.2441 246.277 95.834 244.543 95.834Z" fill="#F0F1F5"/>
<path d="M244.543 95.834H183.513C181.78 95.834 180.088 97.2441 179.756 98.9682L171.453 141.913C171.119 143.637 172.265 145.047 173.998 145.047H235.029C236.762 145.047 238.453 143.637 238.786 141.913L247.089 98.9682C247.423 97.2441 246.277 95.834 244.543 95.834Z" fill="#C7CDDA"/>
<path d="M229.818 136.685L244.57 107.487L237.95 141.727C237.69 143.069 236.338 144.203 234.998 144.203H173.968C173.675 144.203 173.405 144.145 173.168 144.039C190.964 142.792 229.817 136.685 229.817 136.685H229.818Z" fill="#BDC2CF"/>
<g style="mix-blend-mode:soft-light">
<path d="M180.591 99.1564C180.85 97.8143 182.202 96.6797 183.543 96.6797H206.65C195.891 102.494 185.91 109.608 176.931 118.092L180.592 99.1553L180.591 99.1564Z" fill="#F5F8FC"/>
</g>
<path d="M154.007 147.475H238.683C239.354 147.475 239.827 146.929 239.734 146.261C239.64 145.593 239.014 145.047 238.343 145.047H153.667C152.996 145.047 152.523 145.593 152.617 146.261C152.71 146.929 153.336 147.475 154.007 147.475Z" fill="#C7CDDA"/>
<path d="M172.083 147.475H238.683C239.354 147.475 239.827 146.929 239.734 146.261C239.64 145.593 239.014 145.047 238.343 145.047H171.742C171.071 145.047 170.598 145.593 170.692 146.261C170.785 146.929 171.412 147.475 172.083 147.475Z" fill="#ADB7CC"/>
<path d="M104.915 196.291V152.977C104.915 147.827 109.11 143.651 114.285 143.651H125.589C130.764 143.651 134.959 147.827 134.959 152.977V196.291C134.959 201.441 130.764 205.617 125.589 205.617H114.285C109.11 205.617 104.915 201.441 104.915 196.291Z" fill="#2464A2"/>
<path d="M114.17 152.977V196.291C114.17 201.438 118.368 205.617 123.54 205.617H134.844C140.016 205.617 144.215 201.438 144.215 196.291V152.977C144.215 147.83 140.016 143.651 134.844 143.651H123.54C118.368 143.651 114.17 147.83 114.17 152.977Z" fill="#0267D9"/>
</g>
<defs>
<clipPath id="clip0_1029_11976">
<rect width="330" height="254" fill="white" transform="matrix(-1 0 0 1 330 0)"/>
</clipPath>
</defs>
</svg>
