<svg width="20" height="20" viewBox="0 0 20 20" fill="none" xmlns="http://www.w3.org/2000/svg">
<path d="M16.6934 8.53005V4.93945" stroke="#1FA5CF" stroke-miterlimit="10" stroke-linecap="round" stroke-linejoin="round"/>
<path d="M16.6944 8.65967C16.1534 8.65967 15.7148 9.09826 15.7148 9.63926V11.1106H17.674V9.63926C17.6741 9.09823 17.2355 8.65967 16.6944 8.65967Z" stroke="#1FA5CF" stroke-miterlimit="10" stroke-linecap="round" stroke-linejoin="round"/>
<path d="M10.0008 15.3188L8.37473 17.9278L7.93571 16.8059L6.43164 17.0335L7.54181 15.5187" stroke="#1FA5CF" stroke-miterlimit="10" stroke-linecap="round" stroke-linejoin="round"/>
<path d="M10 15.3188L11.626 17.9278L12.065 16.8059L13.5691 17.0335L12.4589 15.5187" stroke="#1FA5CF" stroke-miterlimit="10" stroke-linecap="round" stroke-linejoin="round"/>
<path d="M10.0005 2.07227L3.30664 4.93614L10.0005 7.78394L16.6944 4.93614L10.0005 2.07227Z" stroke="#1FA5CF" stroke-miterlimit="10" stroke-linecap="round" stroke-linejoin="round"/>
<path d="M14.0812 6.17974V9.48733L13.9471 9.57282C11.5395 11.1074 8.45769 11.1063 6.05012 9.57155C6.00636 9.54366 5.96231 9.51558 5.91797 9.48733V6.16211" stroke="#1FA5CF" stroke-miterlimit="10" stroke-linecap="round" stroke-linejoin="round"/>
<path d="M12.3436 12.8519L17.999 12.3921V15.9693L12.2266 15.5" stroke="#1FA5CF" stroke-miterlimit="10" stroke-linecap="round" stroke-linejoin="round"/>
<path d="M7.75406 15.5015L2 15.9693V12.3921L7.73548 12.8584" stroke="#1FA5CF" stroke-miterlimit="10" stroke-linecap="round" stroke-linejoin="round"/>
<path d="M7.83594 15.4947L9.99855 15.3189L12.1612 15.4947V12.8667L9.99855 13.0425L7.83594 12.8667V15.4947Z" stroke="#1FA5CF" stroke-miterlimit="10" stroke-linecap="round" stroke-linejoin="round"/>
</svg>
