<svg width="120" height="40" viewBox="0 0 120 40" fill="none" xmlns="http://www.w3.org/2000/svg">
<rect width="120" height="40" rx="6" fill="#EAFAFF"/>
<path d="M26.6934 18.53V14.9395" stroke="#1FA5CF" stroke-miterlimit="10" stroke-linecap="round" stroke-linejoin="round"/>
<path d="M26.6944 18.6592C26.1534 18.6592 25.7148 19.0978 25.7148 19.6388V21.1102H27.674V19.6388C27.6741 19.0977 27.2355 18.6592 26.6944 18.6592Z" stroke="#1FA5CF" stroke-miterlimit="10" stroke-linecap="round" stroke-linejoin="round"/>
<path d="M20.0008 25.3184L18.3747 27.9273L17.9357 26.8054L16.4316 27.033L17.5418 25.5183" stroke="#1FA5CF" stroke-miterlimit="10" stroke-linecap="round" stroke-linejoin="round"/>
<path d="M20 25.3184L21.626 27.9273L22.065 26.8054L23.5691 27.033L22.4589 25.5183" stroke="#1FA5CF" stroke-miterlimit="10" stroke-linecap="round" stroke-linejoin="round"/>
<path d="M20.0005 12.0723L13.3066 14.9361L20.0005 17.7839L26.6944 14.9361L20.0005 12.0723Z" stroke="#1FA5CF" stroke-miterlimit="10" stroke-linecap="round" stroke-linejoin="round"/>
<path d="M24.0812 16.1797V19.4873L23.9471 19.5728C21.5395 21.1074 18.4577 21.1063 16.0501 19.5715C16.0064 19.5437 15.9623 19.5156 15.918 19.4873V16.1621" stroke="#1FA5CF" stroke-miterlimit="10" stroke-linecap="round" stroke-linejoin="round"/>
<path d="M22.3436 22.8514L27.999 22.3916V25.9688L22.2266 25.4995" stroke="#1FA5CF" stroke-miterlimit="10" stroke-linecap="round" stroke-linejoin="round"/>
<path d="M17.7541 25.501L12 25.9688V22.3916L17.7355 22.8579" stroke="#1FA5CF" stroke-miterlimit="10" stroke-linecap="round" stroke-linejoin="round"/>
<path d="M17.8359 25.4943L19.9985 25.3185L22.1612 25.4943V22.8662L19.9985 23.042L17.8359 22.8662V25.4943Z" stroke="#1FA5CF" stroke-miterlimit="10" stroke-linecap="round" stroke-linejoin="round"/>
<path d="M42.0092 18.5348C41.9131 18.2332 41.7839 17.9631 41.6214 17.7244C41.4624 17.4825 41.2718 17.277 41.0497 17.108C40.8277 16.9356 40.5741 16.8047 40.2891 16.7152C40.0073 16.6257 39.6974 16.581 39.3594 16.581C38.786 16.581 38.2689 16.7285 37.8082 17.0234C37.3475 17.3184 36.983 17.7509 36.7145 18.321C36.4493 18.8878 36.3168 19.5821 36.3168 20.4041C36.3168 21.2294 36.451 21.9271 36.7195 22.4972C36.9879 23.0672 37.3558 23.4998 37.8232 23.7947C38.2905 24.0897 38.8224 24.2372 39.419 24.2372C39.9725 24.2372 40.4548 24.1245 40.8658 23.8991C41.2801 23.6738 41.5999 23.3556 41.8253 22.9446C42.054 22.5303 42.1683 22.0431 42.1683 21.483L42.5661 21.5575H39.6527V20.2898H43.6548V21.4482C43.6548 22.3033 43.4725 23.0457 43.108 23.6754C42.7467 24.3018 42.2462 24.7857 41.6065 25.1271C40.9702 25.4685 40.241 25.6392 39.419 25.6392C38.4976 25.6392 37.6889 25.4271 36.9929 25.0028C36.3002 24.5786 35.7599 23.977 35.3722 23.1982C34.9844 22.416 34.7905 21.4879 34.7905 20.4141C34.7905 19.602 34.9032 18.8729 35.1286 18.2266C35.3539 17.5803 35.6705 17.0317 36.0781 16.581C36.4891 16.1269 36.9714 15.7805 37.5249 15.5419C38.0817 15.3 38.6899 15.179 39.3494 15.179C39.8996 15.179 40.4117 15.2602 40.8857 15.4226C41.3629 15.585 41.7872 15.8153 42.1584 16.1136C42.5329 16.4119 42.8428 16.7666 43.0881 17.1776C43.3333 17.5852 43.4991 18.0376 43.5852 18.5348H42.0092ZM45.4856 25.5V17.8636H46.9224V19.0767H47.002C47.1412 18.6657 47.3864 18.3426 47.7377 18.1072C48.0924 17.8686 48.4934 17.7493 48.9409 17.7493C49.0337 17.7493 49.1431 17.7526 49.269 17.7592C49.3983 17.7659 49.4993 17.7741 49.5723 17.7841V19.206C49.5126 19.1894 49.4065 19.1712 49.2541 19.1513C49.1016 19.1281 48.9492 19.1165 48.7967 19.1165C48.4454 19.1165 48.1322 19.1911 47.8571 19.3402C47.5853 19.486 47.3699 19.6899 47.2108 19.9517C47.0517 20.2102 46.9721 20.5052 46.9721 20.8366V25.5H45.4856ZM53.0126 25.669C52.5287 25.669 52.0912 25.5795 51.7001 25.4006C51.309 25.2183 50.9991 24.9548 50.7704 24.6101C50.545 24.2654 50.4324 23.8428 50.4324 23.3423C50.4324 22.9115 50.5152 22.5568 50.6809 22.2784C50.8467 22 51.0704 21.7796 51.3521 21.6172C51.6338 21.4548 51.9487 21.3321 52.2967 21.2493C52.6447 21.1664 52.9993 21.1035 53.3606 21.0604C53.818 21.0073 54.1892 20.9643 54.4743 20.9311C54.7593 20.8946 54.9664 20.8366 55.0957 20.7571C55.225 20.6776 55.2896 20.5483 55.2896 20.3693V20.3345C55.2896 19.9003 55.167 19.5639 54.9217 19.3253C54.6797 19.0866 54.3185 18.9673 53.8379 18.9673C53.3374 18.9673 52.943 19.0784 52.6547 19.3004C52.3696 19.5192 52.1724 19.7628 52.063 20.0312L50.666 19.7131C50.8317 19.2491 51.0737 18.8745 51.3919 18.5895C51.7134 18.3011 52.0829 18.0923 52.5005 17.9631C52.9181 17.8305 53.3573 17.7642 53.818 17.7642C54.1229 17.7642 54.4461 17.8007 54.7875 17.8736C55.1322 17.9432 55.4537 18.0724 55.752 18.2614C56.0536 18.4503 56.3005 18.7204 56.4927 19.0717C56.685 19.4197 56.7811 19.8722 56.7811 20.429V25.5H55.3294V24.456H55.2697C55.1736 24.6482 55.0294 24.8371 54.8372 25.0227C54.6449 25.2083 54.398 25.3625 54.0964 25.4851C53.7948 25.6077 53.4335 25.669 53.0126 25.669ZM53.3358 24.4759C53.7467 24.4759 54.0981 24.3946 54.3897 24.2322C54.6847 24.0698 54.9084 23.8577 55.0609 23.5959C55.2167 23.3307 55.2946 23.0473 55.2946 22.7457V21.7614C55.2415 21.8144 55.1388 21.8641 54.9863 21.9105C54.8372 21.9536 54.6665 21.9917 54.4743 22.0249C54.282 22.0547 54.0948 22.0829 53.9125 22.1094C53.7302 22.1326 53.5777 22.1525 53.4551 22.169C53.1667 22.2055 52.9032 22.2668 52.6646 22.353C52.4293 22.4392 52.2404 22.5634 52.0978 22.7259C51.9586 22.8849 51.889 23.0971 51.889 23.3622C51.889 23.7301 52.0249 24.0085 52.2967 24.1974C52.5685 24.383 52.9148 24.4759 53.3358 24.4759ZM61.6197 25.6491C61.0032 25.6491 60.453 25.4917 59.9691 25.1768C59.4885 24.8587 59.1107 24.4062 58.8356 23.8196C58.5638 23.2296 58.4279 22.522 58.4279 21.6967C58.4279 20.8714 58.5655 20.1655 58.8406 19.5788C59.119 18.9922 59.5001 18.5431 59.984 18.2315C60.4679 17.92 61.0165 17.7642 61.6296 17.7642C62.1036 17.7642 62.4847 17.8438 62.7731 18.0028C63.0647 18.1586 63.2901 18.3409 63.4492 18.5497C63.6116 18.7585 63.7376 18.9425 63.8271 19.1016H63.9165V15.3182H65.4031V25.5H63.9513V24.3118H63.8271C63.7376 24.4742 63.6083 24.6598 63.4393 24.8686C63.2736 25.0774 63.0449 25.2597 62.7532 25.4155C62.4615 25.5713 62.0837 25.6491 61.6197 25.6491ZM61.9478 24.3814C62.3754 24.3814 62.7366 24.2687 63.0316 24.0433C63.3299 23.8146 63.5553 23.4981 63.7077 23.0938C63.8635 22.6894 63.9414 22.2187 63.9414 21.6818C63.9414 21.1515 63.8652 20.6875 63.7127 20.2898C63.5603 19.892 63.3365 19.5821 63.0415 19.3601C62.7466 19.138 62.382 19.027 61.9478 19.027C61.5004 19.027 61.1275 19.143 60.8292 19.375C60.5309 19.607 60.3055 19.9235 60.1531 20.3246C60.0039 20.7256 59.9293 21.178 59.9293 21.6818C59.9293 22.1922 60.0056 22.6513 60.158 23.0589C60.3105 23.4666 60.5359 23.7898 60.8342 24.0284C61.1358 24.2637 61.507 24.3814 61.9478 24.3814ZM72.362 22.3331V17.8636H73.8535V25.5H72.3919V24.1776H72.3123C72.1367 24.5852 71.8549 24.925 71.4672 25.1967C71.0827 25.4652 70.6038 25.5994 70.0304 25.5994C69.5398 25.5994 69.1056 25.4917 68.7278 25.2763C68.3533 25.0575 68.0583 24.7344 67.8429 24.3068C67.6307 23.8793 67.5247 23.3506 67.5247 22.7209V17.8636H69.0112V22.5419C69.0112 23.0623 69.1554 23.4766 69.4437 23.7848C69.7321 24.093 70.1066 24.2472 70.5673 24.2472C70.8457 24.2472 71.1225 24.1776 71.3975 24.0384C71.676 23.8991 71.9063 23.6887 72.0886 23.407C72.2742 23.1252 72.3654 22.7673 72.362 22.3331ZM78.0732 25.669C77.5893 25.669 77.1518 25.5795 76.7607 25.4006C76.3696 25.2183 76.0597 24.9548 75.831 24.6101C75.6056 24.2654 75.4929 23.8428 75.4929 23.3423C75.4929 22.9115 75.5758 22.5568 75.7415 22.2784C75.9072 22 76.1309 21.7796 76.4126 21.6172C76.6944 21.4548 77.0092 21.3321 77.3572 21.2493C77.7053 21.1664 78.0599 21.1035 78.4212 21.0604C78.8786 21.0073 79.2498 20.9643 79.5348 20.9311C79.8198 20.8946 80.027 20.8366 80.1562 20.7571C80.2855 20.6776 80.3501 20.5483 80.3501 20.3693V20.3345C80.3501 19.9003 80.2275 19.5639 79.9822 19.3253C79.7403 19.0866 79.379 18.9673 78.8984 18.9673C78.398 18.9673 78.0036 19.0784 77.7152 19.3004C77.4302 19.5192 77.233 19.7628 77.1236 20.0312L75.7266 19.7131C75.8923 19.2491 76.1342 18.8745 76.4524 18.5895C76.7739 18.3011 77.1435 18.0923 77.5611 17.9631C77.9787 17.8305 78.4179 17.7642 78.8786 17.7642C79.1835 17.7642 79.5066 17.8007 79.848 17.8736C80.1927 17.9432 80.5142 18.0724 80.8125 18.2614C81.1141 18.4503 81.361 18.7204 81.5533 19.0717C81.7455 19.4197 81.8416 19.8722 81.8416 20.429V25.5H80.3899V24.456H80.3303C80.2341 24.6482 80.09 24.8371 79.8977 25.0227C79.7055 25.2083 79.4586 25.3625 79.157 25.4851C78.8554 25.6077 78.4941 25.669 78.0732 25.669ZM78.3963 24.4759C78.8073 24.4759 79.1586 24.3946 79.4503 24.2322C79.7453 24.0698 79.969 23.8577 80.1214 23.5959C80.2772 23.3307 80.3551 23.0473 80.3551 22.7457V21.7614C80.3021 21.8144 80.1993 21.8641 80.0469 21.9105C79.8977 21.9536 79.727 21.9917 79.5348 22.0249C79.3426 22.0547 79.1553 22.0829 78.973 22.1094C78.7907 22.1326 78.6383 22.1525 78.5156 22.169C78.2273 22.2055 77.9638 22.2668 77.7251 22.353C77.4898 22.4392 77.3009 22.5634 77.1584 22.7259C77.0192 22.8849 76.9496 23.0971 76.9496 23.3622C76.9496 23.7301 77.0855 24.0085 77.3572 24.1974C77.629 24.383 77.9754 24.4759 78.3963 24.4759ZM87.3862 17.8636V19.0568H83.215V17.8636H87.3862ZM84.3336 16.0341H85.8201V23.2578C85.8201 23.5462 85.8632 23.7633 85.9494 23.9091C86.0356 24.0516 86.1466 24.1494 86.2825 24.2024C86.4217 24.2521 86.5725 24.277 86.7349 24.277C86.8542 24.277 86.9586 24.2687 87.0481 24.2521C87.1376 24.2356 87.2072 24.2223 87.2569 24.2124L87.5254 25.4403C87.4392 25.4735 87.3166 25.5066 87.1575 25.5398C86.9984 25.5762 86.7995 25.5961 86.5609 25.5994C86.1698 25.6061 85.8052 25.5365 85.4672 25.3906C85.1291 25.2448 84.8556 25.0194 84.6468 24.7145C84.438 24.4096 84.3336 24.0268 84.3336 23.5661V16.0341ZM92.2397 25.6541C91.4873 25.6541 90.8394 25.4934 90.2958 25.1719C89.7556 24.8471 89.3379 24.3913 89.043 23.8047C88.7513 23.2147 88.6055 22.5237 88.6055 21.7315C88.6055 20.9493 88.7513 20.2599 89.043 19.6634C89.3379 19.0668 89.7489 18.6011 90.2759 18.2663C90.8062 17.9316 91.426 17.7642 92.1353 17.7642C92.5662 17.7642 92.9838 17.8355 93.3881 17.978C93.7925 18.1205 94.1554 18.3442 94.4769 18.6491C94.7984 18.9541 95.052 19.3501 95.2376 19.8374C95.4232 20.3213 95.516 20.9096 95.516 21.6023V22.1293H89.4457V21.0156H94.0593C94.0593 20.6245 93.9798 20.2782 93.8207 19.9766C93.6616 19.6716 93.4379 19.4313 93.1495 19.2557C92.8645 19.08 92.5297 18.9922 92.1452 18.9922C91.7276 18.9922 91.363 19.0949 91.0515 19.3004C90.7433 19.5026 90.5046 19.7678 90.3356 20.0959C90.1699 20.4207 90.087 20.7737 90.087 21.1548V22.0249C90.087 22.5353 90.1765 22.9695 90.3555 23.3274C90.5378 23.6854 90.7913 23.9588 91.1161 24.1477C91.4409 24.3333 91.8204 24.4261 92.2546 24.4261C92.5363 24.4261 92.7932 24.3864 93.0252 24.3068C93.2572 24.224 93.4577 24.1013 93.6268 23.9389C93.7958 23.7765 93.9251 23.576 94.0146 23.3374L95.4215 23.5909C95.3088 24.0052 95.1067 24.3681 94.815 24.6797C94.5266 24.9879 94.1637 25.2282 93.7262 25.4006C93.292 25.5696 92.7965 25.6541 92.2397 25.6541ZM100.024 25.6491C99.4075 25.6491 98.8573 25.4917 98.3734 25.1768C97.8928 24.8587 97.515 24.4062 97.2399 23.8196C96.9681 23.2296 96.8322 22.522 96.8322 21.6967C96.8322 20.8714 96.9698 20.1655 97.2449 19.5788C97.5233 18.9922 97.9044 18.5431 98.3883 18.2315C98.8722 17.92 99.4208 17.7642 100.034 17.7642C100.508 17.7642 100.889 17.8438 101.177 18.0028C101.469 18.1586 101.694 18.3409 101.854 18.5497C102.016 18.7585 102.142 18.9425 102.231 19.1016H102.321V15.3182H103.807V25.5H102.356V24.3118H102.231C102.142 24.4742 102.013 24.6598 101.844 24.8686C101.678 25.0774 101.449 25.2597 101.157 25.4155C100.866 25.5713 100.488 25.6491 100.024 25.6491ZM100.352 24.3814C100.78 24.3814 101.141 24.2687 101.436 24.0433C101.734 23.8146 101.96 23.4981 102.112 23.0938C102.268 22.6894 102.346 22.2187 102.346 21.6818C102.346 21.1515 102.269 20.6875 102.117 20.2898C101.965 19.892 101.741 19.5821 101.446 19.3601C101.151 19.138 100.786 19.027 100.352 19.027C99.9047 19.027 99.5318 19.143 99.2335 19.375C98.9352 19.607 98.7098 19.9235 98.5574 20.3246C98.4082 20.7256 98.3336 21.178 98.3336 21.6818C98.3336 22.1922 98.4099 22.6513 98.5623 23.0589C98.7148 23.4666 98.9402 23.7898 99.2385 24.0284C99.5401 24.2637 99.9113 24.3814 100.352 24.3814Z" fill="#08091D"/>
</svg>
