<svg width="305" height="182" viewBox="0 0 305 182" fill="none" xmlns="http://www.w3.org/2000/svg">
<g clip-path="url(#clip0_4741_6090)">
<path d="M235.147 89.581C233.726 88.6736 232.876 87.1157 232.876 85.4337V85.408C232.876 47.928 193.086 17.5486 144 17.5486C94.9143 17.5486 55.1237 47.9323 55.1237 85.408C55.1237 86.3239 55.1537 87.2398 55.201 88.1472C39.0108 97.6145 28.5651 112.526 28.5651 129.299C28.5651 157.911 58.9448 181.109 96.417 181.109C106.15 181.109 115.402 179.542 123.77 176.726C136.877 172.309 151.118 172.309 164.222 176.726C172.589 179.547 181.841 181.109 191.574 181.109C229.047 181.109 259.426 157.915 259.426 129.299C259.426 113.352 249.985 99.0869 235.139 89.5853L235.147 89.581Z" fill="#E6F0FB"/>
<path d="M35.3701 159.14C37.418 174.304 51.4057 184.948 66.6213 182.906C64.5777 167.742 50.5857 157.098 35.3701 159.14Z" fill="#165A7F"/>
<path d="M52.127 146.766C45.9403 160.77 52.3116 177.124 66.3594 183.292C72.5461 169.287 66.1748 152.934 52.127 146.766Z" fill="#1C77B5"/>
<path d="M240.523 179.392C240.523 179.392 249.977 173.987 246.671 160.804" stroke="#1B7BBC" stroke-miterlimit="10"/>
<path d="M247.869 159.598C248.161 160.394 247.753 161.275 246.954 161.566C246.156 161.857 245.271 161.451 244.979 160.655C244.687 159.859 245.095 158.977 245.894 158.686C246.692 158.395 247.577 158.801 247.869 159.598Z" fill="#EDCB3A"/>
<path d="M241.313 178.798C241.313 178.798 252.192 178.156 255.124 164.888" stroke="#1B7BBC" stroke-miterlimit="10"/>
<path d="M256.739 164.335C256.644 165.179 255.884 165.786 255.039 165.692C254.193 165.598 253.583 164.841 253.678 163.997C253.772 163.154 254.532 162.546 255.378 162.641C256.223 162.735 256.833 163.492 256.739 164.335Z" fill="#EDCB3A"/>
<path d="M122.761 178.455C121.7 178.455 120.713 178.759 119.867 179.273C118.03 174.543 113.504 171.149 108.164 170.948C104.175 165.628 97.8081 162.183 90.6339 162.183C84.3742 162.183 78.7285 164.811 74.7443 169.013C74.0187 168.906 73.2759 168.851 72.5203 168.851C66.8402 168.851 61.8943 171.962 59.2883 176.563C58.7173 176.426 58.1248 176.354 57.5151 176.354C53.2862 176.354 49.8601 179.769 49.8601 183.985H128.312C128.312 180.929 125.826 178.451 122.761 178.451V178.455Z" fill="#83A9FF"/>
<path d="M217.93 115.56C216.629 127.527 211.224 132.56 202.19 120.341" stroke="#FFB692" stroke-width="9" stroke-miterlimit="10"/>
<path d="M203.869 122.374C206.716 121.329 204.475 117.541 204.475 117.541L204.887 114.498C204.887 114.498 202.152 114.25 202.384 116.985C202.384 116.985 199.838 114.057 198.15 114.002C197.36 113.976 195.051 116.001 194.454 117.533C194.325 117.858 194.493 118.222 194.823 118.337C195.613 118.62 197.129 119.339 197.953 120.876C199.099 123.016 201.787 125.215 203.869 122.369V122.374Z" fill="#FFB692"/>
<path d="M202.384 116.985C202.384 116.985 200.585 118.346 201.602 120.764C201.602 120.764 201.078 118.483 202.495 117.118L202.379 116.985H202.384Z" fill="#D88D87"/>
<path d="M199.194 120.152C199.194 120.152 199.881 118.462 201.328 117.344C201.328 117.344 199.357 117.477 199.194 120.152Z" fill="#D88D87"/>
<path d="M199.473 119.519L199.516 119.377C199.516 119.377 197.18 117.34 194.608 117.203C194.583 117.25 194.561 117.293 194.54 117.34C195.506 117.494 197.773 117.995 199.473 119.519Z" fill="#D88D87"/>
<path d="M200.572 117.777L200.778 117.653C200.778 117.653 199.155 115.012 196.837 114.674C196.377 115.029 195.884 115.496 195.454 115.992C196.197 116.129 198.369 116.681 199.872 118.586L200.005 118.457C200.005 118.457 198.382 115.795 195.729 115.765L196.648 114.828C196.648 114.828 199.116 115.277 200.572 117.773V117.777Z" fill="#D88D87"/>
<path d="M222.828 120.341L224.116 112.855C224.374 110.736 222.859 108.81 220.729 108.553C218.6 108.297 216.663 109.803 216.406 111.922L215.118 119.407L222.833 120.341H222.828Z" fill="#1B7BBC"/>
<path d="M90.8099 37.2836L90.8099 170.426C90.8099 177.647 96.6822 183.501 103.926 183.501H184.078C191.322 183.501 197.194 177.647 197.194 170.426V37.2836C197.194 30.0623 191.322 24.2082 184.078 24.2082H103.926C96.6822 24.2082 90.8099 30.0623 90.8099 37.2836Z" fill="#C0D4FF"/>
<path d="M103.213 25.6421H184.787C190.84 25.6421 195.756 30.5427 195.756 36.5775V171.136C195.756 177.171 190.84 182.072 184.787 182.072H103.213C97.1598 182.072 92.2439 177.171 92.2439 171.136V36.5732C92.2439 30.5384 97.1598 25.6378 103.213 25.6378V25.6421Z" fill="#19283B"/>
<path d="M102.153 29.6995H186.208C188.754 29.6995 190.823 31.7624 190.823 34.3005V173.409C190.823 175.947 188.754 178.01 186.208 178.01H102.153C99.607 178.01 97.5376 175.947 97.5376 173.409V34.3005C97.5376 31.7624 99.607 29.6995 102.153 29.6995Z" fill="white"/>
<path d="M142.759 98.4877H114.106C111.507 98.4877 109.4 100.588 109.4 103.179V140.213C109.4 142.804 111.507 144.904 114.106 144.904H142.759C145.358 144.904 147.465 142.804 147.465 140.213V103.179C147.465 100.588 145.358 98.4877 142.759 98.4877Z" fill="#F8A70D"/>
<path d="M143.571 103.992H113.294V104.724H143.571V103.992Z" fill="white"/>
<path d="M143.571 107.39H113.294V108.122H143.571V107.39Z" fill="white"/>
<path d="M143.571 110.788H113.294V111.52H143.571V110.788Z" fill="white"/>
<path d="M143.571 114.191H113.294V114.923H143.571V114.191Z" fill="white"/>
<path d="M143.571 117.589H113.294V118.321H143.571V117.589Z" fill="white"/>
<path d="M143.571 120.988H113.294V121.72H143.571V120.988Z" fill="white"/>
<path d="M143.571 124.39H113.294V125.122H143.571V124.39Z" fill="white"/>
<path d="M143.571 127.789H113.294V128.52H143.571V127.789Z" fill="white"/>
<path d="M143.571 131.187H113.294V131.919H143.571V131.187Z" fill="white"/>
<path d="M143.571 134.589H113.294V135.321H143.571V134.589Z" fill="white"/>
<path d="M128.432 137.988H113.294V138.72H128.432V137.988Z" fill="white"/>
<path d="M118.094 86.4095H103.917C102.334 86.4095 101.049 87.6896 101.049 89.2686V104.835C101.049 106.414 102.334 107.694 103.917 107.694H118.094C119.678 107.694 120.962 106.414 120.962 104.835V89.2686C120.962 87.6896 119.678 86.4095 118.094 86.4095Z" fill="#0E5EA0"/>
<path d="M117.204 98.5253C118.017 95.1148 115.903 91.6929 112.481 90.8823C109.06 90.0717 105.628 92.1793 104.815 95.5898C104.002 99.0003 106.116 102.422 109.537 103.233C112.958 104.043 116.39 101.936 117.204 98.5253Z" stroke="white" stroke-miterlimit="10"/>
<path d="M111.006 97.0539L110.628 103.393C107.283 103.196 104.634 100.397 104.634 97.0539C104.634 93.7112 107.511 90.7067 111.001 90.7067C114.492 90.7067 117.368 93.5743 117.368 97.0539H111.001H111.006Z" stroke="white" stroke-miterlimit="10"/>
<path d="M111.006 97.0539L112.294 90.8351C113.728 91.1304 115.016 91.9094 115.943 93.0436C116.866 94.1778 117.373 95.5944 117.373 97.0539H111.006Z" stroke="white" stroke-miterlimit="10"/>
<path d="M162.109 136.588H152.758V144.549H162.109V136.588Z" fill="#DD2A2B"/>
<path d="M174.324 126.038H164.973V144.549H174.324V126.038Z" fill="#F8A70D"/>
<path d="M186.534 115.441H177.183V144.545H186.534V115.441Z" fill="#25C548"/>
<path d="M186.809 149.959H101.195V171.667H186.809V149.959Z" fill="#E6F0FB"/>
<path d="M186.805 91.2887H152.758V96.3733H186.805V91.2887Z" fill="#1B7BBC"/>
<path d="M186.805 82.7501H169.781V87.8348H186.805V82.7501Z" fill="#1B7BBC"/>
<path d="M186.805 99.7673H152.758V104.852H186.805V99.7673Z" fill="#1B7BBC"/>
<path d="M164.369 65.2756C167.025 54.058 160.056 42.818 148.803 40.1705C137.551 37.5229 126.276 44.4702 123.62 55.6878C120.964 66.9054 127.933 78.1453 139.186 80.7929C150.438 83.4405 161.713 76.4931 164.369 65.2756Z" fill="#F8A70D"/>
<path d="M144 60.4856H164.934C164.934 71.9346 155.485 81.3549 144 81.3549C136.13 81.3549 128.9 76.9336 125.337 69.9401L144 60.4856Z" fill="#0267D9"/>
<path d="M144 60.4855L141.016 39.8302C142.004 39.689 143.004 39.6162 144 39.6162C155.485 39.6162 164.934 49.0365 164.934 60.4855H144Z" fill="#DD2A2B"/>
<path d="M144 60.4856H164.934C164.934 64.4232 163.818 68.2795 161.71 71.6136C159.602 74.9434 156.597 77.6142 153.033 79.3133L144 60.4856Z" fill="#25C548"/>
<path d="M159.564 64.1449C161.593 55.573 156.268 46.984 147.669 44.9608C139.071 42.9376 130.455 48.2465 128.425 56.8184C126.396 65.3903 131.721 73.9793 140.32 76.0025C148.919 78.0256 157.534 72.7168 159.564 64.1449Z" fill="white"/>
<path d="M159.559 50.0509H166.235L171.851 44.4526H180.931" stroke="#83A9FF" stroke-miterlimit="10"/>
<path d="M180.927 40.8232H171.134V42.3469H180.927V40.8232Z" fill="#83A9FF"/>
<path d="M159.559 71.849H166.235L171.851 66.2507H180.931" stroke="#83A9FF" stroke-miterlimit="10"/>
<path d="M180.927 62.6213H171.134V64.145H180.927V62.6213Z" fill="#83A9FF"/>
<path d="M128.441 50.0509H121.765L116.149 44.4526H107.069" stroke="#83A9FF" stroke-miterlimit="10"/>
<path d="M107.073 42.3469H116.866V40.8232H107.073V42.3469Z" fill="#83A9FF"/>
<path d="M128.441 71.8489H121.765L116.149 66.2506H107.069" stroke="#83A9FF" stroke-miterlimit="10"/>
<path d="M107.073 64.1406H116.866V62.6169H107.073V64.1406Z" fill="#83A9FF"/>
<path d="M108.035 160.813H103.591V168.988H108.035V160.813Z" fill="#ABC9FF"/>
<path d="M114.981 165.829H110.538V168.988H114.981V165.829Z" fill="#ABC9FF"/>
<path d="M121.924 163.454H117.48V168.992H121.924V163.454Z" fill="#ABC9FF"/>
<path d="M128.866 156.512H124.422V168.992H128.866V156.512Z" fill="#ABC9FF"/>
<path d="M135.808 159.837H131.365V168.988H135.808V159.837Z" fill="#ABC9FF"/>
<path d="M142.751 155.75H138.307V168.992H142.751V155.75Z" fill="#ABC9FF"/>
<path d="M149.693 152.326H145.249V168.992H149.693V152.326Z" fill="#ABC9FF"/>
<path d="M156.635 164.785H152.192V168.992H156.635V164.785Z" fill="#ABC9FF"/>
<path d="M163.578 155.75H159.134V168.992H163.578V155.75Z" fill="#ABC9FF"/>
<path d="M170.52 158.699H166.076V168.992H170.52V158.699Z" fill="#ABC9FF"/>
<path d="M177.467 163.454H173.023V168.992H177.467V163.454Z" fill="#ABC9FF"/>
<path d="M184.409 152.326H179.965V168.992H184.409V152.326Z" fill="#ABC9FF"/>
<path d="M248.199 178.455C247.139 178.455 246.151 178.759 245.306 179.273C243.468 174.543 238.943 171.149 233.602 170.948C229.613 165.628 223.246 162.183 216.072 162.183C209.813 162.183 204.167 164.811 200.183 169.013C199.457 168.906 198.714 168.851 197.959 168.851C192.279 168.851 187.333 171.962 184.727 176.563C184.156 176.426 183.563 176.354 182.953 176.354C178.729 176.354 175.298 179.769 175.298 183.985H253.751C253.751 180.929 251.265 178.451 248.199 178.451V178.455Z" fill="#83A9FF"/>
<path d="M223.666 144.274V209.557" stroke="#284159" stroke-width="13" stroke-miterlimit="10"/>
<path d="M231.093 133.258H225.598C221.531 133.258 218.234 136.544 218.234 140.598V140.602C218.234 144.656 221.531 147.942 225.598 147.942H231.093C235.16 147.942 238.456 144.656 238.456 140.602V140.598C238.456 136.544 235.16 133.258 231.093 133.258Z" fill="#284159"/>
<path d="M232.66 144.274V209.557" stroke="#284159" stroke-width="13" stroke-miterlimit="10"/>
<path d="M241.414 117.691H233.806C229.088 117.691 225.267 113.878 225.267 109.178V97.3826C225.267 94.4123 227.684 92.0027 230.664 92.0027C236.601 92.0027 241.418 96.8006 241.418 102.724V117.696L241.414 117.691Z" fill="#875330"/>
<path d="M227.014 101.059H227.894C233.617 101.059 238.254 96.4367 238.254 90.7315C238.254 85.0262 233.617 80.4038 227.894 80.4038H227.014C221.291 80.4038 216.655 85.0262 216.655 90.7315C216.655 96.4367 221.291 101.059 227.014 101.059Z" fill="#875330"/>
<path d="M216.77 137.799C218.801 138.787 222.549 140.285 227.474 140.435C232.518 140.585 236.43 139.25 238.525 138.359C237.761 135.025 236.992 131.687 236.228 128.353L238.018 114.451C238.113 110.895 236.417 107.963 232.849 107.869L225.894 107.689C221.291 107.569 218.9 109.174 218.78 113.762L219.574 128.408L216.775 137.799H216.77Z" fill="#0E5EA0"/>
<path d="M233.334 108.832C233.454 110.638 231.093 112.268 228.062 112.47C225.031 112.671 222.476 111.365 222.356 109.559C222.236 107.753 224.597 106.122 227.628 105.921C230.659 105.72 233.214 107.025 233.334 108.832Z" fill="#FFB692"/>
<path d="M230.35 85.0948H224.941C224.812 85.0948 224.705 84.9878 224.705 84.8594C224.705 84.731 224.812 84.624 224.941 84.624H230.35C230.479 84.624 230.586 84.731 230.586 84.8594C230.586 84.9878 230.479 85.0948 230.35 85.0948Z" fill="#D88D87"/>
<path d="M236.082 97.4768H219.209C218.406 97.4768 217.754 96.8262 217.754 96.0259C217.754 95.2255 218.406 94.575 219.209 94.575H236.082C236.885 94.575 237.537 95.2255 237.537 96.0259C237.537 96.8262 236.885 97.4768 236.082 97.4768Z" fill="#D88D87"/>
<path d="M218.518 96.0259C218.518 95.645 218.827 95.3325 219.213 95.3325H236.086C236.468 95.3325 236.782 95.6407 236.782 96.0259C236.782 96.4068 236.473 96.7192 236.086 96.7192H219.213C218.831 96.7192 218.518 96.4111 218.518 96.0259Z" fill="#AA635F"/>
<path d="M227.645 93.9929C225.151 93.9929 223.129 96.0088 223.129 98.4955V110.681H232.158V98.4955C232.158 96.0088 230.136 93.9929 227.641 93.9929H227.645Z" fill="#FFB692"/>
<path d="M223.133 95.7562V103.439C223.133 105.926 225.155 107.941 227.65 107.941C230.144 107.941 232.166 105.926 232.166 103.439V95.7562" fill="#D88D87"/>
<path d="M227.645 106.084C225.778 106.084 220.274 103.88 220.274 99.3985L219.51 90.9712C219.51 86.6784 223 83.1945 227.311 83.1945H227.98C232.287 83.1945 235.781 86.6741 235.781 90.9712L235.017 99.3985C235.017 103.875 230.299 106.084 227.645 106.084Z" fill="#FFB692"/>
<path d="M225.611 100.131C226.409 99.9379 227.521 99.6169 228.556 99.1247C229.234 98.7994 229.917 99.6426 229.608 100.434C229.277 101.278 228.642 102.095 227.431 102.3C226.435 102.467 225.774 102.253 225.34 101.915C224.722 101.436 224.898 100.297 225.611 100.131Z" fill="#34344F"/>
<path d="M227.431 102.3C228.646 102.095 229.277 101.282 229.608 100.434C229.655 100.314 229.676 100.195 229.681 100.079C229.23 99.9164 228.646 99.8864 227.882 100.113C226.705 100.468 226.186 101.359 225.971 102.236C225.971 102.236 225.971 102.236 225.971 102.24C226.353 102.36 226.83 102.399 227.427 102.296L227.431 102.3Z" fill="#FF9292"/>
<path d="M226.765 101.35C226.903 101.547 227.362 101.474 227.791 101.196C228.221 100.914 228.461 100.524 228.324 100.332C228.186 100.135 227.727 100.203 227.298 100.486C226.868 100.768 226.628 101.158 226.765 101.35Z" fill="#FFABAB"/>
<path d="M225.61 100.13C226.409 99.9378 227.521 99.6168 228.556 99.1246C228.972 98.9234 229.393 99.1674 229.582 99.5654C228.998 100.173 228.079 100.7 226.98 100.986C226.276 101.17 225.585 101.235 224.966 101.196C224.924 100.725 225.164 100.237 225.61 100.13Z" fill="white"/>
<path d="M223.812 94.2197H222.013C221.605 94.2197 221.27 94.5493 221.27 94.9602C221.27 95.371 221.6 95.7006 222.013 95.7006H223.812C224.219 95.7006 224.554 95.371 224.554 94.9602C224.554 94.5493 224.224 94.2197 223.812 94.2197Z" fill="#D88D87"/>
<path d="M231.892 94.2197H230.093C229.685 94.2197 229.35 94.5493 229.35 94.9602C229.35 95.371 229.681 95.7006 230.093 95.7006H231.892C232.299 95.7006 232.634 95.371 232.634 94.9602C232.634 94.5493 232.304 94.2197 231.892 94.2197Z" fill="#D88D87"/>
<path d="M232.355 92.9828L230.707 92.4649C230.346 92.3493 229.96 92.5505 229.844 92.91C229.728 93.2696 229.93 93.6547 230.29 93.7703L231.939 94.2882C232.299 94.4038 232.686 94.2026 232.802 93.8431C232.918 93.4835 232.716 93.0984 232.355 92.9828Z" fill="#442D1E"/>
<path d="M223.61 92.4649L221.961 92.9828C221.6 93.0984 221.399 93.4793 221.515 93.8431C221.63 94.2026 222.013 94.4038 222.378 94.2882L224.026 93.7703C224.387 93.6547 224.589 93.2738 224.473 92.91C224.357 92.5505 223.975 92.3493 223.61 92.4649Z" fill="#442D1E"/>
<path d="M229.294 103.91C229.328 104.338 228.526 104.753 227.499 104.838C226.473 104.924 225.61 104.642 225.576 104.214C225.542 103.786 226.345 103.37 227.371 103.285C228.397 103.199 229.26 103.482 229.294 103.91Z" fill="#D88D87"/>
<path d="M222.91 94.5022C222.373 94.5022 221.94 94.9345 221.94 95.4695C221.94 96.0045 222.373 96.4368 222.91 96.4368C223.447 96.4368 223.88 96.0045 223.88 95.4695C223.88 94.9345 223.447 94.5022 222.91 94.5022Z" fill="#252538"/>
<path d="M230.256 94.5022C229.719 94.5022 229.286 94.9345 229.286 95.4695C229.286 96.0045 229.719 96.4368 230.256 96.4368C230.792 96.4368 231.226 96.0045 231.226 95.4695C231.226 94.9345 230.792 94.5022 230.256 94.5022Z" fill="#252538"/>
<path d="M231.02 95.4138L231.939 94.5022H230.23L231.02 95.4138Z" fill="#252538"/>
<path d="M221.991 95.4138L222.91 94.5022H221.205L221.991 95.4138Z" fill="#252538"/>
<path d="M226.585 100.203C226.005 100.203 225.537 99.7367 225.537 99.1589V95.1785C225.537 94.6007 226.005 94.1342 226.585 94.1342C227.165 94.1342 227.633 94.6007 227.633 95.1785V99.1589C227.633 99.7367 227.165 100.203 226.585 100.203Z" fill="#D88D87"/>
<path d="M227.1 99.497C226.941 99.497 226.817 99.3686 226.817 99.2145V95.1185C226.817 94.9602 226.946 94.8361 227.1 94.8361C227.259 94.8361 227.384 94.9645 227.384 95.1185V99.2145C227.384 99.3729 227.255 99.497 227.1 99.497Z" fill="#F79C97"/>
<path d="M224.43 80.7291C225.258 80.5151 226.126 80.4038 227.019 80.4038H227.899C233.622 80.4038 238.259 85.0262 238.259 90.7315C238.259 90.9027 238.254 91.0739 238.246 91.2451H237.177C230.84 91.2451 225.568 86.7168 224.434 80.7291H224.43Z" fill="#875330"/>
<path d="M216.543 95.3368H218.81C223.563 95.3368 227.418 91.4933 227.418 86.7554V84.4228C227.418 81.4268 224.984 79 221.978 79C218.973 79 216.539 81.4268 216.539 84.4228V95.3368H216.543Z" fill="#875330"/>
<path d="M227.422 83.8236V84.7952C227.422 89.5331 223.567 93.3766 218.814 93.3766H216.547V92.405H218.814C223.567 92.405 227.422 88.5616 227.422 83.8236Z" fill="#A3653B"/>
<path d="M227.422 81.0459V82.0175C227.422 86.7554 223.567 90.5989 218.814 90.5989H216.547V89.6273H218.814C223.567 89.6273 227.422 85.7839 227.422 81.0459Z" fill="#A3653B"/>
<path d="M193.953 83.8844H209.413V62.6342H193.953V83.8844Z" fill="#5E8BEF"/>
<path d="M197.692 54.3267L200.784 57.3954V75.5726H185.323V54.3267H197.692Z" fill="#83A9FF"/>
<path d="M200.784 57.3954H197.675L197.692 54.3267L200.784 57.3954Z" fill="#5E8BEF"/>
<path d="M187.144 60.1047H198.963V59.6981H187.144V60.1047Z" fill="white"/>
<path d="M187.144 61.5728H198.963V61.1661H187.144V61.5728Z" fill="white"/>
<path d="M187.144 63.0408H198.963V62.6342H187.144V63.0408Z" fill="white"/>
<path d="M187.144 64.5088H198.963V64.1022H187.144V64.5088Z" fill="white"/>
<path d="M187.144 65.9769H198.963V65.5703H187.144V65.9769Z" fill="white"/>
<path d="M187.144 67.4449H198.963V67.0383H187.144V67.4449Z" fill="white"/>
<path d="M187.144 68.913H193.154V68.5064H187.144V68.913Z" fill="white"/>
<path d="M289.265 64.2121C289.158 64.2121 289.055 64.2249 288.947 64.2292C287.638 58.3784 282.404 54 276.136 54C269.868 54 264.634 58.3742 263.325 64.2292C263.217 64.2292 263.114 64.2121 263.007 64.2121C258.585 64.2121 255 67.7859 255 72.1943C255 76.6027 258.585 80.1765 263.007 80.1765H289.265C293.687 80.1765 297.272 76.6027 297.272 72.1943C297.272 67.7859 293.687 64.2121 289.265 64.2121Z" fill="#0267D9"/>
<path d="M271.345 69.4807L276.136 75.5583L280.932 69.4807H278.132V62.8125H274.402V69.4807H271.345Z" fill="white"/>
<path d="M229.737 119.377H185V147.133H229.737V119.377Z" fill="#83A9FF"/>
<path d="M188.04 122.331V145.64" stroke="white" stroke-miterlimit="10"/>
<path d="M186.455 143.932H227.543" stroke="white" stroke-miterlimit="10"/>
<path d="M190.676 141.496C198.691 124.282 204.32 135.599 207.944 139.215C211.567 142.828 214.594 128.562 219.664 126.85C224.735 125.138 227.882 134.648 227.882 134.648" stroke="white" stroke-miterlimit="10"/>
<path d="M239.049 119.104C247.863 132.277 237.537 146.624 221.802 142.083" stroke="#FFB692" stroke-width="4" stroke-miterlimit="10"/>
<path d="M236.065 123.11L231.836 116.078C230.745 114.045 231.514 111.519 233.553 110.432C235.593 109.345 238.126 110.111 239.216 112.144L243.445 119.176L236.069 123.11H236.065Z" fill="#1B7BBC"/>
<path d="M224.537 142.391C226.443 139.981 222.485 137.889 222.485 137.889L221.218 135.038C221.218 135.038 218.72 136.275 220.377 138.518C220.377 138.518 217.633 138.043 216.191 136.545C214.431 134.717 213.177 140.559 214.332 142.862C214.959 144.112 216.985 143.611 218.518 144.505C220.652 145.751 224.25 145.956 224.537 142.391Z" fill="#FFB692"/>
<path d="M219.02 141.428L218.982 141.651C218.982 141.651 215.981 141.488 213.898 140.084C213.903 139.947 213.911 139.81 213.924 139.673C214.705 140.315 216.29 141.248 219.025 141.428H219.02Z" fill="#D88D87"/>
<path d="M218.608 143.055C218.608 143.055 215.899 142.939 214.066 142.092C214.031 141.959 214.006 141.818 213.984 141.672C214.757 142.049 216.384 142.691 218.66 142.815L218.612 143.055H218.608Z" fill="#D88D87"/>
<path d="M219.415 139.93C219.415 139.93 216.35 139.862 214.289 137.76C214.349 137.576 214.413 137.405 214.482 137.247C215.264 138.09 216.822 139.352 219.437 139.776L219.42 139.93H219.415Z" fill="#D88D87"/>
<path d="M103.602 56.254H81.5818V62.2803H103.602V56.254Z" fill="#EDCB3A"/>
<path d="M78.834 73.3612C82.0583 90.815 74.3389 101.96 58.4836 104.181" stroke="#FFB692" stroke-width="4" stroke-miterlimit="10"/>
<path d="M67.8689 104.905L61.1455 107.931C59.2178 108.688 57.0411 107.742 56.2812 105.821C55.5212 103.899 56.4701 101.729 58.3978 100.972L65.1211 97.9456L67.8689 104.905Z" fill="#1B7BBC"/>
<path d="M79.2634 76.9393C76.4169 77.9837 75.6613 73.648 75.6613 73.648L73.3687 71.5936C73.3687 71.5936 75.2921 69.6377 76.8935 71.8718C76.8935 71.8718 76.9321 67.9984 78.1815 66.8685C78.7654 66.3378 81.8394 66.3891 83.2905 67.1681C83.5997 67.335 83.707 67.7159 83.5353 68.0198C83.1188 68.7474 82.4276 70.2754 82.8011 71.9745C83.3206 74.3457 82.7024 77.7568 79.2634 76.9351V76.9393Z" fill="#FFB692"/>
<path d="M76.8935 71.8761C76.8935 71.8761 79.1475 71.752 79.9418 74.2515C79.9418 74.2515 78.8555 72.1757 76.8935 72.0516V71.8761Z" fill="#D88D87"/>
<path d="M81.38 72.227C81.38 72.227 79.7571 71.3839 77.9282 71.4652C77.9282 71.4652 79.5167 70.2925 81.38 72.227Z" fill="#D88D87"/>
<path d="M80.7532 71.9275L80.6287 71.8461C80.6287 71.8461 81.0838 68.7859 82.9557 67.0226C83.0029 67.044 83.0502 67.0611 83.0974 67.0825C82.462 67.8229 81.0624 69.6719 80.7532 71.9275Z" fill="#D88D87"/>
<path d="M78.7869 71.3069L78.5507 71.3454C78.5507 71.3454 78.0699 68.2895 79.6155 66.5304C80.1951 66.5047 80.8734 66.5389 81.5217 66.6417C81.0451 67.228 79.7486 69.047 79.843 71.4738L79.6584 71.461C79.6584 71.461 79.1647 68.3879 81.1697 66.6502L79.8602 66.5304C79.8602 66.5304 78.2717 68.4692 78.7869 71.3111V71.3069Z" fill="#D88D87"/>
<path d="M65.1168 136.517V202.313" stroke="#284159" stroke-width="13" stroke-miterlimit="10"/>
<path d="M63.1677 125.41H57.6336C53.5339 125.41 50.2104 128.723 50.2104 132.81C50.2104 136.897 53.5339 140.211 57.6336 140.211H63.1677C67.2674 140.211 70.5908 136.897 70.5908 132.81C70.5908 128.723 67.2674 125.41 63.1677 125.41Z" fill="#284159"/>
<path d="M69.818 128.663C69.8223 129.476 69.3629 130.221 68.6288 130.572C67.0059 131.347 64.6446 132.194 61.7165 132.399C57.5949 132.686 54.2805 131.569 52.3055 130.662C51.5585 130.319 51.0862 129.575 51.0819 128.757C51.0433 121.387 51.0046 114.633 50.9617 107.306C50.9402 103.073 54.362 99.6232 58.6081 99.6018L62.4807 99.5804C66.4435 99.559 69.6763 102.748 69.6978 106.698L69.818 128.667V128.663Z" fill="#0E5EA0"/>
<path d="M55.5212 100.184C55.2465 101.797 57.2171 103.484 59.9262 103.942C62.6353 104.404 65.0567 103.467 65.3315 101.849C65.6063 100.235 63.6356 98.5489 60.9265 98.091C58.2175 97.6287 55.796 98.5661 55.5212 100.184Z" fill="#FFB692"/>
<path d="M60.2697 76.0191H59.909C57.5906 76.0319 55.723 78.9723 55.7445 82.5846L55.839 100.496L64.6016 100.449L64.5072 82.5375C64.49 78.9252 62.5924 76.0062 60.2697 76.0191Z" fill="#FFB692"/>
<path d="M60.2696 76.0191H59.909C57.5906 76.0319 55.723 78.7583 55.7402 82.1095L55.8046 94.346C55.8175 96.76 57.7881 98.7031 60.2095 98.6902C62.631 98.6774 64.5801 96.7129 64.5673 94.299L64.5029 82.0624C64.4857 78.7112 62.588 76.0062 60.2696 76.0191Z" fill="#D88D87"/>
<path d="M62.1673 92.253C62.0986 92.6639 61.2485 92.8608 60.2653 92.6982C59.2822 92.5355 58.5437 92.069 58.6124 91.6624C58.6811 91.2515 59.5312 91.0546 60.5144 91.2173C61.4975 91.3799 62.236 91.8464 62.1673 92.253Z" fill="#D88D87"/>
<path d="M56.0536 136.517V202.313" stroke="#284159" stroke-width="13" stroke-miterlimit="10"/>
<path d="M65.0052 91.9064L55.5684 91.9577C53.3359 91.9706 51.5155 90.173 51.5027 87.9474L51.4726 82.469C51.4468 77.6454 55.3495 73.7121 60.1881 73.6864C65.0267 73.6607 68.9722 77.5512 68.998 82.3748L69.028 87.8532C69.0409 90.0788 67.2377 91.8935 65.0052 91.9064Z" fill="#252538"/>
<path d="M68.1179 79.8282C72.3039 76.9178 69.4617 70.6434 69.4617 70.6434L66.5551 73.6907C66.5551 73.6907 67.1991 69.8344 64.5329 68.1224L62.4807 72.1842C62.4807 72.1842 50.4122 70.699 51.4769 82.1651L68.1136 79.8282H68.1179Z" fill="#252538"/>
<path d="M68.7919 86.6334H51.3782C50.6182 86.6334 50 86.0171 50 85.2595C50 84.5019 50.6182 83.8856 51.3782 83.8856H68.7919C69.5518 83.8856 70.1701 84.5019 70.1701 85.2595C70.1701 86.0171 69.5518 86.6334 68.7919 86.6334Z" fill="#D88D87"/>
<path d="M51.3781 85.9273C51.0089 85.9273 50.7084 85.6277 50.7084 85.2596C50.7084 84.8915 51.0089 84.5919 51.3781 84.5919H68.7919C69.1611 84.5919 69.4617 84.8915 69.4617 85.2596C69.4617 85.6277 69.1611 85.9273 68.7919 85.9273H51.3781Z" fill="#AA635F"/>
<path d="M60.3126 97.5688C55.9806 97.5902 52.4472 94.1105 52.4257 89.7877L52.3871 82.3619C52.3656 78.2189 55.7144 74.8463 59.8703 74.8249H60.5186C64.6746 74.7992 68.0577 78.1376 68.0792 82.2806L68.1178 89.7064C68.1393 94.0249 64.6488 97.5474 60.3126 97.5688Z" fill="#FFB692"/>
<path d="M52.2454 87.6649H53.3488V80.2134C53.3488 80.2134 55.1992 79.8796 56.6504 78.4115C57.3588 77.6968 58.3377 77.3073 59.3466 77.3073H63.3093C64.6961 77.3073 65.9497 78.0606 66.6496 79.2504C66.9415 79.7469 67.358 80.3033 67.9461 80.8811V87.6606H68.5472V79.0193C68.5472 78.2831 68.2681 77.5726 67.7572 77.0376C66.5594 75.7708 64.0049 73.6907 60.1967 73.6907C56.1738 73.6907 53.8511 76.31 52.898 77.701C52.5674 78.1847 52.3914 78.7496 52.3914 79.3317L52.2497 87.6649H52.2454Z" fill="#252538"/>
<path d="M58.3978 83.8084L56.5946 83.817C56.1824 83.817 55.8518 84.1508 55.8561 84.5617C55.8561 84.9726 56.191 85.3021 56.6032 85.2978L58.4064 85.2893C58.8185 85.2893 59.1491 84.9554 59.1448 84.5446C59.1448 84.1337 58.8099 83.8041 58.3978 83.8084Z" fill="#D88D87"/>
<path d="M66.4993 83.7658L64.6961 83.7743C64.2839 83.7743 63.9533 84.1082 63.9576 84.5191C63.9576 84.9299 64.2925 85.2595 64.7047 85.2552L66.5079 85.2467C66.92 85.2467 67.2506 84.9128 67.2463 84.5019C67.2463 84.0911 66.9114 83.7615 66.4993 83.7658Z" fill="#D88D87"/>
<path d="M58.0672 83.7057C57.5606 83.7057 57.1527 84.1208 57.1527 84.6259C57.1527 85.1309 57.5692 85.5375 58.0758 85.5375C58.5824 85.5375 58.9903 85.1224 58.9903 84.6173C58.9903 84.1123 58.5738 83.7057 58.0672 83.7057Z" fill="#252538"/>
<path d="M65.0267 83.6716C64.5201 83.6716 64.1122 84.0868 64.1122 84.5918C64.1122 85.0969 64.5286 85.5035 65.0353 85.5035C65.5419 85.5035 65.9497 85.0883 65.9497 84.5833C65.9497 84.0782 65.5333 83.6716 65.0267 83.6716Z" fill="#252538"/>
<path d="M66.0871 81.9853L64.4943 81.4931C64.1465 81.3861 63.773 81.5787 63.6657 81.9297C63.5583 82.2764 63.7515 82.6487 64.1036 82.7557L65.6964 83.2479C66.0442 83.3549 66.4177 83.1623 66.525 82.8114C66.6324 82.4647 66.4392 82.0923 66.0871 81.9853Z" fill="#252538"/>
<path d="M57.6507 81.5273L56.0622 82.0366C55.7144 82.1479 55.5212 82.5202 55.6328 82.8669C55.7445 83.2136 56.118 83.4062 56.4658 83.2949L58.0543 82.7856C58.402 82.6743 58.5952 82.302 58.4836 81.9553C58.372 81.6086 57.9985 81.416 57.6507 81.5273Z" fill="#252538"/>
<path d="M62.2875 93.5243C62.2188 93.9352 61.3688 94.132 60.3899 93.9694C59.411 93.8068 58.6683 93.3402 58.737 92.9336C58.8056 92.5228 59.6557 92.3259 60.6346 92.4885C61.6135 92.6512 62.3562 93.1177 62.2875 93.5243Z" fill="#D88D87"/>
<path d="M61.5705 88.4054C60.8493 88.4054 60.2611 87.8276 60.2568 87.1086L60.2439 84.9942C60.2439 84.2752 60.8235 83.6889 61.5448 83.6846C62.2661 83.6846 62.8542 84.2624 62.8585 84.9814L62.8714 87.0957C62.8714 87.8148 62.2918 88.4011 61.5705 88.4054Z" fill="#D88D87"/>
<path d="M62.2618 87.6649C62.0729 87.6649 61.914 87.5109 61.914 87.3225L61.9011 84.8787C61.9011 84.6903 62.0557 84.532 62.2446 84.532C62.4335 84.532 62.5924 84.6861 62.5924 84.8744L62.6052 87.3183C62.6052 87.5066 62.4507 87.6649 62.2618 87.6649Z" fill="#F79C97"/>
<path d="M62.7984 89.4924C61.8883 89.3127 60.6217 89.0002 59.4325 88.4909C58.6511 88.1571 57.9212 89.1329 58.3033 90.0146C58.7112 90.9519 59.4625 91.8421 60.8407 92.0219C61.9698 92.1674 62.704 91.8978 63.1805 91.4997C63.8589 90.9348 63.6056 89.6593 62.7942 89.501L62.7984 89.4924Z" fill="#252538"/>
<path d="M60.845 92.0133C59.4668 91.8378 58.7155 90.9433 58.3076 90.006C58.2518 89.8733 58.2217 89.7406 58.2089 89.6079C58.7069 89.4068 59.3681 89.3426 60.2353 89.5694C61.5791 89.9161 62.2017 90.8962 62.4807 91.8763C62.4807 91.8763 62.4807 91.8763 62.4807 91.8806C62.0557 92.0304 61.5233 92.0946 60.8407 92.009L60.845 92.0133Z" fill="#FF9292"/>
<path d="M61.5491 90.9176C61.4031 91.1445 60.8836 91.0846 60.3856 90.785C59.8876 90.4854 59.6042 90.0574 59.7502 89.8305C59.8962 89.6037 60.4157 89.6636 60.9137 89.9632C61.4117 90.2628 61.6951 90.6908 61.5491 90.9176Z" fill="#FFABAB"/>
<path d="M62.7984 89.4924C61.8882 89.3127 60.6217 89.0002 59.4325 88.4909C58.9516 88.2855 58.4922 88.5765 58.299 89.0302C58.9817 89.6893 60.0421 90.2414 61.2958 90.5196C62.0986 90.6994 62.88 90.7422 63.5712 90.6651C63.597 90.1344 63.3093 89.5909 62.7984 89.4924Z" fill="white"/>
<path d="M89.7648 58.4497L87.8887 55H74.7854V77.1019H104.744V58.4497H89.7648Z" fill="#83A9FF"/>
<path d="M85.7463 56.254H76.1249V57.3968H85.7463V56.254Z" fill="white"/>
<path d="M58.9172 107.182C82.3889 112.065 86.3688 80.9197 86.3688 80.9197" stroke="#FFB692" stroke-width="4" stroke-miterlimit="10"/>
<path d="M84.5957 82.5075C81.5131 82.4818 82.3589 78.0948 82.3589 78.0948L80.9206 75.3257C80.9206 75.3257 83.4494 74.1572 84.1664 76.8493C84.1664 76.8493 85.5145 74.4183 85.244 72.3596C84.9134 69.8473 90.2715 72.5308 91.3491 74.8677C91.933 76.1389 90.2758 77.3972 90.0139 79.1477C89.6532 81.5873 87.5581 84.5148 84.5914 82.5032L84.5957 82.5075Z" fill="#FFB692"/>
<path d="M87.2962 77.6155L87.4937 77.7225C87.4937 77.7225 89.2454 75.2872 89.4515 72.7877C89.3398 72.7063 89.2282 72.625 89.1166 72.548C89.1295 73.5581 88.8676 75.3771 87.2962 77.6112V77.6155Z" fill="#D88D87"/>
<path d="M88.8289 78.313C88.8289 78.313 90.4346 76.1345 90.9241 74.1785C90.8382 74.0673 90.7481 73.9603 90.6493 73.8533C90.4604 74.6922 89.9409 76.3571 88.6143 78.2018L88.8289 78.313Z" fill="#D88D87"/>
<path d="M85.8751 76.982C85.8751 76.982 87.7384 74.5552 87.3864 71.6363C87.206 71.5678 87.03 71.5079 86.8626 71.4651C87.0343 72.5993 87.0472 74.6023 85.742 76.9007L85.8751 76.982Z" fill="#D88D87"/>
<path d="M66.0184 104.207L58.6725 103.531C56.6031 103.441 54.8515 105.042 54.7613 107.105C54.6711 109.168 56.2769 110.914 58.3462 111.004L65.6921 111.68L66.0141 104.207H66.0184Z" fill="#1B7BBC"/>
<path d="M40.2735 50.1639C46.7672 43.6904 46.7672 33.1948 40.2735 26.7213C33.7798 20.2478 23.2515 20.2478 16.7578 26.7213C10.2642 33.1948 10.2642 43.6904 16.7578 50.1639C23.2515 56.6374 33.7798 56.6374 40.2735 50.1639Z" fill="#8EC3FE"/>
<path d="M28.5164 38.4453L36.6565 23.9874C39.2325 25.4298 41.3749 27.527 42.869 30.0693C44.3631 32.6116 45.1487 35.5006 45.1487 38.4453H28.5207H28.5164Z" fill="#135EAE"/>
<path d="M28.5164 38.4453H45.1444C45.1444 41.895 44.0625 45.2634 42.0532 48.071C40.044 50.8787 37.2018 52.9973 33.9303 54.1187L28.5164 38.4453Z" fill="#5492D8"/>
</g>
<defs>
<clipPath id="clip0_4741_6090">
<rect width="305" height="182" fill="white"/>
</clipPath>
</defs>
</svg>
