<svg width="117" height="102" viewBox="0 0 117 102" fill="none" xmlns="http://www.w3.org/2000/svg">
<g id="Group 5">
<path id="Ellipse 3" d="M-58.2945 -16.7259C-53.0451 -36.317 -40.5504 -53.1829 -23.3381 -63.9116C-6.12585 -74.6402 14.519 -78.4307 34.4198 -74.5162C54.3206 -70.6017 71.9918 -59.2744 83.8582 -42.8259C95.7247 -26.3774 100.901 -6.03565 98.3389 14.0841C95.7771 34.2039 85.6689 52.5995 70.0593 65.5496C54.4496 78.4997 34.5038 85.0374 14.257 83.8401C-5.98982 82.6428 -25.0261 73.7999 -39.0007 59.1003C-52.9753 44.4008 -60.8449 24.942 -61.0175 4.66052L-52.8117 4.59068C-52.6567 22.7917 -45.5944 40.2545 -33.0532 53.4462C-20.5121 66.6379 -3.42853 74.5738 14.7414 75.6483C32.9114 76.7227 50.8112 70.8557 64.8197 59.2339C78.8281 47.6122 87.8994 31.1035 90.1984 13.0476C92.4974 -5.00831 87.8524 -23.2634 77.2032 -38.0247C66.5539 -52.786 50.6955 -62.9513 32.836 -66.4643C14.9765 -69.9773 -3.5506 -66.5756 -18.9973 -56.9475C-34.444 -47.3193 -45.657 -32.1835 -50.3679 -14.602L-58.2945 -16.7259Z" fill="#6BADF8"/>
<circle id="Ellipse 2" cx="18.9795" cy="3.9796" r="64.252" transform="rotate(-165 18.9795 3.9796)" fill="url(#paint0_linear_4226_20491)"/>
<circle id="Ellipse 4" cx="18.9795" cy="3.97968" r="49.7638" transform="rotate(-165 18.9795 3.97968)" fill="#D9E8F8"/>
</g>
<defs>
<linearGradient id="paint0_linear_4226_20491" x1="-16.2961" y1="-42.9495" x2="57.0898" y2="28.2316" gradientUnits="userSpaceOnUse">
<stop stop-color="#83BDFE"/>
<stop offset="0.735631" stop-color="white" stop-opacity="0"/>
</linearGradient>
</defs>
</svg>
