<svg width="32" height="32" viewBox="0 0 32 32" fill="none" xmlns="http://www.w3.org/2000/svg">
<g clip-path="url(#clip0_1468_11336)">
<path d="M31.3213 20.9255C31.1006 20.2738 30.5733 19.8004 29.8366 19.5928C29.0441 19.3694 28.0132 19.4404 26.7726 19.8044L21.1267 21.4608C20.8376 20.8701 20.3045 20.4024 19.6209 20.2192L15.609 19.1443C12.6811 17.0927 11.1122 17.6821 8.80499 18.8103C7.7053 19.3479 6.6073 19.8706 5.56787 20.3619L5.35043 19.8398C5.06193 19.1469 4.26337 18.8174 3.57018 19.1053L1.40312 20.0051C1.0653 20.1454 0.802929 20.4075 0.664491 20.7431C0.526054 21.0787 0.527241 21.4495 0.667866 21.7872L4.33755 30.599C4.55524 31.1218 5.06324 31.4376 5.5973 31.4376C5.77105 31.4376 5.94762 31.4042 6.1178 31.3335L8.28493 30.4336C8.62274 30.2934 8.88505 30.0312 9.02349 29.6957C9.16193 29.3601 9.16074 28.9893 9.02012 28.6516L8.7743 28.0613L10.1868 27.3745C10.7027 27.1237 11.2213 27.0795 11.7722 27.2395L16.2799 28.5483C16.6118 28.6446 16.9548 28.6858 17.3028 28.6858C18.5009 28.6858 19.7571 28.1969 20.8131 27.786C20.9062 27.7498 20.9975 27.7143 21.0868 27.6799L29.5466 24.4199C30.9161 23.8921 31.762 22.2266 31.3213 20.9255ZM8.21456 29.3619C8.16531 29.4813 8.07112 29.5749 7.94924 29.6255L5.78212 30.5254C5.53405 30.6283 5.24843 30.5104 5.14524 30.2626L1.47555 21.4508C1.4248 21.329 1.42405 21.1962 1.4733 21.0769C1.52255 20.9575 1.6168 20.8639 1.73862 20.8132L3.90568 19.9134C3.96468 19.8888 4.02796 19.8762 4.09187 19.8761C4.28293 19.8761 4.46468 19.9891 4.54255 20.1762L8.21224 28.9879C8.26299 29.1098 8.26381 29.2426 8.21456 29.3619ZM29.2319 23.6033L20.7721 26.8633C20.6819 26.8981 20.5897 26.934 20.4957 26.9706C19.2562 27.453 17.7134 28.0536 16.5238 27.7079L12.0162 26.3992C11.2582 26.1791 10.514 26.2426 9.80418 26.5876L8.4373 27.2523L5.90455 21.1706C6.95787 20.6728 8.07199 20.1426 9.1893 19.5963C11.3457 18.5418 12.591 18.0766 15.1674 19.9036C15.2098 19.9336 15.2571 19.9559 15.3073 19.9693L19.3944 21.0644C20.183 21.2758 20.6527 22.0892 20.4414 22.8779C20.3396 23.2578 20.0941 23.5764 19.7503 23.7749C19.4065 23.9734 19.0079 24.0267 18.6279 23.9248L13.1963 22.4694C13.0844 22.4399 12.9653 22.4559 12.8651 22.5139C12.765 22.572 12.6919 22.6674 12.662 22.7792C12.632 22.891 12.6476 23.0102 12.7053 23.1105C12.763 23.2109 12.8581 23.2843 12.9699 23.3146L18.4015 24.77C19.0072 24.9322 19.6416 24.8481 20.1879 24.5326C20.7341 24.2173 21.1243 23.7101 21.2866 23.1042C21.3567 22.8438 21.3813 22.5732 21.3593 22.3043L27.0189 20.644C28.8889 20.0954 30.1875 20.3056 30.4926 21.2062C30.7816 22.0594 30.1571 23.2468 29.2319 23.6033ZM20.2775 2.28931V1C20.2775 0.883968 20.3236 0.772688 20.4056 0.690641C20.4877 0.608594 20.599 0.5625 20.715 0.5625C20.831 0.5625 20.9423 0.608594 21.0244 0.690641C21.1064 0.772688 21.1525 0.883968 21.1525 1V2.28931C21.1525 2.40534 21.1064 2.51662 21.0244 2.59867C20.9423 2.68072 20.831 2.72681 20.715 2.72681C20.599 2.72681 20.4877 2.68072 20.4056 2.59867C20.3236 2.51662 20.2775 2.40534 20.2775 2.28931ZM16.0962 2.35487C16.0671 2.3051 16.048 2.25005 16.0402 2.19288C16.0324 2.13571 16.036 2.07757 16.0507 2.02179C16.0654 1.96601 16.0911 1.91369 16.1261 1.86786C16.1612 1.82203 16.2049 1.78358 16.2549 1.75473C16.3049 1.72588 16.3601 1.7072 16.4173 1.69976C16.4745 1.69232 16.5326 1.69628 16.5883 1.7114C16.644 1.72651 16.6961 1.75249 16.7417 1.78785C16.7873 1.8232 16.8255 1.86722 16.854 1.91738L17.4986 3.03387C17.5281 3.08366 17.5474 3.1388 17.5554 3.19609C17.5634 3.25338 17.56 3.31169 17.5453 3.36765C17.5306 3.4236 17.505 3.47609 17.4699 3.52208C17.4348 3.56807 17.3909 3.60664 17.3408 3.63556C17.2907 3.66448 17.2354 3.68318 17.178 3.69058C17.1206 3.69797 17.0624 3.69391 17.0066 3.67864C16.9508 3.66336 16.8986 3.63717 16.853 3.60159C16.8073 3.566 16.7692 3.52172 16.7409 3.47131L16.0962 2.35487ZM12.9924 5.02112C13.0504 4.92064 13.146 4.84732 13.2581 4.81729C13.3702 4.78726 13.4896 4.80299 13.5901 4.861L14.7066 5.50562C14.8071 5.56364 14.8804 5.6592 14.9105 5.77128C14.9405 5.88337 14.9248 6.00279 14.8668 6.10328C14.8088 6.20377 14.7132 6.2771 14.6011 6.30714C14.489 6.33717 14.3696 6.32145 14.2691 6.26344L13.1526 5.61875C13.1028 5.59003 13.0592 5.55179 13.0242 5.50622C12.9892 5.46064 12.9635 5.40861 12.9487 5.35311C12.9338 5.29761 12.93 5.23973 12.9375 5.18277C12.945 5.1258 12.9637 5.07088 12.9924 5.02112ZM23.9314 3.03387L24.576 1.91738C24.6344 1.81771 24.7299 1.7452 24.8416 1.71567C24.9533 1.68614 25.0721 1.70199 25.1722 1.75975C25.2722 1.81752 25.3454 1.91252 25.3756 2.02401C25.4059 2.1355 25.3908 2.25444 25.3337 2.35487L24.6891 3.47137C24.6604 3.52115 24.6222 3.56478 24.5766 3.59978C24.531 3.63477 24.479 3.66044 24.4235 3.67532C24.368 3.69019 24.3101 3.69399 24.2531 3.68648C24.1962 3.67897 24.1412 3.66031 24.0915 3.63156C24.0417 3.60283 23.9981 3.56459 23.9631 3.519C23.9282 3.47342 23.9025 3.42139 23.8876 3.36589C23.8728 3.31038 23.869 3.2525 23.8765 3.19553C23.884 3.13856 23.9026 3.08363 23.9314 3.03387ZM26.5632 6.10325C26.5052 6.00277 26.4895 5.88335 26.5195 5.77128C26.5496 5.6592 26.6229 5.56364 26.7234 5.50562L27.8399 4.861C27.8897 4.83182 27.9448 4.81277 28.0019 4.80496C28.0591 4.79714 28.1172 4.80071 28.173 4.81546C28.2288 4.8302 28.2811 4.85584 28.3269 4.89089C28.3728 4.92593 28.4112 4.9697 28.4401 5.01967C28.4689 5.06964 28.4876 5.12482 28.495 5.18203C28.5025 5.23925 28.4985 5.29737 28.4834 5.35305C28.4683 5.40873 28.4423 5.46088 28.407 5.50648C28.3716 5.55208 28.3276 5.59023 28.2774 5.61875L27.1609 6.26337C27.0945 6.30179 27.0192 6.32202 26.9425 6.322C26.8656 6.32211 26.7901 6.30195 26.7235 6.26354C26.6569 6.22514 26.6016 6.16985 26.5632 6.10325ZM17.0689 11.1379C17.4769 11.7691 17.8976 12.4209 18.0672 13.9119C17.6746 14.0801 17.3987 14.4703 17.3987 14.9238V16.3546C17.3987 16.9614 17.8923 17.4551 18.4991 17.4551H18.7431V17.6823C18.7431 18.2684 19.2199 18.7452 19.8061 18.7452H21.624C22.2101 18.7452 22.6869 18.2684 22.6869 17.6823V17.4551H22.9309C23.5377 17.4551 24.0314 16.9614 24.0314 16.3546V14.9238C24.0314 14.4703 23.7555 14.0801 23.3629 13.9119C23.5324 12.4208 23.9531 11.7691 24.3612 11.1379C24.7734 10.5003 25.1628 9.89794 25.1628 8.65775C25.1628 6.20531 23.1676 4.21006 20.7151 4.21006C18.2627 4.21006 16.2674 6.20531 16.2674 8.65775C16.2673 9.89794 16.6566 10.5002 17.0689 11.1379ZM23.1563 16.3546C23.1563 16.4768 23.0531 16.5801 22.9309 16.5801H22.2494C22.1333 16.5801 22.0221 16.6262 21.94 16.7082C21.858 16.7903 21.8119 16.9015 21.8119 17.0176V17.6823C21.8119 17.7841 21.7258 17.8702 21.6239 17.8702H19.806C19.7041 17.8702 19.6181 17.7841 19.6181 17.6823V17.0176C19.6181 16.9015 19.572 16.7903 19.4899 16.7082C19.4079 16.6262 19.2966 16.5801 19.1806 16.5801H18.4991C18.3769 16.5801 18.2736 16.4768 18.2736 16.3546V14.9238C18.2736 14.8016 18.3769 14.6984 18.4991 14.6984H22.9308C23.053 14.6984 23.1562 14.8016 23.1562 14.9238V16.3546H23.1563ZM20.715 5.08506C22.685 5.08506 24.2877 6.68781 24.2877 8.65775C24.2877 9.63975 24.0102 10.0689 23.6262 10.6628C23.2045 11.3152 22.6872 12.1164 22.4925 13.8233H21.1525V9.65669L22.6534 8.79019C22.7531 8.73176 22.8256 8.63628 22.8551 8.52459C22.8847 8.4129 22.8688 8.29406 22.8111 8.19401C22.7533 8.09396 22.6583 8.02082 22.5468 7.99055C22.4353 7.96028 22.3164 7.97534 22.2159 8.03244L20.715 8.89894L19.2141 8.03244C19.1643 8.00326 19.1092 7.98421 19.0521 7.97639C18.9949 7.96858 18.9367 7.97215 18.881 7.98689C18.8252 8.00164 18.7729 8.02728 18.727 8.06233C18.6812 8.09737 18.6428 8.14114 18.6139 8.19111C18.5851 8.24107 18.5664 8.29625 18.5589 8.35347C18.5515 8.41069 18.5555 8.46881 18.5706 8.52449C18.5857 8.58017 18.6117 8.63231 18.647 8.67791C18.6824 8.72351 18.7264 8.76167 18.7766 8.79019L20.2775 9.65669V13.8233H18.9375C18.7428 12.1164 18.2254 11.3152 17.8037 10.6629C17.4197 10.0689 17.1423 9.63975 17.1423 8.65775C17.1423 6.68781 18.745 5.08506 20.715 5.08506Z" fill="#3D3D3D"/>
</g>
<defs>
<clipPath id="clip0_1468_11336">
<rect width="32" height="32" fill="white"/>
</clipPath>
</defs>
</svg>
