<svg xmlns="http://www.w3.org/2000/svg" width="21" height="20" viewBox="0 0 21 20" fill="none">
  <g clip-path="url(#clip0_5097_16931)">
    <path d="M10.6667 20C16.1895 20 20.6667 15.5228 20.6667 10C20.6667 4.47715 16.1895 0 10.6667 0C5.14381 0 0.666656 4.47715 0.666656 10C0.666656 15.5228 5.14381 20 10.6667 20Z" fill="#012D5E"/>
    <path d="M11.8495 14.2402C11.0917 14.2402 10.3338 14.2449 9.57642 14.2355C9.45276 14.2271 9.33258 14.1909 9.22486 14.1296C8.68111 13.8027 8.2483 13.355 8.29127 12.6581C8.3276 11.4214 8.30533 10.1824 8.29908 8.94447C8.29908 8.6683 8.39908 8.46127 8.60142 8.2765C10.0104 7.04525 10.9772 6.1933 11.1432 4.21322C11.3596 3.28432 12.6241 3.9226 12.6729 4.64291C13.0397 6.21596 11.8003 7.66791 12.4866 7.60385C13.3241 7.63328 14.1616 7.66179 14.9991 7.6894C15.6182 7.70932 16.1194 8.24486 16.103 8.94486C16.0026 10.3015 15.7206 11.6476 15.5846 13.0023C15.2909 14.755 13.11 14.1277 11.8495 14.2402Z" fill="white"/>
    <path d="M7.38775 8.20384H5.54283C5.33507 8.20384 5.16666 8.37226 5.16666 8.58001V13.7988C5.16666 14.0065 5.33507 14.1749 5.54283 14.1749H7.38775C7.5955 14.1749 7.76392 14.0065 7.76392 13.7988V8.58001C7.76392 8.37226 7.5955 8.20384 7.38775 8.20384Z" fill="white"/>
  </g>
  <defs>
    <clipPath id="clip0_5097_16931">
      <rect width="20" height="20" fill="white" transform="translate(0.666656)"/>
    </clipPath>
  </defs>
</svg>