<svg width="87" height="75" viewBox="0 0 87 75" fill="none" xmlns="http://www.w3.org/2000/svg">
<path d="M72.1875 61.5208H6.85418C4.64885 61.5208 2.85418 59.7262 2.85418 57.5208V13.5208H52.1875C52.5411 13.5208 52.8803 13.3804 53.1303 13.1303C53.3804 12.8803 53.5209 12.5411 53.5209 12.1875C53.5209 11.8339 53.3804 11.4947 53.1303 11.2447C52.8803 10.9946 52.5411 10.8542 52.1875 10.8542H2.85418V6.85417C2.85418 4.64883 4.64885 2.85417 6.85418 2.85417H76.1875C78.3929 2.85417 80.1875 4.64883 80.1875 6.85417V10.8542H76.1875C75.8339 10.8542 75.4948 10.9946 75.2447 11.2447C74.9947 11.4947 74.8542 11.8339 74.8542 12.1875C74.8542 12.5411 74.9947 12.8803 75.2447 13.1303C75.4948 13.3804 75.8339 13.5208 76.1875 13.5208H80.1875V26.8542C80.1875 27.2078 80.328 27.5469 80.578 27.797C80.8281 28.047 81.1672 28.1875 81.5209 28.1875C81.8745 28.1875 82.2136 28.047 82.4637 27.797C82.7137 27.5469 82.8542 27.2078 82.8542 26.8542V6.85417C82.8542 3.17817 79.8635 0.1875 76.1875 0.1875H6.85418C3.17818 0.1875 0.187515 3.17817 0.187515 6.85417V57.5208C0.187515 61.1968 3.17818 64.1875 6.85418 64.1875H72.1875C72.5411 64.1875 72.8803 64.047 73.1303 63.797C73.3804 63.5469 73.5209 63.2078 73.5209 62.8542C73.5209 62.5005 73.3804 62.1614 73.1303 61.9114C72.8803 61.6613 72.5411 61.5208 72.1875 61.5208Z" fill="#DD2A2B"/>
<path d="M8.18751 8.18766C8.92388 8.18766 9.52084 7.59071 9.52084 6.85433C9.52084 6.11795 8.92388 5.521 8.18751 5.521C7.45113 5.521 6.85417 6.11795 6.85417 6.85433C6.85417 7.59071 7.45113 8.18766 8.18751 8.18766Z" fill="#DD2A2B"/>
<path d="M14.8542 8.18766C15.5906 8.18766 16.1875 7.59071 16.1875 6.85433C16.1875 6.11795 15.5906 5.521 14.8542 5.521C14.1178 5.521 13.5208 6.11795 13.5208 6.85433C13.5208 7.59071 14.1178 8.18766 14.8542 8.18766Z" fill="#DD2A2B"/>
<path d="M21.5208 8.18766C22.2572 8.18766 22.8542 7.59071 22.8542 6.85433C22.8542 6.11795 22.2572 5.521 21.5208 5.521C20.7845 5.521 20.1875 6.11795 20.1875 6.85433C20.1875 7.59071 20.7845 8.18766 21.5208 8.18766Z" fill="#DD2A2B"/>
<path d="M72.1875 12.1873C72.1875 11.8337 72.047 11.4946 71.797 11.2445C71.5469 10.9945 71.2078 10.854 70.8542 10.854H57.5208C57.1672 10.854 56.8281 10.9945 56.578 11.2445C56.328 11.4946 56.1875 11.8337 56.1875 12.1873C56.1875 12.541 56.328 12.8801 56.578 13.1301C56.8281 13.3802 57.1672 13.5207 57.5208 13.5207H70.8542C71.2078 13.5207 71.5469 13.3802 71.797 13.1301C72.047 12.8801 72.1875 12.541 72.1875 12.1873ZM22.5782 31.7967C22.7019 31.9206 22.8488 32.0189 23.0106 32.086C23.1723 32.1531 23.3457 32.1876 23.5208 32.1876C23.6959 32.1876 23.8693 32.1531 24.0311 32.086C24.1928 32.0189 24.3398 31.9206 24.4635 31.7967L27.5208 28.7393L30.5782 31.7967C30.702 31.9205 30.8489 32.0187 31.0107 32.0857C31.1724 32.1527 31.3458 32.1871 31.5208 32.1871C31.6959 32.1871 31.8693 32.1527 32.031 32.0857C32.1927 32.0187 32.3397 31.9205 32.4635 31.7967C32.5873 31.6729 32.6855 31.5259 32.7525 31.3642C32.8195 31.2024 32.854 31.0291 32.854 30.854C32.854 30.6789 32.8195 30.5056 32.7525 30.3438C32.6855 30.1821 32.5873 30.0351 32.4635 29.9113L29.4062 26.854L32.4635 23.7967C32.5873 23.6729 32.6855 23.5259 32.7525 23.3642C32.8195 23.2024 32.854 23.0291 32.854 22.854C32.854 22.6789 32.8195 22.5056 32.7525 22.3438C32.6855 22.1821 32.5873 22.0351 32.4635 21.9113C32.3397 21.7875 32.1927 21.6893 32.031 21.6224C31.8693 21.5554 31.6959 21.5209 31.5208 21.5209C31.3458 21.5209 31.1724 21.5554 31.0107 21.6224C30.8489 21.6893 30.702 21.7875 30.5782 21.9113L27.5208 24.9687L24.4635 21.9113C24.3397 21.7875 24.1927 21.6893 24.031 21.6224C23.8693 21.5554 23.6959 21.5209 23.5208 21.5209C23.3458 21.5209 23.1724 21.5554 23.0107 21.6224C22.8489 21.6893 22.702 21.7875 22.5782 21.9113C22.4544 22.0351 22.3562 22.1821 22.2892 22.3438C22.2222 22.5056 22.1877 22.6789 22.1877 22.854C22.1877 23.0291 22.2222 23.2024 22.2892 23.3642C22.3562 23.5259 22.4544 23.6729 22.5782 23.7967L25.6355 26.854L22.5782 29.9113C22.3282 30.1614 22.1878 30.5005 22.1878 30.854C22.1878 31.2076 22.3282 31.5466 22.5782 31.7967ZM50.5782 31.7967C50.7019 31.9206 50.8488 32.0189 51.0106 32.086C51.1723 32.1531 51.3457 32.1876 51.5208 32.1876C51.6959 32.1876 51.8693 32.1531 52.0311 32.086C52.1928 32.0189 52.3398 31.9206 52.4635 31.7967L55.5208 28.7393L58.5782 31.7967C58.702 31.9205 58.8489 32.0187 59.0107 32.0857C59.1724 32.1527 59.3458 32.1871 59.5208 32.1871C59.6959 32.1871 59.8693 32.1527 60.031 32.0857C60.1927 32.0187 60.3397 31.9205 60.4635 31.7967C60.5873 31.6729 60.6855 31.5259 60.7525 31.3642C60.8195 31.2024 60.854 31.0291 60.854 30.854C60.854 30.6789 60.8195 30.5056 60.7525 30.3438C60.6855 30.1821 60.5873 30.0351 60.4635 29.9113L57.4062 26.854L60.4635 23.7967C60.5873 23.6729 60.6855 23.5259 60.7525 23.3642C60.8195 23.2024 60.854 23.0291 60.854 22.854C60.854 22.6789 60.8195 22.5056 60.7525 22.3438C60.6855 22.1821 60.5873 22.0351 60.4635 21.9113C60.3397 21.7875 60.1927 21.6893 60.031 21.6224C59.8693 21.5554 59.6959 21.5209 59.5208 21.5209C59.3458 21.5209 59.1724 21.5554 59.0107 21.6224C58.8489 21.6893 58.702 21.7875 58.5782 21.9113L55.5208 24.9687L52.4635 21.9113C52.3397 21.7875 52.1927 21.6893 52.031 21.6224C51.8693 21.5554 51.6959 21.5209 51.5208 21.5209C51.3458 21.5209 51.1724 21.5554 51.0107 21.6224C50.8489 21.6893 50.702 21.7875 50.5782 21.9113C50.4544 22.0351 50.3562 22.1821 50.2892 22.3438C50.2222 22.5056 50.1877 22.6789 50.1877 22.854C50.1877 23.0291 50.2222 23.2024 50.2892 23.3642C50.3562 23.5259 50.4544 23.6729 50.5782 23.7967L53.6355 26.854L50.5782 29.9113C50.3282 30.1614 50.1878 30.5005 50.1878 30.854C50.1878 31.2076 50.3282 31.5466 50.5782 31.7967ZM16.4115 51.594C16.8195 52.2047 17.6462 52.3713 18.2608 51.9633C25.1439 47.3572 33.2395 44.8983 41.5215 44.8983C49.8035 44.8983 57.8991 47.3572 64.7822 51.9633C64.9278 52.0641 65.092 52.1348 65.2652 52.1715C65.4384 52.2081 65.6172 52.2098 65.7911 52.1766C65.965 52.1433 66.1306 52.0758 66.2781 51.9779C66.4257 51.88 66.5522 51.7537 66.6504 51.6064C66.7486 51.459 66.8165 51.2936 66.85 51.1198C66.8836 50.9459 66.8822 50.7671 66.846 50.5938C66.8097 50.4205 66.7393 50.2562 66.6388 50.1104C66.5384 49.9646 66.4099 49.8403 66.2608 49.7447C58.9405 44.8452 50.3302 42.2297 41.5215 42.2297C32.7129 42.2297 24.1025 44.8452 16.7822 49.7447C16.6364 49.8417 16.5111 49.9666 16.4136 50.112C16.316 50.2575 16.2481 50.4208 16.2137 50.5925C16.1793 50.7643 16.179 50.9411 16.213 51.113C16.2469 51.2848 16.3144 51.4483 16.4115 51.594ZM85.3888 33.3567C84.1195 31.7673 82.2235 30.854 80.1875 30.854C78.1515 30.854 76.2568 31.766 74.9862 33.3567C74.3606 34.1364 73.9197 35.0477 73.6966 36.0222C73.4735 36.9967 73.4741 38.0091 73.6982 38.9833L78.8875 61.8167C78.9558 62.1103 79.1214 62.3721 79.3575 62.5596C79.5935 62.7471 79.8861 62.8491 80.1875 62.8491C80.4889 62.8491 80.7815 62.7471 81.0176 62.5596C81.2536 62.3721 81.4193 62.1103 81.4875 61.8167L86.6768 38.9833C86.9005 38.0091 86.9009 36.9968 86.6778 36.0224C86.4548 35.0479 86.0141 34.1366 85.3888 33.3567ZM84.0768 38.3927L80.1875 55.5047L76.2982 38.3927C76.0275 37.2033 76.3088 35.974 77.0702 35.0207C77.8315 34.0673 78.9675 33.5207 80.1875 33.5207C81.4075 33.5207 82.5435 34.0673 83.3048 35.0207C84.0662 35.974 84.3462 37.2033 84.0768 38.3927ZM80.1875 64.1873C77.2462 64.1873 74.8542 66.5793 74.8542 69.5207C74.8542 72.462 77.2462 74.854 80.1875 74.854C83.1288 74.854 85.5208 72.462 85.5208 69.5207C85.5208 66.5793 83.1288 64.1873 80.1875 64.1873ZM80.1875 72.1873C78.7168 72.1873 77.5208 70.9913 77.5208 69.5207C77.5208 68.05 78.7168 66.854 80.1875 66.854C81.6582 66.854 82.8542 68.05 82.8542 69.5207C82.8542 70.9913 81.6582 72.1873 80.1875 72.1873Z" fill="#DD2A2B"/>
</svg>
