<svg width="176" height="244" viewBox="0 0 176 244" fill="none" xmlns="http://www.w3.org/2000/svg">
<g clip-path="url(#clip0_1060_19565)">
<path d="M88 244.001C39.3989 244.001 0 241.284 0 237.933C0 234.583 39.3989 231.866 88 231.866C136.601 231.866 176 234.583 176 237.933C176 241.284 136.601 244.001 88 244.001Z" fill="#B1CFF1"/>
<path d="M23.2352 237.934C22.5443 237.934 22.0161 237.423 22.1208 236.854L36.4272 170.355H41.5488L24.3451 237.164C24.247 237.61 23.779 237.931 23.2352 237.931V237.934Z" fill="#3F291A"/>
<path d="M56.6769 237.933H56.6502C56.0083 237.933 55.4957 237.489 55.5224 236.956L59.5453 170.357H64.667L57.8024 237.066C57.7601 237.556 57.2675 237.933 56.6769 237.933Z" fill="#3F291A"/>
<path d="M125.385 237.933C124.841 237.933 124.373 237.61 124.275 237.166L107.071 170.357H112.193L126.499 236.856C126.604 237.422 126.076 237.935 125.385 237.935V237.933Z" fill="#3F291A"/>
<path d="M91.35 237.933H91.3211C90.7282 237.933 90.2379 237.554 90.1956 237.063L83.5227 170.357H88.6443L92.4756 236.958C92.5023 237.492 91.9897 237.933 91.3478 237.933H91.35Z" fill="#3F291A"/>
<path d="M122.243 190.17H27.7484C24.9949 190.17 22.7627 187.936 22.7627 185.18V179.896C22.7627 177.14 24.9949 174.906 27.7484 174.906H122.243C124.997 174.906 127.229 177.14 127.229 179.896V185.18C127.229 187.936 124.997 190.17 122.243 190.17Z" fill="#563D3A"/>
<path d="M84.2091 186.148H31.4345C18.1026 186.148 7.29492 175.332 7.29492 161.989L7.29492 74.3668C7.29492 61.0238 18.1026 50.2072 31.4345 50.2072H84.2091C97.5411 50.2072 108.349 61.0238 108.349 74.3668L108.349 161.989C108.349 175.332 97.5411 186.148 84.2091 186.148Z" fill="#0264D2"/>
<path d="M87.3985 186.15H50.3055C38.7362 186.15 29.3574 176.764 29.3574 165.185L29.3574 76.3272C29.3574 64.7484 38.7362 55.3618 50.3055 55.3618H87.3985C98.9678 55.3618 108.347 64.7484 108.347 76.3272L108.347 165.185C108.347 176.764 98.9678 186.15 87.3985 186.15Z" fill="#013C7E"/>
<path d="M127.456 187.221H97.0756C90.0435 187.221 84.3428 181.515 84.3428 174.477V138.897C84.3428 131.859 90.0435 126.154 97.0756 126.154H127.456C134.488 126.154 140.189 131.859 140.189 138.897V174.477C140.189 181.515 134.488 187.221 127.456 187.221Z" fill="#815C56"/>
<path d="M16.925 173.193H134.873C138.831 173.193 142.069 176.434 142.069 180.396C142.069 184.357 138.831 187.599 134.873 187.599H16.925C12.9667 187.599 9.72833 184.357 9.72833 180.396C9.72833 176.434 12.9667 173.193 16.925 173.193Z" fill="#0264D2"/>
<path d="M129.854 174.904H26.181C21.0727 174.904 16.9316 170.76 16.9316 165.647L16.9316 158.385C16.9316 153.272 21.0727 149.128 26.181 149.128H129.854C134.962 149.128 139.103 153.272 139.103 158.385V165.647C139.103 170.76 134.962 174.904 129.854 174.904Z" fill="#FFD5C6"/>
<path d="M39.7007 68.0564C39.8144 78.8994 39.957 92.6019 39.957 92.6019C35.9698 100.529 31.6728 111.647 29.7471 114.631C25.9048 120.585 24.9509 121.584 22.0223 122.269C19.0759 122.958 13.3747 123.971 10.6334 122.356C7.87195 120.73 5.73456 118.093 5.80143 115.363C11.117 101.854 18.5276 84.1613 23.8432 70.6529C25.3899 66.7203 26.9835 62.7097 29.5532 59.5757C32.123 56.4417 35.8963 54.2937 39.5648 55.0878C39.5648 55.0878 39.6272 60.9609 39.7007 68.0587V68.0564Z" fill="#EBE1D7"/>
<path d="M76.2795 53.4189C76.2795 53.4189 82.9479 53.9253 86.7769 62.7964C91.9364 74.7546 104.453 103.186 106.105 108.013C107.279 111.448 108.989 117.542 102.897 119.398C94.709 121.894 89.8347 117.606 86.2843 111.992C82.7339 106.378 76.353 88.1582 76.353 88.1582L76.2772 53.4189H76.2795Z" fill="#EBE1D7"/>
<path d="M135.043 129.326C132.408 129.56 128.633 127.276 127.347 127.107C126.058 126.937 107.85 125.982 98.5089 125.717C96.0996 125.648 92.3241 124.992 90.5433 123.359C89.0768 122.014 89.3175 119.623 89.2507 117.297C89.186 114.979 98.8321 106.956 104.529 108.04C110.225 109.124 123.569 116.25 134.98 118.72C137.829 119.335 139.172 128.956 135.043 129.326Z" fill="#FFBDA8"/>
<path d="M144.704 212.592C144.756 214.675 144.807 216.756 144.858 218.84C149.414 223.827 154.308 228.958 160.669 230.814C162.367 231.309 164.406 231.782 165.062 233.481C165.661 235.038 164.636 236.861 163.216 237.661C161.797 238.464 160.109 238.507 158.494 238.531C149.418 238.667 140.345 238.94 131.269 238.94C129.656 238.94 128.978 236.12 128.978 233.521C128.978 230.923 128.704 212.592 128.704 212.592H144.704Z" fill="#B3B3B3"/>
<path d="M133.451 228.405C135.243 230.198 139.391 229.511 143.652 229.511C144.851 229.511 143.476 224.789 143.07 222.19C142.707 219.853 145.248 218.682 145.248 218.682C150.184 224.082 154.773 228.681 160.778 230.435L161.134 230.537C162.828 231.024 164.749 231.574 165.429 233.341C165.977 234.764 165.373 236.899 163.41 238.007C161.87 238.877 160.08 238.904 158.498 238.929C155.473 238.973 152.4 239.036 149.424 239.094C143.474 239.212 137.322 239.337 131.267 239.337C129.283 239.337 128.581 236.205 128.581 233.524C128.581 232.308 128.521 227.582 128.456 222.929C131.445 222.418 131.534 226.489 133.449 228.407L133.451 228.405Z" fill="#302E2C"/>
<path d="M148.731 218.563C148.731 218.563 141.325 162.227 139.313 145.705C137.088 127.445 113.662 137.367 115.347 150.271C117.103 163.73 124.73 218.563 124.73 218.563H148.731Z" fill="#4D0F0F"/>
<path d="M139.313 145.705C139.313 145.705 139.536 136.484 129.342 134.648C119.147 132.812 78.9206 127.445 78.9206 127.445C78.9206 127.445 72.2544 155.934 78.8003 156.604C82.1902 156.949 123.663 157.344 123.663 157.344C123.663 157.344 139.313 151.199 139.313 145.707V145.705Z" fill="#4D0F0F"/>
<path d="M90.5413 123.361C90.9804 127.017 92.3934 130.475 93.4543 134.001C94.5152 137.528 95.2239 141.322 94.2388 144.869C93.2514 148.415 85.8542 153.497 82.15 153.537C69.7626 153.537 57.3752 153.537 44.9856 153.537C44.6023 153.345 44.3839 153.236 44.3839 153.236C39.7547 150.92 37.2853 145.589 36.9889 140.445C36.6924 135.302 38.1991 130.245 39.6879 125.311L90.5435 123.361H90.5413Z" fill="#42554D"/>
<path d="M49.7834 52.9432C49.7834 57.5136 57.7534 75.6171 61.988 75.6171C66.2226 75.6171 73.8115 57.5136 73.8115 52.9432C73.8115 48.3727 68.4335 49.1824 61.7985 49.1824C55.1636 49.1824 49.7856 48.3727 49.7856 52.9432H49.7834Z" fill="#FFBDA8"/>
<path d="M61.7543 61.5893C66.2364 61.5893 71.5742 58.0158 71.5742 52.9189L67.8165 37.8535C67.8165 32.7923 55.6921 32.7923 55.6921 37.8535L51.9345 52.9189C51.9345 58.0181 57.2723 61.5893 61.7543 61.5893Z" fill="#FFBDA8"/>
<path d="M92.3927 129.27C94.0598 128.917 92.7761 126.653 92.1409 125.07C91.6884 123.939 91.0778 122.821 90.7992 121.652C90.8705 114.706 90.7234 85.9206 90.1461 78.9968C86.0653 67.5427 82.6486 56.3786 81.1353 55.1094C79.622 53.8402 73.796 50.2735 70.629 49.127C70.629 49.127 73.2344 54.6923 71.9194 57.7593C70.5978 60.8376 68.3155 64.7589 66.1046 67.1724C61.6694 64.3441 57.4749 61.1365 53.5812 57.5965C52.7009 54.9778 52.2061 52.2319 52.1214 49.4705C45.9255 51.081 35.0982 55.0759 35.0492 57.166C35.0002 59.2561 35.5841 85.5012 37.4429 99.5383C39.4309 107.232 35.0893 127.367 36.6338 128.143C41.4368 130.559 64.0274 135.248 92.3972 129.27H92.3927Z" fill="#EBE1D7"/>
<path d="M56.5375 84.4333C52.0176 85.1962 47.4108 85.2431 42.8775 84.5806C42.4541 84.5181 42.6346 83.8735 43.0558 83.9359C47.4621 84.5806 51.9708 84.5293 56.3615 83.7887C56.7827 83.7173 56.9632 84.362 56.5398 84.4333H56.5375Z" fill="#C4AD95"/>
<path d="M66.4372 67.3712C66.7537 71.3684 67.059 75.3678 67.3398 79.3695C67.6296 83.5073 67.8881 87.6472 68.0976 91.7917C68.3093 95.9807 68.472 100.172 68.5589 104.363C68.6459 108.512 68.6592 112.666 68.5701 116.814C68.4832 120.838 68.3004 124.86 67.9795 128.873C67.9393 129.364 67.8992 129.854 67.8547 130.345C67.8168 130.771 67.1481 130.776 67.186 130.345C67.5382 126.357 67.7499 122.357 67.8613 118.356C67.9772 114.218 67.9839 110.078 67.9171 105.938C67.848 101.745 67.7031 97.5533 67.5047 93.3665C67.3086 89.2131 67.059 85.0597 66.7759 80.9108C66.5018 76.8869 66.1987 72.8651 65.8844 68.8456C65.8465 68.3548 65.8064 67.8619 65.7685 67.3712C65.7351 66.9429 66.4037 66.9451 66.4372 67.3712Z" fill="#C4AD95"/>
<path d="M89.3057 80.5718C90.1704 87.5647 90.6897 94.5977 90.8613 101.642C90.9104 103.634 90.9282 105.626 90.9215 107.618C90.9215 108.048 90.2506 108.048 90.2529 107.618C90.2796 100.571 89.9587 93.527 89.2901 86.5118C89.1006 84.5288 88.8822 82.5481 88.6393 80.5718C88.5858 80.1457 89.2566 80.1502 89.3079 80.5718H89.3057Z" fill="#C4AD95"/>
<path d="M35.1001 82.521C35.0466 82.0949 35.7152 82.0994 35.7687 82.521C36.4819 88.2648 37.1973 94.0085 37.9105 99.7523C38.1111 101.372 38.3139 102.993 38.5145 104.613C38.568 105.039 37.8994 105.034 37.8459 104.613C37.6253 102.839 37.4046 101.066 37.184 99.2928C36.8318 100.178 36.4797 101.064 36.1253 101.952C36.0584 102.119 35.9024 102.237 35.713 102.186C35.5525 102.141 35.4121 101.943 35.479 101.773C35.9827 100.508 36.4864 99.2437 36.9878 97.979C36.9945 97.9611 37.0034 97.9455 37.0124 97.9299C36.5755 94.4123 36.1387 90.8969 35.7019 87.3792C35.5013 85.7598 35.2984 84.1382 35.0979 82.5188L35.1001 82.521Z" fill="#C4AD95"/>
<path d="M53.2273 74.0877C52.5342 69.0331 51.8433 60.6327 51.1501 55.5782C50.9674 54.2443 50.7846 52.8859 50.9874 51.5542C51.1746 50.3185 52.0483 49.2233 53.0401 48.4805C54.2592 56.9344 60.6513 63.6173 66.1006 67.1706C66.1006 67.1706 61.4158 65.0493 59.3787 66.0464C59.0265 66.2181 54.5935 72.7984 53.2273 74.0877Z" fill="#F3EDE7"/>
<path d="M70.4669 48.4805C70.4669 48.4805 71.5746 55.4087 71.5746 56.6645C71.5746 57.8133 66.103 67.1728 66.103 67.1728C66.103 67.1728 72.4259 65.7274 73.0923 65.7274C73.7587 65.7274 76.4756 71.9686 76.4756 71.9686C76.4756 71.9686 74.6391 55.5381 73.81 52.9461C72.9809 50.3564 70.4669 48.4827 70.4669 48.4827V48.4805Z" fill="#F3EDE7"/>
<path d="M104.975 213.479C105.026 215.563 105.077 217.644 105.129 219.727C109.684 224.715 114.579 229.845 120.939 231.701C122.638 232.196 124.677 232.669 125.332 234.369C125.932 235.926 124.907 237.748 123.487 238.549C122.067 239.352 120.38 239.395 118.764 239.419C109.689 239.555 100.615 239.827 91.5399 239.827C89.9263 239.827 89.2488 237.008 89.2488 234.409C89.2488 231.811 88.9746 213.479 88.9746 213.479H104.975Z" fill="#B3B3B3"/>
<path d="M93.7215 225.277C95.5134 227.071 104.475 225.677 104.07 223.078C103.706 220.74 105.518 219.569 105.518 219.569C110.455 224.97 115.044 229.571 121.048 231.322L121.405 231.425C123.099 231.911 125.02 232.462 125.7 234.229C126.248 235.652 125.644 237.787 123.68 238.895C122.14 239.765 120.351 239.792 118.768 239.816C115.744 239.861 112.67 239.923 109.695 239.981C103.744 240.1 97.5928 240.225 91.5373 240.225C89.5537 240.225 88.8517 237.093 88.8517 234.412C88.8517 233.196 88.7915 228.469 88.7269 223.816C89.6607 221.998 91.8048 223.364 93.7193 225.28L93.7215 225.277Z" fill="#302E2C"/>
<path d="M108.09 218.563C108.09 218.563 102.516 165.945 102.736 149.399C102.993 130.142 79.2275 137.309 78.8041 150.271C78.3583 163.915 86.2592 218.563 86.2592 218.563H108.09Z" fill="#4D0F0F"/>
<path d="M102.797 147.037C102.797 147.037 100.78 136.147 90.5853 134.311C80.391 132.475 47.031 130.145 47.031 130.145C47.031 130.145 37.3961 149.421 41.8871 154.235C46.378 159.049 86.3863 157.344 86.3863 157.344C86.3863 157.344 102.799 152.531 102.799 147.037H102.797Z" fill="#4D0F0F"/>
<path d="M89.8301 136.921C92.9192 137.72 96.1754 138.612 98.656 140.724C99.9576 141.833 100.896 143.263 101.484 144.864C102.115 146.589 102.347 148.433 102.483 150.256C102.654 152.556 102.906 154.842 103.047 156.923C103.076 157.354 102.579 157.391 102.527 156.965C102.064 153.18 102.182 149.676 101.143 145.982C100.682 144.345 99.8952 142.832 98.6694 141.639C97.5594 140.559 96.191 139.776 94.7713 139.179C93.1198 138.483 91.3836 138.014 89.6541 137.568C89.2373 137.461 89.4134 136.814 89.8324 136.924L89.8301 136.921Z" fill="#212B27"/>
<path d="M56.582 39.0898C55.617 38.4407 54.6408 37.7827 53.8407 36.7811C53.0406 35.7796 52.0733 34.245 51.9774 32.6367C51.8816 31.0285 52.7419 29.3533 53.727 28.4432C54.7121 27.5331 55.9491 28.0149 56.5642 29.273C56.8606 29.8775 57.1794 39.4913 56.5843 39.0898H56.582Z" fill="#FFBDA8"/>
<path d="M81.6931 42.4562C83.3112 42.1528 84.9471 41.845 86.4404 41.1513C87.9336 40.4576 89.2887 39.3423 89.9574 37.8366C90.626 36.331 90.4789 34.4104 89.3467 33.2171C88.2122 32.0237 86.2554 32.0772 84.9471 33.0765C84.3186 33.5583 80.6969 42.6435 81.6954 42.4562H81.6931Z" fill="#FFBDA8"/>
<path d="M72.0602 6.92913C72.3299 6.95144 74.8707 7.29272 75.1359 7.34179C83.2797 8.83629 90.8285 11.2542 87.9111 23.9485C87.9111 23.9485 84.6527 38.5344 83.5561 41.2959C82.9989 42.6967 81.86 43.9391 80.8571 45.0321C79.3304 46.6961 77.6187 48.2174 75.7421 49.4732C73.4398 51.0145 70.7742 52.2548 67.9794 51.88C65.3873 51.532 63.5352 50.5216 61.7834 48.8687C60.0406 47.2225 58.603 45.2462 57.3973 43.1785C56.479 41.6037 55.5786 39.8951 55.1351 38.1128C55.0816 37.9009 55.0348 37.6868 55.0103 37.4704C54.676 34.5193 55.3669 19.5877 55.3669 19.5877C55.8884 6.57224 63.8071 6.22649 72.058 6.92913H72.0602Z" fill="#FFBDA8"/>
<path d="M71.3917 30.7051C71.3917 30.7051 72.0068 36.4377 71.5054 37.321C70.6428 38.8378 68.1043 37.7783 68.1043 37.7783C68.1043 37.7783 70.0277 37.5039 70.2617 36.3351C70.4957 35.1663 71.3917 30.7051 71.3917 30.7051Z" fill="#DE876A"/>
<path d="M81.1987 30.2394C81.1808 30.2059 81.163 30.1747 81.1452 30.1435C80.14 28.4304 78.6713 27.4824 76.8949 27.4355C76.7412 27.4311 76.5762 27.4355 76.389 27.5961C76.0369 27.8995 75.8675 28.3144 75.6825 28.9367C77.8645 28.6244 79.7544 29.3159 81.1764 30.9554C81.3012 30.768 81.2878 30.748 81.2811 30.5584C81.2767 30.4223 81.241 30.3242 81.1987 30.2372V30.2394Z" fill="#5D392F"/>
<path d="M62.1807 26.5562C62.2097 26.5317 62.2364 26.5094 62.2654 26.4871C63.8478 25.287 65.5662 24.9703 67.2266 25.606C67.3715 25.6595 67.5208 25.7309 67.6323 25.9473C67.8418 26.3622 67.8418 26.8105 67.7749 27.4574C65.876 26.3354 63.8657 26.2551 61.9267 27.2276C61.8821 27.0068 61.9021 26.9934 61.9824 26.8217C62.0381 26.699 62.1094 26.6187 62.1807 26.5562Z" fill="#5D392F"/>
<path d="M76.2155 31.6016C76.3626 30.8633 77.1226 30.3949 77.9116 30.5532C78.7005 30.7116 79.2198 31.4388 79.0727 32.1749C79.0616 32.2329 79.0148 32.4626 79.0037 32.5206L78.7897 33.5801C78.6426 34.314 77.8893 34.4278 77.1627 34.2806C76.4361 34.1333 75.7853 33.7385 75.9324 33.0047L76.1464 31.9451C76.1575 31.8871 76.2043 31.6574 76.2155 31.5994V31.6016Z" fill="#5D392F"/>
<path d="M63.1813 29.1192C63.3284 28.3809 64.0884 27.9124 64.8774 28.0708C65.6664 28.2292 66.1857 28.9564 66.0386 29.6925C66.0274 29.7504 65.9806 29.9802 65.9695 30.0382L65.7555 31.0977C65.6084 31.8316 64.8551 31.9454 64.1285 31.7981C63.4019 31.6509 62.7512 31.2561 62.8983 30.5222L63.1122 29.4627C63.1234 29.4047 63.1702 29.175 63.1813 29.117V29.1192Z" fill="#5D392F"/>
<path d="M73.6855 40.1046C71.7376 41.5277 69.0743 41.724 66.9503 40.5708C66.3061 40.2206 65.7356 39.77 65.2408 39.2279C65.1472 39.1253 65.194 38.9447 65.2987 38.8688C65.4213 38.7796 65.564 38.822 65.6576 38.9268C67.1976 40.6198 69.6693 41.2444 71.829 40.5016C72.3862 40.3098 72.9099 40.0376 73.3869 39.6897C73.6543 39.4956 73.9552 39.9105 73.6878 40.1046H73.6855Z" fill="#DE876A"/>
<path d="M81.3322 25.8825C79.3887 25.1174 78.1228 24.4348 77.3561 22.8288C76.3286 20.6763 77.5188 18.6866 75.8584 17.9906C73.224 16.8865 67.641 19.2487 65.3565 17.549C64.8728 17.1899 64.4828 16.717 64.2042 16.1883C63.5601 17.0404 62.653 17.7698 61.7816 18.4122C60.2081 19.5677 58.4674 20.9038 58.2245 22.8221C58.0752 23.9998 58.5343 25.162 58.7438 26.333C59.1405 28.5547 56.2141 34.8584 56.2141 34.8584C55.0039 33.9974 55.1265 30.589 54.81 29.1547C54.4423 27.4907 54.8123 25.7531 54.5738 24.0668C54.3153 22.2578 53.3658 20.587 53.1719 18.7691C52.949 16.6991 53.816 14.56 55.3761 13.1636C55.3405 12.1621 55.3828 11.1606 55.5611 10.1724C55.94 8.06896 57.0076 6.00566 58.8196 4.82345C60.4265 3.77507 62.6642 3.58101 64.3112 4.51563C67.5206 1.90807 71.2359 -0.400597 75.2254 0.346651C78.8159 1.02029 81.4325 4.00482 84.6575 5.70007C86.5452 6.69269 88.6447 7.24141 90.557 8.18941C92.4692 9.13741 94.2768 10.6319 94.7916 12.6729C95.0524 13.7034 94.8384 14.8544 94.2901 15.76C94.825 16.2508 95.2151 16.9333 95.3176 17.6404C95.5449 19.2041 94.7871 20.7365 93.9246 22.0659C93.0621 23.3976 89.2844 24.591 88.9099 26.1256C88.4865 27.8588 85.3484 37.6533 84.4413 37.4815C83.7994 37.3611 84.2496 26.594 84.2496 26.594C83.9153 26.6186 81.9562 26.1234 81.3366 25.8802L81.3322 25.8825Z" fill="#151515"/>
<path d="M55.0924 12.8085C55.4914 12.2955 56.2737 12.9379 55.8725 13.4531C54.7648 14.8763 54.2099 16.5916 54.2277 18.3917C54.2433 20.0713 54.5709 21.7509 54.8049 23.4105L56.1823 33.1649C57.7224 30.7848 58.4489 27.9498 58.2417 25.108C58.1391 23.696 57.9475 22.2015 58.6763 20.91C59.2624 19.8728 60.2275 19.1456 61.168 18.4474C62.171 17.7024 63.3567 16.8972 63.6107 15.5856C63.7333 14.9476 64.734 15.0993 64.6092 15.7373C64.5557 16.0139 64.4755 16.2682 64.373 16.5068C64.4822 16.46 64.6092 16.4466 64.7496 16.4934C66.2407 16.9931 67.7874 17.3188 69.352 17.466C70.1588 17.5418 70.9701 17.5708 71.7813 17.5485C72.5614 17.5262 73.3415 17.4281 74.1215 17.4504C75.5056 17.4883 76.6333 18.0995 77.1927 19.3977C77.6831 20.5397 77.712 21.8201 78.3762 22.8975C79.1696 24.1823 80.469 25.0901 81.9556 25.3623C82.5952 25.4783 82.4437 26.4798 81.804 26.3616C80.5292 26.1274 79.3413 25.514 78.4297 24.586C77.5025 23.6403 77.0011 22.5272 76.6913 21.2558C76.5486 20.6691 76.4238 20.0423 76.1274 19.507C75.7597 18.8423 75.1267 18.5456 74.3934 18.4742C73.5643 18.3939 72.7196 18.5322 71.8905 18.5567C71.1149 18.579 70.3371 18.559 69.566 18.4987C67.783 18.3604 66.0334 17.9835 64.3395 17.4169C64.1679 17.3589 64.0765 17.2474 64.0476 17.118C63.0357 18.6571 61.0633 19.4445 59.8954 20.9056C58.9014 22.1502 59.1666 23.6916 59.2624 25.1682C59.365 26.7319 59.209 28.3067 58.7877 29.8168C58.3018 31.5499 57.504 33.1604 56.4163 34.5947C56.3851 34.6371 56.3495 34.6705 56.3138 34.6973C56.1132 35.0564 55.4312 35.0297 55.3577 34.5055C54.8116 30.6443 54.2656 26.7809 53.7218 22.9198C53.4766 21.1821 53.1467 19.4222 53.247 17.66C53.3496 15.8867 54.0115 14.2071 55.0991 12.8107L55.0924 12.8085Z" fill="#1B1B1B"/>
<path d="M58.1267 4.46187C59.9899 3.28188 62.4816 3.24843 64.3739 4.37934C64.385 4.38603 64.3939 4.39272 64.4051 4.39941C65.4214 2.38072 67.3738 0.982144 69.5312 0.375423C72.0942 -0.347289 74.7843 0.0542173 77.2605 0.915226C80.1021 1.90338 82.6608 3.51833 85.3263 4.88345C87.8827 6.19058 90.8915 6.96459 93.02 8.97659C94.0051 9.90674 94.7673 11.0823 94.9813 12.4385C95.193 13.7701 94.8542 15.1977 93.9115 16.1836C93.4657 16.6498 92.6812 16.0119 93.1314 15.539C94.8409 13.7478 93.8714 11.1135 92.2578 9.64576C90.2942 7.86129 87.5952 7.15196 85.2662 5.98313C80.8087 3.75031 76.0793 0.277277 70.8038 1.12044C68.4614 1.49518 66.197 2.86476 65.1985 5.07974C65.0469 5.41433 64.6881 5.42994 64.4519 5.27157C64.3293 5.38087 64.1532 5.41656 63.9615 5.30057C62.3769 4.35257 60.3019 4.28342 58.7151 5.28273C57.0435 6.33557 56.1854 8.35871 56.4796 10.2949C56.5777 10.9395 55.5725 11.0466 55.4744 10.4042C55.129 8.13119 56.1698 5.69762 58.1267 4.45964V4.46187Z" fill="#1B1B1B"/>
<path d="M84.6173 25.5813C84.2585 29.3599 84.1135 33.2612 84.7643 36.9952C86.496 34.488 86.8326 31.2782 87.7486 28.4275C88.2344 26.9174 88.9075 25.4274 89.9885 24.2474C91.1363 22.9938 92.7187 22.2979 93.9222 21.1201C94.8472 20.2167 95.6852 18.343 94.5151 17.288C94.0337 16.8552 94.6733 16.07 95.1592 16.5072C96.2267 17.4686 96.2669 18.972 95.7431 20.2346C95.0834 21.8227 93.5656 22.7061 92.2261 23.6563C90.7173 24.727 89.7143 26.0832 89.0413 27.803C88.3949 29.4558 88.045 31.2024 87.5725 32.9088C87.0487 34.8003 86.3801 36.6651 85.1231 38.2042C85.0785 38.26 85.0295 38.3001 84.976 38.3291C84.8779 38.7775 84.0823 38.7931 83.9708 38.2354C83.1284 34.0553 83.2154 29.6744 83.6188 25.4296C83.6812 24.7805 84.6797 24.9367 84.6173 25.5835V25.5813Z" fill="#1B1B1B"/>
<path d="M53.6466 27.9631C54.0144 27.7468 54.4089 28.2888 54.0367 28.5074C52.3361 29.5045 51.9171 31.6481 52.4342 33.437C52.9713 35.2906 54.2573 36.7606 55.5656 38.1324C55.6882 38.1458 55.8085 38.2194 55.8442 38.3421C55.8576 38.3845 55.8732 38.4268 55.8843 38.4715C55.9489 38.5495 55.9712 38.6365 55.9645 38.7213C56.3189 39.8522 56.7713 40.9519 57.3352 41.9936C57.4221 42.1519 57.4177 42.346 57.2572 42.4598C57.1235 42.5557 56.8783 42.5423 56.7914 42.3817C56.174 41.2418 55.6726 40.0462 55.2937 38.8083C54.1013 37.5681 52.9201 36.2832 52.1935 34.7018C51.5226 33.2407 51.2975 31.5477 51.9127 30.0264C52.2559 29.1766 52.8532 28.4271 53.6466 27.9631Z" fill="#E3A28D"/>
<path d="M58.5696 44.385C60.4663 47.7911 63.5798 50.9764 67.6295 51.4448C71.454 51.8887 75.0958 49.8321 77.7681 47.2692C79.5444 45.5672 81.0443 43.6043 82.5331 41.6525C82.7248 41.4005 83.0524 41.5655 83.1104 41.8042C84.7886 41.6481 86.3844 40.9588 87.6526 39.8413C88.9943 38.6591 90.2134 36.7207 89.7476 34.8604C89.5158 33.9347 88.8494 33.0469 87.8977 32.7859C87.4876 32.6722 87.5857 32.0097 87.998 32.1234C88.9742 32.3933 89.7186 33.0915 90.1465 34.0016C90.6057 34.9764 90.5856 36.085 90.2758 37.1021C89.6674 39.094 88.027 40.7001 86.1994 41.6168C85.1876 42.1254 84.0732 42.4243 82.9432 42.4957C82.8719 42.5001 82.8117 42.4845 82.7605 42.4578C80.2353 45.7568 77.5407 49.1205 73.7162 50.9496C71.9889 51.775 70.0833 52.2478 68.1621 52.1608C66.1317 52.0672 64.2039 51.2753 62.5702 50.0864C60.6735 48.7057 59.1624 46.8186 58.0258 44.7776C57.8185 44.4051 58.3601 44.0125 58.5696 44.3872V44.385Z" fill="#E3A28D"/>
<path d="M49.6303 187.601H19.3171C12.2664 187.601 6.55078 181.88 6.55078 174.824L6.55078 138.842C6.55078 131.786 12.2664 126.065 19.3171 126.065H49.6303C56.6809 126.065 62.3966 131.786 62.3966 138.842L62.3966 174.824C62.3966 181.88 56.6809 187.601 49.6303 187.601Z" fill="#0264D2"/>
<path d="M60.8581 135.264H126.096C126.629 135.264 126.945 134.724 126.798 134.062C126.651 133.401 126.096 132.859 125.563 132.859H60.3254C59.7927 132.859 59.4763 133.399 59.6234 134.062C59.7705 134.722 60.3254 135.264 60.8581 135.264Z" fill="#DFE5E8"/>
<path d="M139.32 135.162H89.0413C87.7909 135.162 86.6676 134.011 86.9797 133.051L100.497 91.7922C100.729 91.0828 101.455 90.6367 102.383 90.6367H150.782C152.659 90.6367 154.344 92.3632 153.873 93.8019L140.577 134.39C140.421 134.863 139.937 135.159 139.32 135.159V135.162Z" fill="#DFE5E8"/>
<path d="M141.096 135.251H90.7171C89.4646 135.251 88.3368 134.098 88.6533 133.136L102.197 91.7944C102.431 91.0828 103.158 90.6367 104.085 90.6367H152.581C154.459 90.6367 155.262 92.2115 154.789 93.6525L142.353 134.479C142.197 134.954 141.713 135.251 141.094 135.251H141.096Z" fill="#C9D4D8"/>
<path d="M149.217 104.667C137.668 119.393 117.576 130.319 100.013 121.452C97.6351 120.263 95.5066 118.202 94.3633 115.702L88.651 133.136C88.3367 134.097 89.4622 135.251 90.7148 135.251H141.093C141.713 135.251 142.197 134.954 142.353 134.479L153.936 96.4561C152.786 99.367 151.187 102.137 149.217 104.667Z" fill="#BEC8CC"/>
<path d="M153.742 115.185C153.637 117.92 149.79 127.446 145.654 123.514C145.654 123.514 146.637 118.839 147.35 113.545C147.648 111.326 151.462 107.097 151.876 106.477C151.876 106.477 153.884 111.42 153.74 115.187L153.742 115.185Z" fill="#FFBDA8"/>
<path d="M143.012 117.168C143.616 117.429 144.301 117.815 144.448 118.363C144.836 119.796 144.711 121.796 145.627 123.331C145.925 123.833 146.605 123.784 147.138 123.603C147.601 123.445 147.989 122.769 147.798 122.196C147.231 120.509 146.788 118.103 145.988 116.537C145.625 115.825 144.058 115.234 143.015 114.897C141.332 114.355 140.108 113.833 138.399 113.472C137.264 113.233 137.786 114.875 139.103 115.386C139.103 115.386 142.359 116.88 143.015 117.166L143.012 117.168Z" fill="#FFBDA8"/>
<path d="M153.53 112.361C153.321 110.454 152.113 104.795 151.259 103.05C150.408 101.308 145.883 97.5362 144.818 96.2425C143.75 94.951 142.64 97.0611 144.029 98.8077C145.417 100.554 148.665 105.049 148.665 105.049C148.665 105.049 149.599 110.286 149.683 111.518C149.768 112.749 153.74 114.266 153.53 112.359V112.361Z" fill="#FFBDA8"/>
<path d="M149.79 111.056C149.79 111.056 147.109 105.903 146.38 105.174C145.653 104.447 140.793 101.797 139.406 100.969C138.022 100.142 137.461 102.591 139.092 103.733C140.723 104.875 144.615 107.67 144.615 107.67C144.615 107.67 148.252 114.516 148.511 115.303C148.767 116.09 149.788 111.056 149.788 111.056H149.79Z" fill="#FFBDA8"/>
<path d="M148.997 116.155L145.69 110.351C145.69 110.351 141.094 107.143 139.708 106.316C138.324 105.488 137.762 107.938 139.393 109.08C141.025 110.222 144.392 113.039 144.392 113.039C144.392 113.039 147.089 119.338 147.348 120.126C147.604 120.913 148.997 116.155 148.997 116.155Z" fill="#FFBDA8"/>
<path d="M54.0637 128.012C51.2265 128.246 47.9368 127.932 46.5528 127.733C45.1687 127.535 25.5914 126.31 15.5486 125.931C12.9588 125.833 10.1261 125.637 8.22496 123.819C6.65815 122.32 5.81568 119.456 5.80454 117.038C5.78002 112.048 15.5687 109.641 21.6866 110.89C27.8045 112.139 40.7959 118.247 53.4263 120.065C56.5287 120.511 58.51 127.642 54.0659 128.012H54.0637Z" fill="#FFBDA8"/>
<path d="M63.8672 119.888C63.8672 119.888 56.8266 127.256 55.574 127.809C53.4701 128.737 50.254 129.174 48.9947 128.853C45.8477 128.05 44.1361 124.655 44.983 123.145C45.8321 121.635 54.4997 117.457 58.0546 117.243C61.6095 117.029 63.8672 119.888 63.8672 119.888Z" fill="#FFBDA8"/>
<path d="M54.5935 124.461C54.5935 124.461 58.0971 125.445 59.7174 126.948C60.9165 128.061 63.2232 131.784 64.0457 132.89C64.8681 133.997 63.4729 134.38 62.6081 133.785C61.068 132.728 57.7049 128.081 56.5727 128.074C51.266 128.041 54.5958 124.461 54.5958 124.461H54.5935Z" fill="#FFBDA8"/>
<path d="M58.7392 117.501C58.7392 117.501 63.4084 116.466 65.8979 117.593C68.3874 118.719 75.2453 124.113 75.9808 125.226C77.2267 127.115 75.9162 128.11 74.3939 127.202C72.1317 125.848 65.6862 121.037 64.3378 120.644C62.9894 120.254 58.2622 121.28 58.2622 121.28L58.7392 117.501Z" fill="#FFBDA8"/>
<path d="M57.743 120.337C57.743 120.337 61.1641 119.44 63.6514 120.564C66.1409 121.691 69.7649 130.678 70.6319 132.375C71.51 134.097 69.2768 134.387 68.2315 132.752C67.5049 131.617 63.4887 124.171 62.1381 123.779C60.7897 123.388 56.0157 124.252 56.0157 124.252L57.743 120.337Z" fill="#FFBDA8"/>
<path d="M55.4381 123.787C55.4381 123.787 58.5873 122.696 60.7715 123.484C62.9557 124.271 66.7312 130.187 67.7631 131.683C68.6501 132.973 67.1235 134.358 65.5143 132.562C64.0834 130.963 60.6734 126.674 59.4744 126.442C58.2775 126.21 55.1395 126.332 55.1395 126.332L55.4359 123.789L55.4381 123.787Z" fill="#FFBDA8"/>
</g>
<defs>
<clipPath id="clip0_1060_19565">
<rect width="176" height="244" fill="white" transform="matrix(-1 0 0 1 176 0)"/>
</clipPath>
</defs>
</svg>
