<svg width="16" height="16" viewBox="0 0 16 16" fill="none" xmlns="http://www.w3.org/2000/svg">
<path d="M6.68756 5.46595C6.74712 7.33755 9.46449 7.33725 9.52381 5.46591C9.46418 3.5944 6.74687 3.59497 6.68756 5.46595ZM8.10575 4.62124C8.32835 4.62389 8.54095 4.71407 8.69742 4.87221C8.8539 5.03034 8.94165 5.24371 8.94165 5.46602C8.94165 5.68834 8.85389 5.9017 8.69741 6.05984C8.54093 6.21798 8.32834 6.30814 8.10573 6.31079C7.88312 6.30814 7.67053 6.21796 7.51405 6.05982C7.35758 5.90168 7.26983 5.68832 7.26983 5.466C7.26983 5.24368 7.35759 5.03033 7.51407 4.87219C7.67055 4.71406 7.88314 4.62389 8.10575 4.62124Z" fill="#DD2A2B"/>
<path d="M9.05164 1.90662C9.12678 1.9055 9.19847 1.87491 9.25121 1.82145C9.30395 1.76799 9.33352 1.69595 9.33352 1.6209C9.33351 1.54585 9.30395 1.47382 9.2512 1.42036C9.19845 1.3669 9.12676 1.33631 9.05162 1.3352H8.16289C8.08701 1.3352 8.01424 1.3653 7.96059 1.41888C7.90693 1.47246 7.87679 1.54514 7.87679 1.62091V3.21629C7.87679 3.29207 7.90693 3.36474 7.96059 3.41832C8.01424 3.4719 8.08701 3.502 8.16289 3.502H9.05164C9.12682 3.50094 9.19855 3.47037 9.25134 3.4169C9.30412 3.36343 9.33371 3.29137 9.33371 3.21628C9.33371 3.1412 9.30411 3.06914 9.25132 3.01568C9.19854 2.96221 9.1268 2.93165 9.05162 2.93059H8.44899V2.70431H9.05164C9.12682 2.70324 9.19855 2.67267 9.25134 2.61921C9.30412 2.56574 9.33371 2.49367 9.33371 2.41859C9.33371 2.34351 9.30411 2.27145 9.25132 2.21798C9.19854 2.16452 9.1268 2.13395 9.05162 2.13289H8.44899V1.90662H9.05164Z" fill="#DD2A2B"/>
<path d="M11.0275 1.45073L10.6649 1.939L10.3022 1.45071C10.2564 1.3915 10.1892 1.35259 10.1149 1.34234C10.0407 1.33209 9.96544 1.35132 9.90527 1.39589C9.84509 1.44046 9.80482 1.50683 9.7931 1.58073C9.78139 1.65462 9.79916 1.73017 9.84261 1.79112L10.3086 2.4186L9.84258 3.04609C9.8202 3.07623 9.80398 3.11047 9.79485 3.14687C9.78572 3.18327 9.78386 3.2211 9.78938 3.25821C9.79489 3.29533 9.80767 3.331 9.82699 3.36318C9.84631 3.39536 9.87178 3.42343 9.90196 3.44578C9.93214 3.46813 9.96643 3.48432 10.0029 3.49344C10.0393 3.50255 10.0772 3.50441 10.1144 3.4989C10.1515 3.4934 10.1873 3.48063 10.2195 3.46134C10.2517 3.44205 10.2798 3.41661 10.3022 3.38648L10.6648 2.89821L11.0275 3.38648C11.0733 3.4457 11.1405 3.48462 11.2147 3.49488C11.289 3.50514 11.3643 3.48591 11.4244 3.44133C11.4846 3.39676 11.5249 3.33038 11.5366 3.25648C11.5483 3.18257 11.5305 3.10702 11.4871 3.04607L11.0211 2.41859L11.4871 1.7911C11.5305 1.73013 11.5482 1.65461 11.5365 1.58074C11.5248 1.50687 11.4845 1.44054 11.4243 1.39599C11.3642 1.35144 11.2889 1.33222 11.2147 1.34245C11.1405 1.35269 11.0733 1.39156 11.0275 1.45073Z" fill="#DD2A2B"/>
<path d="M12.6973 3.21629V1.6209C12.6962 1.54583 12.6656 1.47419 12.6121 1.42148C12.5585 1.36876 12.4864 1.33921 12.4112 1.33921C12.336 1.33921 12.2639 1.36876 12.2103 1.42148C12.1568 1.47419 12.1262 1.54583 12.1251 1.6209V3.21629C12.1262 3.29136 12.1568 3.363 12.2103 3.41572C12.2639 3.46843 12.336 3.49798 12.4112 3.49798C12.4864 3.49798 12.5585 3.46843 12.6121 3.41572C12.6656 3.363 12.6962 3.29136 12.6973 3.21629Z" fill="#DD2A2B"/>
<path d="M13.8516 3.50199C13.9275 3.50199 14.0003 3.47189 14.0539 3.41831C14.1076 3.36473 14.1377 3.29206 14.1377 3.21629V1.90661H14.4441C14.5199 1.90661 14.5927 1.87651 14.6464 1.82293C14.7 1.76935 14.7302 1.69668 14.7302 1.6209C14.7302 1.54513 14.7 1.47246 14.6464 1.41888C14.5927 1.3653 14.5199 1.3352 14.4441 1.3352H13.2592C13.1833 1.3352 13.1105 1.3653 13.0569 1.41888C13.0032 1.47246 12.9731 1.54513 12.9731 1.6209C12.9731 1.69668 13.0032 1.76935 13.0569 1.82293C13.1105 1.87651 13.1833 1.90661 13.2592 1.90661H13.5655V3.21629C13.5655 3.29206 13.5957 3.36473 13.6493 3.41831C13.703 3.47189 13.7757 3.50199 13.8516 3.50199Z" fill="#DD2A2B"/>
<path d="M11.0141 5.52496C11.0141 5.60073 11.0442 5.6734 11.0979 5.72698C11.1515 5.78056 11.2243 5.81066 11.3002 5.81066H12.8308L12.6365 6.00444C12.5834 6.05809 12.5537 6.13055 12.5538 6.20602C12.554 6.28148 12.5841 6.3538 12.6375 6.4072C12.6909 6.46059 12.7633 6.49072 12.8388 6.491C12.9144 6.49129 12.987 6.4617 13.0408 6.40871L13.7243 5.72709C13.751 5.70056 13.7721 5.66905 13.7865 5.63437C13.8009 5.59968 13.8083 5.5625 13.8083 5.52495C13.8083 5.4874 13.8009 5.45022 13.7865 5.41553C13.7721 5.38085 13.751 5.34934 13.7243 5.32281L13.0408 4.64119C12.987 4.5882 12.9144 4.55861 12.8388 4.5589C12.7633 4.55918 12.6909 4.58931 12.6375 4.64271C12.5841 4.6961 12.554 4.76843 12.5538 4.84389C12.5537 4.91935 12.5834 4.99182 12.6365 5.04547L12.8308 5.23924H11.3002C11.2626 5.23924 11.2254 5.24663 11.1907 5.26099C11.156 5.27535 11.1245 5.29639 11.0979 5.32293C11.0713 5.34946 11.0502 5.38095 11.0359 5.41562C11.0215 5.45028 11.0141 5.48744 11.0141 5.52496Z" fill="#DD2A2B"/>
<path d="M15.2183 0H7.38869C7.18143 0.000216302 6.98271 0.0825345 6.83615 0.228891C6.6896 0.375248 6.60716 0.573689 6.60695 0.78067V3.41996C6.60796 3.49507 6.63855 3.56677 6.69209 3.61952C6.74564 3.67228 6.81783 3.70186 6.89305 3.70186C6.96827 3.70185 7.04047 3.67227 7.09401 3.61951C7.14755 3.56675 7.17813 3.49506 7.17914 3.41995V0.78067C7.17921 0.725191 7.20131 0.672004 7.24059 0.632775C7.27988 0.593546 7.33314 0.571478 7.38869 0.571413H15.2183C15.2738 0.57148 15.3271 0.593548 15.3664 0.632777C15.4056 0.672006 15.4277 0.725192 15.4278 0.78067V15.2189C15.4277 15.2744 15.4056 15.3275 15.3664 15.3668C15.3271 15.406 15.2738 15.4281 15.2183 15.4281H6.30124L7.52601 12.7741C7.64337 12.5224 7.66883 12.2377 7.59797 11.9692C7.52711 11.7008 7.3644 11.4656 7.13806 11.3044L6.48582 10.8387C6.41163 10.7864 6.3606 10.7074 6.34341 10.6183C6.32622 10.5293 6.34422 10.437 6.39362 10.3609L6.86719 9.63102L7.00941 9.9583C7.08425 10.1308 7.19895 10.2831 7.3441 10.4029C7.48926 10.5226 7.66074 10.6062 7.84451 10.647L9.26969 10.9672C9.50788 11.0177 9.7564 10.9732 9.96223 10.8433C10.1681 10.7134 10.3149 10.5083 10.3715 10.2718C10.4281 10.0353 10.3898 9.78611 10.265 9.57734C10.1402 9.36857 9.9386 9.21677 9.70328 9.15431L8.76064 8.91397C8.66182 8.88916 8.57214 8.83671 8.50213 8.76277C8.43213 8.68884 8.3847 8.59649 8.36544 8.49657C8.27471 8.07505 8.24677 7.45219 7.82354 7.20728C7.47613 6.99371 6.71702 6.35954 6.30505 6.29601L4.88686 5.9612C4.51874 5.87714 4.13267 5.92669 3.79779 6.10098L2.14588 6.96439C1.97213 7.0587 1.83464 7.20793 1.75497 7.38868C1.67529 7.56944 1.65795 7.77148 1.70566 7.96314C1.75336 8.1548 1.86341 8.32522 2.01856 8.44769C2.1737 8.57015 2.36516 8.63773 2.56291 8.63982C2.70284 8.64022 2.8408 8.60687 2.96506 8.54261L4.5488 7.7332L5.08719 7.92488L4.74522 8.48176C4.72545 8.51375 4.71219 8.54932 4.70621 8.58643C4.70023 8.62355 4.70164 8.66147 4.71036 8.69804C4.71909 8.73461 4.73495 8.7691 4.75704 8.79954C4.77913 8.82997 4.80702 8.85576 4.8391 8.87541C4.87119 8.89507 4.90685 8.90821 4.94403 8.91408C4.9812 8.91995 5.01918 8.91844 5.05577 8.90963C5.09237 8.90082 5.12686 8.88489 5.15728 8.86274C5.1877 8.8406 5.21344 8.81268 5.23304 8.78058L5.75941 7.92346C5.78132 7.88713 5.79491 7.84641 5.79921 7.80422C5.80351 7.76203 5.79842 7.71941 5.78429 7.67942C5.77017 7.63943 5.74736 7.60304 5.71751 7.57288C5.68766 7.54272 5.6515 7.51952 5.61161 7.50495L4.62452 7.15353C4.58775 7.14051 4.5487 7.13511 4.50977 7.13765C4.47084 7.14019 4.43283 7.15063 4.39807 7.16832L2.70342 8.03437C2.62829 8.07023 2.54225 8.07593 2.46303 8.05032C2.38381 8.0247 2.31745 7.96971 2.27763 7.89668C2.24019 7.82202 2.23332 7.73574 2.25849 7.65611C2.28365 7.57648 2.33886 7.50976 2.41243 7.47008L4.06267 6.60753C4.27637 6.49663 4.52247 6.46485 4.75738 6.51782L6.17335 6.85207C6.44338 6.88299 7.26448 7.53969 7.4995 7.6782C7.54508 7.70898 7.58407 7.7485 7.61421 7.79446C7.64435 7.84042 7.66505 7.89191 7.67508 7.94593L7.80361 8.60481C7.84358 8.81131 7.94163 9.00216 8.08629 9.15502C8.23095 9.30788 8.41622 9.41642 8.62042 9.46793L9.56183 9.70788C9.62829 9.72548 9.68839 9.76156 9.73512 9.81193C9.78185 9.86229 9.8133 9.92488 9.82582 9.99239C9.83833 10.0599 9.83138 10.1296 9.80579 10.1933C9.7802 10.2571 9.73701 10.3122 9.68125 10.3524C9.64022 10.3815 9.59349 10.4017 9.54412 10.4116C9.49475 10.4214 9.44385 10.4207 9.39475 10.4096L7.96941 10.0894C7.8738 10.0684 7.78454 10.025 7.70897 9.96278C7.6334 9.9006 7.57367 9.82142 7.53468 9.73173L7.17985 8.91465C7.15871 8.86779 7.12539 8.82743 7.08337 8.79777C7.04134 8.76811 6.99212 8.75022 6.94083 8.74596C6.88955 8.74171 6.83805 8.75124 6.7917 8.77356C6.74534 8.79589 6.70581 8.8302 6.67722 8.87294L5.91362 10.0498C5.78372 10.2492 5.7361 10.4911 5.78073 10.7248C5.82536 10.9585 5.95878 11.1659 6.15306 11.3035L6.80614 11.7698C6.92376 11.8537 7.0082 11.9762 7.04482 12.1159C7.08144 12.2556 7.06792 12.4036 7.00661 12.5344L5.74459 15.2691C5.71462 15.3315 5.66245 15.3805 5.59826 15.4065C5.53407 15.4325 5.46247 15.4337 5.39744 15.4099C5.36377 15.3965 5.33308 15.3765 5.30716 15.3512C5.28123 15.3259 5.26058 15.2957 5.2464 15.2624C5.23222 15.2291 5.22478 15.1933 5.22452 15.1571C5.22427 15.1209 5.23119 15.085 5.2449 15.0515L6.0089 13.2054C6.1068 12.9686 6.12565 12.7066 6.06264 12.4583C5.99962 12.2099 5.85811 11.9885 5.6591 11.8268L4.30531 10.7235C4.25674 10.6834 4.22429 10.6272 4.21395 10.5652C4.2036 10.5031 4.21606 10.4395 4.24901 10.3859L5.54414 8.27403C5.58233 8.20941 5.59354 8.13238 5.57534 8.05957C5.55715 7.98676 5.51101 7.92403 5.44689 7.8849C5.38277 7.84578 5.30581 7.8334 5.23263 7.85046C5.15946 7.86751 5.09593 7.91262 5.05577 7.97604L3.76064 10.0881C3.6824 10.2169 3.64041 10.3643 3.63913 10.5149C3.63784 10.6655 3.67729 10.8136 3.75333 10.9437L3.23692 11.5545C3.16944 11.6344 3.08527 11.6987 2.99032 11.7427C2.89536 11.7867 2.79191 11.8095 2.68722 11.8094H0.915437C0.671907 11.8115 0.439081 11.9096 0.267634 12.0823C0.0961875 12.2551 -2.64051e-06 12.4884 0 12.7316C2.64062e-06 12.9748 0.0961978 13.2082 0.267648 13.3809C0.439099 13.5537 0.671927 13.6518 0.915457 13.6539H3.30411C3.49599 13.6543 3.68551 13.6118 3.85882 13.5295C4.03213 13.4473 4.18482 13.3274 4.30574 13.1786L5.14697 12.1469C5.29532 12.2227 5.41095 12.3498 5.47222 12.5046C5.53349 12.6593 5.5362 12.831 5.47986 12.9876L4.7163 14.8327C4.66346 14.964 4.64424 15.1063 4.66039 15.2468C4.67654 15.3873 4.72754 15.5216 4.80878 15.6375C4.89002 15.7533 4.99892 15.8471 5.12562 15.9104C5.25232 15.9736 5.39282 16.0042 5.53438 15.9995L15.2183 15.9996C15.4255 15.9993 15.6242 15.917 15.7708 15.7707C15.9174 15.6243 15.9998 15.4259 16 15.2189V0.78067C15.9998 0.57369 15.9174 0.37525 15.7708 0.228893C15.6242 0.0825357 15.4255 0.00021706 15.2183 0ZM3.86205 12.8177C3.79471 12.9006 3.70965 12.9674 3.61311 13.0132C3.51657 13.059 3.41099 13.0827 3.30411 13.0825H0.915437C0.823176 13.0811 0.735166 13.0435 0.670417 12.9779C0.605667 12.9122 0.569375 12.8238 0.569377 12.7316C0.56938 12.6395 0.605678 12.5511 0.670431 12.4854C0.735184 12.4198 0.823196 12.3822 0.915457 12.3808H2.68721C2.87518 12.381 3.06092 12.3401 3.23141 12.261C3.40189 12.182 3.55301 12.0666 3.67416 11.9231L4.16294 11.345L4.70369 11.7857L3.86205 12.8177Z" fill="#DD2A2B"/>
</svg>
