<svg width="48" height="48" viewBox="0 0 48 48" fill="none" xmlns="http://www.w3.org/2000/svg">
<rect width="48" height="48" rx="24" fill="#0267D9"/>
<path d="M24 25C24.5523 25 25 24.5523 25 24C25 23.4477 24.5523 23 24 23C23.4477 23 23 23.4477 23 24C23 24.5523 23.4477 25 24 25Z" stroke="white" stroke-width="2" stroke-linecap="round" stroke-linejoin="round"/>
<path d="M24 18C24.5523 18 25 17.5523 25 17C25 16.4477 24.5523 16 24 16C23.4477 16 23 16.4477 23 17C23 17.5523 23.4477 18 24 18Z" stroke="white" stroke-width="2" stroke-linecap="round" stroke-linejoin="round"/>
<path d="M24 32C24.5523 32 25 31.5523 25 31C25 30.4477 24.5523 30 24 30C23.4477 30 23 30.4477 23 31C23 31.5523 23.4477 32 24 32Z" stroke="white" stroke-width="2" stroke-linecap="round" stroke-linejoin="round"/>
</svg>
