<svg width="13" height="12" viewBox="0 0 13 12" fill="none" xmlns="http://www.w3.org/2000/svg">
<path d="M6.5 0.5C5.41221 0.5 4.34884 0.822569 3.44437 1.42692C2.5399 2.03127 1.83495 2.89025 1.41867 3.89524C1.00238 4.90024 0.893465 6.0061 1.10568 7.073C1.3179 8.13989 1.84173 9.1199 2.61092 9.88909C3.3801 10.6583 4.36011 11.1821 5.42701 11.3943C6.4939 11.6065 7.59977 11.4976 8.60476 11.0813C9.60976 10.6651 10.4687 9.96011 11.0731 9.05564C11.6774 8.15117 12 7.0878 12 6C11.9983 4.54184 11.4183 3.14389 10.3872 2.11281C9.35611 1.08174 7.95817 0.50172 6.5 0.5ZM6.5 10.5C5.60999 10.5 4.73996 10.2361 3.99994 9.74161C3.25992 9.24715 2.68314 8.54434 2.34254 7.72208C2.00195 6.89981 1.91284 5.99501 2.08647 5.12209C2.2601 4.24918 2.68869 3.44736 3.31802 2.81802C3.94736 2.18868 4.74918 1.7601 5.6221 1.58647C6.49501 1.41283 7.39981 1.50195 8.22208 1.84254C9.04434 2.18314 9.74715 2.75991 10.2416 3.49993C10.7361 4.23996 11 5.10998 11 6C10.9987 7.19307 10.5241 8.33689 9.68052 9.18052C8.83689 10.0241 7.69307 10.4987 6.5 10.5Z" fill="#DD2A2B"/>
<path d="M8.5 5.5H4.5C4.36739 5.5 4.24021 5.55268 4.14645 5.64645C4.05268 5.74021 4 5.86739 4 6C4 6.13261 4.05268 6.25979 4.14645 6.35355C4.24021 6.44732 4.36739 6.5 4.5 6.5H8.5C8.63261 6.5 8.75979 6.44732 8.85355 6.35355C8.94732 6.25979 9 6.13261 9 6C9 5.86739 8.94732 5.74021 8.85355 5.64645C8.75979 5.55268 8.63261 5.5 8.5 5.5Z" fill="#DD2A2B"/>
</svg>
