<svg width="191" height="116" viewBox="0 0 191 116" fill="none" xmlns="http://www.w3.org/2000/svg">
<path fill-rule="evenodd" clip-rule="evenodd" d="M145.47 26.0199C143.793 28.2533 142.958 31.7282 142.717 37.4793C142.456 43.7079 142.821 45.1189 144.691 45.1189C146.802 45.1189 147.115 44.2654 147.145 38.41C147.161 35.3559 147.378 32.7532 147.659 32.2617C148.104 31.4807 148.247 31.5859 149.38 33.525C152.904 39.5551 154.214 40.7639 156.576 40.1675C157.931 39.8257 160.11 37.6382 161.566 35.1586C162.243 34.0057 162.828 33.4307 163.073 33.6778C163.294 33.8996 164.133 36.1225 164.938 38.6178C165.743 41.1131 166.678 43.3308 167.016 43.546C167.863 44.0851 169.826 43.5246 170.315 42.6035C170.6 42.067 170.248 40.3099 169.113 36.6062C166.845 29.2067 165.519 26.4542 164.04 26.081C162.42 25.6724 161.68 26.239 160.225 29.0019C158.051 33.1295 156.937 34.6417 156.069 34.6417C154.981 34.6417 153.653 32.9021 152.076 29.4119C149.788 24.3483 147.578 23.2137 145.47 26.0199ZM171.043 27.8054C170.359 28.3091 170.277 28.8452 170.456 31.6492C170.715 35.7104 172.148 39.0281 174.94 42.0285C177.674 44.9683 180.308 45.7283 183.437 44.4806C184.044 44.2384 184.165 45.0141 184.427 50.8359C184.59 54.4833 184.827 57.6356 184.954 57.8412C185.08 58.0472 185.851 58.2153 186.668 58.2153C188.931 58.2153 189.43 57.0589 189.023 52.7585C188.594 48.2271 188.924 41.4095 189.777 37.1859C190.489 33.6595 190.35 32.0927 189.225 30.9616C188.41 30.1413 186.286 30.058 185.658 30.8219C185.411 31.1223 185.071 33.0374 184.902 35.0783C184.539 39.4612 183.724 40.7534 181.324 40.7534C178.63 40.7534 176.496 37.3714 175.126 30.9311C174.82 29.4904 174.382 28.0664 174.153 27.7661C173.608 27.0501 172.044 27.0702 171.043 27.8054ZM54.9876 41.6745C52.3479 42.9885 51.2585 44.7321 51.0532 47.9739C50.8318 51.4741 51.9463 53.7979 54.5951 55.359C58.167 57.4636 62.3892 56.618 65.0554 53.2635C66.2502 51.7605 66.3887 51.2768 66.3887 48.6113C66.3887 45.9457 66.2502 45.462 65.0554 43.959C62.4995 40.7433 58.625 39.8641 54.9876 41.6745ZM78.9117 43.0453C77.9778 44.0659 75.8222 46.8651 74.1207 49.2661C69.6471 55.5803 66.977 58.4052 64.1836 59.779C61.8956 60.9049 61.3989 60.9699 53.5171 61.1777C47.8208 61.3279 45.0965 61.5615 44.7556 61.9282C44.3866 62.325 44.064 62.3376 43.4896 61.9766C42.6482 61.4484 41.8411 61.699 32.9581 65.2455C25.2513 68.3227 22.539 67.9543 13.8549 62.652C3.06985 56.0666 2.27533 55.7366 0.897291 57.2676C-0.79204 59.1443 0.110586 60.5971 4.60288 63.2317C21.5457 73.1697 21.4128 73.0798 22.005 75.0224C22.3298 76.088 22.5373 79.4717 22.5377 83.7058C22.5382 89.7149 22.6354 90.7046 23.2641 91.1036C23.7786 91.4297 24.3065 91.4192 25.075 91.0669C25.9763 90.6543 26.2112 90.1576 26.463 88.1311C26.8203 85.2538 28.1801 82.3774 29.7119 81.2572C33.1001 78.7807 37.0284 80.3466 44.1969 87.031C47.582 90.1872 49.1841 91.4008 49.841 91.3065C50.7836 91.1712 51.1743 90.5042 54.6077 83.1723C59.3292 73.0903 65.3007 71.73 70.1377 79.6341C71.4584 81.7928 72.4592 82.4525 73.6918 81.9766C74.9673 81.4846 74.9278 80.1628 73.5559 77.43C71.6777 73.6892 70.0834 69.0784 69.7813 66.5124C69.4821 63.9716 69.6419 63.6805 75.603 55.9077C77.6683 53.2151 80.3961 49.6524 81.6652 47.99C84.1495 44.7356 84.466 43.4325 83.104 42.063C81.8033 40.7551 80.7904 40.9926 78.9117 43.0453ZM22.104 49.6887C17.4333 51.3663 15.6636 57.1803 18.6324 61.0939C20.4416 63.4788 21.8765 63.9965 26.1778 63.8158C30.3592 63.6399 33.6515 62.4049 35.9972 60.1322L37.2997 58.8701L35.2848 58.7392C32.9069 58.5842 32.2196 57.9241 31.4494 55.0547C30.8502 52.8222 27.8007 49.4896 26.3467 49.4782C25.9238 49.4752 25.1866 49.3804 24.709 49.2687C24.2314 49.1565 23.0592 49.3455 22.104 49.6887ZM173.507 61.0778C171.635 62.3957 172.899 65.2001 175.364 65.2001C176.527 65.2001 178.186 64.0192 178.186 63.1911C178.186 62.2809 176.216 60.3981 175.263 60.3981C174.828 60.3981 174.037 60.7041 173.507 61.0778ZM184.156 61.3061C183.165 61.8863 183.184 63.5617 184.19 64.4776C184.627 64.8753 185.704 65.2001 186.587 65.2001C187.878 65.2001 188.287 64.9862 188.687 64.1044C189.653 61.9718 186.424 59.9777 184.156 61.3061ZM87.2768 62.6083C84.6262 63.2688 81.4268 65.2184 80.4882 66.7459C78.6178 69.7887 80.0631 73.2644 82.7693 72.2298C83.9871 71.7645 84.4065 70.9608 84.4065 69.0932C84.4065 67.8211 85.3478 67.3147 85.9352 68.2708C86.2091 68.7165 87.4274 82.4119 87.4396 85.1813C87.4474 86.9873 88.9835 87.8941 90.7019 87.107C91.7473 86.6281 91.7873 86.4587 91.7873 82.518V78.4262L94.5885 77.6635C98.2385 76.6704 101.551 74.5365 103.163 72.1399C105.441 68.7527 104.369 65.5026 100.253 63.3216C98.8429 62.5743 97.6207 62.3817 93.741 62.2944C91.1143 62.2355 88.2054 62.3769 87.2768 62.6083ZM52.9787 64.9713C54.7253 65.2891 55.9254 66.6171 55.6366 67.9132C55.5142 68.462 53.9595 72.8982 52.1811 77.7722L48.9484 86.6337L46.3803 83.667C44.9679 82.0356 41.9071 78.6034 39.5791 76.0405C35.0317 71.0346 34.5854 69.9838 36.3229 68.3786C36.8599 67.8822 38.8237 66.7114 40.6862 65.7763L44.0727 64.0769L47.8499 64.4008C49.9274 64.5793 52.2354 64.836 52.9787 64.9713ZM97.6485 67.1851C100.105 68.3908 100.219 69.8633 97.998 71.7073C96.3686 73.0601 92.0434 74.7705 91.5376 74.262C91.1373 73.8595 90.4118 67.33 90.6875 66.608C91.0301 65.7113 95.3809 66.0719 97.6485 67.1851ZM173.575 66.9703C172.287 67.4492 172.069 68.2778 171.795 73.7403C171.517 79.2757 171.918 81.0446 173.992 83.4194C176.394 86.1706 179.473 86.8363 182.789 85.3219C187.052 83.3753 189.379 78.7527 189.525 71.9369C189.581 69.3451 189.466 68.8684 188.615 68.176C187.641 67.3824 185.812 67.148 184.511 67.65C183.918 67.8787 183.859 68.4912 184.1 71.9391C184.42 76.5132 183.935 78.6938 182.177 80.5884C181.564 81.2485 180.724 81.7889 180.311 81.7889C177.153 81.7889 176.204 78.3673 177.406 71.3214C177.761 69.2386 177.786 68.1162 177.485 67.8133C176.758 67.082 174.553 66.6066 173.575 66.9703ZM165.696 67.6229C164.925 68.166 164.413 68.2092 163.103 67.8434C155.658 65.7645 147.193 70.9075 147.193 77.5099C147.193 78.9195 147.068 79.4093 146.821 78.9653C146.326 78.0765 145.359 78.121 143.954 79.0972C140.695 81.362 136.802 81.9299 134.444 80.4841C132.458 79.267 132.618 78.4013 134.878 78.1228C143.075 77.1139 143.187 77.0847 144.477 75.6393C145.475 74.5204 145.673 73.9669 145.487 72.8148C145.142 70.6766 144.04 69.2814 141.86 68.2201C140.265 67.4439 139.418 67.3125 137.27 67.5086C134.124 67.7954 131.849 69.2124 129.56 72.311C128.725 73.4421 127.706 74.3676 127.296 74.3676C125.469 74.3676 125.22 78.1075 127.03 78.3755C127.634 78.4646 128.12 78.9845 128.386 79.8245C129.794 84.2803 135.622 86.4059 141.566 84.6308C144.114 83.8699 147.36 81.6462 147.36 80.6613C147.36 80.2038 147.726 80.4125 148.46 81.2899C149.911 83.0239 152.076 83.6945 155.366 83.429C158.556 83.1715 160.392 82.3106 162.925 79.886L164.813 78.0783L164.499 81.3524C163.718 89.5067 161.33 93.5613 158.433 91.6523C157.86 91.2751 157.066 90.2763 156.668 89.4333C156.247 88.541 155.627 87.9006 155.184 87.9006C154.032 87.9006 152.136 89.5922 152.136 90.6194C152.136 93.0506 156.44 96.1968 159.763 96.1933C161.478 96.192 163.975 94.9845 165.065 93.6294C166.134 92.3001 167.405 88.9963 168.024 85.9361C168.921 81.5056 169.363 68.4847 168.647 67.6164C167.942 66.7621 166.915 66.7642 165.696 67.6229ZM112.844 68.1743C110.478 69.2914 108.624 70.9355 107.623 72.8048C107.162 73.6643 106.479 74.3676 106.103 74.3676C104.204 74.3676 103.641 77.5998 105.421 78.2804C106.059 78.524 106.659 79.2744 106.967 80.2121C108.592 85.1613 115.956 86.7555 122.418 83.5565C125.731 81.9168 126.463 80.9045 125.456 79.3587C125.075 78.7746 124.6 78.2965 124.4 78.2965C124.201 78.2965 122.837 78.9191 121.371 79.6795C117.921 81.4681 114.738 81.7745 112.736 80.5098C111.959 80.02 111.325 79.3438 111.325 79.0072C111.325 78.3764 112.366 78.1555 117.907 77.6133C119.499 77.4575 121.397 76.9646 122.129 76.5172C124.676 74.9596 124.426 71.2467 121.62 68.9727C119.492 67.2488 115.562 66.8908 112.844 68.1743ZM117.592 71.7374C119.299 72.39 118.981 73.3771 116.969 73.6744C116.014 73.8154 114.451 74.0467 113.495 74.1877C112.105 74.3929 111.759 74.3091 111.759 73.7665C111.759 73.0606 112.875 72.3049 114.773 71.7256C116.305 71.2581 116.338 71.2581 117.592 71.7374ZM140.088 72.0439C140.969 72.5651 140.266 73.4399 138.786 73.6626C132.714 74.5763 132.057 74.4842 133.793 72.9641C135.371 71.582 138.528 71.1206 140.088 72.0439ZM162.778 72.029C163.696 72.3831 163.593 72.8724 162.16 74.9674C158.731 79.9768 151.673 81.2616 151.716 76.8677C151.736 74.7426 153.766 72.7157 156.887 71.7047C157.982 71.3493 161.522 71.5444 162.778 72.029ZM27.3826 100.855C27.0235 101.216 27.0044 108.542 27.3604 109.474C27.7794 110.572 29.8386 110.286 31.7985 108.859C33.7327 107.45 34.4707 105.751 33.6046 104.702C32.8813 103.826 31.9304 103.888 30.2446 104.921L28.8335 105.786V103.663C28.8335 101.67 28.0607 100.174 27.3826 100.855ZM79.474 101.737C79.3216 101.89 79.1965 102.67 79.1965 103.471C79.1965 104.635 79.0229 104.926 78.3282 104.926C77.8459 104.926 77.4599 105.217 77.4599 105.581C77.4599 105.944 77.8459 106.236 78.3282 106.236C79.0472 106.236 79.1965 106.527 79.1965 107.929C79.1965 109.54 80.0379 110.919 80.6475 110.306C80.8047 110.148 80.9332 109.191 80.9332 108.178C80.9332 106.704 81.1064 106.292 81.8015 106.109C82.5826 105.904 82.6698 106.096 82.6698 108.023C82.6698 109.635 82.8305 110.165 83.3211 110.165C83.6897 110.165 83.9723 109.773 83.9723 109.263C83.9723 107.762 84.7985 106.672 85.9361 106.672C86.843 106.672 87.0423 106.931 87.2789 108.418C87.5472 110.104 88.7481 110.971 88.7481 109.479C88.7481 108.855 88.8102 108.855 89.4302 109.479C90.3168 110.37 93.055 110.359 94.3324 109.459C95.5801 108.58 94.9502 107.651 93.5991 108.378C92.4524 108.995 90.6194 108.99 90.2378 108.369C89.8396 107.722 90.876 107.085 92.2215 107.149C94.5051 107.258 94.8264 107.125 94.8264 106.07C94.8264 105.328 94.4548 104.877 93.5239 104.489C91.8498 103.792 89.9438 104.511 89.2175 106.114L88.706 107.243L88.0227 106.262C87.4708 105.469 87.0158 105.312 85.656 105.442L83.9723 105.604V103.737C83.9723 102.369 83.7982 101.87 83.3211 101.87C82.8661 101.87 82.6698 102.331 82.6698 103.398C82.6698 104.737 82.5353 104.926 81.5844 104.926C80.6371 104.926 80.499 104.735 80.499 103.424C80.499 101.955 80.028 101.18 79.474 101.737ZM108.72 103.113C108.72 104.578 108.565 104.888 107.777 105.005C106.387 105.211 106.238 106.236 107.598 106.236C108.638 106.236 108.72 106.379 108.72 108.2C108.72 109.655 108.889 110.165 109.371 110.165C109.853 110.165 110.022 109.655 110.022 108.2C110.022 106.527 110.151 106.236 110.89 106.236C111.373 106.236 111.759 105.944 111.759 105.581C111.759 105.221 111.38 104.926 110.917 104.926C110.261 104.926 110.045 104.572 109.94 103.323C109.748 101.04 108.72 100.863 108.72 103.113ZM35.5609 105.107C33.1691 107.512 33.9771 110.165 37.1018 110.165C38.0521 110.165 39.1471 109.819 39.748 109.329C41.0118 108.299 40.6463 107.803 39.0685 108.406C37.3479 109.064 35.7802 108.97 35.7802 108.208C35.7802 107.504 37.6267 106.856 38.3513 107.306C38.9747 107.693 40.556 106.776 40.556 106.027C40.556 105.194 38.8571 104.053 37.6175 104.053C37.0627 104.053 36.1375 104.527 35.5609 105.107ZM66.7656 105.612L65.3033 107.171V105.83C65.3033 104.607 65.1796 104.49 63.8923 104.496C63.1164 104.5 62.206 104.678 61.8699 104.892C61.5005 105.127 60.8562 105.097 60.2418 104.815C59.5103 104.48 58.9202 104.489 58.1396 104.847C57.4792 105.149 57.0542 105.177 57.0542 104.917C57.0542 104.682 56.8588 104.489 56.62 104.489C56.3752 104.489 56.1859 105.726 56.1859 107.327C56.1859 109.558 56.3252 110.165 56.8371 110.165C57.2743 110.165 57.4884 109.725 57.4884 108.826C57.4884 107.172 58.1808 105.799 59.0149 105.799C59.7243 105.799 60.2357 107.379 60.02 108.906C59.9218 109.601 60.1176 109.973 60.636 110.077C61.2295 110.195 61.3958 109.931 61.3958 108.867C61.3958 107.41 63.2297 105.101 64.0043 105.583C64.2413 105.73 64.435 106.821 64.435 108.008C64.435 109.634 64.5952 110.165 65.0862 110.165C65.4444 110.165 65.7375 109.961 65.7375 109.713C65.7375 109.401 65.9984 109.401 66.5771 109.713C67.9113 110.43 70.324 110.241 71.4419 109.329C72.7023 108.301 72.2221 107.656 70.7117 108.348C69.3098 108.99 67.6148 109 67.2271 108.369C66.8277 107.719 67.8696 107.091 69.2108 107.174C71.3911 107.308 71.8158 107.131 71.8158 106.088C71.8158 105.417 71.4363 104.892 70.7099 104.56C68.9798 103.767 68.3346 103.939 66.7656 105.612ZM102.549 104.762C100.859 105.476 100.053 106.864 100.86 107.674C101.121 107.938 102.166 108.114 103.182 108.067C105.108 107.977 105.061 108.158 102.788 109.568C101.298 110.492 102.548 110.667 104.283 109.777C107.41 108.173 107.188 106.423 103.908 106.813C102.222 107.014 101.863 106.943 102.053 106.447C102.366 105.626 103.755 105.22 105.096 105.559C105.983 105.782 106.157 105.689 106.037 105.052C105.842 104.027 104.545 103.919 102.549 104.762ZM115.374 104.387C114.855 104.472 113.923 105.052 113.303 105.675C110.406 108.589 112.128 111.35 115.688 109.498C116.836 108.902 116.969 108.902 116.969 109.498C116.969 109.865 117.243 110.165 117.579 110.165C118.039 110.165 118.139 109.708 117.986 108.309C117.559 104.399 117.337 104.065 115.374 104.387ZM118.524 106.781C118.865 109.934 118.956 110.165 119.863 110.165C120.37 110.165 120.467 109.886 120.255 109.036C120.1 108.415 120.085 107.553 120.222 107.119C120.528 106.15 122.729 105.177 123.912 105.488C124.56 105.659 124.784 105.504 124.784 104.885C124.784 103.904 123.506 103.785 121.29 104.562C120.185 104.949 119.799 104.949 119.67 104.562C119.577 104.282 119.215 104.053 118.865 104.053C118.342 104.053 118.281 104.54 118.524 106.781ZM135.067 106.225C134.545 107.42 134.021 108.398 133.901 108.399C133.782 108.399 133.134 107.618 132.462 106.663C131.79 105.707 131.057 104.926 130.834 104.926C130.002 104.926 130.495 106.514 131.908 108.388L133.366 110.322L132.575 112.635C132.07 114.111 131.941 115.046 132.22 115.219C132.837 115.603 132.792 115.69 134.967 109.928C137.11 104.252 137.162 104.053 136.478 104.053C136.224 104.053 135.59 105.03 135.067 106.225ZM158.372 104.703C156.706 105.407 155.609 106.918 155.609 108.507C155.609 110.025 157.167 110.536 158.998 109.618C160.116 109.057 160.305 109.064 160.703 109.685C161.468 110.877 161.806 109.875 161.492 107.345C161.136 104.481 160.391 103.849 158.372 104.703ZM161.873 105.035C161.984 105.576 162.195 106.95 162.342 108.091C162.524 109.502 162.813 110.165 163.248 110.165C163.711 110.165 163.857 109.732 163.78 108.585C163.647 106.6 165.074 105.245 167.084 105.447C168.039 105.543 168.417 105.395 168.417 104.926C168.417 104.019 166.308 103.849 164.75 104.63C163.673 105.17 163.446 105.175 163.249 104.66C162.846 103.604 161.646 103.931 161.873 105.035ZM169.903 105.329C168.454 106.787 168.269 108.387 169.428 109.442C170.502 110.42 173.074 110.36 174.339 109.329C175.603 108.299 175.237 107.803 173.659 108.406C171.963 109.054 170.371 108.969 170.371 108.229C170.371 107.468 171.806 106.954 172.93 107.313C174.098 107.685 175.275 106.419 174.724 105.383C173.798 103.644 171.604 103.619 169.903 105.329ZM42.874 105.334C40.6076 106.724 40.414 109.456 42.544 109.994C44.8633 110.579 50.2109 108.945 48.3514 108.219C47.9828 108.075 46.8418 108.255 45.8163 108.619C43.7505 109.352 42.132 108.908 42.3751 107.676C42.5648 106.712 45.3522 105.273 45.9934 105.808C46.5635 106.284 47.0684 105.938 47.0684 105.071C47.0684 104.193 44.4704 104.355 42.874 105.334ZM50.3051 105.561C48.2832 107.594 49.2922 110.165 52.1121 110.165C54.8013 110.165 56.9022 106.694 55.2307 105.013C54.2907 104.068 51.4787 104.381 50.3051 105.561ZM138.44 105.561C136.418 107.594 137.427 110.165 140.247 110.165C141.283 110.165 142.101 109.818 142.858 109.057C143.928 107.981 143.966 107.974 144.192 108.843C144.457 109.86 145.461 110.166 148.138 110.045L150.001 109.96L149.875 107.368C149.729 104.377 148.663 103.271 148.663 106.112C148.663 108.139 148.058 108.855 146.349 108.855H145.077L145.366 106.672C145.596 104.922 145.529 104.489 145.024 104.489C144.677 104.489 144.304 104.735 144.194 105.035C144.035 105.472 143.88 105.472 143.42 105.035C142.407 104.074 139.627 104.368 138.44 105.561ZM32.6611 106.111C32.5239 106.829 29.9706 108.855 29.2035 108.855C28.382 108.855 28.913 107.555 30.1695 106.493C31.7112 105.188 32.8721 105.011 32.6611 106.111ZM39.0364 105.799C38.8888 106.039 38.182 106.236 37.4656 106.236C36.708 106.236 36.2751 106.053 36.4314 105.799C36.579 105.559 37.2858 105.363 38.0022 105.363C38.7598 105.363 39.1927 105.545 39.0364 105.799ZM54.4492 106.236C55.2398 107.721 54.2929 108.855 52.2632 108.855C50.8313 108.855 50.5417 108.708 50.5417 107.982C50.5417 106.864 52.0261 105.363 53.1315 105.363C53.6004 105.363 54.1935 105.755 54.4492 106.236ZM70.2962 105.799C70.1486 106.039 69.4044 106.233 68.6424 106.229C67.5883 106.224 67.4129 106.121 67.9083 105.799C68.7692 105.239 70.64 105.239 70.2962 105.799ZM93.5239 105.799C93.5239 106.039 92.9261 106.236 92.1958 106.236C91.4208 106.236 90.9793 106.054 91.136 105.799C91.2837 105.559 91.8811 105.363 92.4641 105.363C93.0472 105.363 93.5239 105.559 93.5239 105.799ZM116.535 106.48C116.535 107.398 114.937 108.855 113.93 108.855C112.657 108.855 112.87 107.785 114.401 106.49C115.759 105.341 116.535 105.337 116.535 106.48ZM142.498 105.886C143.753 107.148 142.412 108.855 140.166 108.855C138.967 108.855 138.677 108.685 138.677 107.982C138.677 106.11 141.293 104.675 142.498 105.886ZM159.668 107.435C158.841 108.554 156.478 109.376 156.478 108.545C156.478 107.823 157.888 106.167 158.803 105.813C160.25 105.254 160.681 106.064 159.668 107.435ZM173.41 105.799C173.41 106.039 172.812 106.236 172.082 106.236C171.307 106.236 170.865 106.054 171.022 105.799C171.17 105.559 171.767 105.363 172.35 105.363C172.933 105.363 173.41 105.559 173.41 105.799Z" fill="#151515"/>
<path d="M123.707 1.6584C124.132 0.530127 125.719 0.530127 126.143 1.6584L130.049 12.0373C130.183 12.3947 130.466 12.6752 130.824 12.8053L141.295 16.6158C142.441 17.0327 142.441 18.6619 141.295 19.0788L130.824 22.8893C130.466 23.0193 130.183 23.2999 130.049 23.6573L126.143 34.0362C125.719 35.1645 124.132 35.1645 123.707 34.0362L119.802 23.6573C119.667 23.2999 119.384 23.0193 119.027 22.8893L108.555 19.0788C107.409 18.6619 107.409 17.0327 108.555 16.6158L119.027 12.8053C119.384 12.6752 119.667 12.3947 119.802 12.0373L123.707 1.6584Z" fill="#0267D9"/>
<path d="M107.64 30.5524C108.059 29.4122 109.663 29.4122 110.083 30.5524L113.051 38.6173C113.183 38.9758 113.464 39.2584 113.82 39.3911L121.841 42.3754C122.975 42.7973 122.975 44.41 121.841 44.8319L113.82 47.8162C113.464 47.9488 113.183 48.2315 113.051 48.59L110.083 56.6549C109.663 57.7951 108.059 57.7951 107.64 56.6549L104.672 48.59C104.54 48.2315 104.259 47.9488 103.902 47.8162L95.8812 44.8319C94.7472 44.41 94.7472 42.7973 95.8812 42.3754L103.902 39.3911C104.259 39.2584 104.54 38.9758 104.672 38.6173L107.64 30.5524Z" fill="#F8A70D"/>
<path d="M91.1414 15.2732C91.561 14.133 93.1649 14.133 93.5845 15.2732L95.6144 20.789C95.7463 21.1475 96.0274 21.4301 96.3839 21.5628L101.87 23.6038C103.004 24.0257 103.004 25.6384 101.87 26.0603L96.3839 28.1014C96.0274 28.234 95.7463 28.5166 95.6144 28.8751L93.5845 34.3909C93.1649 35.5311 91.561 35.5311 91.1414 34.3909L89.1115 28.8751C88.9796 28.5166 88.6985 28.234 88.342 28.1014L82.8563 26.0603C81.7223 25.6384 81.7223 24.0257 82.8563 23.6038L88.342 21.5628C88.6985 21.4301 88.9796 21.1475 89.1115 20.789L91.1414 15.2732Z" fill="#DD2A2B"/>
<path d="M188.964 63.03C188.964 65.4311 187.701 65.2128 186.142 65.2128C184.584 65.2128 183.32 64.2355 183.32 63.03C183.32 61.2838 184.584 60.8473 186.142 60.8473C187.701 60.8473 188.964 61.7204 188.964 63.03Z" fill="#0267D9"/>
<path d="M178.11 63.03C178.11 64.558 176.847 65.2128 175.288 65.2128C173.73 65.2128 172.466 64.2355 172.466 63.03C172.466 61.2838 173.73 60.4107 175.288 60.4107C176.847 60.4107 178.11 61.7204 178.11 63.03Z" fill="#DD2A2B"/>
</svg>
