<svg width="117" height="122" viewBox="0 0 117 122" fill="none" xmlns="http://www.w3.org/2000/svg">
<path d="M53.839 25.5793C50.1846 25.5793 47.2093 28.5521 47.2093 32.209C47.2093 35.866 50.1821 38.8388 53.839 38.8388C57.496 38.8388 60.4688 35.866 60.4688 32.209C60.4688 28.5521 57.496 25.5793 53.839 25.5793ZM53.839 35.8832C51.8112 35.8832 50.1624 34.2344 50.1624 32.2066C50.1624 30.1787 51.8112 28.5299 53.839 28.5299C55.8669 28.5299 57.5157 30.1787 57.5157 32.2066C57.5157 34.2344 55.8669 35.8832 53.839 35.8832ZM92.6283 59.1563V54.4977H93.8317C94.6463 54.4977 95.3083 53.8357 95.3083 53.0212V48.7859H102.428C103.242 48.7859 103.904 48.1239 103.904 47.3093V41.5975C103.904 40.7829 103.242 40.1209 102.428 40.1209H101.04V35.8857C101.04 35.2384 100.619 34.665 99.9988 34.4755L55.3156 20.6771V13.4985H60.4516C60.4623 13.8829 60.6226 14.2479 60.8984 14.5159C61.1741 14.7838 61.5436 14.9336 61.9281 14.9332H73.5831C74.1442 14.9332 74.6561 14.6158 74.9047 14.1162C75.1532 13.6142 75.0991 13.0162 74.7619 12.5683L72.7169 9.85879L74.7619 7.1493C75.0991 6.70141 75.1557 6.1034 74.9047 5.60137C74.6537 5.09934 74.1442 4.78434 73.5831 4.78434H67.2905C67.2798 4.39996 67.1195 4.03494 66.8437 3.76698C66.568 3.49902 66.1985 3.34927 65.814 3.34961H55.3131V1.93457C55.3131 1.12 54.6512 0.458008 53.8366 0.458008C53.022 0.458008 52.36 1.12 52.36 1.93457V20.6795L7.67678 34.478C7.05908 34.67 6.6358 35.2409 6.6358 35.8881V40.1234H5.24783C4.43326 40.1234 3.77127 40.7854 3.77127 41.6V47.3118C3.77127 48.1264 4.43326 48.7884 5.24783 48.7884H12.3673V53.0236C12.3673 53.8382 13.0293 54.5002 13.8439 54.5002H15.0473V82.0012H13.8439C13.0293 82.0012 12.3673 82.6632 12.3673 83.4777V87.713H8.11236C7.29779 87.713 6.6358 88.375 6.6358 89.1896V93.4249H2.3833C1.56873 93.4249 0.906738 94.0868 0.906738 94.9014V100.613C0.906738 101.428 1.56873 102.09 2.3833 102.09H55.0917C59.9028 113.509 71.2083 121.544 84.3571 121.544C101.859 121.544 116.096 107.305 116.096 89.8048C116.096 75.1647 106.132 62.8108 92.6308 59.1612L92.6283 59.1563ZM89.6752 58.5091C87.9452 58.2162 86.1684 58.0612 84.3547 58.0612C83.673 58.0612 82.9962 58.0858 82.3244 58.1276V54.4977H89.6752V58.5091ZM47.4824 87.7105V84.9518H52.9851C52.8448 85.8599 52.7464 86.7779 52.6849 87.7105H47.48H47.4824ZM29.5078 81.9987H28.3044V54.4977H29.5078C30.3223 54.4977 30.9843 53.8357 30.9843 53.0212V48.7859H44.5293V53.0212C44.5293 53.8357 45.1913 54.4977 46.0059 54.4977H47.2093V81.9987H46.0059C45.1913 81.9987 44.5293 82.6607 44.5293 83.4753V87.7105H30.9843V83.4753C30.9843 82.6607 30.3223 81.9987 29.5078 81.9987ZM60.1932 51.5446H47.4824V48.7859H60.1932V51.5446ZM53.588 81.9987H50.1624V54.4977H57.5132V72.8809C55.7325 75.6946 54.407 78.7718 53.5856 81.9987H53.588ZM60.4688 54.4977H61.6722C62.4868 54.4977 63.1488 53.8357 63.1488 53.0212V48.7859H76.6938V53.0212C76.6938 53.8357 77.3558 54.4977 78.1703 54.4977H79.3737V58.4525C71.8826 59.6386 65.2553 63.4555 60.4688 68.9262V54.4977ZM92.3576 51.5446H79.6469V48.7859H92.3576V51.5446ZM64.3399 6.3052C64.3506 6.68957 64.5109 7.05459 64.7867 7.32255C65.0624 7.59051 65.4319 7.74026 65.8164 7.73992H70.6202L69.6899 8.97285C69.4971 9.22934 69.3928 9.54157 69.3928 9.86248C69.3928 10.1834 69.4971 10.4956 69.6899 10.7521L70.6202 11.985H63.4047C63.394 11.6007 63.2337 11.2356 62.9579 10.9677C62.6821 10.6997 62.3127 10.55 61.9281 10.5503H55.3156V6.30766H64.3399V6.3052ZM9.58893 36.9783L53.8366 23.3127L98.0842 36.9783V40.1234H9.58893V36.9783ZM6.72439 43.0765H100.951V45.8352H6.72439V43.0765ZM28.0312 48.7884V51.5471H15.3204V48.7884H28.0312ZM18.0004 54.5002H25.3512V82.0012H18.0004V54.5002ZM15.3204 84.9543H28.0312V87.713H15.3204V84.9543ZM9.58893 90.6661H52.6283C52.6529 91.5964 52.7193 92.5143 52.8251 93.4249H9.58893V90.6661ZM3.8574 99.1342V96.3755H53.3026C53.4994 97.3107 53.7381 98.2311 54.0162 99.1342H3.85986H3.8574ZM84.3547 118.588C68.4816 118.588 55.5691 105.675 55.5691 89.8023C55.5691 73.9293 68.4816 61.0168 84.3547 61.0168C100.228 61.0168 113.14 73.9293 113.14 89.8023C113.14 105.675 100.228 118.588 84.3547 118.588ZM108.359 82.9339L85.0462 70.5554C84.8327 70.4426 84.5949 70.3837 84.3534 70.3837C84.112 70.3837 83.8742 70.4426 83.6607 70.5554L60.3482 82.9339C59.8659 83.1898 59.5632 83.6918 59.5632 84.2382C59.5632 84.7845 59.8659 85.2865 60.3482 85.5425L66.6384 88.882V101.521C66.6381 101.82 66.7286 102.112 66.8978 102.358C67.067 102.604 67.3069 102.793 67.5858 102.899L83.8231 109.123C83.9929 109.19 84.1726 109.222 84.3522 109.222C84.5319 109.222 84.7115 109.19 84.8813 109.123L101.119 102.899C101.397 102.792 101.637 102.603 101.806 102.357C101.975 102.111 102.066 101.82 102.066 101.521V88.882L108.356 85.5425C108.839 85.2865 109.141 84.7845 109.141 84.2382C109.141 83.6918 108.839 83.1898 108.356 82.9339H108.359ZM99.1154 100.505L84.3547 106.163L69.594 100.505V90.4496L83.6607 97.921C83.8772 98.0366 84.116 98.0932 84.3522 98.0932C84.5885 98.0932 84.8272 98.0366 85.0437 97.921L94.5553 92.8687V97.6035C94.5553 98.4181 95.2172 99.0801 96.0318 99.0801C96.8464 99.0801 97.5084 98.4181 97.5084 97.6035V91.3011L99.1104 90.4496V100.505H99.1154ZM99.8955 86.6917C99.8955 86.6917 99.8881 86.6966 99.8857 86.6966L95.328 89.1182L85.1988 83.0618C84.4999 82.6435 83.5918 82.8723 83.1734 83.5713C82.7551 84.2702 82.9839 85.1782 83.6828 85.5966L92.2813 90.7375L84.3571 94.9457L68.8286 86.6991C68.8286 86.6991 68.8212 86.6942 68.8163 86.6917L64.1947 84.2382L84.3571 73.5306L104.52 84.2382L99.8955 86.6942V86.6917Z" fill="#6A6A6A"/>
</svg>
