<svg width="32" height="26" viewBox="0 0 32 26" fill="none" xmlns="http://www.w3.org/2000/svg">
<path d="M10.3125 8C10.3125 10.0711 8.63356 11.75 6.5625 11.75C4.49137 11.75 2.8125 10.0711 2.8125 8C2.8125 5.92894 4.49137 4.25 6.5625 4.25C8.63356 4.25 10.3125 5.92894 10.3125 8Z" stroke="#0264D2" stroke-width="2" stroke-miterlimit="10" stroke-linecap="round" stroke-linejoin="round"/>
<path d="M21.5625 5.5C21.5625 7.57106 19.8836 9.25 17.8125 9.25C15.7414 9.25 14.0625 7.57106 14.0625 5.5C14.0625 3.42894 15.7414 1.75 17.8125 1.75C19.8836 1.75 21.5625 3.42894 21.5625 5.5Z" stroke="#0264D2" stroke-width="2" stroke-miterlimit="10" stroke-linecap="round" stroke-linejoin="round"/>
<path d="M12.1791 17.2076C12.0897 14.1791 9.61263 11.75 6.5625 11.75C3.45588 11.75 0.9375 14.2684 0.9375 17.375V24.25" stroke="#0264D2" stroke-width="2" stroke-miterlimit="10" stroke-linecap="round" stroke-linejoin="round"/>
<path d="M31.0625 8L19.1875 19.875L16.0625 16.75L8.5625 24.25H0.9375" stroke="#0264D2" stroke-width="2" stroke-miterlimit="10" stroke-linecap="round" stroke-linejoin="round"/>
<path d="M17.8125 9.25C14.7059 9.25 12.1875 11.7684 12.1875 14.875V20.625L16.0625 16.75L19.1875 19.875L23.4375 15.625V14.875C23.4375 11.7684 20.9191 9.25 17.8125 9.25Z" stroke="#0264D2" stroke-width="2" stroke-miterlimit="10" stroke-linecap="round" stroke-linejoin="round"/>
<path d="M27.3125 8H31.0625V11.75" stroke="#0264D2" stroke-miterlimit="10" stroke-linecap="round" stroke-linejoin="round"/>
</svg>
