<svg width="20" height="20" viewBox="0 0 20 20" fill="none" xmlns="http://www.w3.org/2000/svg">
<path fill-rule="evenodd" clip-rule="evenodd" d="M4.92917 7.85326C5.52071 7.36992 6.32215 7.20703 7.24129 7.20703H9.51629C10.5276 7.20703 11.3977 7.40498 11.9994 8.00517C12.6014 8.60578 12.7996 9.47428 12.7996 10.482V12.757C12.7996 13.7684 12.6017 14.6389 11.9999 15.2406C11.3981 15.8424 10.5276 16.0404 9.51629 16.0404H7.24129C6.33141 16.0404 5.53853 15.8819 4.94888 15.4145C4.34004 14.9319 4.06572 14.2164 3.98575 13.3744C3.95312 13.0309 4.20523 12.7258 4.54886 12.6932C4.89249 12.6605 5.19752 12.9126 5.23015 13.2563C5.29185 13.9059 5.48004 14.2404 5.72536 14.4349C5.98988 14.6446 6.44283 14.7904 7.24129 14.7904H9.51629C10.405 14.7904 10.8636 14.6091 11.116 14.3568C11.3684 14.1044 11.5496 13.6457 11.5496 12.757V10.482C11.5496 9.59811 11.3687 9.14161 11.1165 8.89011C10.864 8.63828 10.405 8.45703 9.51629 8.45703H7.24129C6.43542 8.45703 5.98269 8.60661 5.72007 8.8212C5.47459 9.02178 5.28595 9.37037 5.23091 10.0492C5.20301 10.3933 4.90149 10.6495 4.55744 10.6216C4.21339 10.5938 3.9571 10.2922 3.98499 9.9482C4.05495 9.08536 4.32048 8.35062 4.92917 7.85326Z" fill="#0267D9"/>
<path fill-rule="evenodd" clip-rule="evenodd" d="M8.45809 7.20703H9.50801C10.5193 7.20703 11.3894 7.40499 11.9911 8.00517C12.5931 8.60578 12.7913 9.47428 12.7913 10.482V11.5403C13.6582 11.5358 14.1085 11.3559 14.3578 11.1068C14.6101 10.8544 14.7913 10.3957 14.7913 9.50703V7.23203C14.7913 6.34817 14.6104 5.89122 14.3588 5.6396C14.1072 5.38797 13.6502 5.20703 12.7663 5.20703H10.4913C9.60109 5.20703 9.14251 5.38682 8.89051 5.63756C8.64167 5.88521 8.46142 6.33463 8.45809 7.20703ZM8.00882 4.75151C8.61101 4.15225 9.48159 3.95703 10.4913 3.95703H12.7663C13.7742 3.95703 14.6422 4.15526 15.2427 4.75571C15.8431 5.35617 16.0413 6.22422 16.0413 7.23203V9.50703C16.0413 10.5184 15.8434 11.3889 15.2416 11.9906C14.6398 12.5924 13.7693 12.7904 12.758 12.7904H12.1663C11.8212 12.7904 11.5413 12.5105 11.5413 12.1654V10.482C11.5413 9.59811 11.3604 9.14161 11.1083 8.89011C10.8558 8.63828 10.3967 8.45703 9.50801 8.45703H7.83301C7.48783 8.45703 7.20801 8.17721 7.20801 7.83203V7.23203C7.20801 6.22087 7.40589 5.35149 8.00882 4.75151Z" fill="#0267D9"/>
<path fill-rule="evenodd" clip-rule="evenodd" d="M18.3333 11.875C18.6785 11.875 18.9583 12.1548 18.9583 12.5C18.9583 16.0702 16.0702 18.9583 12.5 18.9583C12.2748 18.9583 12.0671 18.8373 11.9562 18.6413C11.8452 18.4453 11.8482 18.2048 11.9641 18.0118L12.8391 16.5534C13.0167 16.2574 13.4006 16.1615 13.6966 16.3391C13.9926 16.5167 14.0885 16.9006 13.9109 17.1966L13.6848 17.5734C15.9924 17.038 17.7083 14.9722 17.7083 12.5C17.7083 12.1548 17.9882 11.875 18.3333 11.875Z" fill="#0267D9"/>
<path fill-rule="evenodd" clip-rule="evenodd" d="M6.315 2.42597C4.00742 2.96132 2.2915 5.0272 2.2915 7.49935C2.2915 7.84452 2.01168 8.12435 1.6665 8.12435C1.32133 8.12435 1.0415 7.84452 1.0415 7.49935C1.0415 3.92917 3.92966 1.04102 7.49984 1.04102C7.725 1.04102 7.93277 1.16213 8.04371 1.35808C8.15465 1.55402 8.15162 1.79449 8.03577 1.98757L7.16077 3.44591C6.98318 3.7419 6.59926 3.83787 6.30328 3.66028C6.00729 3.48269 5.91131 3.09877 6.0889 2.80279L6.315 2.42597Z" fill="#0267D9"/>
</svg>
