<svg width="20" height="20" viewBox="0 0 20 20" fill="none" xmlns="http://www.w3.org/2000/svg">
<g clip-path="url(#clip0_8742_53524)">
<path d="M17.8516 4.72656L13.125 0H3.35938C2.69531 0 2.14844 0.546875 2.14844 1.17188V18.8281C2.14844 19.1406 2.30469 19.4531 2.5 19.6484C2.73438 19.8828 3.00781 20 3.35938 20H16.6406C16.9922 20 17.2656 19.8828 17.5 19.6484C17.6953 19.4531 17.8516 19.1406 17.8516 18.8281V4.72656Z" fill="#DFDFDF"/>
<path d="M13.2812 0.0782649L17.7734 4.57045C17.9297 4.68764 17.8125 4.96108 17.6172 4.96108H14.0625C13.3984 4.96108 12.8906 4.4142 12.8906 3.7892V0.234515C12.8906 0.0392024 13.125 -0.0779851 13.2812 0.0782649Z" fill="#B5B5B5"/>
<path d="M2.14844 9.375V16.0938H14.5312C14.8828 16.0938 15.1562 15.9766 15.3906 15.7422C15.5859 15.5469 15.7031 15.2344 15.7031 14.9219V10.5469C15.7031 10.1953 15.5859 9.92188 15.3906 9.6875C15.1562 9.49219 14.8828 9.375 14.5312 9.375H2.14844Z" fill="#3C5A82"/>
<path d="M3.90625 7.85156C3.59375 7.85156 3.59375 8.32031 3.90625 8.32031H13.9844C14.2969 8.32031 14.2969 7.85156 13.9844 7.85156H3.90625Z" fill="#B5B5B5"/>
<path d="M3.90625 6.05469C3.59375 6.05469 3.59375 6.52344 3.90625 6.52344H13.9844C14.2969 6.52344 14.2969 6.05469 13.9844 6.05469H3.90625Z" fill="#B5B5B5"/>
<path d="M4.0725 13.6973V11.3732H4.94404C5.12258 11.3732 5.27238 11.4042 5.39343 11.4662C5.51523 11.5282 5.60715 11.6152 5.66919 11.7272C5.73198 11.8384 5.76338 11.9682 5.76338 12.1165C5.76338 12.2655 5.7316 12.3949 5.66805 12.5046C5.60526 12.6135 5.51258 12.6979 5.39002 12.7576C5.26746 12.8166 5.11691 12.8462 4.93836 12.8462H4.31762V12.4966H4.88162C4.98603 12.4966 5.07151 12.4823 5.13809 12.4535C5.20467 12.424 5.25384 12.3813 5.28562 12.3253C5.31815 12.2685 5.33441 12.1989 5.33441 12.1165C5.33441 12.034 5.31815 11.9636 5.28562 11.9054C5.25309 11.8464 5.20353 11.8017 5.13696 11.7715C5.07038 11.7405 4.98451 11.7249 4.87935 11.7249H4.49351V13.6973H4.0725ZM5.27313 12.6442L5.84849 13.6973H5.37867L4.81353 12.6442H5.27313ZM6.87947 13.7313C6.70471 13.7313 6.55378 13.695 6.42668 13.6224C6.30034 13.549 6.20312 13.4453 6.13503 13.3114C6.06694 13.1768 6.0329 13.0183 6.0329 12.8359C6.0329 12.6566 6.06694 12.4993 6.13503 12.3639C6.20388 12.2277 6.29996 12.1218 6.42327 12.0461C6.54659 11.9697 6.69147 11.9315 6.85791 11.9315C6.96534 11.9315 7.06672 11.9489 7.16204 11.9837C7.25812 12.0177 7.34286 12.0707 7.41624 12.1426C7.49038 12.2144 7.54864 12.306 7.591 12.4172C7.63337 12.5276 7.65455 12.6593 7.65455 12.8121V12.9381H6.22582V12.6612H7.26077C7.26001 12.5825 7.24299 12.5125 7.2097 12.4512C7.17642 12.3892 7.12989 12.3404 7.07012 12.3048C7.01111 12.2693 6.94227 12.2515 6.86358 12.2515C6.77961 12.2515 6.70584 12.2719 6.64229 12.3128C6.57874 12.3529 6.52919 12.4058 6.49363 12.4717C6.45883 12.5367 6.44105 12.6082 6.4403 12.6861V12.9279C6.4403 13.0292 6.45883 13.1162 6.4959 13.1889C6.53297 13.2607 6.5848 13.316 6.65137 13.3546C6.71795 13.3924 6.79587 13.4113 6.88515 13.4113C6.94491 13.4113 6.99901 13.403 7.04743 13.3863C7.09584 13.3689 7.13783 13.3436 7.17339 13.3103C7.20895 13.277 7.23581 13.2358 7.25396 13.1866L7.63753 13.2297C7.61332 13.3311 7.56717 13.4196 7.49908 13.4953C7.43175 13.5702 7.3455 13.6284 7.24034 13.67C7.13518 13.7109 7.01489 13.7313 6.87947 13.7313ZM8.00209 14.3509V11.9542H8.40609V12.2424H8.42992C8.4511 12.2001 8.48099 12.155 8.51957 12.1074C8.55815 12.059 8.61036 12.0177 8.67618 11.9837C8.742 11.9489 8.82597 11.9315 8.92811 11.9315C9.06277 11.9315 9.1842 11.9659 9.29238 12.0348C9.40133 12.1028 9.48757 12.2038 9.55112 12.3378C9.61543 12.4709 9.64758 12.6343 9.64758 12.828C9.64758 13.0194 9.61618 13.1821 9.55339 13.316C9.4906 13.4499 9.40511 13.552 9.29692 13.6224C9.18874 13.6927 9.06618 13.7279 8.92924 13.7279C8.82938 13.7279 8.74653 13.7113 8.68071 13.678C8.6149 13.6447 8.56194 13.6046 8.52184 13.5577C8.4825 13.51 8.45186 13.465 8.42992 13.4226H8.4129V14.3509H8.00209ZM8.40495 12.8257C8.40495 12.9384 8.42084 13.0372 8.45262 13.1219C8.48515 13.2066 8.53168 13.2728 8.5922 13.3205C8.65348 13.3674 8.72762 13.3909 8.81462 13.3909C8.90541 13.3909 8.98144 13.3667 9.04272 13.3182C9.104 13.2691 9.15015 13.2021 9.18117 13.1174C9.21295 13.0319 9.22883 12.9347 9.22883 12.8257C9.22883 12.7175 9.21332 12.6215 9.18231 12.5375C9.15129 12.4535 9.10514 12.3877 9.04386 12.34C8.98258 12.2924 8.90617 12.2685 8.81462 12.2685C8.72686 12.2685 8.65234 12.2916 8.59106 12.3378C8.52978 12.3839 8.48326 12.4486 8.45148 12.5318C8.42046 12.615 8.40495 12.713 8.40495 12.8257ZM10.7597 13.7313C10.5895 13.7313 10.442 13.6939 10.3171 13.619C10.1923 13.5441 10.0955 13.4393 10.0266 13.3046C9.95852 13.17 9.92448 13.0126 9.92448 12.8325C9.92448 12.6525 9.95852 12.4947 10.0266 12.3593C10.0955 12.2239 10.1923 12.1187 10.3171 12.0438C10.442 11.9689 10.5895 11.9315 10.7597 11.9315C10.9299 11.9315 11.0775 11.9689 11.2023 12.0438C11.3271 12.1187 11.4236 12.2239 11.4917 12.3593C11.5605 12.4947 11.5949 12.6525 11.5949 12.8325C11.5949 13.0126 11.5605 13.17 11.4917 13.3046C11.4236 13.4393 11.3271 13.5441 11.2023 13.619C11.0775 13.6939 10.9299 13.7313 10.7597 13.7313ZM10.762 13.4022C10.8543 13.4022 10.9314 13.3769 10.9935 13.3262C11.0555 13.2747 11.1017 13.2059 11.1319 13.1196C11.1629 13.0334 11.1785 12.9373 11.1785 12.8314C11.1785 12.7247 11.1629 12.6283 11.1319 12.542C11.1017 12.455 11.0555 12.3858 10.9935 12.3343C10.9314 12.2829 10.8543 12.2572 10.762 12.2572C10.6674 12.2572 10.5887 12.2829 10.5259 12.3343C10.4639 12.3858 10.4174 12.455 10.3863 12.542C10.3561 12.6283 10.341 12.7247 10.341 12.8314C10.341 12.9373 10.3561 13.0334 10.3863 13.1196C10.4174 13.2059 10.4639 13.2747 10.5259 13.3262C10.5887 13.3769 10.6674 13.4022 10.762 13.4022ZM11.9436 13.6973V11.9542H12.3419V12.2447H12.3601C12.3919 12.1441 12.4463 12.0665 12.5235 12.0121C12.6014 11.9568 12.6903 11.9292 12.7902 11.9292C12.8129 11.9292 12.8382 11.9304 12.8662 11.9326C12.895 11.9341 12.9188 11.9368 12.9377 11.9406V12.3185C12.9203 12.3124 12.8927 12.3071 12.8549 12.3026C12.8178 12.2973 12.7819 12.2946 12.7471 12.2946C12.6722 12.2946 12.6048 12.3109 12.5451 12.3434C12.486 12.3752 12.4395 12.4195 12.4055 12.4762C12.3714 12.5329 12.3544 12.5984 12.3544 12.6725V13.6973H11.9436ZM14.1747 11.9542V12.2719H13.1726V11.9542H14.1747ZM13.42 11.5366H13.8308V13.173C13.8308 13.2282 13.8391 13.2706 13.8558 13.3001C13.8732 13.3288 13.8959 13.3485 13.9239 13.3591C13.9519 13.3697 13.9829 13.375 14.0169 13.375C14.0426 13.375 14.0661 13.3731 14.0873 13.3693C14.1092 13.3655 14.1259 13.3621 14.1372 13.3591L14.2064 13.6802C14.1845 13.6878 14.1531 13.6961 14.1122 13.7052C14.0721 13.7143 14.023 13.7196 13.9647 13.7211C13.8618 13.7241 13.7692 13.7086 13.6867 13.6746C13.6042 13.6398 13.5388 13.5861 13.4904 13.5134C13.4427 13.4408 13.4192 13.35 13.42 13.2411V11.5366Z" fill="white"/>
</g>
<defs>
<clipPath id="clip0_8742_53524">
<rect width="20" height="20" fill="white"/>
</clipPath>
</defs>
</svg>
