<svg width="31" height="31" viewBox="0 0 31 31" fill="none" xmlns="http://www.w3.org/2000/svg">
<g filter="url(#filter0_d_17111_205483)">
<rect width="21" height="21" rx="10.5" transform="matrix(4.37114e-08 -1 -1 -4.37114e-08 26 26)" fill="white"/>
<path d="M12.0003 15.5003C11.9997 15.6155 12.0217 15.7296 12.0653 15.8362C12.1088 15.9429 12.173 16.0398 12.2541 16.1216L17.5041 21.3716C17.6688 21.5363 17.8923 21.6289 18.1253 21.6289C18.3583 21.6289 18.5818 21.5363 18.7466 21.3716C18.9113 21.2068 19.0039 20.9833 19.0039 20.7503C19.0039 20.5173 18.9113 20.2938 18.7466 20.1291L14.1091 15.5003L18.7378 10.8716C18.8812 10.7042 18.9561 10.4889 18.9476 10.2687C18.9391 10.0484 18.8478 9.83954 18.6919 9.68371C18.5361 9.52787 18.3272 9.43658 18.107 9.42808C17.8868 9.41957 17.6715 9.49448 17.5041 9.63782L12.2541 14.8878C12.0924 15.0508 12.0013 15.2708 12.0003 15.5003Z" fill="#D6D6D9"/>
</g>
<defs>
<filter id="filter0_d_17111_205483" x="0" y="0" width="31" height="31" filterUnits="userSpaceOnUse" color-interpolation-filters="sRGB">
<feFlood flood-opacity="0" result="BackgroundImageFix"/>
<feColorMatrix in="SourceAlpha" type="matrix" values="0 0 0 0 0 0 0 0 0 0 0 0 0 0 0 0 0 0 127 0" result="hardAlpha"/>
<feOffset/>
<feGaussianBlur stdDeviation="2.5"/>
<feComposite in2="hardAlpha" operator="out"/>
<feColorMatrix type="matrix" values="0 0 0 0 0 0 0 0 0 0 0 0 0 0 0 0 0 0 0.02 0"/>
<feBlend mode="normal" in2="BackgroundImageFix" result="effect1_dropShadow_17111_205483"/>
<feBlend mode="normal" in="SourceGraphic" in2="effect1_dropShadow_17111_205483" result="shape"/>
</filter>
</defs>
</svg>
