<svg width="92" height="44" viewBox="0 0 92 44" fill="none" xmlns="http://www.w3.org/2000/svg">
<rect width="92" height="44" rx="22" fill="#F6F6F6"/>
<g clip-path="url(#clip0_8041_33600)">
<circle cx="28" cy="22" r="8.75" stroke="#0267D9" stroke-width="1.5"/>
<mask id="mask0_8041_33600" style="mask-type:luminance" maskUnits="userSpaceOnUse" x="12" y="6" width="32" height="32">
<path d="M12 6H44V38H12V6Z" fill="white"/>
</mask>
<g mask="url(#mask0_8041_33600)">
<path d="M31.0125 10.3301C32.1176 10.6153 33.1614 11.0531 34.1199 11.6199C34.1199 11.6199 34.5817 11.158 35.1004 10.6393C35.4771 10.2623 35.9881 10.0509 36.5209 10.0509C37.053 10.0509 37.5642 10.2623 37.9407 10.6393C38.3976 11.0963 38.9037 11.6023 39.3606 12.0593C39.7377 12.4358 39.9491 12.9469 39.9491 13.4791C39.9491 14.0119 39.7377 14.5229 39.3606 14.8995C38.8419 15.4182 38.3801 15.8801 38.3801 15.8801C38.9469 16.8386 39.3847 17.8824 39.6699 18.9875H41.0541C42.1633 18.9875 43.0625 19.8867 43.0625 20.9958V23.0042C43.0625 24.1133 42.1633 25.0125 41.0541 25.0125H39.6699C39.3847 26.1176 38.9469 27.1614 38.3801 28.1199C38.3801 28.1199 38.8419 28.5818 39.3606 29.1004C39.7377 29.4771 39.9491 29.9881 39.9491 30.5209C39.9491 31.0531 39.7377 31.5642 39.3606 31.9408C38.9037 32.3976 38.3976 32.9038 37.9407 33.3606C37.5642 33.7377 37.053 33.9491 36.5209 33.9491C35.9881 33.9491 35.4771 33.7377 35.1004 33.3606C34.5817 32.8419 34.1199 32.3801 34.1199 32.3801C33.1614 32.9469 32.1176 33.3848 31.0125 33.6699V35.0541C31.0125 36.1632 30.1132 37.0625 29.0041 37.0625H26.9958C25.8867 37.0625 24.9875 36.1632 24.9875 35.0541V33.6699C23.8824 33.3848 22.8386 32.9469 21.8801 32.3801C21.8801 32.3801 21.4182 32.8419 20.8995 33.3606C20.5229 33.7377 20.0118 33.9491 19.4791 33.9491C18.9469 33.9491 18.4358 33.7377 18.0593 33.3606C17.6024 32.9038 17.0963 32.3976 16.6393 31.9408C16.2623 31.5642 16.0509 31.0531 16.0509 30.5209C16.0509 29.9881 16.2623 29.4771 16.6393 29.1004C17.158 28.5818 17.6199 28.1199 17.6199 28.1199C17.0531 27.1614 16.6153 26.1176 16.3301 25.0125H14.9459C13.8368 25.0125 12.9375 24.1133 12.9375 23.0042V20.9958C12.9375 19.8867 13.8368 18.9875 14.9459 18.9875H16.3301C16.6153 17.8824 17.0531 16.8386 17.6199 15.8801C17.6199 15.8801 17.158 15.4182 16.6393 14.8995C16.2623 14.5229 16.0509 14.0119 16.0509 13.4791C16.0509 12.9469 16.2623 12.4358 16.6393 12.0593C17.0963 11.6023 17.6024 11.0963 18.0593 10.6393C18.4358 10.2623 18.9469 10.0509 19.4791 10.0509C20.0118 10.0509 20.5229 10.2623 20.8995 10.6393C21.4182 11.158 21.8801 11.6199 21.8801 11.6199C22.8386 11.0531 23.8824 10.6153 24.9875 10.3301V8.94581C24.9875 7.83669 25.8867 6.9375 26.9958 6.9375H29.0041C30.1132 6.9375 31.0125 7.83669 31.0125 8.94581V10.3301Z" stroke="#0267D9" stroke-width="1.5" stroke-miterlimit="10" stroke-linecap="round" stroke-linejoin="round"/>
</g>
<path d="M22.2076 19.8686L22.2076 19.8686L27.507 17.9812C27.507 17.9812 27.507 17.9812 27.507 17.9812C27.5897 17.9517 27.6803 17.9517 27.763 17.9812C27.763 17.9812 27.763 17.9812 27.763 17.9812L33.0624 19.8686C33.2113 19.9216 33.311 20.061 33.3109 20.2177C33.3108 20.3744 33.2109 20.5136 33.0619 20.5664L33.0483 20.5279L33.0619 20.5664L32.5099 20.7621V23.709L33.3849 24.5696C33.5323 24.7144 33.5323 24.9497 33.3849 25.0946L32.51 25.9551V26.67C32.51 26.8755 32.3408 27.0409 32.1335 27.0409C31.9262 27.0409 31.757 26.8755 31.757 26.67V25.9551L30.882 25.0946C30.882 25.0946 30.882 25.0946 30.882 25.0946C30.8113 25.0251 30.7715 24.9306 30.7715 24.8321C30.7715 24.7335 30.8114 24.6391 30.882 24.5696L31.757 23.709V21.0291L31.0222 21.2896V23.4142C31.0222 23.493 30.9968 23.5696 30.9497 23.6331L30.9497 23.6331C30.9239 23.6678 30.7077 23.9442 30.1724 24.2049C29.4942 24.5353 28.6156 24.7015 27.5631 24.7015C26.5098 24.7015 25.6354 24.535 24.9665 24.2038C24.4362 23.9413 24.2267 23.6619 24.2017 23.6266C24.2017 23.6266 24.2017 23.6266 24.2017 23.6266L22.2076 19.8686ZM22.2076 19.8686C22.0593 19.9215 21.9597 20.06 21.9591 20.2161L21.9591 20.2161M22.2076 19.8686L21.9591 20.2161M21.9591 20.2161C21.9585 20.3722 22.0571 20.5114 22.205 20.5653L22.205 20.5653M21.9591 20.2161L22.205 20.5653M22.205 20.5653L24.1339 21.268L22.205 20.5653ZM24.8868 23.2687V21.5423L27.4325 22.4698L27.4322 22.4705L27.4402 22.4718C27.4458 22.4726 27.4513 22.4743 27.4609 22.4772C27.4627 22.4778 27.4648 22.4784 27.467 22.4791C27.4796 22.4829 27.4954 22.4873 27.5154 22.49C27.5558 22.4954 27.6086 22.4931 27.6875 22.4719L27.6875 22.472L27.6905 22.4709L30.2693 21.5566L30.2693 23.2641C29.9897 23.5054 29.5747 23.6824 29.0908 23.7976C28.5995 23.9145 28.041 23.9669 27.4891 23.9599C26.9372 23.9528 26.3935 23.8864 25.9319 23.7664C25.4777 23.6483 25.1078 23.4795 24.8868 23.2687ZM27.5648 21.7271L23.4318 20.2214L27.635 18.7244L31.8249 20.2167L27.5648 21.7271ZM32.5861 24.8321L32.1335 25.2772L31.6808 24.8321L32.1335 24.3869L32.5861 24.8321Z" fill="#0267D9" stroke="#0267D9" stroke-width="0.0818182"/>
</g>
<path d="M68.0002 26.0002C67.8686 26.0009 67.7381 25.9757 67.6163 25.926C67.4944 25.8762 67.3836 25.8029 67.2902 25.7102L61.2902 19.7102C61.1019 19.5219 60.9961 19.2665 60.9961 19.0002C60.9961 18.7339 61.1019 18.4785 61.2902 18.2902C61.4785 18.1019 61.7339 17.9961 62.0002 17.9961C62.2665 17.9961 62.5219 18.1019 62.7102 18.2902L68.0002 23.5902L73.2902 18.3002C73.4815 18.1364 73.7276 18.0508 73.9792 18.0605C74.2309 18.0702 74.4697 18.1745 74.6477 18.3526C74.8258 18.5307 74.9302 18.7695 74.9399 19.0211C74.9496 19.2728 74.864 19.5189 74.7002 19.7102L68.7002 25.7102C68.5139 25.8949 68.2625 25.9991 68.0002 26.0002Z" fill="#3D3D3D"/>
<defs>
<clipPath id="clip0_8041_33600">
<rect width="32" height="32" fill="white" transform="translate(12 6)"/>
</clipPath>
</defs>
</svg>
