<svg width="32" height="32" viewBox="0 0 32 32" fill="none" xmlns="http://www.w3.org/2000/svg">
<g clip-path="url(#clip0_1649_8096)">
<mask id="mask0_1649_8096" style="mask-type:luminance" maskUnits="userSpaceOnUse" x="0" y="0" width="32" height="32">
<path d="M0 0H32V32H0V0Z" fill="white"/>
</mask>
<g mask="url(#mask0_1649_8096)">
<mask id="mask1_1649_8096" style="mask-type:luminance" maskUnits="userSpaceOnUse" x="0" y="0" width="32" height="32">
<path d="M0 0H32V32H0V0Z" fill="white"/>
</mask>
<g mask="url(#mask1_1649_8096)">
<path d="M27.6074 25.5238L22.5949 20.5126C23.9382 18.7327 24.665 16.5636 24.6653 14.3336C24.6653 8.63721 20.03 4.00195 14.3336 4.00195C8.63715 4.00195 4.00189 8.63721 4.00189 14.3336C4.00189 20.0301 8.63715 24.6653 14.3336 24.6653C16.6604 24.666 18.9186 23.8763 20.7379 22.4257L25.7224 27.4089C25.8459 27.5331 25.9928 27.6317 26.1545 27.699C26.3163 27.7662 26.4897 27.8009 26.6649 27.8009C26.8401 27.8009 27.0136 27.7662 27.1753 27.699C27.3371 27.6317 27.4839 27.5331 27.6074 27.4089C27.7314 27.2852 27.8297 27.1383 27.8967 26.9765C27.9638 26.8148 27.9983 26.6414 27.9983 26.4664C27.9983 26.2913 27.9638 26.1179 27.8967 25.9562C27.8297 25.7945 27.7314 25.6475 27.6074 25.5238ZM6.00157 14.3336C6.00404 12.1246 6.88267 10.0068 8.44469 8.44475C10.0067 6.88273 12.1245 6.0041 14.3336 6.00163C16.5426 6.0041 18.6604 6.88273 20.2225 8.44475C21.7845 10.0068 22.6631 12.1246 22.6656 14.3336C22.6631 16.5427 21.7845 18.6605 20.2225 20.2225C18.6604 21.7845 16.5426 22.6632 14.3336 22.6656C12.1245 22.6632 10.0067 21.7845 8.44469 20.2225C6.88267 18.6605 6.00404 16.5427 6.00157 14.3336Z" fill="#3D3D3D"/>
</g>
</g>
</g>
<defs>
<clipPath id="clip0_1649_8096">
<rect width="32" height="32" fill="white"/>
</clipPath>
</defs>
</svg>
