<svg width="20" height="20" viewBox="0 0 20 20" fill="none" xmlns="http://www.w3.org/2000/svg">
<path fill-rule="evenodd" clip-rule="evenodd" d="M13 14C13 14.5523 12.5523 15 12 15L6.41422 15L7.70711 16.2929C8.09763 16.6834 8.09763 17.3166 7.70711 17.7071C7.31658 18.0976 6.68342 18.0976 6.29289 17.7071L3.29289 14.7071C3.10536 14.5196 3 14.2652 3 14C3 13.7348 3.10536 13.4804 3.29289 13.2929L6.29289 10.2929C6.68342 9.90239 7.31658 9.90239 7.70711 10.2929C8.09763 10.6834 8.09763 11.3166 7.70711 11.7071L6.41422 13L12 13C12.5523 13 13 13.4477 13 14ZM7 5.99998C7 5.44768 7.44772 4.99998 8 4.99998L13.5858 4.99998L12.2929 3.70708C11.9024 3.31658 11.9024 2.68338 12.2929 2.29288C12.6834 1.90237 13.3166 1.90237 13.7071 2.29288L16.7071 5.29288C16.8946 5.48038 17 5.73478 17 5.99998C17 6.26518 16.8946 6.51958 16.7071 6.70708L13.7071 9.70709C13.3166 10.0976 12.6834 10.0976 12.2929 9.70709C11.9024 9.31659 11.9024 8.68339 12.2929 8.29288L13.5858 6.99998L8 6.99998C7.44772 6.99998 7 6.55228 7 5.99998Z" fill="#0267D9"/>
</svg>
