<svg width="89" height="44" viewBox="0 0 89 44" fill="none" xmlns="http://www.w3.org/2000/svg">
<rect width="89" height="44" rx="22" fill="#F6F6F6"/>
<path d="M26.9335 9.2002L20.8973 11.4641C20.0321 11.7885 20.0322 13.0123 20.8974 13.3367L22.667 14.0002V17.7336C22.667 20.0898 24.5774 22.0002 26.9335 22.0002C29.29 22.0002 31.2004 20.0898 31.2004 17.7336V14.0002L32.9699 13.3367C33.8351 13.0123 33.8352 11.7885 32.97 11.4641L26.9335 9.2002ZM29.067 17.7336C29.067 18.9103 28.1098 19.8671 26.9335 19.8671C25.7569 19.8671 24.8004 18.9103 24.8004 17.7336V14.8002L26.9335 15.6002L29.067 14.8002V17.7336ZM26.9335 13.3221L24.4756 12.4002L26.9335 11.4789L29.3911 12.4002L26.9335 13.3221Z" fill="#0267D9"/>
<path d="M39.7336 30.5328V28.3994H37.9605C37.8856 28.1555 37.7899 27.9223 37.6712 27.7034L38.9253 26.4493L37.4168 24.9408L36.1624 26.193C35.9416 26.0743 35.7102 25.9783 35.4664 25.9056V24.1328H33.3333V25.9056C33.0894 25.9786 32.8562 26.0743 32.6373 26.193L31.3832 24.9389L29.8747 26.4493L31.1269 27.7034C31.0082 27.9223 30.9122 28.1555 30.8395 28.3994H29.0664V30.5328H30.8395C30.9125 30.777 31.0082 31.008 31.1269 31.2288L29.8747 32.4832L31.3832 33.9914L32.635 32.7373C32.8558 32.856 33.0894 32.952 33.3333 33.0269V34.7997H35.4664V33.0269C35.7102 32.952 35.9413 32.856 36.1624 32.7373L37.4168 33.9914L38.9253 32.4832L37.6712 31.2288C37.7899 31.0083 37.8856 30.777 37.9605 30.5328H39.7336ZM34.3998 31.0663C33.5163 31.0663 32.7998 30.3495 32.7998 29.4659C32.7998 28.5827 33.5163 27.8659 34.3998 27.8659C35.2834 27.8659 35.9998 28.5827 35.9998 29.4659C35.9998 30.3495 35.2834 31.0663 34.3998 31.0663Z" fill="#0267D9"/>
<path d="M21.5991 24.1328C19.8391 24.1328 18.1165 25.5453 17.7712 27.2704L16.5208 33.5238C16.3888 34.1839 16.8936 34.7997 17.5668 34.7997C18.0753 34.7997 18.5131 34.4408 18.6128 33.9421L19.8631 27.689C20.0093 26.9578 20.8531 26.2659 21.5991 26.2659H27.9334C28.5225 26.2659 29 25.7884 29 25.1994C29 24.6103 28.5225 24.1328 27.9334 24.1328H21.5991Z" fill="#0267D9"/>
<path d="M65.0002 26.0002C64.8686 26.0009 64.7381 25.9757 64.6163 25.926C64.4944 25.8762 64.3836 25.8029 64.2902 25.7102L58.2902 19.7102C58.1019 19.5219 57.9961 19.2665 57.9961 19.0002C57.9961 18.7339 58.1019 18.4785 58.2902 18.2902C58.4785 18.1019 58.7339 17.9961 59.0002 17.9961C59.2665 17.9961 59.5219 18.1019 59.7102 18.2902L65.0002 23.5902L70.2902 18.3002C70.4815 18.1364 70.7276 18.0508 70.9792 18.0605C71.2309 18.0702 71.4697 18.1745 71.6477 18.3526C71.8258 18.5307 71.9302 18.7695 71.9399 19.0211C71.9496 19.2728 71.864 19.5189 71.7002 19.7102L65.7002 25.7102C65.5139 25.8949 65.2625 25.9991 65.0002 26.0002Z" fill="#3D3D3D"/>
</svg>
