<svg width="56" height="56" viewBox="0 0 56 56" fill="none" xmlns="http://www.w3.org/2000/svg">
<g id="top-three 1" clip-path="url(#clip0_4915_15454)">
<path id="Vector" d="M16.4617 52.6498H6.92822V39.4197C6.92822 39.1088 7.17572 38.8569 7.48091 38.8569H15.9089C16.2142 38.8569 16.4616 39.1089 16.4616 39.4197L16.4617 52.6498Z" fill="#FB2B3A"/>
<path id="Vector_2" d="M16.4617 39.4202V52.0588H13.7612V39.4202C13.7612 39.1083 13.5136 38.8574 13.2085 38.8574H15.909C16.2141 38.8574 16.4617 39.1084 16.4617 39.4202Z" fill="#E41F2D"/>
<path id="Vector_3" d="M32.9334 52.65H23.3999V30.1872C23.3999 29.8764 23.6474 29.6245 23.9526 29.6245H32.3806C32.6859 29.6245 32.9333 29.8765 32.9333 30.1872V52.65H32.9334Z" fill="#00C27A"/>
<path id="Vector_4" d="M32.9329 30.1877V52.059H30.2324V30.1877C30.2324 29.8759 29.9848 29.625 29.6797 29.625H32.3802C32.6852 29.625 32.9329 29.876 32.9329 30.1877Z" fill="#08B865"/>
<path id="Vector_5" d="M49.4046 52.65H39.8711V19.4997C39.8711 19.1889 40.1186 18.937 40.4238 18.937H48.8518C49.1571 18.937 49.4045 19.189 49.4045 19.4997V52.65H49.4046Z" fill="#8AC9FE"/>
<path id="Vector_6" d="M49.4045 19.5002V52.0591H46.7041V19.5002C46.7041 19.1884 46.4564 18.9375 46.1514 18.9375H48.8518C49.1569 18.9375 49.4045 19.1884 49.4045 19.5002Z" fill="#60B7FF"/>
<path id="Vector_7" d="M12.7812 22.0556L14.0797 24.7345C14.1649 24.9103 14.3296 25.0321 14.5202 25.0603L17.4237 25.49C18.4171 25.637 18.8137 26.8799 18.0948 27.5934L15.9939 29.6786C15.8561 29.8154 15.7931 30.0125 15.8257 30.2058L16.3216 33.1502C16.4914 34.1575 15.4529 34.9257 14.5643 34.4501L11.9673 33.0599C11.7969 32.9687 11.5933 32.9687 11.4229 33.0599L8.82584 34.4501C7.93735 34.9256 6.8989 34.1575 7.06852 33.1502L7.56449 30.2058C7.59704 30.0126 7.53409 29.8154 7.39627 29.6786L5.29531 27.5934C4.57644 26.8799 4.97315 25.637 5.96648 25.49L8.86999 25.0603C9.06055 25.0321 9.22523 24.9103 9.31042 24.7345L10.6089 22.0556C11.0533 21.139 12.3369 21.139 12.7812 22.0556Z" fill="#FE9901"/>
<path id="Vector_8" d="M15.9938 29.6786C15.8549 29.8158 15.7936 30.0114 15.8262 30.2049L16.3207 33.1508C16.4903 34.1577 15.4523 34.9254 14.5635 34.449L11.9665 33.0592C11.7968 32.9677 11.5925 32.9677 11.4229 33.0592L8.82587 34.449C7.93706 34.9254 6.89904 34.1577 7.06866 33.1508L7.18102 32.4788C7.24032 32.4601 7.29951 32.4331 7.35881 32.4018C7.74069 32.1971 8.12268 31.9924 8.50468 31.7876C9.08014 31.4792 9.65613 31.1642 10.2666 30.9322C10.7656 30.7426 11.2997 30.6683 11.8297 30.648C12.4019 30.6261 13.2476 31.0292 13.602 30.359C13.711 30.1528 13.6769 29.8646 13.7156 29.6406C13.8953 28.5993 14.4813 27.6726 15.2335 26.9404C15.7053 26.4826 16.1604 26.0077 16.6271 25.5446C16.676 25.4948 16.7211 25.4448 16.7578 25.3906L17.4239 25.4905C18.4169 25.6362 18.8133 26.8802 18.0941 27.5938L15.9938 29.6786Z" fill="#FB8801"/>
<path id="Vector_9" d="M29.2523 11.7846L30.5508 14.4635C30.636 14.6393 30.8007 14.7611 30.9912 14.7893L33.8948 15.219C34.8882 15.366 35.2848 16.6089 34.566 17.3224L32.4651 19.4076C32.3273 19.5444 32.2643 19.7415 32.2969 19.9348L32.7928 22.8792C32.9625 23.8865 31.9241 24.6547 31.0355 24.1791L28.4385 22.7889C28.2681 22.6977 28.0645 22.6977 27.8941 22.7889L25.297 24.1791C24.4085 24.6546 23.3701 23.8865 23.5397 22.8792L24.0357 19.9348C24.0682 19.7416 24.0053 19.5444 23.8675 19.4076L21.7665 17.3224C21.0476 16.6089 21.4443 15.366 22.4377 15.219L25.3412 14.7893C25.5317 14.7611 25.6964 14.6393 25.7816 14.4635L27.0801 11.7846C27.5244 10.868 28.8081 10.868 29.2523 11.7846Z" fill="#FE9901"/>
<path id="Vector_10" d="M32.4655 19.4081C32.3266 19.5453 32.2653 19.7409 32.2979 19.9344L32.7924 22.8803C32.962 23.8872 31.924 24.6549 31.0352 24.1784L28.4381 22.7887C28.2685 22.6972 28.0642 22.6972 27.8946 22.7887L25.2975 24.1784C24.4087 24.6549 23.3707 23.8872 23.5403 22.8803L23.6527 22.2083C23.712 22.1896 23.7712 22.1626 23.8305 22.1313C24.2124 21.9266 24.5944 21.7219 24.9764 21.5171C25.5518 21.2087 26.1278 20.8937 26.7383 20.6617C27.2373 20.4721 27.7714 20.3978 28.3014 20.3774C28.8736 20.3556 29.7192 20.7587 30.0736 20.0885C30.1827 19.8823 30.1486 19.5941 30.1873 19.3701C30.367 18.3287 30.953 17.4021 31.7052 16.6699C32.177 16.2121 32.6321 15.7372 33.0987 15.2741C33.1477 15.2242 33.1927 15.1743 33.2295 15.1201L33.8956 15.22C34.8886 15.3657 35.285 16.6097 34.5658 17.3233L32.4655 19.4081Z" fill="#FB8801"/>
<path id="Vector_11" d="M45.7242 0.810984L47.0227 3.48991C47.1079 3.66567 47.2726 3.78752 47.4631 3.81573L50.3666 4.24536C51.3601 4.39236 51.7567 5.6353 51.0378 6.34875L48.9368 8.43377C48.7989 8.57059 48.736 8.76769 48.7685 8.96095L49.2645 11.9053C49.4342 12.9127 48.3958 13.6809 47.5072 13.2053L44.9102 11.8151C44.7398 11.7239 44.5362 11.7239 44.3657 11.8151L41.7687 13.2053C40.8802 13.6808 39.8418 12.9127 40.0114 11.9053L40.5074 8.96095C40.5399 8.7678 40.477 8.57059 40.3391 8.43377L38.2382 6.34853C37.5193 5.63508 37.916 4.39214 38.9094 4.24514L41.8129 3.81552C42.0034 3.7873 42.1681 3.66545 42.2533 3.48969L43.5518 0.810766C43.9963 -0.105578 45.2799 -0.105578 45.7242 0.810984Z" fill="#FE9901"/>
<path id="Vector_12" d="M48.9372 8.43393C48.7983 8.5712 48.7369 8.76676 48.7696 8.96025L49.2641 11.9062C49.4337 12.9131 48.3957 13.6808 47.5068 13.2043L44.9098 11.8146C44.7402 11.7231 44.5359 11.7231 44.3663 11.8146L41.7692 13.2043C40.8804 13.6808 39.8424 12.9131 40.012 11.9062L40.1244 11.2342C40.1837 11.2154 40.2429 11.1884 40.3022 11.1572C40.6841 10.9525 41.066 10.7478 41.448 10.543C42.0235 10.2346 42.5995 9.91957 43.21 9.68759C43.7089 9.49793 44.243 9.42367 44.7731 9.40332C45.3453 9.38145 46.1909 9.78461 46.5453 9.11436C46.6543 8.90818 46.6203 8.61998 46.659 8.39598C46.8387 7.35462 47.4247 6.428 48.1768 5.69573C48.6486 5.238 49.1038 4.76309 49.5704 4.3C49.6194 4.25012 49.6644 4.20014 49.7012 4.146L50.3673 4.24586C51.3603 4.39154 51.7567 5.63557 51.0375 6.34914L48.9372 8.43393Z" fill="#FB8801"/>
<path id="Vector_13" d="M55.1138 55.8764H1.21919C0.913896 55.8764 0.666504 55.6244 0.666504 55.3136V52.6218C0.666504 52.311 0.914004 52.0591 1.21919 52.0591H55.1137C55.419 52.0591 55.6664 52.3111 55.6664 52.6218V55.3136C55.6665 55.6245 55.419 55.8764 55.1138 55.8764Z" fill="#5A5A5A"/>
</g>
<defs>
<clipPath id="clip0_4915_15454">
<rect width="55" height="56" fill="white" transform="translate(0.666504)"/>
</clipPath>
</defs>
</svg>
