<svg width="21" height="20" viewBox="0 0 21 20" fill="none" xmlns="http://www.w3.org/2000/svg">
<g clip-path="url(#clip0_1128_25981)">
<mask id="path-1-inside-1_1128_25981" fill="white">
<path d="M13.2775 7.24609C13.0188 7.24609 12.8091 7.45579 12.8091 7.71448V16.5669C12.8091 16.8255 13.0188 17.0353 13.2775 17.0353C13.5363 17.0353 13.7459 16.8255 13.7459 16.5669V7.71448C13.7459 7.45579 13.5363 7.24609 13.2775 7.24609ZM7.75061 7.24609C7.49192 7.24609 7.28223 7.45579 7.28223 7.71448V16.5669C7.28223 16.8255 7.49192 17.0353 7.75061 17.0353C8.00934 17.0353 8.21899 16.8255 8.21899 16.5669V7.71448C8.21899 7.45579 8.00934 7.24609 7.75061 7.24609Z"/>
</mask>
<path d="M13.2775 7.24609C13.0188 7.24609 12.8091 7.45579 12.8091 7.71448V16.5669C12.8091 16.8255 13.0188 17.0353 13.2775 17.0353C13.5363 17.0353 13.7459 16.8255 13.7459 16.5669V7.71448C13.7459 7.45579 13.5363 7.24609 13.2775 7.24609ZM7.75061 7.24609C7.49192 7.24609 7.28223 7.45579 7.28223 7.71448V16.5669C7.28223 16.8255 7.49192 17.0353 7.75061 17.0353C8.00934 17.0353 8.21899 16.8255 8.21899 16.5669V7.71448C8.21899 7.45579 8.00934 7.24609 7.75061 7.24609Z" fill="#DD2A2B"/>
<path d="M13.2775 6.04703C12.3566 6.04703 11.6101 6.79357 11.6101 7.71448H14.0082C14.0082 8.11801 13.6811 8.44515 13.2775 8.44515V6.04703ZM11.6101 7.71448V16.5669H14.0082V7.71448H11.6101ZM11.6101 16.5669C11.6101 17.4875 12.3564 18.2344 13.2775 18.2344V15.8362C13.6813 15.8362 14.0082 16.1635 14.0082 16.5669H11.6101ZM13.2775 18.2344C14.1988 18.2344 14.945 17.4874 14.945 16.5669H12.5469C12.5469 16.1636 12.8737 15.8362 13.2775 15.8362V18.2344ZM14.945 16.5669V7.71448H12.5469V16.5669H14.945ZM14.945 7.71448C14.945 6.79364 14.1986 6.04703 13.2775 6.04703V8.44515C12.874 8.44515 12.5469 8.11793 12.5469 7.71448H14.945ZM7.75061 6.04703C6.8297 6.04703 6.08317 6.79357 6.08317 7.71448H8.48129C8.48129 8.11801 8.15414 8.44515 7.75061 8.44515V6.04703ZM6.08317 7.71448V16.5669H8.48129V7.71448H6.08317ZM6.08317 16.5669C6.08317 17.4875 6.82946 18.2344 7.75061 18.2344V15.8362C8.15438 15.8362 8.48129 16.1635 8.48129 16.5669H6.08317ZM7.75061 18.2344C8.67188 18.2344 9.41805 17.4874 9.41805 16.5669H7.01993C7.01993 16.1636 7.34681 15.8362 7.75061 15.8362V18.2344ZM9.41805 16.5669V7.71448H7.01993V16.5669H9.41805ZM9.41805 7.71448C9.41805 6.79364 8.67165 6.04703 7.75061 6.04703V8.44515C7.34704 8.44515 7.01993 8.11793 7.01993 7.71448H9.41805Z" fill="#3D3D3D" mask="url(#path-1-inside-1_1128_25981)"/>
<mask id="path-3-inside-2_1128_25981" fill="white">
<path d="M3.72285 5.95419V17.4942C3.72285 18.1763 3.97297 18.8168 4.40988 19.2764C4.62501 19.5044 4.88437 19.6861 5.1721 19.8106C5.45984 19.935 5.76992 19.9994 6.08341 20H14.9454C15.2589 19.9995 15.569 19.935 15.8567 19.8106C16.1445 19.6862 16.4038 19.5044 16.6189 19.2764C17.0559 18.8168 17.306 18.1763 17.306 17.4942V5.95419C18.1745 5.72365 18.7373 4.88459 18.6211 3.9934C18.5047 3.10235 17.7456 2.43584 16.8469 2.43565H14.4488V1.85017C14.4502 1.60644 14.4031 1.36487 14.3103 1.13949C14.2175 0.914104 14.0809 0.709396 13.9084 0.537249C13.7358 0.365119 13.5307 0.228993 13.3051 0.136776C13.0794 0.0445581 12.8377 -0.0019131 12.594 6.07144e-05H8.43488C8.19113 -0.00191931 7.94941 0.0445489 7.72377 0.136767C7.49812 0.228984 7.29305 0.365114 7.12045 0.537249C6.94791 0.709396 6.81128 0.914104 6.7185 1.13949C6.62572 1.36487 6.57864 1.60644 6.57999 1.85017V2.43565H4.18196C3.28323 2.43584 2.52412 3.10235 2.40773 3.9934C2.29157 4.88459 2.85433 5.72365 3.72285 5.95419ZM14.9454 19.0632H6.08345C5.28261 19.0632 4.65962 18.3753 4.65962 17.4942V5.99536H16.3692V17.4942C16.3692 18.3753 15.7462 19.0632 14.9454 19.0632ZM7.51675 1.85017C7.51522 1.72942 7.53797 1.60958 7.58364 1.49779C7.6293 1.38599 7.69697 1.2845 7.78261 1.19936C7.86822 1.11416 7.97007 1.04702 8.08211 1.00193C8.19416 0.95683 8.31412 0.934693 8.43488 0.936827H12.594C12.7147 0.934693 12.8347 0.95683 12.9467 1.00193C13.0588 1.04702 13.1606 1.11416 13.2462 1.19936C13.3319 1.2845 13.3996 1.38598 13.4452 1.49778C13.4909 1.60958 13.5136 1.72942 13.5121 1.85017V2.43565H7.51675V1.85017ZM4.18196 3.37242H16.847C17.3126 3.37242 17.6901 3.74989 17.6901 4.21551C17.6901 4.68113 17.3126 5.0586 16.847 5.0586H4.18191C3.71629 5.0586 3.33882 4.68113 3.33882 4.21551C3.33882 3.74989 3.71634 3.37242 4.18196 3.37242Z"/>
</mask>
<path d="M3.72285 5.95419V17.4942C3.72285 18.1763 3.97297 18.8168 4.40988 19.2764C4.62501 19.5044 4.88437 19.6861 5.1721 19.8106C5.45984 19.935 5.76992 19.9994 6.08341 20H14.9454C15.2589 19.9995 15.569 19.935 15.8567 19.8106C16.1445 19.6862 16.4038 19.5044 16.6189 19.2764C17.0559 18.8168 17.306 18.1763 17.306 17.4942V5.95419C18.1745 5.72365 18.7373 4.88459 18.6211 3.9934C18.5047 3.10235 17.7456 2.43584 16.8469 2.43565H14.4488V1.85017C14.4502 1.60644 14.4031 1.36487 14.3103 1.13949C14.2175 0.914104 14.0809 0.709396 13.9084 0.537249C13.7358 0.365119 13.5307 0.228993 13.3051 0.136776C13.0794 0.0445581 12.8377 -0.0019131 12.594 6.07144e-05H8.43488C8.19113 -0.00191931 7.94941 0.0445489 7.72377 0.136767C7.49812 0.228984 7.29305 0.365114 7.12045 0.537249C6.94791 0.709396 6.81128 0.914104 6.7185 1.13949C6.62572 1.36487 6.57864 1.60644 6.57999 1.85017V2.43565H4.18196C3.28323 2.43584 2.52412 3.10235 2.40773 3.9934C2.29157 4.88459 2.85433 5.72365 3.72285 5.95419ZM14.9454 19.0632H6.08345C5.28261 19.0632 4.65962 18.3753 4.65962 17.4942V5.99536H16.3692V17.4942C16.3692 18.3753 15.7462 19.0632 14.9454 19.0632ZM7.51675 1.85017C7.51522 1.72942 7.53797 1.60958 7.58364 1.49779C7.6293 1.38599 7.69697 1.2845 7.78261 1.19936C7.86822 1.11416 7.97007 1.04702 8.08211 1.00193C8.19416 0.95683 8.31412 0.934693 8.43488 0.936827H12.594C12.7147 0.934693 12.8347 0.95683 12.9467 1.00193C13.0588 1.04702 13.1606 1.11416 13.2462 1.19936C13.3319 1.2845 13.3996 1.38598 13.4452 1.49778C13.4909 1.60958 13.5136 1.72942 13.5121 1.85017V2.43565H7.51675V1.85017ZM4.18196 3.37242H16.847C17.3126 3.37242 17.6901 3.74989 17.6901 4.21551C17.6901 4.68113 17.3126 5.0586 16.847 5.0586H4.18191C3.71629 5.0586 3.33882 4.68113 3.33882 4.21551C3.33882 3.74989 3.71634 3.37242 4.18196 3.37242Z" fill="#DD2A2B"/>
<path d="M3.72285 5.95419H4.92191V5.03189L4.03047 4.79526L3.72285 5.95419ZM4.40988 19.2764L5.28202 18.4535L5.2789 18.4502L4.40988 19.2764ZM6.08341 20L6.08124 21.1991H6.08341V20ZM14.9454 20V21.1991L14.9474 21.1991L14.9454 20ZM16.6189 19.2764L15.7499 18.4501L15.7467 18.4536L16.6189 19.2764ZM17.306 5.95419L16.9983 4.79526L16.1069 5.03189V5.95419H17.306ZM18.6211 3.9934L19.8101 3.83842L19.8101 3.83809L18.6211 3.9934ZM16.8469 2.43565L16.8471 1.23659H16.8469V2.43565ZM14.4488 2.43565H13.2498V3.63471H14.4488V2.43565ZM14.4488 1.85017L13.2498 1.84354V1.85017H14.4488ZM13.9084 0.537249L14.7552 -0.311594L14.7551 -0.311741L13.9084 0.537249ZM12.594 6.07144e-05V1.19916L12.6037 1.19908L12.594 6.07144e-05ZM8.43488 6.07144e-05L8.42514 1.19912H8.43488V6.07144e-05ZM7.12045 0.537249L6.27372 -0.311741L6.27357 -0.311594L7.12045 0.537249ZM6.57999 1.85017H7.77907L7.77903 1.84354L6.57999 1.85017ZM6.57999 2.43565V3.63471H7.77905V2.43565H6.57999ZM4.18196 2.43565V1.23659H4.18171L4.18196 2.43565ZM2.40773 3.9934L1.21877 3.83809L1.21872 3.83842L2.40773 3.9934ZM4.65962 5.99536V4.7963H3.46056V5.99536H4.65962ZM16.3692 5.99536H17.5683V4.7963H16.3692V5.99536ZM7.51675 1.85017H8.71581V1.84258L8.71572 1.83498L7.51675 1.85017ZM7.78261 1.19936L8.62802 2.04966L8.6284 2.04928L7.78261 1.19936ZM8.43488 0.936827L8.41369 2.1357L8.42428 2.13589H8.43488V0.936827ZM12.594 0.936827V2.13589H12.6046L12.6152 2.1357L12.594 0.936827ZM13.2462 1.19936L12.4005 2.04928L12.4009 2.04971L13.2462 1.19936ZM13.5121 1.85017L12.3131 1.83476L12.313 1.84247V1.85017H13.5121ZM13.5121 2.43565V3.63471H14.7111V2.43565H13.5121ZM7.51675 2.43565H6.31769V3.63471H7.51675V2.43565ZM2.52379 5.95419V17.4942H4.92191V5.95419H2.52379ZM2.52379 17.4942C2.52379 18.4646 2.87923 19.4066 3.54085 20.1025L5.2789 18.4502C5.06671 18.227 4.92191 17.8879 4.92191 17.4942H2.52379ZM3.53774 20.0992C3.86471 20.4458 4.25889 20.722 4.69621 20.9111L5.648 18.71C5.50984 18.6502 5.38531 18.563 5.28201 18.4535L3.53774 20.0992ZM4.69621 20.9111C5.13352 21.1002 5.60479 21.1982 6.08124 21.1991L6.08558 18.801C5.93505 18.8007 5.78617 18.7697 5.648 18.71L4.69621 20.9111ZM6.08341 21.1991H14.9454V18.801H6.08341V21.1991ZM14.9474 21.1991C15.4239 21.1983 15.8953 21.1003 16.3326 20.9112L15.3808 18.71C15.2427 18.7698 15.0939 18.8007 14.9434 18.801L14.9474 21.1991ZM16.3326 20.9112C16.77 20.7221 17.1642 20.4458 17.4912 20.0991L15.7467 18.4536C15.6434 18.5631 15.519 18.6503 15.3808 18.71L16.3326 20.9112ZM17.4879 20.1026C18.1497 19.4066 18.505 18.4646 18.505 17.4942H16.1069C16.1069 17.888 15.9621 18.227 15.75 18.4502L17.4879 20.1026ZM18.505 17.4942V5.95419H16.1069V17.4942H18.505ZM17.6136 7.11312C19.0643 6.72806 20.0041 5.32667 19.8101 3.83842L17.4321 4.14838C17.4705 4.44251 17.2847 4.71925 16.9983 4.79526L17.6136 7.11312ZM19.8101 3.83809C19.6157 2.34995 18.3479 1.2369 16.8471 1.23659L16.8466 3.63471C17.1434 3.63477 17.3938 3.85475 17.4322 4.14871L19.8101 3.83809ZM16.8469 1.23659H14.4488V3.63471H16.8469V1.23659ZM15.6479 2.43565V1.85017H13.2498V2.43565H15.6479ZM15.6479 1.85681C15.6501 1.45426 15.5723 1.05529 15.4191 0.683054L13.2015 1.59592C13.2338 1.67445 13.2503 1.75862 13.2498 1.84354L15.6479 1.85681ZM15.4191 0.683054C15.2659 0.310812 15.0402 -0.0272804 14.7552 -0.311594L13.0615 1.38609C13.1216 1.44607 13.1692 1.5174 13.2015 1.59592L15.4191 0.683054ZM14.7551 -0.311741C14.47 -0.596029 14.1314 -0.820855 13.7587 -0.973162L12.8514 1.24671C12.93 1.27884 13.0015 1.32627 13.0616 1.38624L14.7551 -0.311741ZM13.7587 -0.973162C13.386 -1.12547 12.9868 -1.20222 12.5843 -1.19896L12.6037 1.19908C12.6886 1.19839 12.7728 1.21458 12.8514 1.24671L13.7587 -0.973162ZM12.594 -1.199H8.43488V1.19912H12.594V-1.199ZM8.44462 -1.19896C8.04204 -1.20223 7.64282 -1.12548 7.27015 -0.973177L8.17739 1.24671C8.256 1.21458 8.34021 1.19839 8.42514 1.19908L8.44462 -1.19896ZM7.27015 -0.973177C6.89747 -0.820871 6.55877 -0.59604 6.27372 -0.31174L7.96719 1.38624C8.02732 1.32627 8.09877 1.27884 8.17739 1.24671L7.27015 -0.973177ZM6.27357 -0.311594C5.9886 -0.027279 5.76295 0.310813 5.60971 0.683054L7.82729 1.59592C7.85962 1.51739 7.90722 1.44607 7.96734 1.38609L6.27357 -0.311594ZM5.60971 0.683054C5.45648 1.0553 5.37872 1.45427 5.38095 1.85681L7.77903 1.84354C7.77856 1.75862 7.79496 1.67445 7.82729 1.59592L5.60971 0.683054ZM5.38093 1.85017V2.43565H7.77905V1.85017H5.38093ZM6.57999 1.23659H4.18196V3.63471H6.57999V1.23659ZM4.18171 1.23659C2.68096 1.2369 1.41315 2.34995 1.21877 3.83809L3.59669 4.14871C3.63508 3.85475 3.88549 3.63477 4.18221 3.63471L4.18171 1.23659ZM1.21872 3.83842C1.02475 5.32663 1.96451 6.72805 3.41523 7.11312L4.03047 4.79526C3.74415 4.71926 3.55838 4.44256 3.59673 4.14838L1.21872 3.83842ZM14.9454 17.8642H6.08345V20.2623H14.9454V17.8642ZM6.08345 17.8642C6.04219 17.8642 6.00238 17.851 5.95944 17.8036C5.91306 17.7525 5.85868 17.6513 5.85868 17.4942H3.46056C3.46056 18.9245 4.51278 20.2623 6.08345 20.2623V17.8642ZM5.85868 17.4942V5.99536H3.46056V17.4942H5.85868ZM4.65962 7.19442H16.3692V4.7963H4.65962V7.19442ZM15.1701 5.99536V17.4942H17.5683V5.99536H15.1701ZM15.1701 17.4942C15.1701 17.6514 15.1157 17.7525 15.0694 17.8037C15.0265 17.851 14.9867 17.8642 14.9454 17.8642V20.2623C16.5161 20.2623 17.5683 18.9245 17.5683 17.4942H15.1701ZM8.71572 1.83498C8.71622 1.87481 8.70872 1.91434 8.69366 1.95122L6.47362 1.04435C6.36721 1.30483 6.31422 1.58402 6.31779 1.86537L8.71572 1.83498ZM8.69366 1.95122C8.67859 1.9881 8.65627 2.02158 8.62802 2.04966L6.9372 0.349048C6.73766 0.547431 6.58002 0.783876 6.47362 1.04435L8.69366 1.95122ZM8.6284 2.04928C8.60022 2.07733 8.5667 2.09943 8.52981 2.11427L7.63441 -0.110418C7.37344 -0.00538066 7.13622 0.150993 6.93681 0.34943L8.6284 2.04928ZM8.52981 2.11427C8.49293 2.12912 8.45344 2.1364 8.41369 2.1357L8.45607 -0.262046C8.17479 -0.267017 7.89538 -0.215455 7.63441 -0.110418L8.52981 2.11427ZM8.43488 2.13589H12.594V-0.262234H8.43488V2.13589ZM12.6152 2.1357C12.5754 2.1364 12.5359 2.12912 12.499 2.11427L13.3944 -0.110418C13.1335 -0.215455 12.8541 -0.267017 12.5728 -0.262046L12.6152 2.1357ZM12.499 2.11427C12.4622 2.09943 12.4286 2.07733 12.4005 2.04928L14.092 0.34943C13.8926 0.150992 13.6554 -0.00538116 13.3944 -0.110418L12.499 2.11427ZM12.4009 2.04971C12.3726 2.02159 12.3502 1.98807 12.3352 1.95115L14.5553 1.04442C14.4489 0.783893 14.2912 0.547405 14.0916 0.348997L12.4009 2.04971ZM12.3352 1.95115C12.3201 1.91422 12.3126 1.87464 12.3131 1.83476L14.711 1.86559C14.7146 1.58419 14.6617 1.30494 14.5553 1.04442L12.3352 1.95115ZM12.313 1.85017V2.43565H14.7111V1.85017H12.313ZM13.5121 1.23659H7.51675V3.63471H13.5121V1.23659ZM8.71581 2.43565V1.85017H6.31769V2.43565H8.71581ZM4.18196 4.57148H16.847V2.17336H4.18196V4.57148ZM16.847 4.57148C16.6504 4.57148 16.491 4.41211 16.491 4.21551H18.8891C18.8891 3.08767 17.9748 2.17336 16.847 2.17336V4.57148ZM16.491 4.21551C16.491 4.0189 16.6504 3.85954 16.847 3.85954V6.25766C17.9748 6.25766 18.8891 5.34335 18.8891 4.21551H16.491ZM16.847 3.85954H4.18191V6.25766H16.847V3.85954ZM4.18191 3.85954C4.37852 3.85954 4.53788 4.0189 4.53788 4.21551H2.13976C2.13976 5.34335 3.05407 6.25766 4.18191 6.25766V3.85954ZM4.53788 4.21551C4.53788 4.4122 4.37848 4.57148 4.18196 4.57148V2.17336C3.05421 2.17336 2.13976 3.08758 2.13976 4.21551H4.53788Z" fill="#3D3D3D" mask="url(#path-3-inside-2_1128_25981)"/>
<mask id="path-5-inside-3_1128_25981" fill="white">
<path d="M10.5143 7.24609C10.2556 7.24609 10.0459 7.45579 10.0459 7.71448V16.5669C10.0459 16.8255 10.2556 17.0353 10.5143 17.0353C10.773 17.0353 10.9827 16.8255 10.9827 16.5669V7.71448C10.9827 7.45579 10.773 7.24609 10.5143 7.24609Z"/>
</mask>
<path d="M10.5143 7.24609C10.2556 7.24609 10.0459 7.45579 10.0459 7.71448V16.5669C10.0459 16.8255 10.2556 17.0353 10.5143 17.0353C10.773 17.0353 10.9827 16.8255 10.9827 16.5669V7.71448C10.9827 7.45579 10.773 7.24609 10.5143 7.24609Z" fill="#DD2A2B"/>
<path d="M10.5143 6.04703C9.59337 6.04703 8.84684 6.79357 8.84684 7.71448H11.245C11.245 8.11801 10.9178 8.44515 10.5143 8.44515V6.04703ZM8.84684 7.71448V16.5669H11.245V7.71448H8.84684ZM8.84684 16.5669C8.84684 17.4875 9.59314 18.2344 10.5143 18.2344V15.8362C10.9181 15.8362 11.245 16.1635 11.245 16.5669H8.84684ZM10.5143 18.2344C11.4356 18.2344 12.1817 17.4874 12.1817 16.5669H9.7836C9.7836 16.1636 10.1105 15.8362 10.5143 15.8362V18.2344ZM12.1817 16.5669V7.71448H9.7836V16.5669H12.1817ZM12.1817 7.71448C12.1817 6.79364 11.4353 6.04703 10.5143 6.04703V8.44515C10.1107 8.44515 9.7836 8.11793 9.7836 7.71448H12.1817Z" fill="#3D3D3D" mask="url(#path-5-inside-3_1128_25981)"/>
</g>
<defs>
<clipPath id="clip0_1128_25981">
<rect width="20" height="20" fill="white" transform="translate(0.517578)"/>
</clipPath>
</defs>
</svg>
