<svg width="17" height="16" viewBox="0 0 17 16" fill="none" xmlns="http://www.w3.org/2000/svg">
<g clip-path="url(#clip0_3667_3904)">
<path d="M8.49997 5.42383C7.07932 5.42383 5.92505 6.5781 5.92505 7.99875C5.92505 9.41939 7.07932 10.5737 8.49997 10.5737C9.92061 10.5737 11.0749 9.41939 11.0749 7.99875C11.0749 6.5781 9.92061 5.42383 8.49997 5.42383ZM8.30463 7.23515C7.98498 7.23515 7.71861 7.50152 7.71861 7.82116H6.86623C6.88398 7.02205 7.52327 6.38276 8.30463 6.38276V7.23515Z" fill="#012D5E"/>
<path d="M16.3135 7.4667C15.4434 6.38346 12.3357 2.84961 8.5 2.84961C4.66426 2.84961 1.5566 6.38346 0.68646 7.4667C0.437847 7.76859 0.437847 8.21254 0.68646 8.53218C1.5566 9.61543 4.66426 13.1493 8.5 13.1493C12.3357 13.1493 15.4434 9.61543 16.3135 8.53218C16.5622 8.2303 16.5622 7.78635 16.3135 7.4667ZM8.5 11.7286C6.44007 11.7286 4.77081 10.0594 4.77081 7.99944C4.77081 5.93951 6.44007 4.27025 8.5 4.27025C10.5599 4.27025 12.2292 5.93951 12.2292 7.99944C12.2292 10.0594 10.5599 11.7286 8.5 11.7286Z" fill="#012D5E"/>
</g>
<defs>
<clipPath id="clip0_3667_3904">
<rect width="16" height="16" fill="white" transform="translate(0.5)"/>
</clipPath>
</defs>
</svg>
