<svg width="245" height="159" viewBox="0 0 245 159" fill="none" xmlns="http://www.w3.org/2000/svg">
<path d="M30.2772 90.2624H74.3421C79.2778 90.2624 83.7663 88.2508 86.9928 85.0167C90.0699 81.9472 92.0321 77.7745 92.2424 73.1644H70.7615C67.4649 73.1644 64.7852 70.4886 64.7852 67.192C64.7852 63.8954 67.4648 61.2157 70.7615 61.2157H92.2424C92.0342 56.6039 90.0699 52.433 87.0156 49.3862C83.7663 46.1332 79.2773 44.1177 74.3421 44.1177H30.2772C25.3415 44.1177 20.8569 46.1332 17.6304 49.3635C14.3754 52.6127 12.3619 57.1017 12.3619 62.0369V72.3486C12.3619 77.2843 14.3735 81.7689 17.6038 84.9954C20.8568 88.2504 25.342 90.2639 30.2772 90.2639V90.2624ZM145.438 153.499C145.822 155.709 144.342 157.817 142.132 158.203C139.922 158.588 137.813 157.108 137.427 154.897L132.134 124.876C131.75 122.666 133.23 120.557 135.44 120.171C137.651 119.787 139.759 121.267 140.145 123.477L145.438 153.499ZM78.7279 133.542C77.0096 134.98 74.4473 134.749 73.0089 133.032C71.5706 131.314 71.8015 128.752 73.518 127.313L96.8684 107.716C98.5867 106.277 101.149 106.508 102.587 108.225C104.026 109.943 103.795 112.505 102.078 113.944L78.7279 133.542ZM111.198 147.528C110.435 149.633 108.109 150.723 106.003 149.96C103.899 149.197 102.809 146.872 103.571 144.765L113.998 116.122C114.761 114.017 117.087 112.927 119.193 113.69C121.297 114.453 122.387 116.778 121.625 118.885L111.198 147.528ZM169.72 13.9486C171.149 12.2302 173.706 11.9937 175.424 13.4225C177.142 14.8513 177.379 17.4079 175.95 19.126L156.464 42.5714C155.035 44.2897 152.478 44.5263 150.76 43.0975C149.042 41.6687 148.805 39.112 150.234 37.3939L169.72 13.9486ZM100.52 6.19335C99.752 4.08896 100.831 1.75183 102.937 0.983475C105.041 0.215172 107.378 1.29383 108.147 3.4001L118.709 31.9943C119.477 34.0987 118.398 36.4358 116.292 37.2042C114.187 37.9725 111.85 36.8938 111.082 34.7876L100.52 6.19335ZM135.271 5.95868C135.645 3.74834 137.748 2.26091 139.958 2.63559C142.168 3.01029 143.656 5.11277 143.281 7.32311L138.128 37.3707C137.753 39.581 135.651 41.0685 133.44 40.6938C131.23 40.3191 129.743 38.2166 130.117 36.0063L135.271 5.95868ZM180.096 85.1919C182.944 86.8383 183.913 90.489 182.265 93.3352C180.618 96.1814 176.968 97.1522 174.122 95.5039L155.512 84.7605C153.39 88.8425 153.015 93.4561 154.14 97.6573C155.332 102.105 158.203 106.107 162.449 108.552L200.638 130.585C204.886 133.043 209.784 133.53 214.227 132.341C218.627 131.166 222.597 128.324 225.065 124.118L230.283 115.082C232.741 110.834 233.227 105.936 232.039 101.487C230.847 97.0497 227.97 93.0511 223.709 90.5891L185.545 68.5559C181.292 66.1014 176.393 65.6113 171.946 66.7997C167.741 67.9276 163.93 70.5618 161.458 74.4319L180.099 85.1922L180.096 85.1919ZM145.188 78.7956L134.008 72.3426C131.162 70.6962 130.195 67.0455 131.839 64.1993C133.486 61.3513 137.136 60.3823 139.983 62.0306L151.159 68.4836C155.292 61.7351 161.749 57.186 168.87 55.2744C176.253 53.2968 184.398 54.1313 191.523 58.2417L229.661 80.2748C236.797 84.3833 241.591 91.0293 243.564 98.4081C245.532 105.775 244.705 113.907 240.597 121.03L235.202 130.39C231.08 137.276 224.543 141.926 217.309 143.86C210.098 145.796 202.148 145.035 195.141 141.156L156.526 118.859C149.393 114.749 144.596 108.095 142.623 100.73C140.709 93.5937 141.426 85.7435 145.192 78.793L145.188 78.7956ZM104.195 61.2093H117.081C120.377 61.2093 123.053 63.8889 123.053 67.1855C123.053 70.4821 120.377 73.158 117.081 73.158H104.195C103.981 81.0207 100.677 88.1704 95.4577 93.3991L95.4199 93.437C90.0036 98.8455 82.5343 102.205 74.3459 102.205H30.281C22.0961 102.205 14.6306 98.8494 9.22209 93.4505L9.18424 93.4127C3.77574 88.0003 0.416504 80.5271 0.416504 72.3407V62.029C0.416504 53.8426 3.77177 46.3785 9.17067 40.97L9.20852 40.9322C14.6209 35.5237 22.0903 32.1644 30.2805 32.1644H74.3455C82.5318 32.1644 89.9959 35.5159 95.4044 40.9147L95.4422 40.9526C100.669 46.1852 103.981 53.3402 104.196 61.2073L104.195 61.2093Z" fill="url(#paint0_radial_4264_86456)"/>
<defs>
<radialGradient id="paint0_radial_4264_86456" cx="0" cy="0" r="1" gradientUnits="userSpaceOnUse" gradientTransform="translate(123 63) rotate(48.3067) scale(79.6822 123.506)">
<stop stop-color="#E05959"/>
<stop offset="1" stop-color="#FFA39E"/>
</radialGradient>
</defs>
</svg>
